<svg width="160" height="80" viewBox="0 0 160 80" fill="none" xmlns="http://www.w3.org/2000/svg">
<path d="M46.7747 20.7368H49.1852V23.3654C49.1852 23.3654 48.2813 22.976 47.98 22.7813C47.3773 22.3919 46.7747 20.7368 46.7747 20.7368Z" fill="#F3BDC8"/>
<path d="M68.7713 29.1095C68.7713 30.7645 68.47 32.2249 67.8673 33.3931C67.2647 34.5614 66.4612 35.535 65.3563 36.2165C64.3519 36.898 63.1466 37.4821 61.7404 37.7742C60.3343 38.1636 58.8276 38.261 57.2206 38.261V44.1023H49.1853V19.7633H57.2206C58.8276 19.7633 60.3343 19.958 61.7404 20.2501C63.1466 20.6395 64.3519 21.1263 65.3563 21.8078C66.3607 22.4893 67.2647 23.4628 67.8673 24.6311C68.47 25.9941 68.7713 27.3571 68.7713 29.1095ZM65.055 29.1095C65.055 28.0386 64.8541 27.065 64.4523 26.2862C64.0506 25.5073 63.5484 24.8258 62.8453 24.339C62.1422 23.8523 61.3387 23.4628 60.3343 23.1708C59.3299 22.8787 58.3254 22.7813 57.2206 22.7813H53.0021V41.279H54.0065V35.4376H57.2206C58.3254 35.4376 59.4303 35.3403 60.3343 35.0482C61.3387 34.7561 62.1422 34.3667 62.8453 33.8799C63.5484 33.3931 64.0506 32.7117 64.4523 31.9328C64.8541 31.154 65.055 30.1804 65.055 29.1095ZM64.0506 29.1095C64.0506 30.1804 63.8497 31.0566 63.4479 31.7381C63.0462 32.4196 62.544 33.0037 61.9413 33.3931C61.3387 33.7826 60.6356 34.0746 59.7316 34.2694C58.9281 34.4641 58.0241 34.5614 57.1202 34.5614H53.8056V23.5602H57.2206C58.1246 23.5602 59.0285 23.6575 59.8321 23.8523C60.6356 24.047 61.3387 24.339 62.0418 24.7285C62.6444 25.1179 63.1466 25.702 63.5484 26.3835C63.8497 27.1624 64.0506 28.0386 64.0506 29.1095ZM57.2206 31.7381H57.5219C58.5263 31.7381 59.3299 31.5434 59.8321 31.0566C60.3343 30.5698 60.5351 29.8883 60.5351 29.1095C60.5351 28.2333 60.3343 27.5518 59.8321 27.1624C59.3299 26.6756 58.6268 26.4809 57.5219 26.4809H57.2206V31.7381Z" fill="white"/>
<path d="M70.5791 19.7633H79.1166V44.1023H70.5791V19.7633ZM75.4003 41.1816V22.684H74.3959V41.1816H75.4003Z" fill="white"/>
<path d="M81.728 19.7633H88.3571L95.2876 29.1095V19.7633H103.122V44.1023H96.4929L89.5624 34.7561V44.1023H81.728V19.7633ZM86.2479 41.1816V24.339L98.7026 41.1816H99.707V22.684H98.7026V39.5266L86.2479 22.684H85.2435V41.1816H86.2479Z" fill="white"/>
<path d="M105.734 19.7633H113.869V25.41L118.59 19.7633H128.433L119.595 30.8619L128.936 44.1023H119.293L113.97 36.6059V44.1023H105.834V19.7633H105.734ZM110.454 41.1816V36.2165L114.372 31.5434L121.202 41.1816H122.407L115.075 30.7645L121.804 22.684H120.599L110.454 34.8535V22.684H109.45V41.1816H110.454Z" fill="white"/>
<path d="M49.5872 51.4039H54.8101V62.6972H59.2295V66.6888H49.6876V51.4039H49.5872ZM57.8233 64.7417V64.2549H52.4999V53.1563H51.8973V64.7417H57.8233Z" fill="white"/>
<path d="M60.033 51.4039H65.3563V66.6888H60.033V51.4039ZM62.9458 64.7417V53.1563H62.3431V64.7417H62.9458Z" fill="white"/>
<path d="M66.9635 51.4039H73.0904C73.8939 51.4039 74.597 51.5013 75.1996 51.696C75.8023 51.8907 76.4049 52.0854 76.9071 52.4748C77.4093 52.8643 77.7107 53.2537 78.012 53.7405C78.3133 54.2273 78.4138 54.8114 78.4138 55.4929C78.4138 55.9797 78.3133 56.3691 78.2129 56.7585C78.1124 57.1479 77.9116 57.3426 77.8111 57.6347C77.6102 57.9268 77.4093 58.1215 77.2085 58.3162C77.5098 58.5109 77.9116 58.803 78.1124 59.0951C78.3133 59.3871 78.5142 59.7765 78.7151 60.166C78.916 60.5554 79.0164 61.1395 79.0164 61.821C79.0164 62.5999 78.916 63.184 78.6146 63.7681C78.3133 64.3523 78.012 64.8391 77.5098 65.3258C77.0076 65.7153 76.4049 66.1047 75.7019 66.2994C74.9988 66.4941 74.1952 66.5915 73.2913 66.5915H66.863V51.4039H66.9635ZM72.7891 64.7417C74.1952 64.7417 75.1996 64.4496 75.9027 63.8655C76.6058 63.2814 76.9071 62.5025 76.9071 61.529C76.9071 60.9448 76.8067 60.3607 76.5054 60.0686C76.2041 59.6792 75.9027 59.3871 75.6014 59.1924C75.1996 58.9977 74.7979 58.803 74.2957 58.7056C74.6974 58.6083 74.9988 58.4136 75.3001 58.2189C75.6014 58.0241 75.8023 57.7321 76.0032 57.44C76.2041 57.1479 76.3045 56.6612 76.3045 56.077C76.3045 55.1035 76.0032 54.422 75.4005 53.9352C74.7979 53.4484 73.8939 53.1563 72.7891 53.1563H69.3741V64.7417H72.7891ZM69.9767 58.4136V53.7405H72.7891C73.7935 53.7405 74.597 53.9352 74.9988 54.422C75.4005 54.9087 75.7019 55.3955 75.7019 56.1744C75.7019 56.8559 75.501 57.44 74.9988 57.9268C74.4966 58.4136 73.7935 58.4136 72.7891 58.4136H69.9767ZM69.9767 64.2549V58.9977H72.6886C73.1908 58.9977 73.5926 59.0951 74.0948 59.1924C74.4966 59.2898 74.8983 59.4845 75.1996 59.6792C75.501 59.8739 75.8023 60.166 75.9027 60.458C76.1036 60.7501 76.2041 61.2369 76.2041 61.6263C76.2041 62.5999 75.9027 63.184 75.1996 63.6708C74.4966 64.1576 73.7935 64.2549 72.6886 64.2549H69.9767ZM73.5926 55.9797C73.5926 55.2982 73.1908 54.9087 72.3873 54.9087H71.7846V57.0506H72.3873C73.1908 57.0506 73.5926 56.6612 73.5926 55.9797ZM72.3873 62.9893C73.5926 62.9893 74.1952 62.5025 74.1952 61.6263C74.1952 60.7501 73.5926 60.3607 72.3873 60.3607H71.7846V62.9893H72.3873Z" fill="white"/>
<path d="M80.2217 51.4039H89.4623V55.3955H85.2437V57.0506H89.4623V60.8475H85.2437V62.5999H89.6632V66.5915H80.2217V51.4039ZM87.9557 64.7417V64.2549H83.2349V59.2898H87.7548V58.7056H83.2349V53.7405H87.9557V53.1563H82.6323V64.7417H87.9557Z" fill="white"/>
<path d="M91.0693 51.4039H96.4932C97.4976 51.4039 98.4016 51.5013 99.3055 51.7934C100.209 52.0854 100.913 52.4748 101.515 52.9616C102.118 53.4484 102.62 54.1299 103.022 54.8114C103.424 55.5902 103.524 56.3691 103.524 57.3427C103.524 58.1215 103.424 58.7056 103.223 59.2898C103.022 59.7766 102.721 60.2633 102.52 60.6528C102.218 61.0422 101.817 61.4316 101.415 61.6263L104.328 66.6888H98.4016L96.0914 62.7946V66.6888H91.0693V51.4039ZM95.991 61.3342C96.5936 61.3342 97.1963 61.2369 97.7989 61.1395L100.009 64.8391H100.712L98.4016 60.9448C99.2051 60.6528 99.9082 60.166 100.41 59.5818C100.913 58.9977 101.214 58.2189 101.214 57.2453C101.214 56.5638 101.113 55.9797 100.812 55.4929C100.511 55.0061 100.209 54.5193 99.7073 54.2273C99.2051 53.9352 98.7029 53.6431 98.1002 53.4484C97.4976 53.2537 96.7945 53.1563 96.0914 53.1563H93.5804V64.7417H94.183V61.3342H95.991ZM94.0826 60.7501V53.7405H95.991C97.3971 53.7405 98.502 54.0325 99.3055 54.6167C100.109 55.2008 100.511 56.077 100.511 57.2453C100.511 58.4136 100.109 59.1924 99.3055 59.8739C98.502 60.5554 97.3971 60.7501 95.991 60.7501H94.0826ZM96.0914 58.9003H96.3927C96.9954 58.9003 97.4976 58.803 97.8993 58.5109C98.3011 58.2189 98.502 57.8294 98.502 57.2453C98.502 56.6612 98.3011 56.1744 97.8993 55.9797C97.4976 55.5902 96.9954 55.4929 96.3927 55.4929H96.0914V58.9003Z" fill="white"/>
<path d="M104.83 51.4039H114.07V55.3955H109.852V57.0506H114.07V60.8475H109.852V62.5999H114.271V66.5915H104.83V51.4039ZM112.564 64.7417V64.2549H107.843V59.2898H112.363V58.7056H107.843V53.7405H112.564V53.1563H107.24V64.7417H112.564Z" fill="white"/>
<path d="M114.974 58.9978C114.974 57.7322 115.175 56.6612 115.677 55.6877C116.18 54.7141 116.682 53.8379 117.485 53.1564C118.289 52.4749 119.092 51.8908 120.097 51.5014C121.101 51.112 122.206 50.9172 123.311 50.9172C124.215 50.9172 125.018 51.0146 125.722 51.2093C126.425 51.404 127.027 51.5987 127.53 51.7934C128.132 52.0855 128.634 52.2802 129.036 52.5723L126.525 56.7586C126.324 56.5639 126.023 56.3692 125.722 56.2718C125.42 56.1745 125.119 56.0771 124.717 55.8824C124.315 55.785 123.914 55.6877 123.411 55.6877C122.909 55.6877 122.507 55.785 122.106 55.9797C121.704 56.1745 121.302 56.3692 121.001 56.6612C120.7 56.9533 120.499 57.2454 120.298 57.6348C120.097 58.0242 119.996 58.4136 119.996 58.9004C119.996 59.3872 120.097 59.7766 120.298 60.1661C120.499 60.5555 120.7 60.8475 121.001 61.1396C121.302 61.4317 121.704 61.6264 122.106 61.8211C122.507 62.0158 123.01 62.1132 123.512 62.1132C124.014 62.1132 124.416 62.0158 124.818 61.9185C125.219 61.8211 125.521 61.6264 125.822 61.529C126.123 61.3343 126.425 61.1396 126.626 60.9449L129.137 65.1312C128.735 65.4233 128.233 65.8127 127.63 66.0074C127.128 66.2021 126.525 66.3968 125.822 66.5916C125.119 66.7863 124.315 66.8836 123.411 66.8836C122.206 66.8836 121.101 66.6889 119.996 66.2995C118.892 65.9101 118.088 65.3259 117.285 64.6444C116.481 63.9629 115.979 63.0867 115.477 62.1132C115.175 61.237 114.974 60.1661 114.974 58.9978ZM117.988 58.9978C117.988 58.2189 118.088 57.5374 118.389 56.9533C118.691 56.2718 118.992 55.785 119.494 55.2983C119.996 54.8115 120.499 54.4221 121.202 54.13C121.905 53.8379 122.608 53.7406 123.512 53.7406C123.914 53.7406 124.315 53.7406 124.617 53.8379C124.918 53.9353 125.219 53.9353 125.42 54.0326C125.722 54.13 125.922 54.2273 126.123 54.3247L126.425 53.7406C126.123 53.6432 125.922 53.5459 125.621 53.4485C125.32 53.3511 125.018 53.3511 124.717 53.2538C124.416 53.1564 124.014 53.1564 123.512 53.1564C122.708 53.1564 121.905 53.2538 121.202 53.5458C120.499 53.8379 119.796 54.2273 119.293 54.7141C118.791 55.2009 118.289 55.8824 117.988 56.5639C117.686 57.2454 117.485 58.1216 117.485 58.9978C117.485 59.874 117.686 60.7502 117.988 61.4317C118.289 62.1132 118.791 62.7947 119.293 63.2814C119.796 63.7682 120.499 64.1576 121.302 64.4497C122.106 64.7418 122.909 64.8391 123.713 64.8391C124.215 64.8391 124.617 64.8391 125.018 64.7418C125.42 64.6444 125.722 64.5471 126.023 64.4497C126.324 64.3524 126.626 64.255 126.826 64.0603L126.525 63.4762C126.324 63.5735 126.123 63.7682 125.822 63.8656C125.621 63.9629 125.32 64.0603 125.018 64.0603C124.717 64.1577 124.315 64.1577 123.813 64.1577C122.909 64.1577 122.206 64.0603 121.503 63.7682C120.8 63.4762 120.197 63.0867 119.695 62.6C119.193 62.1132 118.892 61.529 118.59 60.9449C118.088 60.4581 117.988 59.7766 117.988 58.9978Z" fill="white"/>
<path d="M8.50659 30.5698C7.70306 29.9857 7.20085 29.2068 6.69865 28.3306C6.49777 27.9412 6.096 27.3571 6.39733 26.9676C7.50218 25.5073 5.5938 24.4364 5.89512 23.0734C5.99556 22.684 5.49336 22.7813 5.19203 22.684C3.98674 22.3919 2.88189 22.0998 1.87748 21.5157C0.0695362 20.5421 -0.432669 19.0818 0.37086 17.232C1.07395 15.577 2.07836 14.214 3.98674 13.8246C5.89512 13.4351 7.20085 14.4087 8.20527 15.7717C8.40615 15.9664 8.50659 16.2585 8.70747 16.5505C9.10924 16.94 8.90835 17.8162 9.61144 17.6215C10.415 17.4267 11.1181 16.8426 10.7163 15.7717C10.7163 13.1431 11.5198 11.8774 13.7295 11.488C14.9348 11.3907 15.8388 11.8774 16.6423 12.6563C17.0441 13.1431 17.3454 13.1431 17.9481 12.9484C19.0529 12.5589 19.9569 12.0722 19.756 10.7092C19.6556 10.0277 20.0573 9.34619 20.4591 8.76205C22.267 6.81493 24.075 6.91229 26.0838 8.85941C26.2847 9.24883 26.586 9.34619 26.9878 9.05412C27.9922 8.46998 29.1975 8.08056 30.4028 7.88585C31.0054 7.78849 31.1058 7.59378 31.0054 7.00964C30.8045 6.03608 30.7041 5.06252 30.8045 4.08896C31.0054 2.53126 31.608 1.16827 33.2151 0.584137C33.416 0.486781 33.6169 0.486781 33.7173 0.194712C34.32 0.0973561 35.1235 0.0973561 35.8266 0C36.2283 0.389425 36.831 0.292068 37.2327 0.486781C39.4425 1.26563 40.4469 3.01804 39.7438 5.15987C39.342 6.4255 38.5385 7.49642 37.4336 8.37263C37.1323 8.76205 36.9314 8.95676 37.4336 9.44354C39.7438 11.5854 39.9447 14.1166 38.8398 16.8426C37.735 19.5686 35.7261 21.5157 33.5164 23.4628C33.0142 23.6575 32.6125 23.4628 32.1102 23.3655C32.2107 23.2681 32.3111 23.0734 32.4116 22.976C34.2195 21.2236 35.8266 19.3739 36.9314 17.1347C38.2372 14.4087 38.1367 11.7801 35.927 9.44354C35.6257 8.95676 35.7261 8.76205 36.1279 8.37263C37.1323 7.39907 38.0363 6.4255 38.5385 5.06252C38.9402 4.18631 39.0407 3.31011 38.2372 2.62862C37.2327 1.5577 35.927 1.16827 34.4204 1.46034C33.0142 1.75241 32.4116 2.72597 32.1102 3.9916C31.8089 5.15987 31.8089 6.23079 32.0098 7.39907C32.1102 8.17791 31.9094 8.46998 31.1058 8.66469C30.1014 8.95676 28.9966 9.44354 27.9922 9.73561C27.0882 10.0277 26.7869 10.4171 27.0882 11.2933C27.3895 12.2669 27.2891 13.3378 26.8873 14.3114C26.0838 16.4532 23.6732 16.94 21.8653 15.4796C21.2626 14.9928 20.8608 14.4087 20.4591 13.7272C20.3586 13.5325 20.2582 13.2404 19.9569 13.1431C19.1533 12.9484 17.6467 14.5061 17.8476 15.2849C18.1489 16.3558 18.4503 17.4267 18.5507 18.4977C18.6511 19.4712 18.9525 19.5686 19.8564 19.5686C21.8653 19.3739 23.7736 19.5686 25.4811 20.7369C26.8873 21.7104 26.8873 21.7104 27.8917 20.2501C28.0926 19.958 28.193 19.7633 28.2935 19.4712C28.9966 18.2056 28.9966 18.2056 27.6908 17.5241C27.5904 17.4267 27.49 17.3294 27.5904 17.1347C29.2979 17.4267 30.905 16.8426 32.512 16.3558C32.0098 17.6215 30.1014 17.1347 29.5992 18.303C29.097 19.4712 28.6953 20.6395 27.7913 21.4183C26.9878 22.0998 26.6864 22.7813 26.8873 23.7549C26.586 23.7549 26.1842 23.8523 25.8829 23.8523C25.682 21.9051 24.3763 20.8342 22.4679 20.3474C21.6644 20.1527 20.8608 20.1527 19.9569 20.0554C19.2538 19.958 18.852 20.2501 18.7516 20.8342C18.3498 22.684 17.5463 24.4364 16.5419 26.0914C15.9392 26.9676 16.6423 28.0386 17.7472 28.0386C19.756 28.0386 21.6644 27.8439 23.5728 27.4544C24.4767 27.2597 25.2803 26.9676 25.7825 26.0914C26.0838 26.0914 26.2847 25.9941 26.4855 26.1888C26.4855 26.6756 26.1842 26.9676 25.8829 27.3571C25.682 27.5518 25.5816 27.8439 25.7825 28.1359C26.0838 28.428 26.2847 28.1359 26.4855 27.9412C27.1886 27.3571 27.7913 26.7729 28.5948 26.3835C28.8961 26.3835 29.097 26.4809 29.3983 26.4809C29.097 27.2597 29.097 27.6491 30.001 27.9412C31.0054 28.3306 31.9094 28.9148 32.8133 29.4016C34.9226 30.7645 36.7305 32.3222 38.438 34.172C38.6389 34.3667 38.9402 34.5614 38.6389 34.8535C38.438 35.1456 38.1367 34.8535 37.9358 34.7561C37.8354 34.6588 37.735 34.5614 37.5341 34.4641C37.2327 34.2694 37.1323 33.6852 36.6301 33.9773C36.2283 34.2694 36.2283 34.7561 36.2283 35.1456C36.3288 36.3138 37.0319 37.19 37.735 38.0662C39.7438 40.4028 42.1544 42.2526 44.3641 44.3944C44.6654 44.6865 44.8663 44.7838 45.268 44.6865C46.3729 44.4918 46.8751 44.5891 47.9799 44.6865C48.0804 44.9785 48.1808 45.368 47.9799 45.5627C47.076 45.368 46.5738 45.368 45.6698 45.5627C43.8619 45.8547 42.9579 46.8283 42.757 48.5807C42.4557 51.7935 46.172 56.0771 49.4866 56.2718C50.3905 56.2718 51.0936 55.9798 51.0936 55.0062C50.9932 52.5723 49.9888 49.2622 46.4733 48.4834C46.2724 48.386 46.0716 48.386 45.7702 48.2886C45.5694 48.1913 45.3685 48.1913 45.4689 47.8992C45.4689 47.7045 45.7702 47.7045 45.8707 47.6071C46.6742 47.6071 47.2769 47.9966 48.0804 48.0939C50.1897 49.5543 51.5958 51.404 52.2989 53.8379C52.7007 55.2009 52.8011 56.6613 51.1941 57.5375C50.6919 57.8295 50.9932 58.1216 50.9932 58.511C51.1941 59.4846 51.5958 60.4582 50.9932 61.3344C50.1896 62.5026 49.2857 63.5736 48.5826 64.8392C48.1808 65.618 47.076 65.4233 46.172 65.2286C43.3597 64.5471 41.3508 61.7238 41.6522 58.9005C41.7526 57.9269 41.5517 57.2454 41.0495 56.4666C39.5429 54.3247 39.5429 53.5459 41.3508 51.5014C41.6522 51.2093 41.6522 50.9173 41.6522 50.6252C41.3508 48.5807 41.5517 46.7309 43.4601 45.4653C43.9623 45.1732 43.5605 44.8812 43.3597 44.6865C42.3552 43.8103 41.3508 42.9341 40.3464 42.0578C38.438 40.4028 36.6301 38.6504 35.5252 36.3138C35.1235 35.4376 34.9226 34.6588 35.7261 33.8799C36.1279 33.5879 35.8266 33.2958 35.6257 33.1011C33.6169 31.154 31.3067 29.791 28.7957 28.6227C27.6908 28.1359 26.7869 28.7201 26.3851 29.9857C25.9833 31.3487 25.5816 32.7117 24.778 33.9773C22.9701 36.898 20.2582 37.5795 17.1445 35.9244C16.4414 35.535 15.8388 35.1456 15.2361 34.6588C14.2317 33.8799 13.4282 32.7117 11.8211 32.9064C11.2185 33.0037 10.6159 32.5169 10.2141 32.0302C10.0132 32.0302 9.91276 32.0302 9.71188 32.0302C9.71188 31.6407 9.20968 31.5434 9.10924 31.154C9.20968 30.8619 9.511 30.7645 9.71188 30.6672C12.4238 32.4196 13.4282 32.2249 15.437 29.791C15.5375 29.6936 15.6379 29.5963 15.7383 29.4016C16.5419 28.428 16.2406 27.4544 14.9348 27.1624C13.0264 26.7729 11.2185 26.0914 9.81232 24.8258C9.61144 24.6311 9.41056 24.4364 9.00879 24.6311C7.50218 25.6047 7.10041 27.3571 8.10483 28.8174C8.40615 29.3042 9.00879 29.5963 9.10924 30.1804C9.00879 30.2778 8.80791 30.3751 8.50659 30.5698ZM16.5419 14.0193C15.6379 12.6563 14.0309 12.0722 12.926 12.6563C11.7207 13.2404 11.2185 15.0902 11.8211 16.5505C12.022 16.94 12.2229 17.232 12.4238 17.6215C13.3278 18.6924 13.6291 18.7897 14.7339 17.9135C15.2361 17.5241 15.6379 17.1347 16.1401 16.7453C17.6467 15.7717 17.6467 15.3823 16.5419 14.0193ZM25.9833 11.3907C25.9833 10.0277 24.778 8.6647 23.5728 8.46998C22.4679 8.27527 21.4635 8.85941 20.9613 9.93032C20.1578 11.7801 21.0617 14.3114 22.8697 15.2849C24.6776 16.1611 26.1842 15.2849 26.3851 13.3378C26.4855 12.6563 26.6864 11.8774 25.9833 11.3907ZM20.1578 35.4376C21.3631 35.4376 22.267 34.7561 22.9701 33.8799C24.1754 32.4196 24.5772 30.5698 24.9789 28.8174C25.1798 28.0386 24.6776 28.2333 24.2758 28.3306C22.8697 28.6227 21.3631 29.0121 19.9569 29.0121C18.2494 29.0121 16.8432 29.3042 15.8388 30.8619C15.7383 31.0566 15.437 31.2513 15.2361 31.3487C14.1313 31.8355 14.4326 32.4196 15.1357 33.0037C16.6423 34.2694 18.1489 35.4376 20.1578 35.4376ZM13.1269 19.0818C11.3189 17.5241 11.3189 17.5241 9.91276 18.6924C9.31012 19.1792 9.10924 18.9844 8.80791 18.4003C8.40615 17.5241 7.8035 16.6479 7.10041 15.9664C5.69424 14.4087 4.18762 14.4087 2.78145 15.9664C2.37968 16.3558 2.07836 16.8426 1.77703 17.3294C0.973506 18.7897 1.37527 20.0554 2.88189 20.8342C3.58498 21.2236 4.28806 21.5157 4.99115 21.5157C6.39733 21.6131 7.50218 21.9051 7.3013 23.6575C7.3013 23.7549 7.40174 23.8523 7.40174 23.9496C7.70306 24.5337 7.90394 24.9232 8.50659 24.1443C9.91276 22.4893 11.3189 20.6395 13.1269 19.0818ZM49.7879 58.9005C49.6874 58.219 49.587 57.2454 48.5826 56.856C46.0716 55.9798 44.1632 54.5194 42.8574 52.2802C42.5561 51.7935 42.3552 51.8908 42.0539 52.1829C41.15 53.0591 40.9491 54.3247 41.853 55.6877C43.2592 57.8295 45.1676 59.582 47.6786 60.5555C49.2857 61.3344 49.8883 60.8476 49.7879 58.9005ZM42.757 58.7057C42.8574 61.4317 44.2636 63.2815 46.7747 63.963C47.4777 64.1577 48.0804 64.0603 48.2813 63.2815C48.4822 62.6 48.3817 61.9185 47.4777 61.7238C45.6698 61.237 44.1632 60.1661 42.757 58.7057ZM11.8211 21.8078C12.022 21.8078 12.1225 21.9051 12.2229 21.9051C14.0309 21.2236 15.7383 20.4448 17.6467 19.958C18.1489 19.8607 18.0485 19.4712 17.9481 19.1792C17.7472 18.4977 17.7472 17.7188 17.1445 17.232C17.1445 17.232 16.8432 17.3294 16.7428 17.4267C14.9348 18.595 13.3278 20.0554 11.8211 21.8078Z" fill="#E0147B"/>
<path d="M48.0803 44.7837C46.9755 44.6864 46.4733 44.6864 45.3684 44.7837C44.9667 44.8811 44.6653 44.6864 44.4645 44.4917C42.2548 42.3498 39.8442 40.5001 37.8353 38.1635C37.1323 37.2873 36.4292 36.4111 36.3287 35.2428C36.3287 34.756 36.3287 34.2693 36.7305 34.0745C37.2327 33.7825 37.3331 34.3666 37.6345 34.5613C37.7349 34.6587 37.8353 34.756 38.0362 34.8534C38.2371 34.9508 38.5384 35.2428 38.7393 34.9508C39.0406 34.6587 38.7393 34.464 38.5384 34.2693C36.9314 32.4195 35.023 30.7644 32.9137 29.4988C32.0098 28.9147 31.1058 28.4279 30.1014 28.0385C29.097 27.649 29.097 27.2596 29.6996 26.5781C31.8089 26.7728 33.9181 26.9676 35.927 27.8438C36.9314 28.9147 38.1367 29.8882 39.5428 30.9592C39.4424 29.9856 39.4424 29.4015 39.6433 28.72C39.8442 27.9411 40.1455 27.357 40.949 27.0649C41.2503 26.9675 41.4512 26.8702 41.7525 26.9676C42.0539 27.1623 41.7525 27.4543 41.7525 27.649C41.4512 28.8173 41.3508 29.9856 41.7525 31.0565C42.3552 32.8089 42.3552 32.8089 41.9534 34.5613C41.853 34.9508 41.853 35.3402 41.9534 35.7296C42.2548 38.6503 45.9711 41.2789 48.8839 40.7921C49.6874 41.9604 48.0803 41.0842 48.1808 41.571C48.1808 42.6419 48.4821 44.0049 48.0803 44.7837Z" fill="#F3BDC8"/>
<path d="M48.7834 40.9869C45.8707 41.4737 42.2548 38.8451 41.853 35.9244C41.853 35.5349 41.7526 35.1455 41.853 34.7561C42.2548 33.0037 42.2548 33.0037 41.6521 31.2513C41.2504 30.083 41.2504 28.9147 41.6521 27.8438C41.7526 27.6491 41.9535 27.357 41.6521 27.1623C41.4513 26.9676 41.1499 27.1623 40.8486 27.2597C40.0451 27.5517 39.6433 28.1359 39.5429 28.9147C39.4424 29.5962 39.342 30.1804 39.4424 31.1539C38.0363 30.083 36.831 29.1094 35.8266 28.0385C36.4292 27.7465 36.4292 27.7465 36.0274 27.4544C35.5252 27.1623 35.023 26.9676 34.5208 26.8702C34.1191 25.8967 33.1147 25.4099 32.7129 24.4363C33.2151 24.339 33.8177 24.2416 34.3199 24.6311C35.5252 26.0914 36.4292 27.7465 38.2371 28.6227C38.6389 28.3306 38.8398 27.9412 39.1411 27.4544C39.6433 26.4808 40.3464 25.702 41.7526 25.994C42.3552 26.0914 42.2548 25.702 42.2548 25.4099C42.2548 24.5337 42.3552 23.6575 42.757 22.7813C43.3596 21.3209 44.4645 20.3474 45.9711 19.958C47.4777 19.5685 49.2857 19.958 49.2857 20.8342C48.5826 21.0289 45.8707 21.3209 45.268 21.613C43.5605 22.7813 42.6566 25.702 43.661 27.2597C44.6654 28.8174 45.9711 29.9856 47.779 30.7645C48.7834 31.2513 49.6874 31.3486 50.5914 30.6671C51.4954 29.9856 51.5958 29.0121 51.3949 27.9412C50.9932 25.7993 49.3861 24.6311 47.6786 23.5601C47.076 23.1707 46.3729 22.976 45.8707 22.3919C46.6742 22.0998 47.2768 22.7813 48.0804 22.6839C48.9843 23.1707 49.9887 23.5601 50.7923 24.2416C53.002 26.1888 53.3033 28.8174 51.4954 31.0566C51.0936 31.5433 50.9932 31.9328 51.2945 32.5169C52.098 34.0746 51.6962 35.7297 50.1896 36.8006C49.6874 37.0926 49.587 37.3847 49.6874 37.9688C49.6874 39.1371 49.7879 40.208 48.7834 40.9869ZM42.8574 27.8438C42.2548 28.9147 42.1543 29.9856 42.4557 30.9592C43.3596 33.6852 45.6698 35.1455 48.2812 36.3138C49.0848 36.7032 49.7879 36.2164 50.0892 35.3402C50.3905 34.3667 49.9887 33.4905 49.6874 32.7116C49.4865 32.1275 48.7834 32.4195 48.2812 32.1275C47.779 31.8354 47.2768 31.7381 46.7746 31.446C45.268 30.5698 44.0627 29.4015 42.8574 27.8438ZM43.2592 33.8799C42.4557 36.7032 45.0671 39.5265 47.076 40.4028C47.4777 40.5975 47.779 40.5001 48.1808 40.208C48.9843 39.6239 48.8839 37.2874 47.9799 36.8979C46.0715 36.3138 44.6654 35.2429 43.2592 33.8799Z" fill="#E0147B"/>
<path d="M48.0803 48.1913C47.3772 48.0939 46.6741 47.7045 45.8706 47.7045C45.6697 47.7045 45.4688 47.7045 45.4688 47.9966C45.4688 48.1913 45.6697 48.2886 45.7702 48.386C45.9711 48.4833 46.1719 48.4833 46.4733 48.5807C49.9887 49.4569 50.9931 52.6697 51.0935 55.1036C51.194 56.0771 50.4909 56.4665 49.4865 56.3692C46.1719 56.1745 42.4556 51.9882 42.7569 48.6781C42.9578 46.9257 43.8618 45.9521 45.6697 45.66C46.5737 45.4653 47.0759 45.5627 47.9799 45.66C48.1808 46.5362 48.2812 47.3151 48.0803 48.1913Z" fill="#F3BDC8"/>
<path d="M47.8795 22.7814C47.1764 22.9761 46.5738 22.2946 45.6698 22.4893C46.172 23.0734 46.8751 23.2682 47.4778 23.6576C49.1852 24.7285 50.7923 25.8968 51.1941 28.0386C51.3949 29.1095 51.2945 30.0831 50.3905 30.7646C49.587 31.4461 48.5826 31.2513 47.5782 30.8619C45.8707 30.0831 44.565 28.8174 43.4601 27.3571C42.4557 25.7994 43.3597 22.7814 45.0672 21.7105C45.6698 21.321 46.2725 21.321 46.8751 21.2237C48.2813 20.9316 47.3773 22.1972 47.8795 22.7814Z" fill="#F3BDC8"/>
<path d="M26.0837 8.85938C24.0748 6.91226 22.2669 6.8149 20.459 8.66467C19.4546 8.56731 19.1532 8.17789 19.555 7.20433C19.7559 6.62019 20.2581 6.23077 20.7603 5.9387C22.3673 5.15985 24.8784 5.54928 26.0837 6.8149C26.8872 7.69111 26.8872 8.17789 26.0837 8.85938Z" fill="#19191A"/>
<path d="M13.7296 11.488C11.5199 11.9748 10.6159 13.1431 10.7164 15.7717C9.41063 15.4796 8.90842 14.7008 9.20975 13.2404C9.41063 12.1695 9.91283 11.1959 10.9172 10.5145C12.4239 9.44354 13.1269 9.73561 13.7296 11.488Z" fill="#19191A"/>
<path d="M9.81242 30.5697C9.5111 30.6671 9.31021 30.7644 9.20977 31.0565C7.50228 32.1274 6.19655 33.5878 4.79037 34.9508C3.8864 35.827 2.98244 36.8005 1.97803 37.7741C1.97803 36.8005 2.98244 35.4375 4.68993 33.7825C5.89522 32.6142 7.3014 31.6407 8.50669 30.5697C8.80801 30.375 9.00889 30.2777 9.31021 30.1803C9.5111 30.1803 9.91286 30.083 9.81242 30.5697Z" fill="#19191A"/>
<path d="M9.71189 31.9327C9.91278 31.9327 10.0132 31.9327 10.2141 31.9327C10.2141 32.0301 10.2141 32.2248 10.1137 32.2248C7.90395 34.464 6.19645 37.0926 4.28807 39.5265C4.18763 39.7212 3.98675 40.0133 3.98675 39.9159C3.48454 39.7212 3.88631 39.4292 3.98675 39.2345C5.19204 36.7032 6.7991 34.5614 8.80792 32.7116C9.10925 32.5169 9.41057 32.2248 9.71189 31.9327Z" fill="#19191A"/>
<path d="M34.3199 24.4364C33.8177 24.1443 33.3155 24.1443 32.7128 24.2417C31.608 23.9496 30.5031 24.2417 29.3983 24.1443C28.0926 24.2417 26.7868 24.339 25.4811 24.4364C24.778 24.5338 24.0749 24.5338 23.3718 24.6311V24.5338C24.1754 24.339 25.0793 24.1443 25.8829 23.8523C26.1842 23.8523 26.5859 23.7549 26.8873 23.7549C28.5948 23.6575 30.3023 23.4628 32.0098 23.3655C32.512 23.3655 32.9137 23.5602 33.4159 23.4628C34.3199 23.6575 35.2239 23.5602 36.0274 23.9496C36.2283 24.047 36.5296 23.8523 36.5296 24.2417C36.4292 24.6311 36.1278 24.5338 35.9269 24.4364C35.4247 24.2417 34.9225 24.339 34.3199 24.4364Z" fill="#19191A"/>
<path d="M32.1102 23.4628C30.4027 23.5601 28.6952 23.7549 26.9877 23.8522C26.7869 22.8787 27.0882 22.1972 27.8917 21.5157C28.7957 20.7368 29.1974 19.5685 29.6997 18.4003C30.2019 17.232 32.0098 17.7188 32.6124 16.4532H32.7129C32.7129 16.4532 32.7129 16.4532 32.7129 16.3558C32.7129 16.3558 32.7129 16.4532 32.6124 16.4532C31.0054 16.9399 29.3983 17.4267 27.6908 17.232C27.4899 17.5241 27.6908 17.6214 27.7913 17.6214C29.097 18.3029 29.097 18.3029 28.3939 19.5686C28.2935 19.8606 28.0926 20.0553 27.9922 20.3474C26.9877 21.8077 26.9877 21.8077 25.5816 20.8342C23.8741 19.6659 21.9657 19.4712 19.9569 19.6659C19.0529 19.6659 18.6511 19.4712 18.5507 18.4976C18.4502 17.4267 18.1489 16.3558 17.8476 15.2849C17.6467 14.506 19.1533 12.9483 19.9569 13.1431C20.2582 13.2404 20.3586 13.5325 20.4591 13.7272C20.8608 14.3113 21.2626 14.9928 21.8652 15.4796C23.5727 17.0373 25.9833 16.4532 26.8873 14.3113C27.2891 13.3378 27.3895 12.2669 27.0882 11.2933C26.7869 10.3197 27.0882 9.93031 27.9922 9.73559C29.097 9.44353 30.1014 8.95675 31.2063 8.66468C32.0098 8.46997 32.2107 8.08054 32.1102 7.39905C31.9094 6.23078 32.0098 5.15986 32.2107 3.99159C32.512 2.72596 33.1147 1.65505 34.5208 1.46033C36.0274 1.16827 37.3332 1.55769 38.3376 2.62861C39.0407 3.3101 38.9402 4.28366 38.6389 5.06251C38.0363 6.32813 37.1323 7.39905 36.1279 8.37261C35.7261 8.76203 35.5252 8.95675 36.0274 9.54088C38.1367 11.8774 38.3376 14.4087 37.0319 17.232C35.927 19.4712 34.2195 21.321 32.512 23.0734C32.3111 23.1707 32.2107 23.2681 32.1102 23.4628ZM34.9226 3.3101C34.6213 3.40745 34.32 3.50481 34.0186 3.69952C33.2151 4.47837 33.1147 7.10698 33.8177 7.98319C34.0186 8.1779 34.2195 8.1779 34.4204 7.98319C35.4248 7.20434 36.3288 6.42549 36.7305 5.25722C36.9314 4.1863 36.0274 3.11539 34.9226 3.3101Z" fill="#F3BDC8"/>
<path d="M25.9832 23.9496C25.1797 24.1443 24.2757 24.339 23.4722 24.6311V24.7285C24.1753 24.6311 24.8784 24.6311 25.5815 24.5337C26.385 24.6311 25.8828 25.2152 25.9832 25.6047C25.5815 25.6047 25.1797 25.6047 24.7779 25.6047C24.0749 25.6047 23.4722 25.702 22.6687 25.7994C23.1709 25.7994 23.3718 26.0914 23.7735 25.9941C24.4766 26.0914 25.1797 26.0914 25.8828 26.1888C25.481 27.065 24.5771 27.3571 23.6731 27.5518C21.7647 27.9412 19.7559 28.1359 17.8475 28.1359C16.7427 28.1359 16.0396 27.1624 16.6422 26.1888C17.6466 24.5337 18.4501 22.7813 18.8519 20.9316C18.9524 20.3474 19.3541 20.0554 20.0572 20.1527C20.8607 20.2501 21.6643 20.2501 22.5682 20.4448C24.4766 20.9316 25.7823 21.9051 25.9832 23.9496Z" fill="#F8D29C"/>
<path d="M20.1577 35.4376C18.0485 35.4376 16.6423 34.2693 15.1357 32.9063C14.4326 32.3222 14.1313 31.7381 15.2361 31.2513C15.437 31.1539 15.7383 30.9592 15.8388 30.7645C16.7427 29.2068 18.1489 28.9147 19.9569 28.9147C21.4635 28.9147 22.8697 28.6227 24.2758 28.2332C24.6776 28.1359 25.1798 27.9412 24.9789 28.72C24.5772 30.5698 24.1754 32.3222 22.9701 33.7825C22.3675 34.7561 21.4635 35.4376 20.1577 35.4376Z" fill="#F8D29C"/>
<path d="M13.1268 19.0818C11.3189 20.6395 9.91273 22.4893 8.40611 24.2417C7.80347 24.9232 7.50214 24.6311 7.30126 24.047C7.30126 23.9496 7.20082 23.8522 7.20082 23.7549C7.4017 22.0025 6.29685 21.8078 4.89067 21.6131C4.18759 21.5157 3.38406 21.2236 2.78141 20.9316C1.2748 20.0554 0.873032 18.8871 1.67656 17.4267C1.97788 16.94 2.27921 16.5505 2.68097 16.0638C4.08715 14.6034 5.59376 14.6034 6.99994 16.0638C7.80347 16.7453 8.30567 17.5241 8.80788 18.4977C9.1092 19.0818 9.31008 19.2765 9.91273 18.7897C11.3189 17.5241 11.4193 17.5241 13.1268 19.0818ZM5.192 16.8426C4.58935 16.8426 4.28803 16.94 4.08715 17.1347C3.58494 17.5241 3.18318 18.0109 3.38406 18.595C3.58494 19.4712 4.28803 19.958 5.09156 20.2501C5.89509 20.5421 6.99994 21.0289 7.50214 20.4448C8.00435 19.8606 7.30126 18.9844 6.8995 18.3029C6.39729 17.5241 5.89508 16.8426 5.192 16.8426Z" fill="#F3BDC8"/>
<path d="M9.81221 30.5698C9.91265 30.083 9.51088 30.1804 9.31 30.1804C9.10912 29.5962 8.60691 29.3042 8.30559 28.8174C7.30118 27.357 7.70294 25.6046 9.20956 24.6311C9.61132 24.4364 9.71176 24.6311 10.0131 24.8258C11.5197 26.0914 13.2272 26.7729 15.1356 27.1623C16.4413 27.4544 16.7426 28.428 15.9391 29.4015C15.8387 29.4989 15.7382 29.5962 15.6378 29.7909C13.4281 32.2248 12.5241 32.3222 9.81221 30.5698Z" fill="#F8D29C"/>
<path d="M49.7879 58.9005C49.8883 60.8476 49.2857 61.3344 47.5782 60.6529C45.0671 59.6794 43.2592 57.927 41.7526 55.7851C40.8486 54.4221 41.0495 53.1565 41.9535 52.2803C42.3552 51.8909 42.5561 51.8909 42.757 52.3777C44.0627 54.5195 46.0716 56.0772 48.4821 56.9534C49.587 57.1481 49.587 58.1217 49.7879 58.9005Z" fill="#F3BDC8"/>
<path d="M26.3852 13.3378C26.1843 15.2849 24.6777 16.1611 22.8697 15.2849C21.0618 14.4087 20.0574 11.7801 20.9614 9.9303C21.4636 8.85939 22.468 8.27525 23.5728 8.46996C24.8786 8.66467 25.9834 10.0277 25.9834 11.3906C25.4812 11.2933 24.979 11.0012 24.6777 11.6827C24.3764 12.2668 24.4768 12.851 24.8786 13.3378C25.4812 13.8245 25.883 13.6298 26.3852 13.3378Z" fill="#323232"/>
<path d="M16.2406 16.7452C15.7384 17.1346 15.3366 17.524 14.8344 17.9134C13.7296 18.7896 13.4282 18.6923 12.5243 17.6214C12.2229 17.3293 12.0221 16.9399 11.9216 16.5505C11.319 15.0901 11.8212 13.2404 13.0265 12.6562C14.1313 12.0721 15.7384 12.6562 16.6424 14.0192C15.0353 14.6033 14.9349 15.6743 16.2406 16.7452Z" fill="#323232"/>
<path d="M42.7571 58.7057C44.1633 60.166 45.6699 61.2369 47.4778 61.6264C48.3818 61.8211 48.3818 62.5026 48.2813 63.1841C48.0805 63.9629 47.5783 64.0603 46.7747 63.8656C44.2637 63.2814 42.8575 61.4317 42.7571 58.7057Z" fill="#F3BDC8"/>
<path d="M11.821 21.8077C13.3277 20.0553 14.9347 18.595 16.6422 17.3294C16.7427 17.232 16.9436 17.1346 17.044 17.1346C17.6466 17.6214 17.6466 18.4003 17.8475 19.0818C17.948 19.3738 18.0484 19.7633 17.5462 19.8606C15.7383 20.3474 13.9303 21.1262 12.1224 21.8077C12.1224 21.9051 12.0219 21.8077 11.821 21.8077Z" fill="#F3BDC8"/>
<path d="M24.778 25.702C25.1798 25.702 25.5815 25.702 25.9833 25.702C26.2846 25.702 26.5859 25.702 26.8873 25.702C29.4987 25.8967 32.0098 25.9941 34.5208 26.7729C35.1234 26.8703 35.6256 27.065 36.0274 27.3571C36.4292 27.6491 36.4292 27.5518 35.8265 27.9412C33.8177 27.065 31.7084 26.8703 29.5992 26.6756C29.2978 26.6756 29.097 26.5782 28.7956 26.5782C28.0926 26.2862 27.3895 26.1888 26.6864 26.2862C26.4855 26.0915 26.1842 26.0915 25.9833 26.1888C25.2802 26.0915 24.5771 26.0915 23.874 25.9941C24.0749 25.702 24.4767 25.7994 24.778 25.702Z" fill="#19191A"/>
<path d="M16.2406 16.7453C14.9349 15.6743 15.0354 14.6034 16.542 14.0193C17.6468 15.3823 17.6468 15.7717 16.2406 16.7453Z" fill="#19191A"/>
<path d="M26.385 13.3378C25.8828 13.6298 25.3806 13.8246 24.9789 13.3378C24.5771 12.851 24.4767 12.2669 24.778 11.6827C25.0793 11.0986 25.5815 11.2933 26.0837 11.3907C26.6864 11.8774 26.4855 12.6563 26.385 13.3378Z" fill="#19191A"/>
<path d="M26.6865 26.2861C27.49 26.1888 28.1931 26.2861 28.8962 26.4808C27.9922 26.7729 27.49 27.4544 26.7869 28.0385C26.586 28.2332 26.3852 28.5253 26.0838 28.2332C25.7825 27.9412 25.9834 27.7465 26.1843 27.4544C26.2847 27.065 26.6865 26.7729 26.6865 26.2861Z" fill="#F3BDC8"/>
<path d="M42.8576 27.8439C43.9624 29.4016 45.2682 30.5698 46.7748 31.3487C47.277 31.6408 47.7792 31.7381 48.2814 32.0302C48.6832 32.2249 49.3862 31.9328 49.6876 32.6143C49.9889 33.4905 50.2902 34.3667 50.0893 35.2429C49.8885 36.1191 49.1854 36.6059 48.2814 36.2165C45.7704 35.1456 43.4602 33.6852 42.4558 30.8619C42.1545 29.9857 42.2549 28.9148 42.8576 27.8439Z" fill="#F3BDC8"/>
<path d="M43.2592 33.8799C44.6654 35.3402 46.172 36.3138 47.8795 36.9953C48.7835 37.3847 48.8839 39.6239 48.0804 40.3054C47.7791 40.5975 47.3773 40.5975 46.9755 40.5001C44.9667 39.4292 42.3552 36.7032 43.2592 33.8799Z" fill="#F3BDC8"/>
<path d="M34.5207 26.773C32.0097 25.9941 29.4987 25.7994 26.8872 25.7021C26.8872 24.6312 27.4899 24.2417 28.5947 24.3391C28.896 24.3391 29.1974 24.2417 29.4987 24.2417C30.6035 24.3391 31.7084 24.047 32.8132 24.3391C33.1146 25.3126 34.2194 25.7994 34.5207 26.773Z" fill="#F3BDC8"/>
<path d="M29.4988 24.2417C29.1974 24.2417 28.8961 24.3391 28.5948 24.3391C27.4899 24.2417 26.8873 24.6311 26.8873 25.702C26.586 25.702 26.2846 25.702 25.9833 25.702C25.8829 25.3126 26.3851 24.7285 25.5815 24.6311C26.8873 24.4364 28.193 24.3391 29.4988 24.2417Z" fill="#E0147B"/>
<path d="M34.9227 3.31013C36.0275 3.21278 36.9315 4.28369 36.7306 5.25725C36.4293 6.52288 35.4249 7.30173 34.4205 7.98322C34.2196 8.17793 34.0187 8.17793 33.8178 7.98322C33.1147 7.10702 33.2152 4.47841 34.0187 3.69956C34.32 3.50485 34.6214 3.31013 34.9227 3.31013ZM34.4205 7.10702C35.1236 6.62024 35.5253 6.13346 35.8267 5.45197C36.0275 4.96519 35.9271 4.47841 35.4249 4.28369C34.8222 4.08898 34.4205 4.38105 34.32 4.86783C34.0187 5.54932 34.0187 6.32817 34.4205 7.10702Z" fill="#E0147B"/>
<path d="M32.6125 16.3559C32.6125 16.3559 32.6125 16.2585 32.7022 16.2585C32.7022 16.2585 32.7022 16.3559 32.6125 16.3559Z" fill="#E0147B"/>
<path d="M24.7782 25.702C24.3764 25.7994 24.0751 25.702 23.7738 25.9941C23.372 26.0915 23.1712 25.8967 22.6689 25.7994C23.4725 25.7994 24.1756 25.702 24.7782 25.702Z" fill="#E0147B"/>
<path d="M5.19196 16.8427C5.89505 16.8427 6.39725 17.5241 6.89946 18.2056C7.30122 18.8871 8.00431 19.8607 7.50211 20.3475C6.9999 20.9316 5.89505 20.4448 5.09152 20.1528C4.28799 19.8607 3.5849 19.4713 3.38402 18.4977C3.28358 17.8162 3.68534 17.4268 4.08711 17.0374C4.28799 16.94 4.58931 16.8427 5.19196 16.8427ZM6.69858 19.4713C6.59814 18.7898 5.49328 17.7189 4.89064 17.8162C4.48887 17.9136 4.08711 18.1083 4.18755 18.5951C4.28799 19.1792 5.59372 19.958 6.39725 19.8607C6.49769 19.8607 6.69858 19.8607 6.69858 19.4713Z" fill="#E0147B"/>
<path d="M133.656 19.3738H143.701L142.596 49.0674H134.761L133.656 19.3738Z" fill="white"/>
<path d="M145.106 53.8379C147.718 52.0855 150.53 51.3067 153.644 52.1829C156.758 53.0591 158.666 55.1036 159.57 58.1216C160.574 61.6264 159.771 64.9365 157.662 67.8572C156.657 69.3176 155.251 70.4858 153.644 71.4594C153.443 71.5568 153.242 71.5568 153.041 71.4594C150.028 69.707 146.914 67.8572 143.901 66.1048C142.696 65.326 141.39 64.6445 140.185 63.8656C139.884 63.6709 139.884 63.5735 139.884 63.2815C140.084 59.9714 141.39 57.2454 143.801 55.0062C144.102 54.7141 144.403 54.5194 144.705 54.2274C144.805 54.0326 144.906 53.9353 145.106 53.8379ZM141.29 60.5555L141.39 60.4581C142.294 58.7057 143.499 57.148 145.106 55.8824C147.517 53.9353 150.229 53.0591 153.343 53.4485C153.945 53.5459 154.548 53.6432 155.251 53.7406C155.151 53.6432 155.05 53.6432 154.95 53.6432C153.142 52.767 151.233 52.5723 149.225 52.9617C146.513 53.5459 144.504 55.2009 142.997 57.3428C142.194 58.219 141.591 59.2899 141.29 60.5555Z" fill="#E0147B"/>
<path d="M139.884 64.255C144.203 66.7863 148.522 69.3175 152.941 71.9461C151.937 72.3356 151.033 72.4329 150.028 72.5303C149.024 72.5303 147.919 72.5303 146.915 72.4329C146.011 72.3356 145.307 72.725 144.906 73.5038C143.901 75.4509 142.897 77.3007 141.892 79.2478C141.491 80.0267 140.888 80.2214 140.085 79.7346C139.582 79.4425 139.08 79.1505 138.578 78.8584C137.875 78.469 137.774 77.8848 138.176 77.2034C139.381 75.4509 140.687 73.7959 141.892 72.0435C141.993 71.8488 142.093 71.6541 142.294 71.4593C142.696 70.6805 142.596 70.0964 142.093 69.4149C140.888 68.0519 140.185 66.3968 139.884 64.6444C139.884 64.5471 139.884 64.5471 139.884 64.4497C139.783 64.3524 139.783 64.255 139.884 64.255Z" fill="white"/>
<path d="M141.29 60.5555C141.591 59.3872 142.194 58.219 142.997 57.2454C144.604 55.1036 146.613 53.5459 149.225 52.8644C151.233 52.3776 153.142 52.6697 154.95 53.5459C155.05 53.5459 155.05 53.6432 155.251 53.6432C154.548 53.5459 153.945 53.3512 153.343 53.3512C150.229 52.9617 147.517 53.9353 145.107 55.7851C143.499 57.0507 142.294 58.6084 141.39 60.3608C141.29 60.4582 141.29 60.4582 141.29 60.5555Z" fill="white"/>
<path d="M133.254 58.9978C133.254 56.0771 135.665 53.6432 138.678 53.6432C141.792 53.6432 144.202 55.9797 144.202 58.9978C144.202 61.9185 141.792 64.255 138.678 64.255C135.665 64.255 133.254 61.9185 133.254 58.9978ZM142.495 58.9978C142.495 56.9533 140.787 55.3956 138.678 55.3956C136.669 55.3956 134.962 57.0507 134.962 59.0951C134.962 61.1396 136.669 62.6973 138.779 62.6973C140.787 62.6 142.495 61.0423 142.495 58.9978Z" fill="white"/>
<path d="M138.477 56.2718C140.687 55.9798 141.993 58.0242 141.491 59.3872C141.29 57.6348 140.285 56.5639 138.477 56.2718Z" fill="white"/>
</svg>
