<svg width="25" height="25" viewBox="0 0 25 25" fill="none" xmlns="http://www.w3.org/2000/svg">
<path d="M4.5 10.643C4.5 6.146 8.082 2.5 12.5 2.5C16.918 2.5 20.5 6.146 20.5 10.643C20.5 15.105 17.947 20.313 13.963 22.174C13.5051 22.3884 13.0056 22.4996 12.5 22.4996C11.9944 22.4996 11.4949 22.3884 11.037 22.174C7.053 20.312 4.5 15.106 4.5 10.644V10.643Z" stroke="#D9D9D9" stroke-width="2.25"/>
<path d="M4.5 10.643C4.5 6.146 8.082 2.5 12.5 2.5C16.918 2.5 20.5 6.146 20.5 10.643C20.5 15.105 17.947 20.313 13.963 22.174C13.5051 22.3884 13.0056 22.4996 12.5 22.4996C11.9944 22.4996 11.4949 22.3884 11.037 22.174C7.053 20.312 4.5 15.106 4.5 10.644V10.643Z" stroke="#F6F4F3" stroke-opacity="0.2" stroke-width="2.25"/>
<path d="M12.5 13.5C14.1569 13.5 15.5 12.1569 15.5 10.5C15.5 8.84315 14.1569 7.5 12.5 7.5C10.8431 7.5 9.5 8.84315 9.5 10.5C9.5 12.1569 10.8431 13.5 12.5 13.5Z" stroke="#D9D9D9" stroke-width="2.25"/>
<path d="M12.5 13.5C14.1569 13.5 15.5 12.1569 15.5 10.5C15.5 8.84315 14.1569 7.5 12.5 7.5C10.8431 7.5 9.5 8.84315 9.5 10.5C9.5 12.1569 10.8431 13.5 12.5 13.5Z" stroke="#F6F4F3" stroke-opacity="0.2" stroke-width="2.25"/>
</svg>
