<svg width="278" height="65" viewBox="0 0 278 65" fill="none" xmlns="http://www.w3.org/2000/svg">
<g clip-path="url(#clip0_864_931)">
<path d="M0.497711 32.4917V0.491699H138.998H277.498V32.4917V64.4917H138.998H0.497711V32.4917ZM275.054 32.4917V2.93238H138.998H2.94183L2.80067 31.9493C2.72303 47.9086 2.77665 61.2718 2.91982 61.6453C3.12752 62.1871 30.6532 62.2967 139.117 62.1877L275.054 62.051V32.4917ZM7.01536 32.5559V7.12853L32.2158 6.72697C46.0761 6.50611 57.6857 6.49163 58.0149 6.69481C58.4371 6.95537 58.6134 14.565 58.6134 32.5237V57.9832H32.8144H7.01536V32.5559ZM31.4565 50.9709V46.6704L28.4114 45.7864C24.2468 44.5774 20.5323 40.8925 19.1892 36.6377L18.2229 33.5764H13.719H9.21506L9.52341 35.3392C10.3023 39.7918 12.0969 43.9205 14.6767 47.1951C17.799 51.1582 25.3484 55.2101 29.6913 55.2537L31.4565 55.2713V50.9709ZM42.2025 53.3721C46.1699 51.5583 48.3957 49.8308 50.9932 46.5492C53.2278 43.7262 54.9743 39.69 55.609 35.8815L55.9932 33.5764H51.3288C47.2506 33.5764 46.6637 33.6957 46.6591 34.5256C46.6485 36.4148 44.0698 40.9429 41.8838 42.9107C40.5059 44.1512 38.4941 45.258 36.6388 45.7966L33.6291 46.6704V51.0464V55.4225L36.3867 55.0963C37.9034 54.9169 40.5205 54.141 42.2025 53.3721ZM55.6088 28.5595C54.7591 23.4636 52.4941 19.3642 48.4446 15.5929C45.2666 12.6331 42.4558 11.1011 38.1482 9.98064C33.4293 8.75326 33.6291 8.5884 33.6291 13.7105V18.2514L35.673 18.5777C40.2786 19.3132 45.5853 24.4774 46.4466 29.062L46.7853 30.8646H51.3892H55.9932L55.6088 28.5595ZM18.2144 28.6631C18.8534 28.4246 19.487 27.5983 19.6387 26.8057C19.8486 25.7094 19.7273 25.4487 19.1162 25.6829C18.6785 25.8506 17.7256 26.1369 16.9986 26.3191C15.7158 26.6406 14.6193 27.9859 14.6193 29.2383C14.6193 29.8358 15.4118 29.709 18.2144 28.6631ZM13.6165 24.4074C12.6328 22.2135 12.6053 22.1975 11.6412 23.2612C10.7078 24.2911 10.7062 24.4513 11.6042 26.7996L12.5449 29.2592L13.5795 27.9458C14.5881 26.6653 14.589 26.5766 13.6165 24.4074ZM21.527 23.8161C22.6608 22.418 22.3066 22.1217 19.7059 22.2925C17.791 22.4182 16.9908 22.7564 16.3626 23.7055L15.5366 24.9533L18.201 24.7926C19.7481 24.6994 21.1428 24.2899 21.527 23.8161ZM16.6858 19.2767C16.8599 16.6334 16.582 16.3388 15.0266 17.5179C14.3555 18.0266 14.0761 18.9974 14.0761 20.821C14.0761 23.3767 14.0889 23.3953 15.2982 22.5971C16.2189 21.9894 16.5611 21.1707 16.6858 19.2767ZM25.0871 20.5595C25.8466 19.9629 26.7511 19.4748 27.097 19.4748C27.443 19.4748 28.2234 19.2089 28.8314 18.884C29.8832 18.3218 29.8426 18.2294 27.9909 16.9729C26.6176 16.0411 25.6425 15.7534 24.6772 15.9953C22.9381 16.4312 22.9344 17.1579 24.6673 17.9463C25.4141 18.2861 26.0252 18.769 26.0252 19.0194C26.0252 19.6273 25.4422 19.5935 23.3468 18.8641C21.9931 18.3929 21.2926 18.4138 20.2785 18.9557C19.5557 19.342 18.9644 19.8178 18.9644 20.0131C18.9644 20.2954 21.4823 21.188 23.372 21.5757C23.5558 21.6134 24.3276 21.1561 25.0871 20.5595ZM20.6737 17.3799C20.867 17.1897 21.1909 16.0148 21.3936 14.7691C21.7375 12.6548 21.6858 12.5239 20.6175 12.8029C19.3102 13.1443 18.7194 14.1002 18.2329 16.6617C17.916 18.33 17.9786 18.4326 19.1068 18.0923C19.7753 17.8907 20.4804 17.5701 20.6737 17.3799ZM27.0462 12.4239L28.2672 10.2544H26.6141C25.2323 10.2544 24.7791 10.6104 23.8526 12.4239L22.7443 14.5934H24.2847C25.5163 14.5934 26.07 14.1584 27.0462 12.4239ZM114.807 32.3878C113.076 29.6111 111.518 27.1672 111.343 26.957C111.169 26.7468 111.105 28.7603 111.2 31.4315L111.375 36.2883H108.068H104.76L104.906 23.4119L105.052 10.5355L107.644 10.0628C115.642 8.60461 122.16 12.6357 122.16 19.0395C122.16 21.9514 121.142 24.4097 119.443 25.5979C118.376 26.3444 118.416 26.4621 121.057 30.3766C122.546 32.584 123.77 34.6565 123.777 34.9821C123.784 35.3078 122.787 35.8743 121.561 36.2411C120.335 36.6079 119.021 37.027 118.642 37.1723C118.221 37.3335 116.726 35.4678 114.807 32.3878ZM114.421 23.096C115.27 22.3326 115.643 21.3849 115.643 19.989C115.643 17.7834 115.039 17.0406 112.788 16.4765L111.298 16.1029V20.4837C111.298 25.279 111.657 25.5799 114.421 23.096ZM132.212 36.7119C129.405 36.1145 126.256 33.0539 125.168 29.8641C124.187 26.9903 124.069 20.4228 124.951 17.793C126.511 13.1409 130.118 10.2585 134.381 10.2585C140.477 10.2585 144.565 15.593 144.565 23.5476C144.565 32.4529 139.177 38.1942 132.212 36.7119ZM137.059 29.5957C139.524 27.1339 139.535 19.9624 137.078 17.5083C134.198 14.6321 130.658 16.7575 130.035 21.7372C129.158 28.747 133.285 33.3644 137.059 29.5957ZM258.549 32.1424L255.229 26.8427V31.5655V36.2883H251.96H248.692L248.837 23.4119L248.983 10.5355L251.575 10.0628C259.573 8.60461 266.092 12.6357 266.092 19.0395C266.092 21.9596 265.073 24.4101 263.36 25.608C262.274 26.3675 262.307 26.464 264.986 30.3476C266.491 32.528 267.721 34.596 267.721 34.9431C267.721 35.2902 266.718 35.8743 265.492 36.2411C264.266 36.6079 262.95 37.0282 262.566 37.175C262.136 37.3401 260.602 35.4185 258.549 32.1424ZM258.352 23.096C259.201 22.3326 259.574 21.3849 259.574 19.989C259.574 17.7834 258.97 17.0406 256.72 16.4765L255.229 16.1029V20.4837C255.229 25.279 255.589 25.5799 258.352 23.096ZM87.4047 35.8244C86.2966 35.2309 85.0189 33.8609 84.2902 32.4849C83.1383 30.3096 83.0546 29.4961 83.0546 20.4742V10.7968H85.7337H88.4128L88.5852 19.795C88.7519 28.4981 88.7996 28.8273 90.0397 29.8289C91.6498 31.1294 92.3829 31.1294 93.9929 29.8289C95.2331 28.8273 95.2808 28.4981 95.4475 19.795L95.6198 10.7968H98.299H100.978V20.4742C100.978 29.4961 100.894 30.3096 99.7425 32.4849C98.1942 35.4086 95.6659 36.8307 92.0163 36.8307C90.392 36.8307 88.5217 36.4226 87.4047 35.8244ZM197.859 35.5252C196.327 34.813 194.93 33.9979 194.754 33.7139C194.403 33.1457 197.577 28.5422 198.128 28.8211C198.317 28.9165 199.366 29.4499 200.459 30.0065C202.836 31.2171 204.174 30.8519 204.174 28.9924C204.174 27.906 203.638 27.3571 201.536 26.2936C196.017 23.5007 193.894 20.4269 194.662 16.3391C195.896 9.77243 203.911 7.50223 209.856 12.0358C210.902 12.8334 210.892 12.8915 209.333 15.2123C208.459 16.5126 207.689 17.6641 207.62 17.7712C207.552 17.8783 206.749 17.4349 205.836 16.7859C203.59 15.1889 201.187 15.4435 201.187 17.2784C201.187 18.3493 201.873 18.9925 204.717 20.5896C208.928 22.9536 210.692 25.2513 210.691 28.3685C210.69 31.6891 209.2 34.1838 206.367 35.6103C203.285 37.1625 201.338 37.143 197.859 35.5252ZM64.5879 23.5425V10.7968H71.9203H79.2526V13.5086V16.2205H74.9075H70.5624V18.39V20.5595H74.3644H78.1663V23.2466V25.9337L74.5002 26.094L70.834 26.2544V28.4239V30.5934L75.1105 30.753L79.3869 30.9126L79.0542 32.9225C78.8712 34.0279 78.7187 35.2375 78.7155 35.6103C78.7111 36.1176 76.932 36.2883 71.6487 36.2883H64.5879V23.5425ZM146.802 30.4578C146.978 27.251 147.274 21.5154 147.46 17.712L147.797 10.7968H150.625H153.453L155.813 15.2188C158.497 20.2504 158.252 20.2931 161.383 14.2461L163.167 10.8008L165.986 10.7986L168.804 10.7965L169.091 13.1015C169.25 14.3693 169.534 20.1049 169.723 25.8473L170.067 36.288H167.092C164.195 36.288 164.109 36.2438 163.778 34.5931C163.592 33.6609 163.421 30.7931 163.398 28.2202L163.358 23.5422L161.09 28.2617C159.843 30.8575 158.642 32.993 158.421 33.0075C158.2 33.0219 156.929 30.8981 155.597 28.288L153.174 23.5422L153.147 29.9151L153.119 36.288H149.801H146.483L146.802 30.4578ZM171.307 35.3668C171.528 34.8296 173.474 29.1425 175.63 22.729L179.551 11.068L182.847 10.9079L186.144 10.7478L190.271 23.1115C192.541 29.9116 194.398 35.6582 194.398 35.8818C194.398 36.1054 192.958 36.2883 191.198 36.2883C188.237 36.2883 187.972 36.1868 187.657 34.9324C187.327 33.6205 187.168 33.5764 182.748 33.5764C178.423 33.5764 178.17 33.6417 178.006 34.7968C177.849 35.896 177.488 36.0333 174.369 36.1804C171.214 36.3291 170.941 36.2566 171.307 35.3668ZM185.526 27.2036C185.391 26.9798 184.734 24.9663 184.066 22.729L182.851 18.6612L181.577 23.0002C180.876 25.3866 180.296 27.4002 180.289 27.4748C180.282 27.5493 181.513 27.6103 183.024 27.6103C184.535 27.6103 185.661 27.4273 185.526 27.2036ZM217.753 26.2544V16.2205H214.707C212.153 16.2205 211.715 16.082 211.992 15.3626C212.173 14.8907 212.321 13.6704 212.321 12.6507V10.7968H220.901H229.48L229.183 13.3731L228.887 15.9493L226.579 16.1161L224.27 16.2829V26.2856V36.2883H221.011H217.753V26.2544ZM231.331 23.5425V10.7968H238.663H245.996V13.5086V16.2205H241.922H237.849V18.39V20.5595H241.651H245.453V23.2714V25.9832H241.651H237.849V28.4239V30.8646H241.922H245.996L245.988 32.3561C245.969 36.338 246.065 36.2883 238.328 36.2883H231.331L231.331 23.5425Z" fill="#D9D9D9"/>
<path d="M0.497711 32.4917V0.491699H138.998H277.498V32.4917V64.4917H138.998H0.497711V32.4917ZM275.054 32.4917V2.93238H138.998H2.94183L2.80067 31.9493C2.72303 47.9086 2.77665 61.2718 2.91982 61.6453C3.12752 62.1871 30.6532 62.2967 139.117 62.1877L275.054 62.051V32.4917ZM7.01536 32.5559V7.12853L32.2158 6.72697C46.0761 6.50611 57.6857 6.49163 58.0149 6.69481C58.4371 6.95537 58.6134 14.565 58.6134 32.5237V57.9832H32.8144H7.01536V32.5559ZM31.4565 50.9709V46.6704L28.4114 45.7864C24.2468 44.5774 20.5323 40.8925 19.1892 36.6377L18.2229 33.5764H13.719H9.21506L9.52341 35.3392C10.3023 39.7918 12.0969 43.9205 14.6767 47.1951C17.799 51.1582 25.3484 55.2101 29.6913 55.2537L31.4565 55.2713V50.9709ZM42.2025 53.3721C46.1699 51.5583 48.3957 49.8308 50.9932 46.5492C53.2278 43.7262 54.9743 39.69 55.609 35.8815L55.9932 33.5764H51.3288C47.2506 33.5764 46.6637 33.6957 46.6591 34.5256C46.6485 36.4148 44.0698 40.9429 41.8838 42.9107C40.5059 44.1512 38.4941 45.258 36.6388 45.7966L33.6291 46.6704V51.0464V55.4225L36.3867 55.0963C37.9034 54.9169 40.5205 54.141 42.2025 53.3721ZM55.6088 28.5595C54.7591 23.4636 52.4941 19.3642 48.4446 15.5929C45.2666 12.6331 42.4558 11.1011 38.1482 9.98064C33.4293 8.75326 33.6291 8.5884 33.6291 13.7105V18.2514L35.673 18.5777C40.2786 19.3132 45.5853 24.4774 46.4466 29.062L46.7853 30.8646H51.3892H55.9932L55.6088 28.5595ZM18.2144 28.6631C18.8534 28.4246 19.487 27.5983 19.6387 26.8057C19.8486 25.7094 19.7273 25.4487 19.1162 25.6829C18.6785 25.8506 17.7256 26.1369 16.9986 26.3191C15.7158 26.6406 14.6193 27.9859 14.6193 29.2383C14.6193 29.8358 15.4118 29.709 18.2144 28.6631ZM13.6165 24.4074C12.6328 22.2135 12.6053 22.1975 11.6412 23.2612C10.7078 24.2911 10.7062 24.4513 11.6042 26.7996L12.5449 29.2592L13.5795 27.9458C14.5881 26.6653 14.589 26.5766 13.6165 24.4074ZM21.527 23.8161C22.6608 22.418 22.3066 22.1217 19.7059 22.2925C17.791 22.4182 16.9908 22.7564 16.3626 23.7055L15.5366 24.9533L18.201 24.7926C19.7481 24.6994 21.1428 24.2899 21.527 23.8161ZM16.6858 19.2767C16.8599 16.6334 16.582 16.3388 15.0266 17.5179C14.3555 18.0266 14.0761 18.9974 14.0761 20.821C14.0761 23.3767 14.0889 23.3953 15.2982 22.5971C16.2189 21.9894 16.5611 21.1707 16.6858 19.2767ZM25.0871 20.5595C25.8466 19.9629 26.7511 19.4748 27.097 19.4748C27.443 19.4748 28.2234 19.2089 28.8314 18.884C29.8832 18.3218 29.8426 18.2294 27.9909 16.9729C26.6176 16.0411 25.6425 15.7534 24.6772 15.9953C22.9381 16.4312 22.9344 17.1579 24.6673 17.9463C25.4141 18.2861 26.0252 18.769 26.0252 19.0194C26.0252 19.6273 25.4422 19.5935 23.3468 18.8641C21.9931 18.3929 21.2926 18.4138 20.2785 18.9557C19.5557 19.342 18.9644 19.8178 18.9644 20.0131C18.9644 20.2954 21.4823 21.188 23.372 21.5757C23.5558 21.6134 24.3276 21.1561 25.0871 20.5595ZM20.6737 17.3799C20.867 17.1897 21.1909 16.0148 21.3936 14.7691C21.7375 12.6548 21.6858 12.5239 20.6175 12.8029C19.3102 13.1443 18.7194 14.1002 18.2329 16.6617C17.916 18.33 17.9786 18.4326 19.1068 18.0923C19.7753 17.8907 20.4804 17.5701 20.6737 17.3799ZM27.0462 12.4239L28.2672 10.2544H26.6141C25.2323 10.2544 24.7791 10.6104 23.8526 12.4239L22.7443 14.5934H24.2847C25.5163 14.5934 26.07 14.1584 27.0462 12.4239ZM114.807 32.3878C113.076 29.6111 111.518 27.1672 111.343 26.957C111.169 26.7468 111.105 28.7603 111.2 31.4315L111.375 36.2883H108.068H104.76L104.906 23.4119L105.052 10.5355L107.644 10.0628C115.642 8.60461 122.16 12.6357 122.16 19.0395C122.16 21.9514 121.142 24.4097 119.443 25.5979C118.376 26.3444 118.416 26.4621 121.057 30.3766C122.546 32.584 123.77 34.6565 123.777 34.9821C123.784 35.3078 122.787 35.8743 121.561 36.2411C120.335 36.6079 119.021 37.027 118.642 37.1723C118.221 37.3335 116.726 35.4678 114.807 32.3878ZM114.421 23.096C115.27 22.3326 115.643 21.3849 115.643 19.989C115.643 17.7834 115.039 17.0406 112.788 16.4765L111.298 16.1029V20.4837C111.298 25.279 111.657 25.5799 114.421 23.096ZM132.212 36.7119C129.405 36.1145 126.256 33.0539 125.168 29.8641C124.187 26.9903 124.069 20.4228 124.951 17.793C126.511 13.1409 130.118 10.2585 134.381 10.2585C140.477 10.2585 144.565 15.593 144.565 23.5476C144.565 32.4529 139.177 38.1942 132.212 36.7119ZM137.059 29.5957C139.524 27.1339 139.535 19.9624 137.078 17.5083C134.198 14.6321 130.658 16.7575 130.035 21.7372C129.158 28.747 133.285 33.3644 137.059 29.5957ZM258.549 32.1424L255.229 26.8427V31.5655V36.2883H251.96H248.692L248.837 23.4119L248.983 10.5355L251.575 10.0628C259.573 8.60461 266.092 12.6357 266.092 19.0395C266.092 21.9596 265.073 24.4101 263.36 25.608C262.274 26.3675 262.307 26.464 264.986 30.3476C266.491 32.528 267.721 34.596 267.721 34.9431C267.721 35.2902 266.718 35.8743 265.492 36.2411C264.266 36.6079 262.95 37.0282 262.566 37.175C262.136 37.3401 260.602 35.4185 258.549 32.1424ZM258.352 23.096C259.201 22.3326 259.574 21.3849 259.574 19.989C259.574 17.7834 258.97 17.0406 256.72 16.4765L255.229 16.1029V20.4837C255.229 25.279 255.589 25.5799 258.352 23.096ZM87.4047 35.8244C86.2966 35.2309 85.0189 33.8609 84.2902 32.4849C83.1383 30.3096 83.0546 29.4961 83.0546 20.4742V10.7968H85.7337H88.4128L88.5852 19.795C88.7519 28.4981 88.7996 28.8273 90.0397 29.8289C91.6498 31.1294 92.3829 31.1294 93.9929 29.8289C95.2331 28.8273 95.2808 28.4981 95.4475 19.795L95.6198 10.7968H98.299H100.978V20.4742C100.978 29.4961 100.894 30.3096 99.7425 32.4849C98.1942 35.4086 95.6659 36.8307 92.0163 36.8307C90.392 36.8307 88.5217 36.4226 87.4047 35.8244ZM197.859 35.5252C196.327 34.813 194.93 33.9979 194.754 33.7139C194.403 33.1457 197.577 28.5422 198.128 28.8211C198.317 28.9165 199.366 29.4499 200.459 30.0065C202.836 31.2171 204.174 30.8519 204.174 28.9924C204.174 27.906 203.638 27.3571 201.536 26.2936C196.017 23.5007 193.894 20.4269 194.662 16.3391C195.896 9.77243 203.911 7.50223 209.856 12.0358C210.902 12.8334 210.892 12.8915 209.333 15.2123C208.459 16.5126 207.689 17.6641 207.62 17.7712C207.552 17.8783 206.749 17.4349 205.836 16.7859C203.59 15.1889 201.187 15.4435 201.187 17.2784C201.187 18.3493 201.873 18.9925 204.717 20.5896C208.928 22.9536 210.692 25.2513 210.691 28.3685C210.69 31.6891 209.2 34.1838 206.367 35.6103C203.285 37.1625 201.338 37.143 197.859 35.5252ZM64.5879 23.5425V10.7968H71.9203H79.2526V13.5086V16.2205H74.9075H70.5624V18.39V20.5595H74.3644H78.1663V23.2466V25.9337L74.5002 26.094L70.834 26.2544V28.4239V30.5934L75.1105 30.753L79.3869 30.9126L79.0542 32.9225C78.8712 34.0279 78.7187 35.2375 78.7155 35.6103C78.7111 36.1176 76.932 36.2883 71.6487 36.2883H64.5879V23.5425ZM146.802 30.4578C146.978 27.251 147.274 21.5154 147.46 17.712L147.797 10.7968H150.625H153.453L155.813 15.2188C158.497 20.2504 158.252 20.2931 161.383 14.2461L163.167 10.8008L165.986 10.7986L168.804 10.7965L169.091 13.1015C169.25 14.3693 169.534 20.1049 169.723 25.8473L170.067 36.288H167.092C164.195 36.288 164.109 36.2438 163.778 34.5931C163.592 33.6609 163.421 30.7931 163.398 28.2202L163.358 23.5422L161.09 28.2617C159.843 30.8575 158.642 32.993 158.421 33.0075C158.2 33.0219 156.929 30.8981 155.597 28.288L153.174 23.5422L153.147 29.9151L153.119 36.288H149.801H146.483L146.802 30.4578ZM171.307 35.3668C171.528 34.8296 173.474 29.1425 175.63 22.729L179.551 11.068L182.847 10.9079L186.144 10.7478L190.271 23.1115C192.541 29.9116 194.398 35.6582 194.398 35.8818C194.398 36.1054 192.958 36.2883 191.198 36.2883C188.237 36.2883 187.972 36.1868 187.657 34.9324C187.327 33.6205 187.168 33.5764 182.748 33.5764C178.423 33.5764 178.17 33.6417 178.006 34.7968C177.849 35.896 177.488 36.0333 174.369 36.1804C171.214 36.3291 170.941 36.2566 171.307 35.3668ZM185.526 27.2036C185.391 26.9798 184.734 24.9663 184.066 22.729L182.851 18.6612L181.577 23.0002C180.876 25.3866 180.296 27.4002 180.289 27.4748C180.282 27.5493 181.513 27.6103 183.024 27.6103C184.535 27.6103 185.661 27.4273 185.526 27.2036ZM217.753 26.2544V16.2205H214.707C212.153 16.2205 211.715 16.082 211.992 15.3626C212.173 14.8907 212.321 13.6704 212.321 12.6507V10.7968H220.901H229.48L229.183 13.3731L228.887 15.9493L226.579 16.1161L224.27 16.2829V26.2856V36.2883H221.011H217.753V26.2544ZM231.331 23.5425V10.7968H238.663H245.996V13.5086V16.2205H241.922H237.849V18.39V20.5595H241.651H245.453V23.2714V25.9832H241.651H237.849V28.4239V30.8646H241.922H245.996L245.988 32.3561C245.969 36.338 246.065 36.2883 238.328 36.2883H231.331L231.331 23.5425Z" fill="#F6F4F3" fill-opacity="0.2"/>
<path d="M64.8849 52.4917V42.3099H68.902C69.6742 42.3099 70.3321 42.4574 70.8757 42.7524C71.4193 43.044 71.8336 43.45 72.1186 43.9704C72.407 44.4874 72.5511 45.084 72.5511 45.7602C72.5511 46.4363 72.4053 47.0329 72.1136 47.5499C71.822 48.067 71.3994 48.4697 70.8459 48.758C70.2957 49.0464 69.6295 49.1906 68.8473 49.1906H66.2869V47.4654H68.4993C68.9136 47.4654 69.255 47.3942 69.5234 47.2516C69.7952 47.1058 69.9974 46.9053 70.13 46.6501C70.2659 46.3916 70.3338 46.0949 70.3338 45.7602C70.3338 45.4221 70.2659 45.1271 70.13 44.8752C69.9974 44.62 69.7952 44.4228 69.5234 44.2836C69.2517 44.1411 68.907 44.0698 68.4893 44.0698H67.0376V52.4917H64.8849ZM76.0275 48.0769V52.4917H73.9096V44.8553H75.9281V46.2026H76.0176C76.1866 45.7585 76.47 45.4072 76.8677 45.1487C77.2654 44.8868 77.7477 44.7559 78.3145 44.7559C78.8448 44.7559 79.3071 44.8719 79.7015 45.1039C80.0959 45.3359 80.4025 45.6674 80.6213 46.0982C80.84 46.5258 80.9494 47.0362 80.9494 47.6295V52.4917H78.8315V48.0073C78.8348 47.54 78.7155 47.1754 78.4735 46.9136C78.2316 46.6484 77.8985 46.5158 77.4743 46.5158C77.1892 46.5158 76.9373 46.5772 76.7186 46.6998C76.5031 46.8224 76.3341 47.0014 76.2115 47.2367C76.0922 47.4687 76.0308 47.7488 76.0275 48.0769ZM86.0987 52.6408C85.3132 52.6408 84.6371 52.4818 84.0703 52.1636C83.5069 51.8421 83.0727 51.388 82.7678 50.8014C82.4628 50.2114 82.3104 49.5137 82.3104 48.7083C82.3104 47.9228 82.4628 47.2334 82.7678 46.6401C83.0727 46.0469 83.5019 45.5845 84.0554 45.2531C84.6122 44.9216 85.2652 44.7559 86.0142 44.7559C86.518 44.7559 86.987 44.8371 87.4212 44.9995C87.8587 45.1586 88.2398 45.3989 88.5646 45.7204C88.8928 46.0419 89.148 46.4462 89.3303 46.9335C89.5125 47.4174 89.6037 47.9841 89.6037 48.6337V49.2154H83.1555V47.9029H87.6101C87.6101 47.598 87.5438 47.3279 87.4112 47.0926C87.2786 46.8572 87.0947 46.6733 86.8594 46.5407C86.6274 46.4048 86.3572 46.3369 86.049 46.3369C85.7275 46.3369 85.4425 46.4114 85.1939 46.5606C84.9486 46.7064 84.7564 46.9036 84.6172 47.1522C84.478 47.3975 84.4067 47.6709 84.4034 47.9725V49.2204C84.4034 49.5982 84.473 49.9247 84.6122 50.1998C84.7547 50.4749 84.9553 50.687 85.2138 50.8362C85.4723 50.9853 85.7789 51.0599 86.1335 51.0599C86.3688 51.0599 86.5843 51.0267 86.7798 50.9604C86.9754 50.8942 87.1428 50.7947 87.282 50.6622C87.4212 50.5296 87.5272 50.3672 87.6001 50.1749L89.5589 50.3042C89.4595 50.7748 89.2557 51.1858 88.9474 51.5372C88.6425 51.8852 88.2481 52.1569 87.7642 52.3525C87.2836 52.5447 86.7285 52.6408 86.0987 52.6408ZM95.8828 49.2403V44.8553H98.0007V52.4917H95.9673V51.1046H95.8878C95.7154 51.5521 95.4287 51.9117 95.0277 52.1835C94.63 52.4552 94.1444 52.5911 93.571 52.5911C93.0606 52.5911 92.6115 52.4751 92.2237 52.2431C91.8359 52.0111 91.5327 51.6813 91.3139 51.2538C91.0985 50.8262 90.9891 50.3141 90.9858 49.7176V44.8553H93.1037V49.3397C93.107 49.7905 93.228 50.1468 93.4666 50.4086C93.7053 50.6704 94.0251 50.8014 94.4261 50.8014C94.6813 50.8014 94.92 50.7434 95.142 50.6274C95.3641 50.508 95.5431 50.3324 95.679 50.1004C95.8182 49.8684 95.8861 49.5817 95.8828 49.2403ZM99.6948 52.4917V44.8553H101.713V46.2026H101.803C101.962 45.7552 102.227 45.4022 102.598 45.1437C102.969 44.8852 103.414 44.7559 103.931 44.7559C104.454 44.7559 104.9 44.8868 105.268 45.1487C105.636 45.4072 105.881 45.7585 106.004 46.2026H106.083C106.239 45.7651 106.521 45.4155 106.928 45.1536C107.339 44.8885 107.825 44.7559 108.385 44.7559C109.098 44.7559 109.676 44.9829 110.12 45.437C110.568 45.8878 110.791 46.5274 110.791 47.356V52.4917H108.678V47.7737C108.678 47.3494 108.566 47.0312 108.34 46.8191C108.115 46.607 107.833 46.5009 107.495 46.5009C107.111 46.5009 106.811 46.6236 106.595 46.8688C106.38 47.1108 106.272 47.4306 106.272 47.8283V52.4917H104.219V47.7289C104.219 47.3544 104.111 47.0561 103.896 46.834C103.684 46.612 103.404 46.5009 103.056 46.5009C102.82 46.5009 102.608 46.5606 102.419 46.6799C102.234 46.7959 102.086 46.96 101.977 47.1721C101.867 47.3809 101.813 47.6262 101.813 47.9079V52.4917H99.6948ZM114.642 52.6359C114.155 52.6359 113.72 52.5514 113.339 52.3823C112.958 52.21 112.657 51.9564 112.434 51.6217C112.216 51.2836 112.106 50.8627 112.106 50.3589C112.106 49.9346 112.184 49.5783 112.34 49.29C112.496 49.0016 112.708 48.7696 112.976 48.594C113.245 48.4183 113.55 48.2857 113.891 48.1962C114.236 48.1068 114.597 48.0438 114.975 48.0073C115.419 47.9609 115.777 47.9178 116.049 47.8781C116.321 47.835 116.518 47.772 116.64 47.6891C116.763 47.6063 116.824 47.4836 116.824 47.3212V47.2914C116.824 46.9765 116.725 46.7329 116.526 46.5606C116.331 46.3882 116.052 46.3021 115.691 46.3021C115.31 46.3021 115.006 46.3866 114.781 46.5556C114.556 46.7213 114.407 46.9301 114.334 47.182L112.375 47.0229C112.474 46.5589 112.67 46.1579 112.961 45.8198C113.253 45.4784 113.629 45.2166 114.09 45.0343C114.554 44.8487 115.091 44.7559 115.701 44.7559C116.125 44.7559 116.531 44.8056 116.919 44.9051C117.31 45.0045 117.656 45.1586 117.958 45.3674C118.263 45.5762 118.503 45.8447 118.679 46.1728C118.854 46.4976 118.942 46.8871 118.942 47.3411V52.4917H116.934V51.4328H116.874C116.751 51.6714 116.587 51.8819 116.382 52.0641C116.176 52.2431 115.93 52.384 115.641 52.4867C115.353 52.5862 115.02 52.6359 114.642 52.6359ZM115.248 51.1742C115.56 51.1742 115.835 51.1129 116.074 50.9903C116.312 50.8643 116.5 50.6953 116.635 50.4832C116.771 50.2711 116.839 50.0308 116.839 49.7623V48.9519C116.773 48.995 116.682 49.0348 116.566 49.0712C116.453 49.1044 116.326 49.1359 116.183 49.1657C116.041 49.1922 115.898 49.2171 115.756 49.2403C115.613 49.2602 115.484 49.2784 115.368 49.295C115.119 49.3314 114.902 49.3894 114.716 49.469C114.531 49.5485 114.387 49.6562 114.284 49.7921C114.181 49.9247 114.13 50.0904 114.13 50.2893C114.13 50.5776 114.234 50.798 114.443 50.9505C114.655 51.0997 114.924 51.1742 115.248 51.1742ZM124.647 44.8553V46.4462H120.048V44.8553H124.647ZM121.093 43.0258H123.21V50.1451C123.21 50.3407 123.24 50.4931 123.3 50.6025C123.36 50.7086 123.442 50.7831 123.548 50.8262C123.658 50.8693 123.784 50.8908 123.926 50.8908C124.026 50.8908 124.125 50.8826 124.225 50.866C124.324 50.8461 124.4 50.8312 124.453 50.8212L124.786 52.3972C124.68 52.4304 124.531 52.4685 124.339 52.5116C124.147 52.558 123.913 52.5862 123.638 52.5961C123.128 52.616 122.68 52.548 122.296 52.3923C121.914 52.2365 121.618 51.9945 121.406 51.6664C121.194 51.3383 121.089 50.924 121.093 50.4235V43.0258ZM126.027 52.4917V44.8553H128.145V52.4917H126.027ZM127.091 43.871C126.776 43.871 126.506 43.7666 126.28 43.5577C126.058 43.3456 125.947 43.0921 125.947 42.7971C125.947 42.5054 126.058 42.2552 126.28 42.0464C126.506 41.8343 126.776 41.7282 127.091 41.7282C127.406 41.7282 127.674 41.8343 127.896 42.0464C128.122 42.2552 128.234 42.5054 128.234 42.7971C128.234 43.0921 128.122 43.3456 127.896 43.5577C127.674 43.7666 127.406 43.871 127.091 43.871ZM131.76 50.2943L131.765 47.7538H132.074L134.52 44.8553H136.951L133.664 48.6934H133.162L131.76 50.2943ZM129.841 52.4917V42.3099H131.959V52.4917H129.841ZM134.614 52.4917L132.367 49.1657L133.779 47.6693L137.095 52.4917H134.614ZM139.42 55.3553C139.152 55.3553 138.9 55.3338 138.665 55.2907C138.433 55.2509 138.24 55.1996 138.088 55.1366L138.565 53.5556C138.814 53.6319 139.037 53.6733 139.236 53.6799C139.439 53.6865 139.613 53.6401 139.758 53.5407C139.907 53.4413 140.028 53.2722 140.121 53.0336L140.246 52.7104L137.506 44.8553H139.733L141.314 50.4633H141.394L142.99 44.8553H145.232L142.264 53.317C142.122 53.728 141.928 54.0859 141.682 54.3908C141.44 54.6991 141.134 54.9361 140.763 55.1018C140.391 55.2708 139.944 55.3553 139.42 55.3553ZM151.734 52.6359C151.246 52.6359 150.812 52.5514 150.431 52.3823C150.05 52.21 149.748 51.9564 149.526 51.6217C149.308 51.2836 149.198 50.8627 149.198 50.3589C149.198 49.9346 149.276 49.5783 149.432 49.29C149.588 49.0016 149.8 48.7696 150.068 48.594C150.337 48.4183 150.642 48.2857 150.983 48.1962C151.328 48.1068 151.689 48.0438 152.067 48.0073C152.511 47.9609 152.869 47.9178 153.141 47.8781C153.412 47.835 153.61 47.772 153.732 47.6891C153.855 47.6063 153.916 47.4836 153.916 47.3212V47.2914C153.916 46.9765 153.817 46.7329 153.618 46.5606C153.422 46.3882 153.144 46.3021 152.783 46.3021C152.402 46.3021 152.098 46.3866 151.873 46.5556C151.647 46.7213 151.498 46.9301 151.425 47.182L149.467 47.0229C149.566 46.5589 149.762 46.1579 150.053 45.8198C150.345 45.4784 150.721 45.2166 151.182 45.0343C151.646 44.8487 152.183 44.7559 152.793 44.7559C153.217 44.7559 153.623 44.8056 154.011 44.9051C154.402 45.0045 154.748 45.1586 155.05 45.3674C155.355 45.5762 155.595 45.8447 155.771 46.1728C155.946 46.4976 156.034 46.8871 156.034 47.3411V52.4917H154.026V51.4328H153.966C153.843 51.6714 153.679 51.8819 153.474 52.0641C153.268 52.2431 153.021 52.384 152.733 52.4867C152.445 52.5862 152.112 52.6359 151.734 52.6359ZM152.34 51.1742C152.652 51.1742 152.927 51.1129 153.165 50.9903C153.404 50.8643 153.591 50.6953 153.727 50.4832C153.863 50.2711 153.931 50.0308 153.931 49.7623V48.9519C153.865 48.995 153.774 49.0348 153.658 49.0712C153.545 49.1044 153.417 49.1359 153.275 49.1657C153.132 49.1922 152.99 49.2171 152.847 49.2403C152.705 49.2602 152.576 49.2784 152.46 49.295C152.211 49.3314 151.994 49.3894 151.808 49.469C151.623 49.5485 151.478 49.6562 151.376 49.7921C151.273 49.9247 151.222 50.0904 151.222 50.2893C151.222 50.5776 151.326 50.798 151.535 50.9505C151.747 51.0997 152.015 51.1742 152.34 51.1742ZM166.481 45.2381C166.441 44.8371 166.27 44.5256 165.969 44.3035C165.667 44.0814 165.258 43.9704 164.741 43.9704C164.389 43.9704 164.093 44.0201 163.851 44.1195C163.609 44.2157 163.423 44.3499 163.294 44.5222C163.168 44.6946 163.105 44.8901 163.105 45.1089C163.098 45.2912 163.136 45.4503 163.219 45.5862C163.305 45.722 163.423 45.8397 163.572 45.9391C163.721 46.0353 163.894 46.1198 164.089 46.1927C164.285 46.2623 164.494 46.322 164.716 46.3717L165.631 46.5904C166.075 46.6899 166.482 46.8224 166.854 46.9881C167.225 47.1539 167.546 47.3577 167.818 47.5997C168.09 47.8416 168.3 48.1266 168.449 48.4548C168.602 48.7829 168.68 49.1591 168.683 49.5833C168.68 50.2064 168.521 50.7467 168.206 51.2041C167.894 51.6581 167.443 52.0111 166.854 52.263C166.267 52.5116 165.559 52.6359 164.731 52.6359C163.909 52.6359 163.193 52.5099 162.583 52.258C161.976 52.0061 161.502 51.6333 161.161 51.1394C160.823 50.6423 160.646 50.0274 160.629 49.295H162.712C162.735 49.6363 162.833 49.9214 163.006 50.1501C163.181 50.3755 163.415 50.5461 163.706 50.6622C164.001 50.7748 164.335 50.8312 164.706 50.8312C165.07 50.8312 165.387 50.7782 165.655 50.6721C165.927 50.566 166.138 50.4185 166.287 50.2296C166.436 50.0407 166.51 49.8236 166.51 49.5783C166.51 49.3497 166.443 49.1574 166.307 49.0016C166.174 48.8459 165.979 48.7133 165.72 48.6039C165.465 48.4945 165.152 48.3951 164.78 48.3056L163.672 48.0272C162.813 47.8184 162.135 47.4919 161.638 47.0478C161.141 46.6037 160.894 46.0054 160.898 45.2531C160.894 44.6366 161.058 44.098 161.39 43.6373C161.724 43.1766 162.184 42.817 162.767 42.5585C163.35 42.2999 164.013 42.1707 164.756 42.1707C165.511 42.1707 166.171 42.2999 166.734 42.5585C167.301 42.817 167.742 43.1766 168.057 43.6373C168.372 44.098 168.534 44.6316 168.544 45.2381H166.481ZM173.571 52.6408C172.786 52.6408 172.11 52.4818 171.543 52.1636C170.98 51.8421 170.545 51.388 170.24 50.8014C169.935 50.2114 169.783 49.5137 169.783 48.7083C169.783 47.9228 169.935 47.2334 170.24 46.6401C170.545 46.0469 170.975 45.5845 171.528 45.2531C172.085 44.9216 172.738 44.7559 173.487 44.7559C173.991 44.7559 174.46 44.8371 174.894 44.9995C175.331 45.1586 175.712 45.3989 176.037 45.7204C176.365 46.0419 176.621 46.4462 176.803 46.9335C176.985 47.4174 177.076 47.9841 177.076 48.6337V49.2154H170.628V47.9029H175.083C175.083 47.598 175.016 47.3279 174.884 47.0926C174.751 46.8572 174.567 46.6733 174.332 46.5407C174.1 46.4048 173.83 46.3369 173.522 46.3369C173.2 46.3369 172.915 46.4114 172.667 46.5606C172.421 46.7064 172.229 46.9036 172.09 47.1522C171.951 47.3975 171.879 47.6709 171.876 47.9725V49.2204C171.876 49.5982 171.946 49.9247 172.085 50.1998C172.227 50.4749 172.428 50.687 172.686 50.8362C172.945 50.9853 173.252 51.0599 173.606 51.0599C173.842 51.0599 174.057 51.0267 174.252 50.9604C174.448 50.8942 174.615 50.7947 174.755 50.6622C174.894 50.5296 175 50.3672 175.073 50.1749L177.032 50.3042C176.932 50.7748 176.728 51.1858 176.42 51.5372C176.115 51.8852 175.721 52.1569 175.237 52.3525C174.756 52.5447 174.201 52.6408 173.571 52.6408ZM178.458 52.4917V44.8553H180.512V46.1877H180.591C180.73 45.7138 180.964 45.3558 181.292 45.1139C181.62 44.8686 181.998 44.746 182.426 44.746C182.532 44.746 182.646 44.7526 182.769 44.7658C182.891 44.7791 182.999 44.7973 183.092 44.8205V46.6998C182.993 46.67 182.855 46.6435 182.679 46.6203C182.504 46.597 182.343 46.5854 182.197 46.5854C181.886 46.5854 181.607 46.6534 181.362 46.7893C181.12 46.9219 180.928 47.1075 180.785 47.3461C180.646 47.5847 180.576 47.8598 180.576 48.1714V52.4917H178.458ZM191.539 44.8553L188.869 52.4917H186.483L183.813 44.8553H186.05L187.636 50.3191H187.716L189.297 44.8553H191.539ZM192.623 52.4917V44.8553H194.74V52.4917H192.623ZM193.686 43.871C193.372 43.871 193.101 43.7666 192.876 43.5577C192.654 43.3456 192.543 43.0921 192.543 42.7971C192.543 42.5054 192.654 42.2552 192.876 42.0464C193.101 41.8343 193.372 41.7282 193.686 41.7282C194.001 41.7282 194.27 41.8343 194.492 42.0464C194.717 42.2552 194.83 42.5054 194.83 42.7971C194.83 43.0921 194.717 43.3456 194.492 43.5577C194.27 43.7666 194.001 43.871 193.686 43.871ZM202.791 47.0329L200.852 47.1522C200.819 46.9865 200.747 46.8373 200.638 46.7048C200.529 46.5689 200.384 46.4612 200.205 46.3816C200.03 46.2988 199.819 46.2573 199.574 46.2573C199.246 46.2573 198.969 46.3269 198.744 46.4661C198.518 46.602 198.406 46.7843 198.406 47.013C198.406 47.1953 198.479 47.3494 198.624 47.4754C198.77 47.6013 199.021 47.7024 199.375 47.7786L200.757 48.057C201.5 48.2095 202.053 48.4548 202.418 48.7928C202.782 49.1309 202.965 49.575 202.965 50.1252C202.965 50.6257 202.817 51.0649 202.522 51.4427C202.231 51.8205 201.829 52.1155 201.319 52.3276C200.812 52.5364 200.227 52.6408 199.564 52.6408C198.553 52.6408 197.748 52.4304 197.148 52.0095C196.551 51.5852 196.202 51.0085 196.099 50.2793L198.182 50.17C198.245 50.4782 198.397 50.7135 198.639 50.8759C198.881 51.035 199.191 51.1146 199.569 51.1146C199.94 51.1146 200.239 51.0433 200.464 50.9008C200.693 50.755 200.809 50.5677 200.812 50.339C200.809 50.1468 200.727 49.9893 200.568 49.8667C200.409 49.7408 200.164 49.6446 199.833 49.5783L198.51 49.3149C197.764 49.1657 197.209 48.9072 196.845 48.5393C196.483 48.1714 196.303 47.7024 196.303 47.1323C196.303 46.6418 196.435 46.2192 196.7 45.8646C196.969 45.5099 197.345 45.2365 197.829 45.0443C198.316 44.852 198.886 44.7559 199.539 44.7559C200.504 44.7559 201.263 44.9597 201.816 45.3674C202.373 45.7751 202.698 46.3302 202.791 47.0329ZM214.658 44.8553L211.988 52.4917H209.602L206.932 44.8553H209.169L210.755 50.3191H210.835L212.416 44.8553H214.658ZM218.946 52.6408C218.174 52.6408 217.506 52.4768 216.942 52.1487C216.382 51.8172 215.95 51.3565 215.645 50.7666C215.34 50.1733 215.187 49.4855 215.187 48.7033C215.187 47.9145 215.34 47.2251 215.645 46.6352C215.95 46.0419 216.382 45.5812 216.942 45.2531C217.506 44.9216 218.174 44.7559 218.946 44.7559C219.718 44.7559 220.384 44.9216 220.944 45.2531C221.508 45.5812 221.942 46.0419 222.247 46.6352C222.552 47.2251 222.704 47.9145 222.704 48.7033C222.704 49.4855 222.552 50.1733 222.247 50.7666C221.942 51.3565 221.508 51.8172 220.944 52.1487C220.384 52.4768 219.718 52.6408 218.946 52.6408ZM218.956 51.0002C219.307 51.0002 219.6 50.9008 219.836 50.7019C220.071 50.4997 220.248 50.2247 220.368 49.8766C220.49 49.5286 220.552 49.1326 220.552 48.6884C220.552 48.2443 220.49 47.8482 220.368 47.5002C220.248 47.1522 220.071 46.8771 219.836 46.6749C219.6 46.4728 219.307 46.3717 218.956 46.3717C218.601 46.3717 218.303 46.4728 218.061 46.6749C217.822 46.8771 217.642 47.1522 217.519 47.5002C217.4 47.8482 217.34 48.2443 217.34 48.6884C217.34 49.1326 217.4 49.5286 217.519 49.8766C217.642 50.2247 217.822 50.4997 218.061 50.7019C218.303 50.9008 218.601 51.0002 218.956 51.0002ZM224.042 52.4917V51.2289L227.78 46.6004V46.5457H224.171V44.8553H230.331V46.2325L226.821 50.7467V50.8014H230.46V52.4917H224.042ZM232.08 52.4917V44.8553H234.197V52.4917H232.08ZM233.143 43.871C232.829 43.871 232.558 43.7666 232.333 43.5577C232.111 43.3456 232 43.0921 232 42.7971C232 42.5054 232.111 42.2552 232.333 42.0464C232.558 41.8343 232.829 41.7282 233.143 41.7282C233.458 41.7282 233.727 41.8343 233.949 42.0464C234.174 42.2552 234.287 42.5054 234.287 42.7971C234.287 43.0921 234.174 43.3456 233.949 43.5577C233.727 43.7666 233.458 43.871 233.143 43.871ZM238.708 52.616C238.128 52.616 237.603 52.4668 237.132 52.1685C236.665 51.8669 236.293 51.4245 236.018 50.8411C235.747 50.2545 235.611 49.5353 235.611 48.6835C235.611 47.8085 235.751 47.081 236.033 46.5009C236.315 45.9176 236.689 45.4818 237.157 45.1934C237.627 44.9017 238.143 44.7559 238.703 44.7559C239.131 44.7559 239.487 44.8288 239.772 44.9747C240.06 45.1172 240.292 45.2961 240.468 45.5116C240.647 45.7237 240.783 45.9325 240.876 46.138H240.94V42.3099H243.053V52.4917H240.965V51.2687H240.876C240.776 51.4808 240.635 51.6913 240.453 51.9001C240.274 52.1056 240.04 52.2763 239.752 52.4122C239.467 52.548 239.119 52.616 238.708 52.616ZM239.379 50.9306C239.72 50.9306 240.009 50.8378 240.244 50.6522C240.483 50.4633 240.665 50.1998 240.791 49.8617C240.92 49.5237 240.985 49.1276 240.985 48.6735C240.985 48.2194 240.922 47.825 240.796 47.4903C240.67 47.1555 240.488 46.897 240.249 46.7147C240.01 46.5324 239.72 46.4413 239.379 46.4413C239.031 46.4413 238.738 46.5357 238.499 46.7247C238.26 46.9136 238.08 47.1754 237.957 47.5102C237.835 47.8449 237.773 48.2327 237.773 48.6735C237.773 49.1176 237.835 49.5104 237.957 49.8518C238.083 50.1899 238.264 50.455 238.499 50.6472C238.738 50.8362 239.031 50.9306 239.379 50.9306ZM248.275 52.6408C247.489 52.6408 246.813 52.4818 246.246 52.1636C245.683 51.8421 245.248 51.388 244.944 50.8014C244.639 50.2114 244.486 49.5137 244.486 48.7083C244.486 47.9228 244.639 47.2334 244.944 46.6401C245.248 46.0469 245.678 45.5845 246.231 45.2531C246.788 44.9216 247.441 44.7559 248.19 44.7559C248.694 44.7559 249.163 44.8371 249.597 44.9995C250.034 45.1586 250.416 45.3989 250.74 45.7204C251.069 46.0419 251.324 46.4462 251.506 46.9335C251.688 47.4174 251.779 47.9841 251.779 48.6337V49.2154H245.331V47.9029H249.786C249.786 47.598 249.72 47.3279 249.587 47.0926C249.454 46.8572 249.27 46.6733 249.035 46.5407C248.803 46.4048 248.533 46.3369 248.225 46.3369C247.903 46.3369 247.618 46.4114 247.37 46.5606C247.124 46.7064 246.932 46.9036 246.793 47.1522C246.654 47.3975 246.583 47.6709 246.579 47.9725V49.2204C246.579 49.5982 246.649 49.9247 246.788 50.1998C246.931 50.4749 247.131 50.687 247.39 50.8362C247.648 50.9853 247.955 51.0599 248.309 51.0599C248.545 51.0599 248.76 51.0267 248.956 50.9604C249.151 50.8942 249.319 50.7947 249.458 50.6622C249.597 50.5296 249.703 50.3672 249.776 50.1749L251.735 50.3042C251.635 50.7748 251.431 51.1858 251.123 51.5372C250.818 51.8852 250.424 52.1569 249.94 52.3525C249.459 52.5447 248.904 52.6408 248.275 52.6408ZM255.279 42.3099V52.4917H253.162V42.3099H255.279Z" fill="#D9D9D9"/>
<path d="M64.8849 52.4917V42.3099H68.902C69.6742 42.3099 70.3321 42.4574 70.8757 42.7524C71.4193 43.044 71.8336 43.45 72.1186 43.9704C72.407 44.4874 72.5511 45.084 72.5511 45.7602C72.5511 46.4363 72.4053 47.0329 72.1136 47.5499C71.822 48.067 71.3994 48.4697 70.8459 48.758C70.2957 49.0464 69.6295 49.1906 68.8473 49.1906H66.2869V47.4654H68.4993C68.9136 47.4654 69.255 47.3942 69.5234 47.2516C69.7952 47.1058 69.9974 46.9053 70.13 46.6501C70.2659 46.3916 70.3338 46.0949 70.3338 45.7602C70.3338 45.4221 70.2659 45.1271 70.13 44.8752C69.9974 44.62 69.7952 44.4228 69.5234 44.2836C69.2517 44.1411 68.907 44.0698 68.4893 44.0698H67.0376V52.4917H64.8849ZM76.0275 48.0769V52.4917H73.9096V44.8553H75.9281V46.2026H76.0176C76.1866 45.7585 76.47 45.4072 76.8677 45.1487C77.2654 44.8868 77.7477 44.7559 78.3145 44.7559C78.8448 44.7559 79.3071 44.8719 79.7015 45.1039C80.0959 45.3359 80.4025 45.6674 80.6213 46.0982C80.84 46.5258 80.9494 47.0362 80.9494 47.6295V52.4917H78.8315V48.0073C78.8348 47.54 78.7155 47.1754 78.4735 46.9136C78.2316 46.6484 77.8985 46.5158 77.4743 46.5158C77.1892 46.5158 76.9373 46.5772 76.7186 46.6998C76.5031 46.8224 76.3341 47.0014 76.2115 47.2367C76.0922 47.4687 76.0308 47.7488 76.0275 48.0769ZM86.0987 52.6408C85.3132 52.6408 84.6371 52.4818 84.0703 52.1636C83.5069 51.8421 83.0727 51.388 82.7678 50.8014C82.4628 50.2114 82.3104 49.5137 82.3104 48.7083C82.3104 47.9228 82.4628 47.2334 82.7678 46.6401C83.0727 46.0469 83.5019 45.5845 84.0554 45.2531C84.6122 44.9216 85.2652 44.7559 86.0142 44.7559C86.518 44.7559 86.987 44.8371 87.4212 44.9995C87.8587 45.1586 88.2398 45.3989 88.5646 45.7204C88.8928 46.0419 89.148 46.4462 89.3303 46.9335C89.5125 47.4174 89.6037 47.9841 89.6037 48.6337V49.2154H83.1555V47.9029H87.6101C87.6101 47.598 87.5438 47.3279 87.4112 47.0926C87.2786 46.8572 87.0947 46.6733 86.8594 46.5407C86.6274 46.4048 86.3572 46.3369 86.049 46.3369C85.7275 46.3369 85.4425 46.4114 85.1939 46.5606C84.9486 46.7064 84.7564 46.9036 84.6172 47.1522C84.478 47.3975 84.4067 47.6709 84.4034 47.9725V49.2204C84.4034 49.5982 84.473 49.9247 84.6122 50.1998C84.7547 50.4749 84.9553 50.687 85.2138 50.8362C85.4723 50.9853 85.7789 51.0599 86.1335 51.0599C86.3688 51.0599 86.5843 51.0267 86.7798 50.9604C86.9754 50.8942 87.1428 50.7947 87.282 50.6622C87.4212 50.5296 87.5272 50.3672 87.6001 50.1749L89.5589 50.3042C89.4595 50.7748 89.2557 51.1858 88.9474 51.5372C88.6425 51.8852 88.2481 52.1569 87.7642 52.3525C87.2836 52.5447 86.7285 52.6408 86.0987 52.6408ZM95.8828 49.2403V44.8553H98.0007V52.4917H95.9673V51.1046H95.8878C95.7154 51.5521 95.4287 51.9117 95.0277 52.1835C94.63 52.4552 94.1444 52.5911 93.571 52.5911C93.0606 52.5911 92.6115 52.4751 92.2237 52.2431C91.8359 52.0111 91.5327 51.6813 91.3139 51.2538C91.0985 50.8262 90.9891 50.3141 90.9858 49.7176V44.8553H93.1037V49.3397C93.107 49.7905 93.228 50.1468 93.4666 50.4086C93.7053 50.6704 94.0251 50.8014 94.4261 50.8014C94.6813 50.8014 94.92 50.7434 95.142 50.6274C95.3641 50.508 95.5431 50.3324 95.679 50.1004C95.8182 49.8684 95.8861 49.5817 95.8828 49.2403ZM99.6948 52.4917V44.8553H101.713V46.2026H101.803C101.962 45.7552 102.227 45.4022 102.598 45.1437C102.969 44.8852 103.414 44.7559 103.931 44.7559C104.454 44.7559 104.9 44.8868 105.268 45.1487C105.636 45.4072 105.881 45.7585 106.004 46.2026H106.083C106.239 45.7651 106.521 45.4155 106.928 45.1536C107.339 44.8885 107.825 44.7559 108.385 44.7559C109.098 44.7559 109.676 44.9829 110.12 45.437C110.568 45.8878 110.791 46.5274 110.791 47.356V52.4917H108.678V47.7737C108.678 47.3494 108.566 47.0312 108.34 46.8191C108.115 46.607 107.833 46.5009 107.495 46.5009C107.111 46.5009 106.811 46.6236 106.595 46.8688C106.38 47.1108 106.272 47.4306 106.272 47.8283V52.4917H104.219V47.7289C104.219 47.3544 104.111 47.0561 103.896 46.834C103.684 46.612 103.404 46.5009 103.056 46.5009C102.82 46.5009 102.608 46.5606 102.419 46.6799C102.234 46.7959 102.086 46.96 101.977 47.1721C101.867 47.3809 101.813 47.6262 101.813 47.9079V52.4917H99.6948ZM114.642 52.6359C114.155 52.6359 113.72 52.5514 113.339 52.3823C112.958 52.21 112.657 51.9564 112.434 51.6217C112.216 51.2836 112.106 50.8627 112.106 50.3589C112.106 49.9346 112.184 49.5783 112.34 49.29C112.496 49.0016 112.708 48.7696 112.976 48.594C113.245 48.4183 113.55 48.2857 113.891 48.1962C114.236 48.1068 114.597 48.0438 114.975 48.0073C115.419 47.9609 115.777 47.9178 116.049 47.8781C116.321 47.835 116.518 47.772 116.64 47.6891C116.763 47.6063 116.824 47.4836 116.824 47.3212V47.2914C116.824 46.9765 116.725 46.7329 116.526 46.5606C116.331 46.3882 116.052 46.3021 115.691 46.3021C115.31 46.3021 115.006 46.3866 114.781 46.5556C114.556 46.7213 114.407 46.9301 114.334 47.182L112.375 47.0229C112.474 46.5589 112.67 46.1579 112.961 45.8198C113.253 45.4784 113.629 45.2166 114.09 45.0343C114.554 44.8487 115.091 44.7559 115.701 44.7559C116.125 44.7559 116.531 44.8056 116.919 44.9051C117.31 45.0045 117.656 45.1586 117.958 45.3674C118.263 45.5762 118.503 45.8447 118.679 46.1728C118.854 46.4976 118.942 46.8871 118.942 47.3411V52.4917H116.934V51.4328H116.874C116.751 51.6714 116.587 51.8819 116.382 52.0641C116.176 52.2431 115.93 52.384 115.641 52.4867C115.353 52.5862 115.02 52.6359 114.642 52.6359ZM115.248 51.1742C115.56 51.1742 115.835 51.1129 116.074 50.9903C116.312 50.8643 116.5 50.6953 116.635 50.4832C116.771 50.2711 116.839 50.0308 116.839 49.7623V48.9519C116.773 48.995 116.682 49.0348 116.566 49.0712C116.453 49.1044 116.326 49.1359 116.183 49.1657C116.041 49.1922 115.898 49.2171 115.756 49.2403C115.613 49.2602 115.484 49.2784 115.368 49.295C115.119 49.3314 114.902 49.3894 114.716 49.469C114.531 49.5485 114.387 49.6562 114.284 49.7921C114.181 49.9247 114.13 50.0904 114.13 50.2893C114.13 50.5776 114.234 50.798 114.443 50.9505C114.655 51.0997 114.924 51.1742 115.248 51.1742ZM124.647 44.8553V46.4462H120.048V44.8553H124.647ZM121.093 43.0258H123.21V50.1451C123.21 50.3407 123.24 50.4931 123.3 50.6025C123.36 50.7086 123.442 50.7831 123.548 50.8262C123.658 50.8693 123.784 50.8908 123.926 50.8908C124.026 50.8908 124.125 50.8826 124.225 50.866C124.324 50.8461 124.4 50.8312 124.453 50.8212L124.786 52.3972C124.68 52.4304 124.531 52.4685 124.339 52.5116C124.147 52.558 123.913 52.5862 123.638 52.5961C123.128 52.616 122.68 52.548 122.296 52.3923C121.914 52.2365 121.618 51.9945 121.406 51.6664C121.194 51.3383 121.089 50.924 121.093 50.4235V43.0258ZM126.027 52.4917V44.8553H128.145V52.4917H126.027ZM127.091 43.871C126.776 43.871 126.506 43.7666 126.28 43.5577C126.058 43.3456 125.947 43.0921 125.947 42.7971C125.947 42.5054 126.058 42.2552 126.28 42.0464C126.506 41.8343 126.776 41.7282 127.091 41.7282C127.406 41.7282 127.674 41.8343 127.896 42.0464C128.122 42.2552 128.234 42.5054 128.234 42.7971C128.234 43.0921 128.122 43.3456 127.896 43.5577C127.674 43.7666 127.406 43.871 127.091 43.871ZM131.76 50.2943L131.765 47.7538H132.074L134.52 44.8553H136.951L133.664 48.6934H133.162L131.76 50.2943ZM129.841 52.4917V42.3099H131.959V52.4917H129.841ZM134.614 52.4917L132.367 49.1657L133.779 47.6693L137.095 52.4917H134.614ZM139.42 55.3553C139.152 55.3553 138.9 55.3338 138.665 55.2907C138.433 55.2509 138.24 55.1996 138.088 55.1366L138.565 53.5556C138.814 53.6319 139.037 53.6733 139.236 53.6799C139.439 53.6865 139.613 53.6401 139.758 53.5407C139.907 53.4413 140.028 53.2722 140.121 53.0336L140.246 52.7104L137.506 44.8553H139.733L141.314 50.4633H141.394L142.99 44.8553H145.232L142.264 53.317C142.122 53.728 141.928 54.0859 141.682 54.3908C141.44 54.6991 141.134 54.9361 140.763 55.1018C140.391 55.2708 139.944 55.3553 139.42 55.3553ZM151.734 52.6359C151.246 52.6359 150.812 52.5514 150.431 52.3823C150.05 52.21 149.748 51.9564 149.526 51.6217C149.308 51.2836 149.198 50.8627 149.198 50.3589C149.198 49.9346 149.276 49.5783 149.432 49.29C149.588 49.0016 149.8 48.7696 150.068 48.594C150.337 48.4183 150.642 48.2857 150.983 48.1962C151.328 48.1068 151.689 48.0438 152.067 48.0073C152.511 47.9609 152.869 47.9178 153.141 47.8781C153.412 47.835 153.61 47.772 153.732 47.6891C153.855 47.6063 153.916 47.4836 153.916 47.3212V47.2914C153.916 46.9765 153.817 46.7329 153.618 46.5606C153.422 46.3882 153.144 46.3021 152.783 46.3021C152.402 46.3021 152.098 46.3866 151.873 46.5556C151.647 46.7213 151.498 46.9301 151.425 47.182L149.467 47.0229C149.566 46.5589 149.762 46.1579 150.053 45.8198C150.345 45.4784 150.721 45.2166 151.182 45.0343C151.646 44.8487 152.183 44.7559 152.793 44.7559C153.217 44.7559 153.623 44.8056 154.011 44.9051C154.402 45.0045 154.748 45.1586 155.05 45.3674C155.355 45.5762 155.595 45.8447 155.771 46.1728C155.946 46.4976 156.034 46.8871 156.034 47.3411V52.4917H154.026V51.4328H153.966C153.843 51.6714 153.679 51.8819 153.474 52.0641C153.268 52.2431 153.021 52.384 152.733 52.4867C152.445 52.5862 152.112 52.6359 151.734 52.6359ZM152.34 51.1742C152.652 51.1742 152.927 51.1129 153.165 50.9903C153.404 50.8643 153.591 50.6953 153.727 50.4832C153.863 50.2711 153.931 50.0308 153.931 49.7623V48.9519C153.865 48.995 153.774 49.0348 153.658 49.0712C153.545 49.1044 153.417 49.1359 153.275 49.1657C153.132 49.1922 152.99 49.2171 152.847 49.2403C152.705 49.2602 152.576 49.2784 152.46 49.295C152.211 49.3314 151.994 49.3894 151.808 49.469C151.623 49.5485 151.478 49.6562 151.376 49.7921C151.273 49.9247 151.222 50.0904 151.222 50.2893C151.222 50.5776 151.326 50.798 151.535 50.9505C151.747 51.0997 152.015 51.1742 152.34 51.1742ZM166.481 45.2381C166.441 44.8371 166.27 44.5256 165.969 44.3035C165.667 44.0814 165.258 43.9704 164.741 43.9704C164.389 43.9704 164.093 44.0201 163.851 44.1195C163.609 44.2157 163.423 44.3499 163.294 44.5222C163.168 44.6946 163.105 44.8901 163.105 45.1089C163.098 45.2912 163.136 45.4503 163.219 45.5862C163.305 45.722 163.423 45.8397 163.572 45.9391C163.721 46.0353 163.894 46.1198 164.089 46.1927C164.285 46.2623 164.494 46.322 164.716 46.3717L165.631 46.5904C166.075 46.6899 166.482 46.8224 166.854 46.9881C167.225 47.1539 167.546 47.3577 167.818 47.5997C168.09 47.8416 168.3 48.1266 168.449 48.4548C168.602 48.7829 168.68 49.1591 168.683 49.5833C168.68 50.2064 168.521 50.7467 168.206 51.2041C167.894 51.6581 167.443 52.0111 166.854 52.263C166.267 52.5116 165.559 52.6359 164.731 52.6359C163.909 52.6359 163.193 52.5099 162.583 52.258C161.976 52.0061 161.502 51.6333 161.161 51.1394C160.823 50.6423 160.646 50.0274 160.629 49.295H162.712C162.735 49.6363 162.833 49.9214 163.006 50.1501C163.181 50.3755 163.415 50.5461 163.706 50.6622C164.001 50.7748 164.335 50.8312 164.706 50.8312C165.07 50.8312 165.387 50.7782 165.655 50.6721C165.927 50.566 166.138 50.4185 166.287 50.2296C166.436 50.0407 166.51 49.8236 166.51 49.5783C166.51 49.3497 166.443 49.1574 166.307 49.0016C166.174 48.8459 165.979 48.7133 165.72 48.6039C165.465 48.4945 165.152 48.3951 164.78 48.3056L163.672 48.0272C162.813 47.8184 162.135 47.4919 161.638 47.0478C161.141 46.6037 160.894 46.0054 160.898 45.2531C160.894 44.6366 161.058 44.098 161.39 43.6373C161.724 43.1766 162.184 42.817 162.767 42.5585C163.35 42.2999 164.013 42.1707 164.756 42.1707C165.511 42.1707 166.171 42.2999 166.734 42.5585C167.301 42.817 167.742 43.1766 168.057 43.6373C168.372 44.098 168.534 44.6316 168.544 45.2381H166.481ZM173.571 52.6408C172.786 52.6408 172.11 52.4818 171.543 52.1636C170.98 51.8421 170.545 51.388 170.24 50.8014C169.935 50.2114 169.783 49.5137 169.783 48.7083C169.783 47.9228 169.935 47.2334 170.24 46.6401C170.545 46.0469 170.975 45.5845 171.528 45.2531C172.085 44.9216 172.738 44.7559 173.487 44.7559C173.991 44.7559 174.46 44.8371 174.894 44.9995C175.331 45.1586 175.712 45.3989 176.037 45.7204C176.365 46.0419 176.621 46.4462 176.803 46.9335C176.985 47.4174 177.076 47.9841 177.076 48.6337V49.2154H170.628V47.9029H175.083C175.083 47.598 175.016 47.3279 174.884 47.0926C174.751 46.8572 174.567 46.6733 174.332 46.5407C174.1 46.4048 173.83 46.3369 173.522 46.3369C173.2 46.3369 172.915 46.4114 172.667 46.5606C172.421 46.7064 172.229 46.9036 172.09 47.1522C171.951 47.3975 171.879 47.6709 171.876 47.9725V49.2204C171.876 49.5982 171.946 49.9247 172.085 50.1998C172.227 50.4749 172.428 50.687 172.686 50.8362C172.945 50.9853 173.252 51.0599 173.606 51.0599C173.842 51.0599 174.057 51.0267 174.252 50.9604C174.448 50.8942 174.615 50.7947 174.755 50.6622C174.894 50.5296 175 50.3672 175.073 50.1749L177.032 50.3042C176.932 50.7748 176.728 51.1858 176.42 51.5372C176.115 51.8852 175.721 52.1569 175.237 52.3525C174.756 52.5447 174.201 52.6408 173.571 52.6408ZM178.458 52.4917V44.8553H180.512V46.1877H180.591C180.73 45.7138 180.964 45.3558 181.292 45.1139C181.62 44.8686 181.998 44.746 182.426 44.746C182.532 44.746 182.646 44.7526 182.769 44.7658C182.891 44.7791 182.999 44.7973 183.092 44.8205V46.6998C182.993 46.67 182.855 46.6435 182.679 46.6203C182.504 46.597 182.343 46.5854 182.197 46.5854C181.886 46.5854 181.607 46.6534 181.362 46.7893C181.12 46.9219 180.928 47.1075 180.785 47.3461C180.646 47.5847 180.576 47.8598 180.576 48.1714V52.4917H178.458ZM191.539 44.8553L188.869 52.4917H186.483L183.813 44.8553H186.05L187.636 50.3191H187.716L189.297 44.8553H191.539ZM192.623 52.4917V44.8553H194.74V52.4917H192.623ZM193.686 43.871C193.372 43.871 193.101 43.7666 192.876 43.5577C192.654 43.3456 192.543 43.0921 192.543 42.7971C192.543 42.5054 192.654 42.2552 192.876 42.0464C193.101 41.8343 193.372 41.7282 193.686 41.7282C194.001 41.7282 194.27 41.8343 194.492 42.0464C194.717 42.2552 194.83 42.5054 194.83 42.7971C194.83 43.0921 194.717 43.3456 194.492 43.5577C194.27 43.7666 194.001 43.871 193.686 43.871ZM202.791 47.0329L200.852 47.1522C200.819 46.9865 200.747 46.8373 200.638 46.7048C200.529 46.5689 200.384 46.4612 200.205 46.3816C200.03 46.2988 199.819 46.2573 199.574 46.2573C199.246 46.2573 198.969 46.3269 198.744 46.4661C198.518 46.602 198.406 46.7843 198.406 47.013C198.406 47.1953 198.479 47.3494 198.624 47.4754C198.77 47.6013 199.021 47.7024 199.375 47.7786L200.757 48.057C201.5 48.2095 202.053 48.4548 202.418 48.7928C202.782 49.1309 202.965 49.575 202.965 50.1252C202.965 50.6257 202.817 51.0649 202.522 51.4427C202.231 51.8205 201.829 52.1155 201.319 52.3276C200.812 52.5364 200.227 52.6408 199.564 52.6408C198.553 52.6408 197.748 52.4304 197.148 52.0095C196.551 51.5852 196.202 51.0085 196.099 50.2793L198.182 50.17C198.245 50.4782 198.397 50.7135 198.639 50.8759C198.881 51.035 199.191 51.1146 199.569 51.1146C199.94 51.1146 200.239 51.0433 200.464 50.9008C200.693 50.755 200.809 50.5677 200.812 50.339C200.809 50.1468 200.727 49.9893 200.568 49.8667C200.409 49.7408 200.164 49.6446 199.833 49.5783L198.51 49.3149C197.764 49.1657 197.209 48.9072 196.845 48.5393C196.483 48.1714 196.303 47.7024 196.303 47.1323C196.303 46.6418 196.435 46.2192 196.7 45.8646C196.969 45.5099 197.345 45.2365 197.829 45.0443C198.316 44.852 198.886 44.7559 199.539 44.7559C200.504 44.7559 201.263 44.9597 201.816 45.3674C202.373 45.7751 202.698 46.3302 202.791 47.0329ZM214.658 44.8553L211.988 52.4917H209.602L206.932 44.8553H209.169L210.755 50.3191H210.835L212.416 44.8553H214.658ZM218.946 52.6408C218.174 52.6408 217.506 52.4768 216.942 52.1487C216.382 51.8172 215.95 51.3565 215.645 50.7666C215.34 50.1733 215.187 49.4855 215.187 48.7033C215.187 47.9145 215.34 47.2251 215.645 46.6352C215.95 46.0419 216.382 45.5812 216.942 45.2531C217.506 44.9216 218.174 44.7559 218.946 44.7559C219.718 44.7559 220.384 44.9216 220.944 45.2531C221.508 45.5812 221.942 46.0419 222.247 46.6352C222.552 47.2251 222.704 47.9145 222.704 48.7033C222.704 49.4855 222.552 50.1733 222.247 50.7666C221.942 51.3565 221.508 51.8172 220.944 52.1487C220.384 52.4768 219.718 52.6408 218.946 52.6408ZM218.956 51.0002C219.307 51.0002 219.6 50.9008 219.836 50.7019C220.071 50.4997 220.248 50.2247 220.368 49.8766C220.49 49.5286 220.552 49.1326 220.552 48.6884C220.552 48.2443 220.49 47.8482 220.368 47.5002C220.248 47.1522 220.071 46.8771 219.836 46.6749C219.6 46.4728 219.307 46.3717 218.956 46.3717C218.601 46.3717 218.303 46.4728 218.061 46.6749C217.822 46.8771 217.642 47.1522 217.519 47.5002C217.4 47.8482 217.34 48.2443 217.34 48.6884C217.34 49.1326 217.4 49.5286 217.519 49.8766C217.642 50.2247 217.822 50.4997 218.061 50.7019C218.303 50.9008 218.601 51.0002 218.956 51.0002ZM224.042 52.4917V51.2289L227.78 46.6004V46.5457H224.171V44.8553H230.331V46.2325L226.821 50.7467V50.8014H230.46V52.4917H224.042ZM232.08 52.4917V44.8553H234.197V52.4917H232.08ZM233.143 43.871C232.829 43.871 232.558 43.7666 232.333 43.5577C232.111 43.3456 232 43.0921 232 42.7971C232 42.5054 232.111 42.2552 232.333 42.0464C232.558 41.8343 232.829 41.7282 233.143 41.7282C233.458 41.7282 233.727 41.8343 233.949 42.0464C234.174 42.2552 234.287 42.5054 234.287 42.7971C234.287 43.0921 234.174 43.3456 233.949 43.5577C233.727 43.7666 233.458 43.871 233.143 43.871ZM238.708 52.616C238.128 52.616 237.603 52.4668 237.132 52.1685C236.665 51.8669 236.293 51.4245 236.018 50.8411C235.747 50.2545 235.611 49.5353 235.611 48.6835C235.611 47.8085 235.751 47.081 236.033 46.5009C236.315 45.9176 236.689 45.4818 237.157 45.1934C237.627 44.9017 238.143 44.7559 238.703 44.7559C239.131 44.7559 239.487 44.8288 239.772 44.9747C240.06 45.1172 240.292 45.2961 240.468 45.5116C240.647 45.7237 240.783 45.9325 240.876 46.138H240.94V42.3099H243.053V52.4917H240.965V51.2687H240.876C240.776 51.4808 240.635 51.6913 240.453 51.9001C240.274 52.1056 240.04 52.2763 239.752 52.4122C239.467 52.548 239.119 52.616 238.708 52.616ZM239.379 50.9306C239.72 50.9306 240.009 50.8378 240.244 50.6522C240.483 50.4633 240.665 50.1998 240.791 49.8617C240.92 49.5237 240.985 49.1276 240.985 48.6735C240.985 48.2194 240.922 47.825 240.796 47.4903C240.67 47.1555 240.488 46.897 240.249 46.7147C240.01 46.5324 239.72 46.4413 239.379 46.4413C239.031 46.4413 238.738 46.5357 238.499 46.7247C238.26 46.9136 238.08 47.1754 237.957 47.5102C237.835 47.8449 237.773 48.2327 237.773 48.6735C237.773 49.1176 237.835 49.5104 237.957 49.8518C238.083 50.1899 238.264 50.455 238.499 50.6472C238.738 50.8362 239.031 50.9306 239.379 50.9306ZM248.275 52.6408C247.489 52.6408 246.813 52.4818 246.246 52.1636C245.683 51.8421 245.248 51.388 244.944 50.8014C244.639 50.2114 244.486 49.5137 244.486 48.7083C244.486 47.9228 244.639 47.2334 244.944 46.6401C245.248 46.0469 245.678 45.5845 246.231 45.2531C246.788 44.9216 247.441 44.7559 248.19 44.7559C248.694 44.7559 249.163 44.8371 249.597 44.9995C250.034 45.1586 250.416 45.3989 250.74 45.7204C251.069 46.0419 251.324 46.4462 251.506 46.9335C251.688 47.4174 251.779 47.9841 251.779 48.6337V49.2154H245.331V47.9029H249.786C249.786 47.598 249.72 47.3279 249.587 47.0926C249.454 46.8572 249.27 46.6733 249.035 46.5407C248.803 46.4048 248.533 46.3369 248.225 46.3369C247.903 46.3369 247.618 46.4114 247.37 46.5606C247.124 46.7064 246.932 46.9036 246.793 47.1522C246.654 47.3975 246.583 47.6709 246.579 47.9725V49.2204C246.579 49.5982 246.649 49.9247 246.788 50.1998C246.931 50.4749 247.131 50.687 247.39 50.8362C247.648 50.9853 247.955 51.0599 248.309 51.0599C248.545 51.0599 248.76 51.0267 248.956 50.9604C249.151 50.8942 249.319 50.7947 249.458 50.6622C249.597 50.5296 249.703 50.3672 249.776 50.1749L251.735 50.3042C251.635 50.7748 251.431 51.1858 251.123 51.5372C250.818 51.8852 250.424 52.1569 249.94 52.3525C249.459 52.5447 248.904 52.6408 248.275 52.6408ZM255.279 42.3099V52.4917H253.162V42.3099H255.279Z" fill="#F6F4F3" fill-opacity="0.2"/>
</g>
<defs>
<clipPath id="clip0_864_931">
<rect width="277" height="64" fill="white" transform="translate(0.5 0.491699)"/>
</clipPath>
</defs>
</svg>
