<svg width="192" height="65" viewBox="0 0 192 65" fill="none" xmlns="http://www.w3.org/2000/svg">
<g clip-path="url(#clip0_864_985)">
<path d="M66.9694 2.50251C64.2013 3.68127 61.71 4.68669 59.2533 5.79611C55.2395 7.6336 51.5371 9.92179 48.3884 13.0767C47.9732 13.4928 47.5926 13.9088 47.2119 14.3595C43.7864 18.5198 44.2016 21.6401 48.7344 24.5177C54.0284 27.8806 60.0145 29.3714 66.0005 30.7929C68.0074 31.2782 70.0489 31.6943 72.125 31.6943C72.99 31.6943 73.0592 32.0063 73.0246 32.6997C72.99 37.1374 72.9554 41.5751 72.9554 46.0475C72.9554 46.9142 72.6786 47.2609 71.779 47.2609C62.748 47.2262 53.6824 47.2609 44.6514 47.2262C44.2708 47.2262 43.8556 47.1222 43.475 46.9835C36.6585 44.1406 30.0496 40.9164 24.202 36.2706C22.1259 34.6065 20.1536 32.8384 18.7003 30.5848C16.1052 26.4938 16.4167 23.1309 19.7384 19.6293C22.9909 16.2316 27.0047 14.0128 31.2261 12.106C38.9422 8.63902 47.1773 6.87087 55.3087 4.86003C58.492 4.06264 61.5369 2.57184 64.8933 2.50251C65.5161 2.46784 66.0697 2.29449 66.9694 2.50251Z" fill="#D9D9D9"/>
<path d="M66.9694 2.50251C64.2013 3.68127 61.71 4.68669 59.2533 5.79611C55.2395 7.6336 51.5371 9.92179 48.3884 13.0767C47.9732 13.4928 47.5926 13.9088 47.2119 14.3595C43.7864 18.5198 44.2016 21.6401 48.7344 24.5177C54.0284 27.8806 60.0145 29.3714 66.0005 30.7929C68.0074 31.2782 70.0489 31.6943 72.125 31.6943C72.99 31.6943 73.0592 32.0063 73.0246 32.6997C72.99 37.1374 72.9554 41.5751 72.9554 46.0475C72.9554 46.9142 72.6786 47.2609 71.779 47.2609C62.748 47.2262 53.6824 47.2609 44.6514 47.2262C44.2708 47.2262 43.8556 47.1222 43.475 46.9835C36.6585 44.1406 30.0496 40.9164 24.202 36.2706C22.1259 34.6065 20.1536 32.8384 18.7003 30.5848C16.1052 26.4938 16.4167 23.1309 19.7384 19.6293C22.9909 16.2316 27.0047 14.0128 31.2261 12.106C38.9422 8.63902 47.1773 6.87087 55.3087 4.86003C58.492 4.06264 61.5369 2.57184 64.8933 2.50251C65.5161 2.46784 66.0697 2.29449 66.9694 2.50251Z" fill="#F6F4F3" fill-opacity="0.2"/>
<path d="M185.929 14.949C185.306 14.949 184.649 14.9143 184.026 14.949C182.192 15.053 180.531 15.261 180.255 12.5568C180.116 11.1353 178.801 10.0952 177.417 9.50585C174.857 8.43109 172.227 8.46576 169.701 9.60986C168.006 10.3726 166.933 11.69 166.898 13.6315C166.864 15.5037 168.006 16.5784 169.493 17.3758C172.192 18.7973 175.099 19.768 177.971 20.7388C181.154 21.8135 184.199 23.1657 186.863 25.2458C193.438 30.4116 192.919 40.7084 185.895 45.1808C178.559 49.8265 165.722 48.7865 159.251 43.0313C156.518 40.6044 155.238 37.4842 155.099 33.8439C155.065 32.9078 155.238 32.5264 156.31 32.5264C159.009 32.5958 161.743 32.5611 164.442 32.5264C165.203 32.5264 165.48 32.6304 165.618 33.5319C166.241 37.8309 167.936 39.391 172.227 39.8417C174.026 40.0151 175.791 40.0497 177.521 39.495C179.251 38.9403 180.428 37.7962 180.704 35.9934C180.981 34.0519 180.497 32.3184 178.767 31.1397C176.898 29.8569 174.787 29.0942 172.642 28.4008C168.974 27.1873 165.376 25.8699 162.054 23.8244C154.303 19.04 154.061 8.77779 161.812 3.99339C169.009 -0.444313 176.691 -0.582992 184.234 3.16132C188.455 5.27616 190.981 8.81246 191.189 13.7702C191.223 14.6716 191.016 15.0183 190.081 14.949C188.697 14.8796 187.313 14.949 185.929 14.949Z" fill="#D9D9D9"/>
<path d="M185.929 14.949C185.306 14.949 184.649 14.9143 184.026 14.949C182.192 15.053 180.531 15.261 180.255 12.5568C180.116 11.1353 178.801 10.0952 177.417 9.50585C174.857 8.43109 172.227 8.46576 169.701 9.60986C168.006 10.3726 166.933 11.69 166.898 13.6315C166.864 15.5037 168.006 16.5784 169.493 17.3758C172.192 18.7973 175.099 19.768 177.971 20.7388C181.154 21.8135 184.199 23.1657 186.863 25.2458C193.438 30.4116 192.919 40.7084 185.895 45.1808C178.559 49.8265 165.722 48.7865 159.251 43.0313C156.518 40.6044 155.238 37.4842 155.099 33.8439C155.065 32.9078 155.238 32.5264 156.31 32.5264C159.009 32.5958 161.743 32.5611 164.442 32.5264C165.203 32.5264 165.48 32.6304 165.618 33.5319C166.241 37.8309 167.936 39.391 172.227 39.8417C174.026 40.0151 175.791 40.0497 177.521 39.495C179.251 38.9403 180.428 37.7962 180.704 35.9934C180.981 34.0519 180.497 32.3184 178.767 31.1397C176.898 29.8569 174.787 29.0942 172.642 28.4008C168.974 27.1873 165.376 25.8699 162.054 23.8244C154.303 19.04 154.061 8.77779 161.812 3.99339C169.009 -0.444313 176.691 -0.582992 184.234 3.16132C188.455 5.27616 190.981 8.81246 191.189 13.7702C191.223 14.6716 191.016 15.0183 190.081 14.949C188.697 14.8796 187.313 14.949 185.929 14.949Z" fill="#F6F4F3" fill-opacity="0.2"/>
<path d="M104.927 28.5393C104.927 34.3291 104.893 40.0843 104.962 45.8741C104.996 47.2262 104.581 47.5036 103.336 47.4689C100.844 47.3649 98.3875 47.3649 95.8962 47.4689C94.5813 47.5382 94.1661 47.2262 94.1661 45.8048C94.2353 34.5025 94.1661 23.1655 94.2353 11.8633C94.2353 10.1298 93.9585 9.47108 92.0554 9.57508C89.2527 9.74843 86.4154 9.57508 83.5781 9.64442C82.5054 9.67909 82.021 9.47108 82.0902 8.25764C82.194 6.35082 82.1594 4.44399 82.0902 2.53716C82.0556 1.7051 82.2286 1.32373 83.1975 1.32373C94.0969 1.3584 104.996 1.3584 115.896 1.32373C116.83 1.32373 117.072 1.60109 117.038 2.5025C116.968 4.47866 116.968 6.42016 117.038 8.39632C117.072 9.40174 116.726 9.64442 115.757 9.64442C112.712 9.57508 109.633 9.71376 106.588 9.57508C105.066 9.50575 104.823 10.0258 104.858 11.3779C104.962 17.0984 104.927 22.8189 104.927 28.5393Z" fill="#D9D9D9"/>
<path d="M104.927 28.5393C104.927 34.3291 104.893 40.0843 104.962 45.8741C104.996 47.2262 104.581 47.5036 103.336 47.4689C100.844 47.3649 98.3875 47.3649 95.8962 47.4689C94.5813 47.5382 94.1661 47.2262 94.1661 45.8048C94.2353 34.5025 94.1661 23.1655 94.2353 11.8633C94.2353 10.1298 93.9585 9.47108 92.0554 9.57508C89.2527 9.74843 86.4154 9.57508 83.5781 9.64442C82.5054 9.67909 82.021 9.47108 82.0902 8.25764C82.194 6.35082 82.1594 4.44399 82.0902 2.53716C82.0556 1.7051 82.2286 1.32373 83.1975 1.32373C94.0969 1.3584 104.996 1.3584 115.896 1.32373C116.83 1.32373 117.072 1.60109 117.038 2.5025C116.968 4.47866 116.968 6.42016 117.038 8.39632C117.072 9.40174 116.726 9.64442 115.757 9.64442C112.712 9.57508 109.633 9.71376 106.588 9.57508C105.066 9.50575 104.823 10.0258 104.858 11.3779C104.962 17.0984 104.927 22.8189 104.927 28.5393Z" fill="#F6F4F3" fill-opacity="0.2"/>
<path d="M121.294 24.4138C121.294 17.2718 121.328 10.0952 121.259 2.95331C121.259 1.67054 121.536 1.28917 122.851 1.32384C125.377 1.42785 127.937 1.46252 130.463 1.32384C131.847 1.2545 132.02 1.73988 132.02 2.95331C131.986 14.4289 132.02 25.9046 131.951 37.4148C131.951 38.8363 132.262 39.2177 133.716 39.2177C139.252 39.1137 144.788 39.2177 150.29 39.1483C151.501 39.1483 151.881 39.4604 151.812 40.6738C151.708 42.5113 151.743 44.3834 151.812 46.2209C151.812 47.0183 151.708 47.469 150.705 47.469C141.259 47.4344 131.812 47.4344 122.366 47.469C121.19 47.469 121.259 46.8796 121.259 46.0822C121.328 38.8363 121.294 31.625 121.294 24.4138Z" fill="#D9D9D9"/>
<path d="M121.294 24.4138C121.294 17.2718 121.328 10.0952 121.259 2.95331C121.259 1.67054 121.536 1.28917 122.851 1.32384C125.377 1.42785 127.937 1.46252 130.463 1.32384C131.847 1.2545 132.02 1.73988 132.02 2.95331C131.986 14.4289 132.02 25.9046 131.951 37.4148C131.951 38.8363 132.262 39.2177 133.716 39.2177C139.252 39.1137 144.788 39.2177 150.29 39.1483C151.501 39.1483 151.881 39.4604 151.812 40.6738C151.708 42.5113 151.743 44.3834 151.812 46.2209C151.812 47.0183 151.708 47.469 150.705 47.469C141.259 47.4344 131.812 47.4344 122.366 47.469C121.19 47.469 121.259 46.8796 121.259 46.0822C121.328 38.8363 121.294 31.625 121.294 24.4138Z" fill="#F6F4F3" fill-opacity="0.2"/>
<path d="M33.7174 47.4344C29.4268 47.4344 25.5514 47.4344 21.6415 47.4344C18.6312 47.4344 15.6208 47.2611 12.6451 47.5038C10.3268 47.6771 8.73514 46.845 7.31648 45.1462C5.4134 42.8927 3.61413 40.6045 2.29927 37.9003C-0.849458 31.2784 0.153985 25.1419 5.3442 19.9761C9.56558 15.7811 14.7212 13.1462 20.1882 11.066C29.0116 7.66843 38.2156 5.96962 47.4888 4.47883C51.1219 3.88945 54.7551 3.43874 58.3882 2.9187C58.4228 3.09205 58.4574 3.23073 58.492 3.40407C56.2429 3.88945 53.9938 4.34015 51.7447 4.82553C45.2397 6.21231 38.6308 7.3564 32.3333 9.67927C28.2158 11.2047 24.2712 13.0422 20.6726 15.5731C19.3924 16.4745 18.2159 17.4799 17.1779 18.6587C13.4063 22.923 12.9565 27.2914 15.9322 32.1451C18.735 36.7909 22.8525 40.1191 27.2469 43.1701C29.2538 44.5568 31.3299 45.8743 33.7174 47.4344Z" fill="#D9D9D9"/>
<path d="M33.7174 47.4344C29.4268 47.4344 25.5514 47.4344 21.6415 47.4344C18.6312 47.4344 15.6208 47.2611 12.6451 47.5038C10.3268 47.6771 8.73514 46.845 7.31648 45.1462C5.4134 42.8927 3.61413 40.6045 2.29927 37.9003C-0.849458 31.2784 0.153985 25.1419 5.3442 19.9761C9.56558 15.7811 14.7212 13.1462 20.1882 11.066C29.0116 7.66843 38.2156 5.96962 47.4888 4.47883C51.1219 3.88945 54.7551 3.43874 58.3882 2.9187C58.4228 3.09205 58.4574 3.23073 58.492 3.40407C56.2429 3.88945 53.9938 4.34015 51.7447 4.82553C45.2397 6.21231 38.6308 7.3564 32.3333 9.67927C28.2158 11.2047 24.2712 13.0422 20.6726 15.5731C19.3924 16.4745 18.2159 17.4799 17.1779 18.6587C13.4063 22.923 12.9565 27.2914 15.9322 32.1451C18.735 36.7909 22.8525 40.1191 27.2469 43.1701C29.2538 44.5568 31.3299 45.8743 33.7174 47.4344Z" fill="#F6F4F3" fill-opacity="0.2"/>
<path d="M82.367 56.7258C118.629 56.7258 154.926 56.7258 191.189 56.7258C191.189 56.7952 191.189 56.8645 191.189 56.9338C154.926 56.9338 118.629 56.9338 82.367 56.9338C82.367 56.8645 82.367 56.7952 82.367 56.7258Z" fill="#D9D9D9"/>
<path d="M82.367 56.7258C118.629 56.7258 154.926 56.7258 191.189 56.7258C191.189 56.7952 191.189 56.8645 191.189 56.9338C154.926 56.9338 118.629 56.9338 82.367 56.9338C82.367 56.8645 82.367 56.7952 82.367 56.7258Z" fill="#F6F4F3" fill-opacity="0.2"/>
<path d="M94.0969 62.1687V61.6487H96.3806V62.1687H95.5502V64.4222H94.9274V62.1687H94.0969Z" fill="#D9D9D9"/>
<path d="M94.0969 62.1687V61.6487H96.3806V62.1687H95.5502V64.4222H94.9274V62.1687H94.0969Z" fill="#F6F4F3" fill-opacity="0.2"/>
<path d="M98.9411 61.6487C99.0795 61.6487 99.1833 61.6834 99.2871 61.718C99.3909 61.7527 99.4601 61.822 99.5293 61.8914C99.5986 61.9607 99.6678 62.03 99.7024 62.1341C99.737 62.2381 99.7716 62.3421 99.7716 62.4461C99.7716 62.6194 99.737 62.7581 99.6678 62.8621C99.5986 62.9661 99.4947 63.0701 99.3217 63.1395C99.3909 63.1741 99.4601 63.2088 99.4947 63.2435C99.5293 63.2782 99.5985 63.3475 99.5985 63.3822C99.5985 63.4168 99.6678 63.5208 99.6678 63.5902C99.6678 63.6595 99.7024 63.7289 99.7024 63.7982C99.7024 63.8329 99.7024 63.9022 99.7024 63.9369C99.7024 64.0062 99.7024 64.0409 99.7024 64.1102C99.7024 64.1796 99.7023 64.2142 99.7369 64.2836C99.7369 64.3529 99.7716 64.3876 99.8062 64.4222H99.1833C99.1487 64.3182 99.1141 64.2142 99.1141 64.1102C99.1141 63.9715 99.0795 63.8675 99.0795 63.7635C99.0449 63.6248 99.0103 63.5208 98.9411 63.4515C98.8719 63.3822 98.7681 63.3475 98.5951 63.3475H98.0761V64.4222H97.4533V61.6487H98.9411ZM98.7335 62.8968C98.8719 62.8968 98.9757 62.8621 99.0449 62.7928C99.1141 62.7234 99.1487 62.6194 99.1487 62.4808C99.1487 62.3421 99.1141 62.2381 99.0449 62.2034C98.9757 62.1341 98.8719 62.0994 98.7335 62.0994H98.0761V62.8968H98.7335Z" fill="#D9D9D9"/>
<path d="M98.9411 61.6487C99.0795 61.6487 99.1833 61.6834 99.2871 61.718C99.3909 61.7527 99.4601 61.822 99.5293 61.8914C99.5986 61.9607 99.6678 62.03 99.7024 62.1341C99.737 62.2381 99.7716 62.3421 99.7716 62.4461C99.7716 62.6194 99.737 62.7581 99.6678 62.8621C99.5986 62.9661 99.4947 63.0701 99.3217 63.1395C99.3909 63.1741 99.4601 63.2088 99.4947 63.2435C99.5293 63.2782 99.5985 63.3475 99.5985 63.3822C99.5985 63.4168 99.6678 63.5208 99.6678 63.5902C99.6678 63.6595 99.7024 63.7289 99.7024 63.7982C99.7024 63.8329 99.7024 63.9022 99.7024 63.9369C99.7024 64.0062 99.7024 64.0409 99.7024 64.1102C99.7024 64.1796 99.7023 64.2142 99.7369 64.2836C99.7369 64.3529 99.7716 64.3876 99.8062 64.4222H99.1833C99.1487 64.3182 99.1141 64.2142 99.1141 64.1102C99.1141 63.9715 99.0795 63.8675 99.0795 63.7635C99.0449 63.6248 99.0103 63.5208 98.9411 63.4515C98.8719 63.3822 98.7681 63.3475 98.5951 63.3475H98.0761V64.4222H97.4533V61.6487H98.9411ZM98.7335 62.8968C98.8719 62.8968 98.9757 62.8621 99.0449 62.7928C99.1141 62.7234 99.1487 62.6194 99.1487 62.4808C99.1487 62.3421 99.1141 62.2381 99.0449 62.2034C98.9757 62.1341 98.8719 62.0994 98.7335 62.0994H98.0761V62.8968H98.7335Z" fill="#F6F4F3" fill-opacity="0.2"/>
<path d="M102.401 61.6487L103.439 64.4222H102.816L102.609 63.7982H101.571L101.363 64.4222H100.74L101.778 61.6487H102.401ZM102.436 63.3475L102.09 62.3421L101.744 63.3475H102.436Z" fill="#D9D9D9"/>
<path d="M102.401 61.6487L103.439 64.4222H102.816L102.609 63.7982H101.571L101.363 64.4222H100.74L101.778 61.6487H102.401ZM102.436 63.3475L102.09 62.3421L101.744 63.3475H102.436Z" fill="#F6F4F3" fill-opacity="0.2"/>
<path d="M105.066 61.6487L106.207 63.5208V61.6487H106.761V64.4222H106.138L104.996 62.5501V64.4222H104.443V61.6487H105.066Z" fill="#D9D9D9"/>
<path d="M105.066 61.6487L106.207 63.5208V61.6487H106.761V64.4222H106.138L104.996 62.5501V64.4222H104.443V61.6487H105.066Z" fill="#F6F4F3" fill-opacity="0.2"/>
<path d="M108.595 63.7289C108.63 63.7982 108.664 63.8329 108.733 63.9022C108.803 63.9369 108.837 63.9715 108.941 64.0062C109.01 64.0409 109.079 64.0409 109.183 64.0409C109.252 64.0409 109.287 64.0409 109.356 64.0409C109.425 64.0409 109.46 64.0062 109.529 63.9715C109.598 63.9369 109.633 63.9022 109.668 63.8675C109.702 63.8329 109.737 63.7635 109.737 63.6942C109.737 63.6248 109.702 63.5555 109.668 63.5208C109.633 63.4862 109.564 63.4515 109.495 63.4168C109.425 63.3822 109.322 63.3475 109.218 63.3475C109.114 63.3128 109.01 63.3128 108.906 63.2782C108.803 63.2435 108.699 63.2088 108.595 63.1741C108.491 63.1395 108.422 63.1048 108.318 63.0355C108.214 62.9661 108.18 62.8968 108.145 62.8274C108.111 62.7234 108.076 62.6194 108.076 62.5154C108.076 62.3767 108.111 62.2381 108.18 62.1341C108.249 62.03 108.318 61.926 108.422 61.8567C108.526 61.7874 108.63 61.718 108.768 61.718C108.906 61.6834 109.01 61.6833 109.149 61.6833C109.287 61.6833 109.425 61.6834 109.564 61.718C109.702 61.7527 109.806 61.7874 109.91 61.8914C110.014 61.9954 110.083 62.0647 110.152 62.1687C110.221 62.2727 110.256 62.4114 110.256 62.5848H109.668C109.668 62.5154 109.633 62.4461 109.598 62.3767C109.564 62.3074 109.529 62.2727 109.495 62.2381C109.46 62.2034 109.391 62.1687 109.322 62.1687C109.252 62.1687 109.183 62.1341 109.114 62.1341C109.079 62.1341 109.01 62.1341 108.976 62.1341C108.941 62.1341 108.872 62.1687 108.837 62.2034C108.803 62.2381 108.768 62.2727 108.733 62.3074C108.699 62.3421 108.699 62.4114 108.699 62.4461C108.699 62.5154 108.699 62.5501 108.733 62.5848C108.768 62.6194 108.803 62.6541 108.872 62.6888C108.941 62.7234 109.01 62.7581 109.114 62.7581C109.218 62.7581 109.356 62.8274 109.529 62.8621C109.564 62.8621 109.668 62.8968 109.737 62.9315C109.841 62.9661 109.91 63.0008 110.014 63.0701C110.117 63.1395 110.187 63.2088 110.256 63.3128C110.325 63.4168 110.36 63.5555 110.36 63.6942C110.36 63.8329 110.325 63.9369 110.29 64.0409C110.256 64.1449 110.152 64.2489 110.083 64.3182C110.014 64.3876 109.875 64.4569 109.737 64.4916C109.598 64.5263 109.425 64.5609 109.252 64.5609C109.114 64.5609 108.941 64.5263 108.803 64.4916C108.664 64.4569 108.526 64.3876 108.422 64.3182C108.318 64.2489 108.214 64.1449 108.145 64.0062C108.076 63.8675 108.041 63.7289 108.041 63.5555H108.63C108.526 63.5902 108.56 63.6942 108.595 63.7289Z" fill="#D9D9D9"/>
<path d="M108.595 63.7289C108.63 63.7982 108.664 63.8329 108.733 63.9022C108.803 63.9369 108.837 63.9715 108.941 64.0062C109.01 64.0409 109.079 64.0409 109.183 64.0409C109.252 64.0409 109.287 64.0409 109.356 64.0409C109.425 64.0409 109.46 64.0062 109.529 63.9715C109.598 63.9369 109.633 63.9022 109.668 63.8675C109.702 63.8329 109.737 63.7635 109.737 63.6942C109.737 63.6248 109.702 63.5555 109.668 63.5208C109.633 63.4862 109.564 63.4515 109.495 63.4168C109.425 63.3822 109.322 63.3475 109.218 63.3475C109.114 63.3128 109.01 63.3128 108.906 63.2782C108.803 63.2435 108.699 63.2088 108.595 63.1741C108.491 63.1395 108.422 63.1048 108.318 63.0355C108.214 62.9661 108.18 62.8968 108.145 62.8274C108.111 62.7234 108.076 62.6194 108.076 62.5154C108.076 62.3767 108.111 62.2381 108.18 62.1341C108.249 62.03 108.318 61.926 108.422 61.8567C108.526 61.7874 108.63 61.718 108.768 61.718C108.906 61.6834 109.01 61.6833 109.149 61.6833C109.287 61.6833 109.425 61.6834 109.564 61.718C109.702 61.7527 109.806 61.7874 109.91 61.8914C110.014 61.9954 110.083 62.0647 110.152 62.1687C110.221 62.2727 110.256 62.4114 110.256 62.5848H109.668C109.668 62.5154 109.633 62.4461 109.598 62.3767C109.564 62.3074 109.529 62.2727 109.495 62.2381C109.46 62.2034 109.391 62.1687 109.322 62.1687C109.252 62.1687 109.183 62.1341 109.114 62.1341C109.079 62.1341 109.01 62.1341 108.976 62.1341C108.941 62.1341 108.872 62.1687 108.837 62.2034C108.803 62.2381 108.768 62.2727 108.733 62.3074C108.699 62.3421 108.699 62.4114 108.699 62.4461C108.699 62.5154 108.699 62.5501 108.733 62.5848C108.768 62.6194 108.803 62.6541 108.872 62.6888C108.941 62.7234 109.01 62.7581 109.114 62.7581C109.218 62.7581 109.356 62.8274 109.529 62.8621C109.564 62.8621 109.668 62.8968 109.737 62.9315C109.841 62.9661 109.91 63.0008 110.014 63.0701C110.117 63.1395 110.187 63.2088 110.256 63.3128C110.325 63.4168 110.36 63.5555 110.36 63.6942C110.36 63.8329 110.325 63.9369 110.29 64.0409C110.256 64.1449 110.152 64.2489 110.083 64.3182C110.014 64.3876 109.875 64.4569 109.737 64.4916C109.598 64.5263 109.425 64.5609 109.252 64.5609C109.114 64.5609 108.941 64.5263 108.803 64.4916C108.664 64.4569 108.526 64.3876 108.422 64.3182C108.318 64.2489 108.214 64.1449 108.145 64.0062C108.076 63.8675 108.041 63.7289 108.041 63.5555H108.63C108.526 63.5902 108.56 63.6942 108.595 63.7289Z" fill="#F6F4F3" fill-opacity="0.2"/>
<path d="M112.643 61.6487C112.816 61.6487 112.955 61.6834 113.093 61.718C113.232 61.7527 113.301 61.822 113.405 61.926C113.474 61.9954 113.543 62.0994 113.578 62.2034C113.612 62.3074 113.647 62.4114 113.647 62.5501C113.647 62.6541 113.612 62.7581 113.578 62.8621C113.543 62.9661 113.474 63.0701 113.405 63.1395C113.335 63.2088 113.232 63.2782 113.093 63.3475C112.955 63.3822 112.816 63.4168 112.643 63.4168H112.02V64.4222H111.398V61.6487H112.643ZM112.47 62.9661C112.539 62.9661 112.609 62.9661 112.678 62.9661C112.747 62.9661 112.816 62.9315 112.851 62.8968C112.886 62.8621 112.955 62.8275 112.955 62.7581C112.989 62.6888 112.989 62.6194 112.989 62.5501C112.989 62.4808 112.989 62.3767 112.955 62.3421C112.92 62.2727 112.886 62.2381 112.851 62.2034C112.816 62.1687 112.747 62.1687 112.678 62.1341C112.609 62.1341 112.539 62.1341 112.47 62.1341H111.986V62.9661H112.47Z" fill="#D9D9D9"/>
<path d="M112.643 61.6487C112.816 61.6487 112.955 61.6834 113.093 61.718C113.232 61.7527 113.301 61.822 113.405 61.926C113.474 61.9954 113.543 62.0994 113.578 62.2034C113.612 62.3074 113.647 62.4114 113.647 62.5501C113.647 62.6541 113.612 62.7581 113.578 62.8621C113.543 62.9661 113.474 63.0701 113.405 63.1395C113.335 63.2088 113.232 63.2782 113.093 63.3475C112.955 63.3822 112.816 63.4168 112.643 63.4168H112.02V64.4222H111.398V61.6487H112.643ZM112.47 62.9661C112.539 62.9661 112.609 62.9661 112.678 62.9661C112.747 62.9661 112.816 62.9315 112.851 62.8968C112.886 62.8621 112.955 62.8275 112.955 62.7581C112.989 62.6888 112.989 62.6194 112.989 62.5501C112.989 62.4808 112.989 62.3767 112.955 62.3421C112.92 62.2727 112.886 62.2381 112.851 62.2034C112.816 62.1687 112.747 62.1687 112.678 62.1341C112.609 62.1341 112.539 62.1341 112.47 62.1341H111.986V62.9661H112.47Z" fill="#F6F4F3" fill-opacity="0.2"/>
<path d="M114.754 62.4808C114.823 62.3074 114.892 62.1341 115.031 62.03C115.169 61.926 115.273 61.7874 115.446 61.718C115.619 61.6487 115.792 61.614 116.034 61.614C116.242 61.614 116.449 61.6487 116.622 61.718C116.795 61.7874 116.934 61.8914 117.038 62.03C117.141 62.1687 117.245 62.3074 117.314 62.4808C117.384 62.6541 117.418 62.8621 117.418 63.0701C117.418 63.2782 117.384 63.4515 117.314 63.6248C117.245 63.7982 117.176 63.9369 117.038 64.0755C116.934 64.2142 116.795 64.3182 116.622 64.3876C116.449 64.4569 116.276 64.4916 116.034 64.4916C115.827 64.4916 115.619 64.4569 115.446 64.3876C115.273 64.3182 115.135 64.2142 115.031 64.0755C114.927 63.9369 114.823 63.7982 114.754 63.6248C114.685 63.4515 114.65 63.2782 114.65 63.0701C114.65 62.8621 114.685 62.6541 114.754 62.4808ZM115.308 63.3822C115.342 63.4862 115.377 63.5902 115.446 63.6942C115.515 63.7982 115.584 63.8675 115.688 63.9022C115.792 63.9369 115.896 63.9715 116.034 63.9715C116.173 63.9715 116.276 63.9369 116.38 63.9022C116.484 63.8329 116.553 63.7635 116.622 63.6942C116.692 63.5902 116.726 63.5208 116.761 63.3822C116.795 63.2435 116.795 63.1741 116.795 63.0355C116.795 62.8968 116.795 62.7928 116.761 62.6888C116.726 62.5848 116.692 62.4808 116.622 62.3767C116.553 62.2727 116.484 62.2034 116.38 62.1687C116.276 62.0994 116.173 62.0994 116.034 62.0994C115.896 62.0994 115.792 62.1341 115.688 62.1687C115.584 62.2381 115.515 62.3074 115.446 62.3767C115.377 62.4461 115.342 62.5848 115.308 62.6888C115.273 62.7928 115.273 62.9315 115.273 63.0355C115.238 63.1741 115.273 63.2781 115.308 63.3822Z" fill="#D9D9D9"/>
<path d="M114.754 62.4808C114.823 62.3074 114.892 62.1341 115.031 62.03C115.169 61.926 115.273 61.7874 115.446 61.718C115.619 61.6487 115.792 61.614 116.034 61.614C116.242 61.614 116.449 61.6487 116.622 61.718C116.795 61.7874 116.934 61.8914 117.038 62.03C117.141 62.1687 117.245 62.3074 117.314 62.4808C117.384 62.6541 117.418 62.8621 117.418 63.0701C117.418 63.2782 117.384 63.4515 117.314 63.6248C117.245 63.7982 117.176 63.9369 117.038 64.0755C116.934 64.2142 116.795 64.3182 116.622 64.3876C116.449 64.4569 116.276 64.4916 116.034 64.4916C115.827 64.4916 115.619 64.4569 115.446 64.3876C115.273 64.3182 115.135 64.2142 115.031 64.0755C114.927 63.9369 114.823 63.7982 114.754 63.6248C114.685 63.4515 114.65 63.2782 114.65 63.0701C114.65 62.8621 114.685 62.6541 114.754 62.4808ZM115.308 63.3822C115.342 63.4862 115.377 63.5902 115.446 63.6942C115.515 63.7982 115.584 63.8675 115.688 63.9022C115.792 63.9369 115.896 63.9715 116.034 63.9715C116.173 63.9715 116.276 63.9369 116.38 63.9022C116.484 63.8329 116.553 63.7635 116.622 63.6942C116.692 63.5902 116.726 63.5208 116.761 63.3822C116.795 63.2435 116.795 63.1741 116.795 63.0355C116.795 62.8968 116.795 62.7928 116.761 62.6888C116.726 62.5848 116.692 62.4808 116.622 62.3767C116.553 62.2727 116.484 62.2034 116.38 62.1687C116.276 62.0994 116.173 62.0994 116.034 62.0994C115.896 62.0994 115.792 62.1341 115.688 62.1687C115.584 62.2381 115.515 62.3074 115.446 62.3767C115.377 62.4461 115.342 62.5848 115.308 62.6888C115.273 62.7928 115.273 62.9315 115.273 63.0355C115.238 63.1741 115.273 63.2781 115.308 63.3822Z" fill="#F6F4F3" fill-opacity="0.2"/>
<path d="M120.048 61.6487C120.186 61.6487 120.29 61.6834 120.394 61.718C120.498 61.7527 120.567 61.822 120.636 61.8914C120.705 61.9607 120.775 62.03 120.809 62.1341C120.844 62.2381 120.878 62.3421 120.878 62.4461C120.878 62.6194 120.844 62.7581 120.775 62.8621C120.705 62.9661 120.602 63.0701 120.429 63.1395C120.498 63.1741 120.567 63.2088 120.602 63.2435C120.636 63.2782 120.705 63.3475 120.705 63.3822C120.705 63.4168 120.775 63.5208 120.775 63.5902C120.775 63.6595 120.809 63.7289 120.809 63.7982C120.809 63.8329 120.809 63.9022 120.809 63.9369C120.809 64.0062 120.809 64.0409 120.809 64.1102C120.809 64.1796 120.809 64.2142 120.844 64.2836C120.844 64.3529 120.878 64.3876 120.913 64.4222H120.29C120.256 64.3182 120.221 64.2142 120.221 64.1102C120.221 63.9715 120.186 63.8675 120.186 63.7635C120.152 63.6248 120.117 63.5208 120.048 63.4515C119.979 63.3822 119.875 63.3475 119.702 63.3475H119.079V64.4222H118.456V61.6487H120.048ZM119.84 62.8968C119.979 62.8968 120.083 62.8621 120.152 62.7928C120.221 62.7234 120.256 62.6194 120.256 62.4808C120.256 62.3421 120.221 62.2381 120.152 62.2034C120.083 62.1341 119.979 62.0994 119.84 62.0994H119.183V62.8968H119.84Z" fill="#D9D9D9"/>
<path d="M120.048 61.6487C120.186 61.6487 120.29 61.6834 120.394 61.718C120.498 61.7527 120.567 61.822 120.636 61.8914C120.705 61.9607 120.775 62.03 120.809 62.1341C120.844 62.2381 120.878 62.3421 120.878 62.4461C120.878 62.6194 120.844 62.7581 120.775 62.8621C120.705 62.9661 120.602 63.0701 120.429 63.1395C120.498 63.1741 120.567 63.2088 120.602 63.2435C120.636 63.2782 120.705 63.3475 120.705 63.3822C120.705 63.4168 120.775 63.5208 120.775 63.5902C120.775 63.6595 120.809 63.7289 120.809 63.7982C120.809 63.8329 120.809 63.9022 120.809 63.9369C120.809 64.0062 120.809 64.0409 120.809 64.1102C120.809 64.1796 120.809 64.2142 120.844 64.2836C120.844 64.3529 120.878 64.3876 120.913 64.4222H120.29C120.256 64.3182 120.221 64.2142 120.221 64.1102C120.221 63.9715 120.186 63.8675 120.186 63.7635C120.152 63.6248 120.117 63.5208 120.048 63.4515C119.979 63.3822 119.875 63.3475 119.702 63.3475H119.079V64.4222H118.456V61.6487H120.048ZM119.84 62.8968C119.979 62.8968 120.083 62.8621 120.152 62.7928C120.221 62.7234 120.256 62.6194 120.256 62.4808C120.256 62.3421 120.221 62.2381 120.152 62.2034C120.083 62.1341 119.979 62.0994 119.84 62.0994H119.183V62.8968H119.84Z" fill="#F6F4F3" fill-opacity="0.2"/>
<path d="M121.847 62.1687V61.6487H124.131V62.1687H123.301V64.4222H122.678V62.1687H121.847Z" fill="#D9D9D9"/>
<path d="M121.847 62.1687V61.6487H124.131V62.1687H123.301V64.4222H122.678V62.1687H121.847Z" fill="#F6F4F3" fill-opacity="0.2"/>
<path d="M128.214 64.3876C128.076 64.4569 127.937 64.4569 127.799 64.4569C127.66 64.4569 127.557 64.4222 127.453 64.3876C127.349 64.3529 127.245 64.2836 127.176 64.2142C127.107 64.1449 127.037 64.0409 127.003 63.9369C126.968 63.8329 126.934 63.7289 126.934 63.5902C126.934 63.4862 126.934 63.4168 126.968 63.3128C127.003 63.2088 127.037 63.1741 127.107 63.1048C127.176 63.0355 127.245 62.9661 127.314 62.9315C127.384 62.8968 127.453 62.8274 127.557 62.7928C127.487 62.6888 127.418 62.6194 127.384 62.5154C127.349 62.4114 127.314 62.3074 127.314 62.2034C127.314 62.0994 127.349 62.03 127.384 61.926C127.418 61.8567 127.487 61.7874 127.557 61.718C127.626 61.6487 127.695 61.614 127.799 61.5793C127.868 61.5447 127.972 61.5447 128.076 61.5447C128.179 61.5447 128.283 61.5447 128.387 61.5793C128.491 61.614 128.56 61.6487 128.629 61.718C128.698 61.7874 128.768 61.8567 128.802 61.926C128.837 61.9954 128.871 62.0994 128.871 62.2034C128.871 62.3767 128.837 62.5154 128.733 62.6194C128.629 62.7234 128.525 62.8274 128.387 62.8968L128.733 63.3475C128.768 63.3128 128.768 63.2435 128.802 63.1741C128.802 63.1048 128.837 63.0701 128.837 63.0008H129.321C129.321 63.1395 129.287 63.2435 129.252 63.3475C129.217 63.4515 129.148 63.5555 129.079 63.6595L129.633 64.3182H128.975L128.768 64.0409C128.491 64.2489 128.352 64.3529 128.214 64.3876ZM127.695 63.2782C127.66 63.3128 127.591 63.3475 127.557 63.3822C127.522 63.4168 127.487 63.4515 127.453 63.5208C127.418 63.5902 127.418 63.6248 127.418 63.6595C127.418 63.6942 127.418 63.7635 127.453 63.7982C127.487 63.8329 127.487 63.8675 127.557 63.9022C127.591 63.9369 127.626 63.9715 127.695 63.9715C127.73 64.0062 127.799 64.0062 127.833 64.0062C127.937 64.0062 128.006 63.9715 128.076 63.9369C128.145 63.9022 128.214 63.8329 128.283 63.7635L127.799 63.1741C127.764 63.2088 127.73 63.2435 127.695 63.2782ZM128.179 62.0647C128.145 62.0301 128.076 61.9954 128.006 61.9954C127.937 61.9954 127.868 62.0301 127.833 62.0647C127.799 62.0994 127.764 62.1687 127.764 62.2381C127.764 62.3421 127.799 62.4114 127.833 62.4461C127.868 62.5154 127.937 62.5848 127.972 62.6194C128.041 62.5848 128.11 62.5154 128.179 62.4461C128.249 62.3767 128.249 62.3074 128.249 62.2034C128.283 62.1687 128.249 62.1341 128.179 62.0647Z" fill="#D9D9D9"/>
<path d="M128.214 64.3876C128.076 64.4569 127.937 64.4569 127.799 64.4569C127.66 64.4569 127.557 64.4222 127.453 64.3876C127.349 64.3529 127.245 64.2836 127.176 64.2142C127.107 64.1449 127.037 64.0409 127.003 63.9369C126.968 63.8329 126.934 63.7289 126.934 63.5902C126.934 63.4862 126.934 63.4168 126.968 63.3128C127.003 63.2088 127.037 63.1741 127.107 63.1048C127.176 63.0355 127.245 62.9661 127.314 62.9315C127.384 62.8968 127.453 62.8274 127.557 62.7928C127.487 62.6888 127.418 62.6194 127.384 62.5154C127.349 62.4114 127.314 62.3074 127.314 62.2034C127.314 62.0994 127.349 62.03 127.384 61.926C127.418 61.8567 127.487 61.7874 127.557 61.718C127.626 61.6487 127.695 61.614 127.799 61.5793C127.868 61.5447 127.972 61.5447 128.076 61.5447C128.179 61.5447 128.283 61.5447 128.387 61.5793C128.491 61.614 128.56 61.6487 128.629 61.718C128.698 61.7874 128.768 61.8567 128.802 61.926C128.837 61.9954 128.871 62.0994 128.871 62.2034C128.871 62.3767 128.837 62.5154 128.733 62.6194C128.629 62.7234 128.525 62.8274 128.387 62.8968L128.733 63.3475C128.768 63.3128 128.768 63.2435 128.802 63.1741C128.802 63.1048 128.837 63.0701 128.837 63.0008H129.321C129.321 63.1395 129.287 63.2435 129.252 63.3475C129.217 63.4515 129.148 63.5555 129.079 63.6595L129.633 64.3182H128.975L128.768 64.0409C128.491 64.2489 128.352 64.3529 128.214 64.3876ZM127.695 63.2782C127.66 63.3128 127.591 63.3475 127.557 63.3822C127.522 63.4168 127.487 63.4515 127.453 63.5208C127.418 63.5902 127.418 63.6248 127.418 63.6595C127.418 63.6942 127.418 63.7635 127.453 63.7982C127.487 63.8329 127.487 63.8675 127.557 63.9022C127.591 63.9369 127.626 63.9715 127.695 63.9715C127.73 64.0062 127.799 64.0062 127.833 64.0062C127.937 64.0062 128.006 63.9715 128.076 63.9369C128.145 63.9022 128.214 63.8329 128.283 63.7635L127.799 63.1741C127.764 63.2088 127.73 63.2435 127.695 63.2782ZM128.179 62.0647C128.145 62.0301 128.076 61.9954 128.006 61.9954C127.937 61.9954 127.868 62.0301 127.833 62.0647C127.799 62.0994 127.764 62.1687 127.764 62.2381C127.764 62.3421 127.799 62.4114 127.833 62.4461C127.868 62.5154 127.937 62.5848 127.972 62.6194C128.041 62.5848 128.11 62.5154 128.179 62.4461C128.249 62.3767 128.249 62.3074 128.249 62.2034C128.283 62.1687 128.249 62.1341 128.179 62.0647Z" fill="#F6F4F3" fill-opacity="0.2"/>
<path d="M132.954 61.6487V63.9022H134.304V64.4222H132.332V61.6487H132.954Z" fill="#D9D9D9"/>
<path d="M132.954 61.6487V63.9022H134.304V64.4222H132.332V61.6487H132.954Z" fill="#F6F4F3" fill-opacity="0.2"/>
<path d="M135.376 62.4808C135.446 62.3074 135.515 62.1341 135.653 62.03C135.792 61.926 135.895 61.7874 136.068 61.718C136.241 61.6487 136.414 61.614 136.657 61.614C136.864 61.614 137.072 61.6487 137.245 61.718C137.418 61.7874 137.556 61.8914 137.66 62.03C137.764 62.1687 137.868 62.3074 137.937 62.4808C138.006 62.6541 138.041 62.8621 138.041 63.0701C138.041 63.2782 138.006 63.4515 137.937 63.6248C137.868 63.7982 137.799 63.9369 137.66 64.0755C137.556 64.2142 137.418 64.3182 137.245 64.3876C137.072 64.4569 136.899 64.4916 136.657 64.4916C136.449 64.4916 136.241 64.4569 136.068 64.3876C135.895 64.3182 135.757 64.2142 135.653 64.0755C135.549 63.9369 135.446 63.7982 135.376 63.6248C135.307 63.4515 135.273 63.2782 135.273 63.0701C135.273 62.8621 135.307 62.6541 135.376 62.4808ZM135.93 63.3822C135.965 63.4862 135.999 63.5902 136.068 63.6942C136.138 63.7982 136.207 63.8675 136.311 63.9022C136.414 63.9369 136.518 63.9715 136.657 63.9715C136.795 63.9715 136.899 63.9369 137.003 63.9022C137.107 63.8329 137.176 63.7635 137.245 63.6942C137.314 63.5902 137.349 63.5208 137.383 63.3822C137.418 63.2435 137.418 63.1741 137.418 63.0355C137.418 62.8968 137.418 62.7928 137.383 62.6888C137.349 62.5848 137.314 62.4808 137.245 62.3767C137.176 62.2727 137.107 62.2034 137.003 62.1687C136.899 62.0994 136.795 62.0994 136.657 62.0994C136.518 62.0994 136.414 62.1341 136.311 62.1687C136.207 62.2381 136.138 62.3074 136.068 62.3767C135.999 62.4461 135.965 62.5848 135.93 62.6888C135.895 62.7928 135.895 62.9315 135.895 63.0355C135.895 63.1741 135.895 63.2781 135.93 63.3822Z" fill="#D9D9D9"/>
<path d="M135.376 62.4808C135.446 62.3074 135.515 62.1341 135.653 62.03C135.792 61.926 135.895 61.7874 136.068 61.718C136.241 61.6487 136.414 61.614 136.657 61.614C136.864 61.614 137.072 61.6487 137.245 61.718C137.418 61.7874 137.556 61.8914 137.66 62.03C137.764 62.1687 137.868 62.3074 137.937 62.4808C138.006 62.6541 138.041 62.8621 138.041 63.0701C138.041 63.2782 138.006 63.4515 137.937 63.6248C137.868 63.7982 137.799 63.9369 137.66 64.0755C137.556 64.2142 137.418 64.3182 137.245 64.3876C137.072 64.4569 136.899 64.4916 136.657 64.4916C136.449 64.4916 136.241 64.4569 136.068 64.3876C135.895 64.3182 135.757 64.2142 135.653 64.0755C135.549 63.9369 135.446 63.7982 135.376 63.6248C135.307 63.4515 135.273 63.2782 135.273 63.0701C135.273 62.8621 135.307 62.6541 135.376 62.4808ZM135.93 63.3822C135.965 63.4862 135.999 63.5902 136.068 63.6942C136.138 63.7982 136.207 63.8675 136.311 63.9022C136.414 63.9369 136.518 63.9715 136.657 63.9715C136.795 63.9715 136.899 63.9369 137.003 63.9022C137.107 63.8329 137.176 63.7635 137.245 63.6942C137.314 63.5902 137.349 63.5208 137.383 63.3822C137.418 63.2435 137.418 63.1741 137.418 63.0355C137.418 62.8968 137.418 62.7928 137.383 62.6888C137.349 62.5848 137.314 62.4808 137.245 62.3767C137.176 62.2727 137.107 62.2034 137.003 62.1687C136.899 62.0994 136.795 62.0994 136.657 62.0994C136.518 62.0994 136.414 62.1341 136.311 62.1687C136.207 62.2381 136.138 62.3074 136.068 62.3767C135.999 62.4461 135.965 62.5848 135.93 62.6888C135.895 62.7928 135.895 62.9315 135.895 63.0355C135.895 63.1741 135.895 63.2781 135.93 63.3822Z" fill="#F6F4F3" fill-opacity="0.2"/>
<path d="M140.843 64.4222C140.705 64.4916 140.567 64.4916 140.428 64.4916C140.221 64.4916 140.013 64.4569 139.84 64.3876C139.667 64.3182 139.529 64.2142 139.425 64.0755C139.321 63.9369 139.217 63.7982 139.148 63.6248C139.079 63.4515 139.044 63.2782 139.044 63.0701C139.044 62.8621 139.079 62.6541 139.148 62.4808C139.217 62.3074 139.286 62.1341 139.425 62.03C139.563 61.926 139.667 61.7874 139.84 61.718C140.013 61.6487 140.186 61.614 140.428 61.614C140.567 61.614 140.705 61.6487 140.843 61.6834C140.982 61.718 141.086 61.7874 141.189 61.8567C141.293 61.926 141.397 62.03 141.466 62.1687C141.536 62.3074 141.57 62.4461 141.605 62.5848H141.016C140.982 62.4461 140.913 62.3074 140.809 62.2381C140.705 62.1687 140.567 62.1341 140.428 62.1341C140.29 62.1341 140.186 62.1687 140.082 62.2034C139.978 62.2727 139.909 62.3421 139.84 62.4114C139.771 62.4808 139.736 62.6194 139.702 62.7234C139.667 62.8274 139.667 62.9661 139.667 63.0701C139.667 63.1741 139.667 63.3128 139.702 63.4168C139.736 63.5208 139.771 63.6248 139.84 63.7289C139.909 63.8329 139.978 63.9022 140.082 63.9369C140.186 63.9715 140.29 64.0062 140.428 64.0062C140.636 64.0062 140.774 63.9715 140.878 63.8675C140.982 63.7635 141.051 63.6248 141.086 63.4168H140.463V62.9661H141.639V64.4569H141.259L141.189 64.1449C141.086 64.2489 140.982 64.3529 140.843 64.4222Z" fill="#D9D9D9"/>
<path d="M140.843 64.4222C140.705 64.4916 140.567 64.4916 140.428 64.4916C140.221 64.4916 140.013 64.4569 139.84 64.3876C139.667 64.3182 139.529 64.2142 139.425 64.0755C139.321 63.9369 139.217 63.7982 139.148 63.6248C139.079 63.4515 139.044 63.2782 139.044 63.0701C139.044 62.8621 139.079 62.6541 139.148 62.4808C139.217 62.3074 139.286 62.1341 139.425 62.03C139.563 61.926 139.667 61.7874 139.84 61.718C140.013 61.6487 140.186 61.614 140.428 61.614C140.567 61.614 140.705 61.6487 140.843 61.6834C140.982 61.718 141.086 61.7874 141.189 61.8567C141.293 61.926 141.397 62.03 141.466 62.1687C141.536 62.3074 141.57 62.4461 141.605 62.5848H141.016C140.982 62.4461 140.913 62.3074 140.809 62.2381C140.705 62.1687 140.567 62.1341 140.428 62.1341C140.29 62.1341 140.186 62.1687 140.082 62.2034C139.978 62.2727 139.909 62.3421 139.84 62.4114C139.771 62.4808 139.736 62.6194 139.702 62.7234C139.667 62.8274 139.667 62.9661 139.667 63.0701C139.667 63.1741 139.667 63.3128 139.702 63.4168C139.736 63.5208 139.771 63.6248 139.84 63.7289C139.909 63.8329 139.978 63.9022 140.082 63.9369C140.186 63.9715 140.29 64.0062 140.428 64.0062C140.636 64.0062 140.774 63.9715 140.878 63.8675C140.982 63.7635 141.051 63.6248 141.086 63.4168H140.463V62.9661H141.639V64.4569H141.259L141.189 64.1449C141.086 64.2489 140.982 64.3529 140.843 64.4222Z" fill="#F6F4F3" fill-opacity="0.2"/>
<path d="M143.508 61.6487V64.4222H142.885V61.6487H143.508Z" fill="#D9D9D9"/>
<path d="M143.508 61.6487V64.4222H142.885V61.6487H143.508Z" fill="#F6F4F3" fill-opacity="0.2"/>
<path d="M145.307 63.7289C145.342 63.7982 145.376 63.8329 145.445 63.9022C145.515 63.9369 145.549 63.9715 145.653 64.0062C145.722 64.0409 145.791 64.0409 145.895 64.0409C145.965 64.0409 145.999 64.0409 146.068 64.0409C146.138 64.0409 146.172 64.0062 146.241 63.9715C146.311 63.9369 146.345 63.9022 146.38 63.8675C146.414 63.8329 146.449 63.7635 146.449 63.6942C146.449 63.6248 146.414 63.5555 146.38 63.5208C146.345 63.4862 146.276 63.4515 146.207 63.4168C146.138 63.3822 146.034 63.3475 145.93 63.3475C145.826 63.3128 145.722 63.3128 145.618 63.2782C145.515 63.2435 145.411 63.2088 145.307 63.1741C145.203 63.1395 145.134 63.1048 145.03 63.0355C144.926 62.9661 144.892 62.8968 144.857 62.8274C144.823 62.7234 144.788 62.6194 144.788 62.5154C144.788 62.3767 144.823 62.2381 144.892 62.1341C144.961 62.03 145.03 61.926 145.134 61.8567C145.238 61.7874 145.342 61.718 145.48 61.718C145.618 61.6834 145.722 61.6833 145.861 61.6833C145.999 61.6833 146.138 61.6834 146.276 61.718C146.414 61.7527 146.518 61.7874 146.622 61.8914C146.726 61.9954 146.795 62.0647 146.864 62.1687C146.933 62.2727 146.968 62.4114 146.968 62.5848H146.38C146.38 62.5154 146.345 62.4461 146.311 62.3767C146.276 62.3074 146.241 62.2727 146.207 62.2381C146.172 62.2034 146.103 62.1687 146.034 62.1687C145.965 62.1687 145.895 62.1341 145.826 62.1341C145.791 62.1341 145.722 62.1341 145.688 62.1341C145.653 62.1341 145.584 62.1687 145.549 62.2034C145.515 62.2381 145.48 62.2727 145.445 62.3074C145.411 62.3421 145.411 62.4114 145.411 62.4461C145.411 62.5154 145.411 62.5501 145.445 62.5848C145.48 62.6194 145.515 62.6541 145.584 62.6888C145.653 62.7234 145.722 62.7581 145.826 62.7581C145.93 62.7581 146.068 62.8274 146.241 62.8621C146.276 62.8621 146.38 62.8968 146.449 62.9315C146.553 62.9661 146.622 63.0008 146.726 63.0701C146.83 63.1395 146.899 63.2088 146.968 63.3128C147.037 63.4168 147.072 63.5555 147.072 63.6942C147.072 63.8329 147.037 63.9369 147.003 64.0409C146.968 64.1449 146.864 64.2489 146.795 64.3182C146.726 64.3876 146.587 64.4569 146.449 64.4916C146.311 64.5263 146.138 64.5609 145.964 64.5609C145.826 64.5609 145.653 64.5263 145.515 64.4916C145.376 64.4569 145.238 64.3876 145.134 64.3182C145.03 64.2489 144.926 64.1449 144.857 64.0062C144.788 63.8675 144.753 63.7289 144.753 63.5555H145.342C145.238 63.5902 145.272 63.6942 145.307 63.7289Z" fill="#D9D9D9"/>
<path d="M145.307 63.7289C145.342 63.7982 145.376 63.8329 145.445 63.9022C145.515 63.9369 145.549 63.9715 145.653 64.0062C145.722 64.0409 145.791 64.0409 145.895 64.0409C145.965 64.0409 145.999 64.0409 146.068 64.0409C146.138 64.0409 146.172 64.0062 146.241 63.9715C146.311 63.9369 146.345 63.9022 146.38 63.8675C146.414 63.8329 146.449 63.7635 146.449 63.6942C146.449 63.6248 146.414 63.5555 146.38 63.5208C146.345 63.4862 146.276 63.4515 146.207 63.4168C146.138 63.3822 146.034 63.3475 145.93 63.3475C145.826 63.3128 145.722 63.3128 145.618 63.2782C145.515 63.2435 145.411 63.2088 145.307 63.1741C145.203 63.1395 145.134 63.1048 145.03 63.0355C144.926 62.9661 144.892 62.8968 144.857 62.8274C144.823 62.7234 144.788 62.6194 144.788 62.5154C144.788 62.3767 144.823 62.2381 144.892 62.1341C144.961 62.03 145.03 61.926 145.134 61.8567C145.238 61.7874 145.342 61.718 145.48 61.718C145.618 61.6834 145.722 61.6833 145.861 61.6833C145.999 61.6833 146.138 61.6834 146.276 61.718C146.414 61.7527 146.518 61.7874 146.622 61.8914C146.726 61.9954 146.795 62.0647 146.864 62.1687C146.933 62.2727 146.968 62.4114 146.968 62.5848H146.38C146.38 62.5154 146.345 62.4461 146.311 62.3767C146.276 62.3074 146.241 62.2727 146.207 62.2381C146.172 62.2034 146.103 62.1687 146.034 62.1687C145.965 62.1687 145.895 62.1341 145.826 62.1341C145.791 62.1341 145.722 62.1341 145.688 62.1341C145.653 62.1341 145.584 62.1687 145.549 62.2034C145.515 62.2381 145.48 62.2727 145.445 62.3074C145.411 62.3421 145.411 62.4114 145.411 62.4461C145.411 62.5154 145.411 62.5501 145.445 62.5848C145.48 62.6194 145.515 62.6541 145.584 62.6888C145.653 62.7234 145.722 62.7581 145.826 62.7581C145.93 62.7581 146.068 62.8274 146.241 62.8621C146.276 62.8621 146.38 62.8968 146.449 62.9315C146.553 62.9661 146.622 63.0008 146.726 63.0701C146.83 63.1395 146.899 63.2088 146.968 63.3128C147.037 63.4168 147.072 63.5555 147.072 63.6942C147.072 63.8329 147.037 63.9369 147.003 64.0409C146.968 64.1449 146.864 64.2489 146.795 64.3182C146.726 64.3876 146.587 64.4569 146.449 64.4916C146.311 64.5263 146.138 64.5609 145.964 64.5609C145.826 64.5609 145.653 64.5263 145.515 64.4916C145.376 64.4569 145.238 64.3876 145.134 64.3182C145.03 64.2489 144.926 64.1449 144.857 64.0062C144.788 63.8675 144.753 63.7289 144.753 63.5555H145.342C145.238 63.5902 145.272 63.6942 145.307 63.7289Z" fill="#F6F4F3" fill-opacity="0.2"/>
<path d="M147.902 62.1687V61.6487H150.186V62.1687H149.355V64.4222H148.733V62.1687H147.902Z" fill="#D9D9D9"/>
<path d="M147.902 62.1687V61.6487H150.186V62.1687H149.355V64.4222H148.733V62.1687H147.902Z" fill="#F6F4F3" fill-opacity="0.2"/>
<path d="M151.881 61.6487V64.4222H151.259V61.6487H151.881Z" fill="#D9D9D9"/>
<path d="M151.881 61.6487V64.4222H151.259V61.6487H151.881Z" fill="#F6F4F3" fill-opacity="0.2"/>
<path d="M154.961 62.4114C154.926 62.3421 154.892 62.3074 154.822 62.2727C154.753 62.2381 154.719 62.2034 154.649 62.1687C154.58 62.1341 154.511 62.1341 154.442 62.1341C154.303 62.1341 154.2 62.1687 154.096 62.2034C153.992 62.2727 153.923 62.3421 153.854 62.4114C153.784 62.4808 153.75 62.6194 153.715 62.7234C153.681 62.8274 153.681 62.9661 153.681 63.0701C153.681 63.1741 153.681 63.3128 153.715 63.4168C153.75 63.5208 153.784 63.6248 153.854 63.7289C153.923 63.8329 153.992 63.9022 154.096 63.9369C154.2 63.9715 154.303 64.0062 154.442 64.0062C154.615 64.0062 154.788 63.9369 154.892 63.8329C154.995 63.7289 155.065 63.5555 155.099 63.3822H155.688C155.688 63.5555 155.618 63.7289 155.584 63.8675C155.549 64.0062 155.445 64.1102 155.341 64.2142C155.238 64.3182 155.099 64.3876 154.961 64.4222C154.822 64.4569 154.649 64.4916 154.476 64.4916C154.269 64.4916 154.061 64.4569 153.888 64.3876C153.715 64.3182 153.577 64.2142 153.473 64.0755C153.369 63.9369 153.265 63.7982 153.196 63.6248C153.127 63.4515 153.092 63.2782 153.092 63.0701C153.092 62.8621 153.127 62.6541 153.196 62.4808C153.265 62.3074 153.335 62.1341 153.473 62.03C153.611 61.926 153.715 61.7874 153.888 61.718C154.061 61.6487 154.234 61.614 154.476 61.614C154.615 61.614 154.788 61.6487 154.892 61.6834C155.03 61.718 155.134 61.7874 155.272 61.8914C155.376 61.9607 155.48 62.0647 155.549 62.2034C155.618 62.3421 155.653 62.4808 155.688 62.6194H155.099C155.03 62.5154 154.995 62.4461 154.961 62.4114Z" fill="#D9D9D9"/>
<path d="M154.961 62.4114C154.926 62.3421 154.892 62.3074 154.822 62.2727C154.753 62.2381 154.719 62.2034 154.649 62.1687C154.58 62.1341 154.511 62.1341 154.442 62.1341C154.303 62.1341 154.2 62.1687 154.096 62.2034C153.992 62.2727 153.923 62.3421 153.854 62.4114C153.784 62.4808 153.75 62.6194 153.715 62.7234C153.681 62.8274 153.681 62.9661 153.681 63.0701C153.681 63.1741 153.681 63.3128 153.715 63.4168C153.75 63.5208 153.784 63.6248 153.854 63.7289C153.923 63.8329 153.992 63.9022 154.096 63.9369C154.2 63.9715 154.303 64.0062 154.442 64.0062C154.615 64.0062 154.788 63.9369 154.892 63.8329C154.995 63.7289 155.065 63.5555 155.099 63.3822H155.688C155.688 63.5555 155.618 63.7289 155.584 63.8675C155.549 64.0062 155.445 64.1102 155.341 64.2142C155.238 64.3182 155.099 64.3876 154.961 64.4222C154.822 64.4569 154.649 64.4916 154.476 64.4916C154.269 64.4916 154.061 64.4569 153.888 64.3876C153.715 64.3182 153.577 64.2142 153.473 64.0755C153.369 63.9369 153.265 63.7982 153.196 63.6248C153.127 63.4515 153.092 63.2782 153.092 63.0701C153.092 62.8621 153.127 62.6541 153.196 62.4808C153.265 62.3074 153.335 62.1341 153.473 62.03C153.611 61.926 153.715 61.7874 153.888 61.718C154.061 61.6487 154.234 61.614 154.476 61.614C154.615 61.614 154.788 61.6487 154.892 61.6834C155.03 61.718 155.134 61.7874 155.272 61.8914C155.376 61.9607 155.48 62.0647 155.549 62.2034C155.618 62.3421 155.653 62.4808 155.688 62.6194H155.099C155.03 62.5154 154.995 62.4461 154.961 62.4114Z" fill="#F6F4F3" fill-opacity="0.2"/>
<path d="M157.314 63.7289C157.348 63.7982 157.383 63.8329 157.452 63.9022C157.521 63.9369 157.556 63.9715 157.66 64.0062C157.729 64.0409 157.798 64.0409 157.902 64.0409C157.971 64.0409 158.006 64.0409 158.075 64.0409C158.144 64.0409 158.179 64.0062 158.248 63.9715C158.317 63.9369 158.352 63.9022 158.386 63.8675C158.421 63.8329 158.456 63.7635 158.456 63.6942C158.456 63.6248 158.421 63.5555 158.386 63.5208C158.352 63.4862 158.283 63.4515 158.213 63.4168C158.144 63.3822 158.04 63.3475 157.937 63.3475C157.833 63.3128 157.729 63.3128 157.625 63.2782C157.521 63.2435 157.418 63.2088 157.314 63.1741C157.21 63.1395 157.141 63.1048 157.037 63.0355C156.933 62.9661 156.899 62.8968 156.864 62.8274C156.829 62.7234 156.795 62.6194 156.795 62.5154C156.795 62.3767 156.829 62.2381 156.899 62.1341C156.968 62.03 157.037 61.926 157.141 61.8567C157.245 61.7874 157.348 61.718 157.487 61.718C157.625 61.6834 157.729 61.6833 157.867 61.6833C158.006 61.6833 158.144 61.6834 158.283 61.718C158.421 61.7527 158.525 61.7874 158.629 61.8914C158.732 61.9954 158.802 62.0647 158.871 62.1687C158.94 62.2727 158.975 62.4114 158.975 62.5848H158.386C158.386 62.5154 158.352 62.4461 158.317 62.3767C158.283 62.3074 158.248 62.2727 158.213 62.2381C158.179 62.2034 158.11 62.1687 158.04 62.1687C157.971 62.1687 157.902 62.1341 157.833 62.1341C157.798 62.1341 157.729 62.1341 157.694 62.1341C157.66 62.1341 157.591 62.1687 157.556 62.2034C157.521 62.2381 157.487 62.2727 157.452 62.3074C157.418 62.3421 157.418 62.4114 157.418 62.4461C157.418 62.5154 157.418 62.5501 157.452 62.5848C157.487 62.6194 157.521 62.6541 157.591 62.6888C157.66 62.7234 157.729 62.7581 157.833 62.7581C157.937 62.7581 158.075 62.8274 158.248 62.8621C158.283 62.8621 158.386 62.8968 158.456 62.9315C158.559 62.9661 158.629 63.0008 158.732 63.0701C158.836 63.1395 158.905 63.2088 158.975 63.3128C159.044 63.4168 159.078 63.5555 159.078 63.6942C159.078 63.8329 159.044 63.9369 159.009 64.0409C158.975 64.1449 158.871 64.2489 158.802 64.3182C158.732 64.3876 158.594 64.4569 158.456 64.4916C158.317 64.5263 158.144 64.5609 157.971 64.5609C157.833 64.5609 157.66 64.5263 157.521 64.4916C157.383 64.4569 157.245 64.3876 157.141 64.3182C157.037 64.2489 156.933 64.1449 156.864 64.0062C156.795 63.8675 156.76 63.7289 156.76 63.5555H157.348C157.245 63.5902 157.279 63.6942 157.314 63.7289Z" fill="#D9D9D9"/>
<path d="M157.314 63.7289C157.348 63.7982 157.383 63.8329 157.452 63.9022C157.521 63.9369 157.556 63.9715 157.66 64.0062C157.729 64.0409 157.798 64.0409 157.902 64.0409C157.971 64.0409 158.006 64.0409 158.075 64.0409C158.144 64.0409 158.179 64.0062 158.248 63.9715C158.317 63.9369 158.352 63.9022 158.386 63.8675C158.421 63.8329 158.456 63.7635 158.456 63.6942C158.456 63.6248 158.421 63.5555 158.386 63.5208C158.352 63.4862 158.283 63.4515 158.213 63.4168C158.144 63.3822 158.04 63.3475 157.937 63.3475C157.833 63.3128 157.729 63.3128 157.625 63.2782C157.521 63.2435 157.418 63.2088 157.314 63.1741C157.21 63.1395 157.141 63.1048 157.037 63.0355C156.933 62.9661 156.899 62.8968 156.864 62.8274C156.829 62.7234 156.795 62.6194 156.795 62.5154C156.795 62.3767 156.829 62.2381 156.899 62.1341C156.968 62.03 157.037 61.926 157.141 61.8567C157.245 61.7874 157.348 61.718 157.487 61.718C157.625 61.6834 157.729 61.6833 157.867 61.6833C158.006 61.6833 158.144 61.6834 158.283 61.718C158.421 61.7527 158.525 61.7874 158.629 61.8914C158.732 61.9954 158.802 62.0647 158.871 62.1687C158.94 62.2727 158.975 62.4114 158.975 62.5848H158.386C158.386 62.5154 158.352 62.4461 158.317 62.3767C158.283 62.3074 158.248 62.2727 158.213 62.2381C158.179 62.2034 158.11 62.1687 158.04 62.1687C157.971 62.1687 157.902 62.1341 157.833 62.1341C157.798 62.1341 157.729 62.1341 157.694 62.1341C157.66 62.1341 157.591 62.1687 157.556 62.2034C157.521 62.2381 157.487 62.2727 157.452 62.3074C157.418 62.3421 157.418 62.4114 157.418 62.4461C157.418 62.5154 157.418 62.5501 157.452 62.5848C157.487 62.6194 157.521 62.6541 157.591 62.6888C157.66 62.7234 157.729 62.7581 157.833 62.7581C157.937 62.7581 158.075 62.8274 158.248 62.8621C158.283 62.8621 158.386 62.8968 158.456 62.9315C158.559 62.9661 158.629 63.0008 158.732 63.0701C158.836 63.1395 158.905 63.2088 158.975 63.3128C159.044 63.4168 159.078 63.5555 159.078 63.6942C159.078 63.8329 159.044 63.9369 159.009 64.0409C158.975 64.1449 158.871 64.2489 158.802 64.3182C158.732 64.3876 158.594 64.4569 158.456 64.4916C158.317 64.5263 158.144 64.5609 157.971 64.5609C157.833 64.5609 157.66 64.5263 157.521 64.4916C157.383 64.4569 157.245 64.3876 157.141 64.3182C157.037 64.2489 156.933 64.1449 156.864 64.0062C156.795 63.8675 156.76 63.7289 156.76 63.5555H157.348C157.245 63.5902 157.279 63.6942 157.314 63.7289Z" fill="#F6F4F3" fill-opacity="0.2"/>
<path d="M162.435 63.7289C162.469 63.7982 162.504 63.8329 162.573 63.9022C162.642 63.9369 162.677 63.9715 162.781 64.0062C162.85 64.0409 162.919 64.0409 163.023 64.0409C163.092 64.0409 163.127 64.0409 163.196 64.0409C163.265 64.0409 163.3 64.0062 163.369 63.9715C163.438 63.9369 163.473 63.9022 163.507 63.8675C163.542 63.8329 163.577 63.7635 163.577 63.6942C163.577 63.6248 163.542 63.5555 163.507 63.5208C163.473 63.4862 163.404 63.4515 163.334 63.4168C163.265 63.3822 163.161 63.3475 163.058 63.3475C162.954 63.3128 162.85 63.3128 162.746 63.2782C162.642 63.2435 162.539 63.2088 162.435 63.1741C162.331 63.1395 162.262 63.1048 162.158 63.0355C162.054 62.9661 162.02 62.8968 161.985 62.8274C161.95 62.7234 161.916 62.6194 161.916 62.5154C161.916 62.3767 161.95 62.2381 162.02 62.1341C162.089 62.03 162.158 61.926 162.262 61.8567C162.366 61.7874 162.469 61.718 162.608 61.718C162.746 61.6834 162.85 61.6833 162.988 61.6833C163.127 61.6833 163.265 61.6834 163.404 61.718C163.542 61.7527 163.646 61.7874 163.75 61.8914C163.853 61.9954 163.923 62.0647 163.992 62.1687C164.061 62.2727 164.096 62.4114 164.096 62.5848H163.507C163.507 62.5154 163.473 62.4461 163.438 62.3767C163.404 62.3074 163.369 62.2727 163.334 62.2381C163.3 62.2034 163.231 62.1687 163.161 62.1687C163.092 62.1687 163.023 62.1341 162.954 62.1341C162.919 62.1341 162.85 62.1341 162.815 62.1341C162.781 62.1341 162.712 62.1687 162.677 62.2034C162.642 62.2381 162.608 62.2727 162.573 62.3074C162.539 62.3421 162.539 62.4114 162.539 62.4461C162.539 62.5154 162.539 62.5501 162.573 62.5848C162.608 62.6194 162.642 62.6541 162.712 62.6888C162.781 62.7234 162.85 62.7581 162.954 62.7581C163.058 62.7581 163.196 62.8274 163.369 62.8621C163.404 62.8621 163.507 62.8968 163.577 62.9315C163.68 62.9661 163.75 63.0008 163.853 63.0701C163.957 63.1395 164.026 63.2088 164.096 63.3128C164.165 63.4168 164.199 63.5555 164.199 63.6942C164.199 63.8329 164.165 63.9369 164.13 64.0409C164.096 64.1449 163.992 64.2489 163.923 64.3182C163.853 64.3876 163.715 64.4569 163.577 64.4916C163.438 64.5263 163.265 64.5609 163.092 64.5609C162.954 64.5609 162.781 64.5263 162.642 64.4916C162.504 64.4569 162.366 64.3876 162.262 64.3182C162.158 64.2489 162.054 64.1449 161.985 64.0062C161.916 63.8675 161.881 63.7289 161.881 63.5555H162.469C162.4 63.5902 162.4 63.6942 162.435 63.7289Z" fill="#D9D9D9"/>
<path d="M162.435 63.7289C162.469 63.7982 162.504 63.8329 162.573 63.9022C162.642 63.9369 162.677 63.9715 162.781 64.0062C162.85 64.0409 162.919 64.0409 163.023 64.0409C163.092 64.0409 163.127 64.0409 163.196 64.0409C163.265 64.0409 163.3 64.0062 163.369 63.9715C163.438 63.9369 163.473 63.9022 163.507 63.8675C163.542 63.8329 163.577 63.7635 163.577 63.6942C163.577 63.6248 163.542 63.5555 163.507 63.5208C163.473 63.4862 163.404 63.4515 163.334 63.4168C163.265 63.3822 163.161 63.3475 163.058 63.3475C162.954 63.3128 162.85 63.3128 162.746 63.2782C162.642 63.2435 162.539 63.2088 162.435 63.1741C162.331 63.1395 162.262 63.1048 162.158 63.0355C162.054 62.9661 162.02 62.8968 161.985 62.8274C161.95 62.7234 161.916 62.6194 161.916 62.5154C161.916 62.3767 161.95 62.2381 162.02 62.1341C162.089 62.03 162.158 61.926 162.262 61.8567C162.366 61.7874 162.469 61.718 162.608 61.718C162.746 61.6834 162.85 61.6833 162.988 61.6833C163.127 61.6833 163.265 61.6834 163.404 61.718C163.542 61.7527 163.646 61.7874 163.75 61.8914C163.853 61.9954 163.923 62.0647 163.992 62.1687C164.061 62.2727 164.096 62.4114 164.096 62.5848H163.507C163.507 62.5154 163.473 62.4461 163.438 62.3767C163.404 62.3074 163.369 62.2727 163.334 62.2381C163.3 62.2034 163.231 62.1687 163.161 62.1687C163.092 62.1687 163.023 62.1341 162.954 62.1341C162.919 62.1341 162.85 62.1341 162.815 62.1341C162.781 62.1341 162.712 62.1687 162.677 62.2034C162.642 62.2381 162.608 62.2727 162.573 62.3074C162.539 62.3421 162.539 62.4114 162.539 62.4461C162.539 62.5154 162.539 62.5501 162.573 62.5848C162.608 62.6194 162.642 62.6541 162.712 62.6888C162.781 62.7234 162.85 62.7581 162.954 62.7581C163.058 62.7581 163.196 62.8274 163.369 62.8621C163.404 62.8621 163.507 62.8968 163.577 62.9315C163.68 62.9661 163.75 63.0008 163.853 63.0701C163.957 63.1395 164.026 63.2088 164.096 63.3128C164.165 63.4168 164.199 63.5555 164.199 63.6942C164.199 63.8329 164.165 63.9369 164.13 64.0409C164.096 64.1449 163.992 64.2489 163.923 64.3182C163.853 64.3876 163.715 64.4569 163.577 64.4916C163.438 64.5263 163.265 64.5609 163.092 64.5609C162.954 64.5609 162.781 64.5263 162.642 64.4916C162.504 64.4569 162.366 64.3876 162.262 64.3182C162.158 64.2489 162.054 64.1449 161.985 64.0062C161.916 63.8675 161.881 63.7289 161.881 63.5555H162.469C162.4 63.5902 162.4 63.6942 162.435 63.7289Z" fill="#F6F4F3" fill-opacity="0.2"/>
<path d="M167.348 61.6487V62.1687H165.895V62.7581H167.244V63.2435H165.895V63.9369H167.383V64.4569H165.272V61.6834H167.348V61.6487Z" fill="#D9D9D9"/>
<path d="M167.348 61.6487V62.1687H165.895V62.7581H167.244V63.2435H165.895V63.9369H167.383V64.4569H165.272V61.6834H167.348V61.6487Z" fill="#F6F4F3" fill-opacity="0.2"/>
<path d="M170.047 61.6487C170.186 61.6487 170.289 61.6834 170.393 61.718C170.497 61.7527 170.566 61.822 170.635 61.8914C170.705 61.9607 170.774 62.03 170.808 62.1341C170.843 62.2381 170.878 62.3421 170.878 62.4461C170.878 62.6194 170.843 62.7581 170.774 62.8621C170.705 62.9661 170.601 63.0701 170.428 63.1395C170.497 63.1741 170.566 63.2088 170.601 63.2435C170.635 63.2782 170.705 63.3475 170.705 63.3822C170.705 63.4168 170.774 63.5208 170.774 63.5902C170.774 63.6595 170.808 63.7289 170.808 63.7982C170.808 63.8329 170.808 63.9022 170.808 63.9369C170.808 64.0062 170.808 64.0409 170.808 64.1102C170.808 64.1796 170.808 64.2142 170.843 64.2836C170.843 64.3529 170.878 64.3876 170.912 64.4222H170.289C170.255 64.3182 170.22 64.2142 170.22 64.1102C170.22 63.9715 170.186 63.8675 170.186 63.7635C170.151 63.6248 170.116 63.5208 170.047 63.4515C169.978 63.3822 169.874 63.3475 169.701 63.3475H169.078V64.4222H168.455V61.6487H170.047ZM169.839 62.8968C169.978 62.8968 170.082 62.8621 170.151 62.7928C170.22 62.7234 170.255 62.6194 170.255 62.4808C170.255 62.3421 170.22 62.2381 170.151 62.2034C170.082 62.1341 169.978 62.0994 169.839 62.0994H169.182V62.8968H169.839Z" fill="#D9D9D9"/>
<path d="M170.047 61.6487C170.186 61.6487 170.289 61.6834 170.393 61.718C170.497 61.7527 170.566 61.822 170.635 61.8914C170.705 61.9607 170.774 62.03 170.808 62.1341C170.843 62.2381 170.878 62.3421 170.878 62.4461C170.878 62.6194 170.843 62.7581 170.774 62.8621C170.705 62.9661 170.601 63.0701 170.428 63.1395C170.497 63.1741 170.566 63.2088 170.601 63.2435C170.635 63.2782 170.705 63.3475 170.705 63.3822C170.705 63.4168 170.774 63.5208 170.774 63.5902C170.774 63.6595 170.808 63.7289 170.808 63.7982C170.808 63.8329 170.808 63.9022 170.808 63.9369C170.808 64.0062 170.808 64.0409 170.808 64.1102C170.808 64.1796 170.808 64.2142 170.843 64.2836C170.843 64.3529 170.878 64.3876 170.912 64.4222H170.289C170.255 64.3182 170.22 64.2142 170.22 64.1102C170.22 63.9715 170.186 63.8675 170.186 63.7635C170.151 63.6248 170.116 63.5208 170.047 63.4515C169.978 63.3822 169.874 63.3475 169.701 63.3475H169.078V64.4222H168.455V61.6487H170.047ZM169.839 62.8968C169.978 62.8968 170.082 62.8621 170.151 62.7928C170.22 62.7234 170.255 62.6194 170.255 62.4808C170.255 62.3421 170.22 62.2381 170.151 62.2034C170.082 62.1341 169.978 62.0994 169.839 62.0994H169.182V62.8968H169.839Z" fill="#F6F4F3" fill-opacity="0.2"/>
<path d="M172.642 64.4222L171.743 61.6487H172.365L172.988 63.5902L173.611 61.6487H174.234L173.3 64.4222H172.642Z" fill="#D9D9D9"/>
<path d="M172.642 64.4222L171.743 61.6487H172.365L172.988 63.5902L173.611 61.6487H174.234L173.3 64.4222H172.642Z" fill="#F6F4F3" fill-opacity="0.2"/>
<path d="M175.895 61.6487V64.4222H175.272V61.6487H175.895Z" fill="#D9D9D9"/>
<path d="M175.895 61.6487V64.4222H175.272V61.6487H175.895Z" fill="#F6F4F3" fill-opacity="0.2"/>
<path d="M178.974 62.4114C178.94 62.3421 178.905 62.3074 178.836 62.2727C178.767 62.2381 178.732 62.2034 178.663 62.1687C178.594 62.1341 178.524 62.1341 178.455 62.1341C178.317 62.1341 178.213 62.1687 178.109 62.2034C178.005 62.2727 177.936 62.3421 177.867 62.4114C177.798 62.4808 177.763 62.6194 177.729 62.7234C177.694 62.8274 177.694 62.9661 177.694 63.0701C177.694 63.1741 177.694 63.3128 177.729 63.4168C177.763 63.5208 177.798 63.6248 177.867 63.7289C177.936 63.8329 178.005 63.9022 178.109 63.9369C178.213 63.9715 178.317 64.0062 178.455 64.0062C178.628 64.0062 178.801 63.9369 178.905 63.8329C179.009 63.7289 179.078 63.5555 179.113 63.3822H179.701C179.701 63.5555 179.632 63.7289 179.597 63.8675C179.563 64.0062 179.459 64.1102 179.355 64.2142C179.251 64.3182 179.113 64.3876 178.974 64.4222C178.836 64.4569 178.663 64.4916 178.49 64.4916C178.282 64.4916 178.075 64.4569 177.902 64.3876C177.729 64.3182 177.59 64.2142 177.486 64.0755C177.383 63.9369 177.279 63.7982 177.21 63.6248C177.14 63.4515 177.106 63.2782 177.106 63.0701C177.106 62.8621 177.14 62.6541 177.21 62.4808C177.279 62.3074 177.348 62.1341 177.486 62.03C177.625 61.926 177.729 61.7874 177.902 61.718C178.075 61.6487 178.248 61.614 178.49 61.614C178.628 61.614 178.801 61.6487 178.905 61.6834C179.043 61.718 179.147 61.7874 179.286 61.8914C179.39 61.9607 179.493 62.0647 179.563 62.2034C179.632 62.3421 179.666 62.4808 179.701 62.6194H179.043C179.009 62.5154 179.009 62.4461 178.974 62.4114Z" fill="#D9D9D9"/>
<path d="M178.974 62.4114C178.94 62.3421 178.905 62.3074 178.836 62.2727C178.767 62.2381 178.732 62.2034 178.663 62.1687C178.594 62.1341 178.524 62.1341 178.455 62.1341C178.317 62.1341 178.213 62.1687 178.109 62.2034C178.005 62.2727 177.936 62.3421 177.867 62.4114C177.798 62.4808 177.763 62.6194 177.729 62.7234C177.694 62.8274 177.694 62.9661 177.694 63.0701C177.694 63.1741 177.694 63.3128 177.729 63.4168C177.763 63.5208 177.798 63.6248 177.867 63.7289C177.936 63.8329 178.005 63.9022 178.109 63.9369C178.213 63.9715 178.317 64.0062 178.455 64.0062C178.628 64.0062 178.801 63.9369 178.905 63.8329C179.009 63.7289 179.078 63.5555 179.113 63.3822H179.701C179.701 63.5555 179.632 63.7289 179.597 63.8675C179.563 64.0062 179.459 64.1102 179.355 64.2142C179.251 64.3182 179.113 64.3876 178.974 64.4222C178.836 64.4569 178.663 64.4916 178.49 64.4916C178.282 64.4916 178.075 64.4569 177.902 64.3876C177.729 64.3182 177.59 64.2142 177.486 64.0755C177.383 63.9369 177.279 63.7982 177.21 63.6248C177.14 63.4515 177.106 63.2782 177.106 63.0701C177.106 62.8621 177.14 62.6541 177.21 62.4808C177.279 62.3074 177.348 62.1341 177.486 62.03C177.625 61.926 177.729 61.7874 177.902 61.718C178.075 61.6487 178.248 61.614 178.49 61.614C178.628 61.614 178.801 61.6487 178.905 61.6834C179.043 61.718 179.147 61.7874 179.286 61.8914C179.39 61.9607 179.493 62.0647 179.563 62.2034C179.632 62.3421 179.666 62.4808 179.701 62.6194H179.043C179.009 62.5154 179.009 62.4461 178.974 62.4114Z" fill="#F6F4F3" fill-opacity="0.2"/>
<path d="M182.919 61.6487V62.1687H181.466V62.7581H182.815V63.2435H181.466V63.9369H182.953V64.4569H180.843V61.6834H182.919V61.6487Z" fill="#D9D9D9"/>
<path d="M182.919 61.6487V62.1687H181.466V62.7581H182.815V63.2435H181.466V63.9369H182.953V64.4569H180.843V61.6834H182.919V61.6487Z" fill="#F6F4F3" fill-opacity="0.2"/>
<path d="M184.58 63.7289C184.614 63.7982 184.649 63.8329 184.718 63.9022C184.787 63.9369 184.822 63.9715 184.926 64.0062C184.995 64.0409 185.064 64.0409 185.168 64.0409C185.237 64.0409 185.272 64.0409 185.341 64.0409C185.41 64.0409 185.445 64.0062 185.514 63.9715C185.583 63.9369 185.618 63.9022 185.652 63.8675C185.687 63.8329 185.722 63.7635 185.722 63.6942C185.722 63.6248 185.687 63.5555 185.652 63.5208C185.618 63.4862 185.549 63.4515 185.479 63.4168C185.41 63.3822 185.306 63.3475 185.203 63.3475C185.099 63.3128 184.995 63.3128 184.891 63.2782C184.787 63.2435 184.684 63.2088 184.58 63.1741C184.476 63.1395 184.407 63.1048 184.303 63.0355C184.199 62.9661 184.164 62.8968 184.13 62.8274C184.095 62.7234 184.061 62.6194 184.061 62.5154C184.061 62.3767 184.095 62.2381 184.164 62.1341C184.234 62.03 184.303 61.926 184.407 61.8567C184.511 61.7874 184.614 61.718 184.753 61.718C184.891 61.6834 184.995 61.6833 185.133 61.6833C185.272 61.6833 185.41 61.6834 185.549 61.718C185.687 61.7527 185.791 61.7874 185.895 61.8914C185.998 61.9954 186.068 62.0647 186.137 62.1687C186.206 62.2727 186.241 62.4114 186.241 62.5848H185.652C185.652 62.5154 185.618 62.4461 185.583 62.3767C185.549 62.3074 185.514 62.2727 185.479 62.2381C185.445 62.2034 185.376 62.1687 185.306 62.1687C185.237 62.1687 185.168 62.1341 185.099 62.1341C185.064 62.1341 184.995 62.1341 184.96 62.1341C184.926 62.1341 184.857 62.1687 184.822 62.2034C184.787 62.2381 184.753 62.2727 184.718 62.3074C184.684 62.3421 184.684 62.4114 184.684 62.4461C184.684 62.5154 184.684 62.5501 184.718 62.5848C184.753 62.6194 184.787 62.6541 184.857 62.6888C184.926 62.7234 184.995 62.7581 185.099 62.7581C185.203 62.7581 185.341 62.8274 185.514 62.8621C185.549 62.8621 185.652 62.8968 185.722 62.9315C185.825 62.9661 185.895 63.0008 185.998 63.0701C186.102 63.1395 186.171 63.2088 186.241 63.3128C186.31 63.4168 186.344 63.5555 186.344 63.6942C186.344 63.8329 186.31 63.9369 186.275 64.0409C186.241 64.1449 186.137 64.2489 186.068 64.3182C185.998 64.3876 185.86 64.4569 185.722 64.4916C185.583 64.5263 185.41 64.5609 185.237 64.5609C185.099 64.5609 184.926 64.5263 184.787 64.4916C184.649 64.4569 184.511 64.3876 184.407 64.3182C184.303 64.2489 184.199 64.1449 184.13 64.0062C184.061 63.8675 184.026 63.7289 184.026 63.5555H184.614C184.545 63.5902 184.545 63.6942 184.58 63.7289Z" fill="#D9D9D9"/>
<path d="M184.58 63.7289C184.614 63.7982 184.649 63.8329 184.718 63.9022C184.787 63.9369 184.822 63.9715 184.926 64.0062C184.995 64.0409 185.064 64.0409 185.168 64.0409C185.237 64.0409 185.272 64.0409 185.341 64.0409C185.41 64.0409 185.445 64.0062 185.514 63.9715C185.583 63.9369 185.618 63.9022 185.652 63.8675C185.687 63.8329 185.722 63.7635 185.722 63.6942C185.722 63.6248 185.687 63.5555 185.652 63.5208C185.618 63.4862 185.549 63.4515 185.479 63.4168C185.41 63.3822 185.306 63.3475 185.203 63.3475C185.099 63.3128 184.995 63.3128 184.891 63.2782C184.787 63.2435 184.684 63.2088 184.58 63.1741C184.476 63.1395 184.407 63.1048 184.303 63.0355C184.199 62.9661 184.164 62.8968 184.13 62.8274C184.095 62.7234 184.061 62.6194 184.061 62.5154C184.061 62.3767 184.095 62.2381 184.164 62.1341C184.234 62.03 184.303 61.926 184.407 61.8567C184.511 61.7874 184.614 61.718 184.753 61.718C184.891 61.6834 184.995 61.6833 185.133 61.6833C185.272 61.6833 185.41 61.6834 185.549 61.718C185.687 61.7527 185.791 61.7874 185.895 61.8914C185.998 61.9954 186.068 62.0647 186.137 62.1687C186.206 62.2727 186.241 62.4114 186.241 62.5848H185.652C185.652 62.5154 185.618 62.4461 185.583 62.3767C185.549 62.3074 185.514 62.2727 185.479 62.2381C185.445 62.2034 185.376 62.1687 185.306 62.1687C185.237 62.1687 185.168 62.1341 185.099 62.1341C185.064 62.1341 184.995 62.1341 184.96 62.1341C184.926 62.1341 184.857 62.1687 184.822 62.2034C184.787 62.2381 184.753 62.2727 184.718 62.3074C184.684 62.3421 184.684 62.4114 184.684 62.4461C184.684 62.5154 184.684 62.5501 184.718 62.5848C184.753 62.6194 184.787 62.6541 184.857 62.6888C184.926 62.7234 184.995 62.7581 185.099 62.7581C185.203 62.7581 185.341 62.8274 185.514 62.8621C185.549 62.8621 185.652 62.8968 185.722 62.9315C185.825 62.9661 185.895 63.0008 185.998 63.0701C186.102 63.1395 186.171 63.2088 186.241 63.3128C186.31 63.4168 186.344 63.5555 186.344 63.6942C186.344 63.8329 186.31 63.9369 186.275 64.0409C186.241 64.1449 186.137 64.2489 186.068 64.3182C185.998 64.3876 185.86 64.4569 185.722 64.4916C185.583 64.5263 185.41 64.5609 185.237 64.5609C185.099 64.5609 184.926 64.5263 184.787 64.4916C184.649 64.4569 184.511 64.3876 184.407 64.3182C184.303 64.2489 184.199 64.1449 184.13 64.0062C184.061 63.8675 184.026 63.7289 184.026 63.5555H184.614C184.545 63.5902 184.545 63.6942 184.58 63.7289Z" fill="#F6F4F3" fill-opacity="0.2"/>
</g>
<defs>
<clipPath id="clip0_864_985">
<rect width="191" height="64" fill="white" transform="translate(0.5 0.491699)"/>
</clipPath>
</defs>
</svg>
