<svg width="152" height="65" viewBox="0 0 152 65" fill="none" xmlns="http://www.w3.org/2000/svg">
<g clip-path="url(#clip0_864_844)">
<path fill-rule="evenodd" clip-rule="evenodd" d="M96.9 11.7917V10.3917C96.9 10.0917 96.7 9.8917 96.4 9.8917H93.2C92.9 9.8917 92.7 10.0917 92.7 10.3917V16.5917C92.7 16.8917 92.9 17.0917 93.2 17.0917H96.4C96.7 17.0917 96.9 16.8917 96.9 16.5917V15.1917H99.5V16.7917C99.5 18.3917 98.4 19.3917 96.9 19.3917H92.8C91.2 19.3917 90.2 18.2917 90.2 16.7917V10.1917C90.2 8.5917 91.3 7.5917 92.8 7.5917H96.9C98.5 7.5917 99.5 8.5917 99.5 10.1917V11.7917H96.9ZM91.9 4.4917H94.1L94.9 5.6917L95.6 4.4917H97.8L96.2 6.8917H93.5L91.9 4.4917Z" fill="#D9D9D9"/>
<path fill-rule="evenodd" clip-rule="evenodd" d="M96.9 11.7917V10.3917C96.9 10.0917 96.7 9.8917 96.4 9.8917H93.2C92.9 9.8917 92.7 10.0917 92.7 10.3917V16.5917C92.7 16.8917 92.9 17.0917 93.2 17.0917H96.4C96.7 17.0917 96.9 16.8917 96.9 16.5917V15.1917H99.5V16.7917C99.5 18.3917 98.4 19.3917 96.9 19.3917H92.8C91.2 19.3917 90.2 18.2917 90.2 16.7917V10.1917C90.2 8.5917 91.3 7.5917 92.8 7.5917H96.9C98.5 7.5917 99.5 8.5917 99.5 10.1917V11.7917H96.9ZM91.9 4.4917H94.1L94.9 5.6917L95.6 4.4917H97.8L96.2 6.8917H93.5L91.9 4.4917Z" fill="#F6F4F3" fill-opacity="0.2"/>
<path fill-rule="evenodd" clip-rule="evenodd" d="M102.4 7.5918H110.6V9.8918H105V12.3918H109.8V14.6918H105V17.1918H110.6V19.4918H102.4V7.5918Z" fill="#D9D9D9"/>
<path fill-rule="evenodd" clip-rule="evenodd" d="M102.4 7.5918H110.6V9.8918H105V12.3918H109.8V14.6918H105V17.1918H110.6V19.4918H102.4V7.5918Z" fill="#F6F4F3" fill-opacity="0.2"/>
<path fill-rule="evenodd" clip-rule="evenodd" d="M122.3 14.9918V16.7918C122.3 18.3918 121.2 19.3918 119.7 19.3918H115.8C114.2 19.3918 113.2 18.2918 113.2 16.7918V15.6918H115.8V16.5918C115.8 16.8918 116 17.0918 116.3 17.0918H119.3C119.6 17.0918 119.8 16.8918 119.8 16.5918V15.0918C119.8 14.7918 119.6 14.5918 119.3 14.5918H115.8C114.2 14.5918 113.2 13.4918 113.2 11.9918V10.1918C113.2 8.5918 114.3 7.5918 115.8 7.5918H119.7C121.3 7.5918 122.3 8.6918 122.3 10.1918V11.2918H119.7V10.3918C119.7 10.0918 119.5 9.8918 119.2 9.8918H116.2C115.9 9.8918 115.7 10.0918 115.7 10.3918V11.8918C115.7 12.1918 115.9 12.3918 116.2 12.3918H119.7C121.2 12.2918 122.3 13.3918 122.3 14.9918Z" fill="#D9D9D9"/>
<path fill-rule="evenodd" clip-rule="evenodd" d="M122.3 14.9918V16.7918C122.3 18.3918 121.2 19.3918 119.7 19.3918H115.8C114.2 19.3918 113.2 18.2918 113.2 16.7918V15.6918H115.8V16.5918C115.8 16.8918 116 17.0918 116.3 17.0918H119.3C119.6 17.0918 119.8 16.8918 119.8 16.5918V15.0918C119.8 14.7918 119.6 14.5918 119.3 14.5918H115.8C114.2 14.5918 113.2 13.4918 113.2 11.9918V10.1918C113.2 8.5918 114.3 7.5918 115.8 7.5918H119.7C121.3 7.5918 122.3 8.6918 122.3 10.1918V11.2918H119.7V10.3918C119.7 10.0918 119.5 9.8918 119.2 9.8918H116.2C115.9 9.8918 115.7 10.0918 115.7 10.3918V11.8918C115.7 12.1918 115.9 12.3918 116.2 12.3918H119.7C121.2 12.2918 122.3 13.3918 122.3 14.9918Z" fill="#F6F4F3" fill-opacity="0.2"/>
<path fill-rule="evenodd" clip-rule="evenodd" d="M127.8 13.6918V19.2918H125.2V7.5918H127.8V13.2918L131.7 7.5918H134.6L130.6 13.2918L134.9 19.3918H131.7L127.8 13.6918Z" fill="#D9D9D9"/>
<path fill-rule="evenodd" clip-rule="evenodd" d="M127.8 13.6918V19.2918H125.2V7.5918H127.8V13.2918L131.7 7.5918H134.6L130.6 13.2918L134.9 19.3918H131.7L127.8 13.6918Z" fill="#F6F4F3" fill-opacity="0.2"/>
<path fill-rule="evenodd" clip-rule="evenodd" d="M142.6 19.3917H140V15.1917L135.8 7.5917H138.9L141.4 12.5917L143.9 7.5917H146.8L142.6 15.1917V19.3917ZM139.8 6.8917L141.2 4.4917H143.9L141.9 6.8917H139.8Z" fill="#D9D9D9"/>
<path fill-rule="evenodd" clip-rule="evenodd" d="M142.6 19.3917H140V15.1917L135.8 7.5917H138.9L141.4 12.5917L143.9 7.5917H146.8L142.6 15.1917V19.3917ZM139.8 6.8917L141.2 4.4917H143.9L141.9 6.8917H139.8Z" fill="#F6F4F3" fill-opacity="0.2"/>
<path fill-rule="evenodd" clip-rule="evenodd" d="M99.4 33.4916V35.2916C99.4 36.8916 98.3 37.8917 96.8 37.8917H92.9C91.3 37.8917 90.3 36.7916 90.3 35.2916V34.1917H92.9V35.0916C92.9 35.3916 93.1 35.5916 93.4 35.5916H96.4C96.7 35.5916 96.9 35.3916 96.9 35.0916V33.5916C96.9 33.2916 96.7 33.0916 96.4 33.0916H92.9C91.3 33.0916 90.3 31.9916 90.3 30.4916V28.7916C90.3 27.1916 91.4 26.1917 92.9 26.1917H96.8C98.4 26.1917 99.4 27.2916 99.4 28.7916V29.8916H96.8V28.9916C96.8 28.6916 96.6 28.4916 96.3 28.4916H93.3C93 28.4916 92.8 28.6916 92.8 28.9916V30.4916C92.8 30.7916 93 30.9916 93.3 30.9916H96.8C98.3 30.8916 99.4 31.8916 99.4 33.4916Z" fill="#D9D9D9"/>
<path fill-rule="evenodd" clip-rule="evenodd" d="M99.4 33.4916V35.2916C99.4 36.8916 98.3 37.8917 96.8 37.8917H92.9C91.3 37.8917 90.3 36.7916 90.3 35.2916V34.1917H92.9V35.0916C92.9 35.3916 93.1 35.5916 93.4 35.5916H96.4C96.7 35.5916 96.9 35.3916 96.9 35.0916V33.5916C96.9 33.2916 96.7 33.0916 96.4 33.0916H92.9C91.3 33.0916 90.3 31.9916 90.3 30.4916V28.7916C90.3 27.1916 91.4 26.1917 92.9 26.1917H96.8C98.4 26.1917 99.4 27.2916 99.4 28.7916V29.8916H96.8V28.9916C96.8 28.6916 96.6 28.4916 96.3 28.4916H93.3C93 28.4916 92.8 28.6916 92.8 28.9916V30.4916C92.8 30.7916 93 30.9916 93.3 30.9916H96.8C98.3 30.8916 99.4 31.8916 99.4 33.4916Z" fill="#F6F4F3" fill-opacity="0.2"/>
<path fill-rule="evenodd" clip-rule="evenodd" d="M101.2 26.0918H110.6V28.3918H107.2V37.8918H104.6V28.3918H101.2V26.0918Z" fill="#D9D9D9"/>
<path fill-rule="evenodd" clip-rule="evenodd" d="M101.2 26.0918H110.6V28.3918H107.2V37.8918H104.6V28.3918H101.2V26.0918Z" fill="#F6F4F3" fill-opacity="0.2"/>
<path fill-rule="evenodd" clip-rule="evenodd" d="M119.2 37.8917H115.1C113.5 37.8917 112.5 36.7916 112.5 35.2916V28.7916C112.5 27.1916 113.6 26.1917 115.1 26.1917H119.2C120.8 26.1917 121.8 27.2916 121.8 28.7916V35.2916C121.9 36.7916 120.8 37.8917 119.2 37.8917ZM119.2 28.8916C119.2 28.5916 119 28.3916 118.7 28.3916H115.5C115.2 28.3916 115 28.5916 115 28.8916V35.0916C115 35.3916 115.2 35.5916 115.5 35.5916H118.7C119 35.5916 119.2 35.3916 119.2 35.0916V28.8916Z" fill="#D9D9D9"/>
<path fill-rule="evenodd" clip-rule="evenodd" d="M119.2 37.8917H115.1C113.5 37.8917 112.5 36.7916 112.5 35.2916V28.7916C112.5 27.1916 113.6 26.1917 115.1 26.1917H119.2C120.8 26.1917 121.8 27.2916 121.8 28.7916V35.2916C121.9 36.7916 120.8 37.8917 119.2 37.8917ZM119.2 28.8916C119.2 28.5916 119 28.3916 118.7 28.3916H115.5C115.2 28.3916 115 28.5916 115 28.8916V35.0916C115 35.3916 115.2 35.5916 115.5 35.5916H118.7C119 35.5916 119.2 35.3916 119.2 35.0916V28.8916Z" fill="#F6F4F3" fill-opacity="0.2"/>
<path fill-rule="evenodd" clip-rule="evenodd" d="M124.7 26.0918H127.3V35.5918H132.9V37.8918H124.7V26.0918Z" fill="#D9D9D9"/>
<path fill-rule="evenodd" clip-rule="evenodd" d="M124.7 26.0918H127.3V35.5918H132.9V37.8918H124.7V26.0918Z" fill="#F6F4F3" fill-opacity="0.2"/>
<path fill-rule="evenodd" clip-rule="evenodd" d="M137.7 30.8918V37.8918H135.1V26.0918H137.5L141.8 33.0918V26.0918H144.4V37.8918H142L137.7 30.8918Z" fill="#D9D9D9"/>
<path fill-rule="evenodd" clip-rule="evenodd" d="M137.7 30.8918V37.8918H135.1V26.0918H137.5L141.8 33.0918V26.0918H144.4V37.8918H142L137.7 30.8918Z" fill="#F6F4F3" fill-opacity="0.2"/>
<path fill-rule="evenodd" clip-rule="evenodd" d="M147.3 26.0917H149.9V37.8917H147.3V26.0917ZM147.4 25.3917L148.8 22.9917H151.5L149.5 25.3917H147.4Z" fill="#D9D9D9"/>
<path fill-rule="evenodd" clip-rule="evenodd" d="M147.3 26.0917H149.9V37.8917H147.3V26.0917ZM147.4 25.3917L148.8 22.9917H151.5L149.5 25.3917H147.4Z" fill="#F6F4F3" fill-opacity="0.2"/>
<path fill-rule="evenodd" clip-rule="evenodd" d="M89.1 44.5918H98.5V46.8918H95.1V56.3918H92.5V46.8918H89.1V44.5918Z" fill="#D9D9D9"/>
<path fill-rule="evenodd" clip-rule="evenodd" d="M89.1 44.5918H98.5V46.8918H95.1V56.3918H92.5V46.8918H89.1V44.5918Z" fill="#F6F4F3" fill-opacity="0.2"/>
<path fill-rule="evenodd" clip-rule="evenodd" d="M100.4 44.5918H108.6V46.8918H103V49.3918H107.8V51.6918H103V54.1918H108.6V56.4918H100.4V44.5918Z" fill="#D9D9D9"/>
<path fill-rule="evenodd" clip-rule="evenodd" d="M100.4 44.5918H108.6V46.8918H103V49.3918H107.8V51.6918H103V54.1918H108.6V56.4918H100.4V44.5918Z" fill="#F6F4F3" fill-opacity="0.2"/>
<path fill-rule="evenodd" clip-rule="evenodd" d="M113.7 49.3918V56.3918H111.1V44.5918H113.5L117.8 51.5918V44.5918H120.4V56.3918H118L113.7 49.3918Z" fill="#D9D9D9"/>
<path fill-rule="evenodd" clip-rule="evenodd" d="M113.7 49.3918V56.3918H111.1V44.5918H113.5L117.8 51.5918V44.5918H120.4V56.3918H118L113.7 49.3918Z" fill="#F6F4F3" fill-opacity="0.2"/>
<path fill-rule="evenodd" clip-rule="evenodd" d="M123.4 56.3918H126V44.5918H123.4V56.3918Z" fill="#D9D9D9"/>
<path fill-rule="evenodd" clip-rule="evenodd" d="M123.4 56.3918H126V44.5918H123.4V56.3918Z" fill="#F6F4F3" fill-opacity="0.2"/>
<path fill-rule="evenodd" clip-rule="evenodd" d="M138 51.9916V53.7916C138 55.3916 136.9 56.3917 135.4 56.3917H131.5C129.9 56.3917 128.9 55.2916 128.9 53.7916V52.6917H131.5V53.5916C131.5 53.8916 131.7 54.0916 132 54.0916H135C135.3 54.0916 135.5 53.8916 135.5 53.5916V52.0916C135.5 51.7916 135.3 51.5916 135 51.5916H131.5C129.9 51.5916 128.9 50.4916 128.9 48.9916V47.2916C128.9 45.6916 130 44.6917 131.5 44.6917H135.4C137 44.6917 138 45.7916 138 47.2916V48.3917H135.4V47.4916C135.4 47.1916 135.2 46.9916 134.9 46.9916H131.9C131.6 46.9916 131.4 47.1916 131.4 47.4916V48.9916C131.4 49.2916 131.6 49.4916 131.9 49.4916H135.4C137 49.3916 138 50.3916 138 51.9916Z" fill="#D9D9D9"/>
<path fill-rule="evenodd" clip-rule="evenodd" d="M138 51.9916V53.7916C138 55.3916 136.9 56.3917 135.4 56.3917H131.5C129.9 56.3917 128.9 55.2916 128.9 53.7916V52.6917H131.5V53.5916C131.5 53.8916 131.7 54.0916 132 54.0916H135C135.3 54.0916 135.5 53.8916 135.5 53.5916V52.0916C135.5 51.7916 135.3 51.5916 135 51.5916H131.5C129.9 51.5916 128.9 50.4916 128.9 48.9916V47.2916C128.9 45.6916 130 44.6917 131.5 44.6917H135.4C137 44.6917 138 45.7916 138 47.2916V48.3917H135.4V47.4916C135.4 47.1916 135.2 46.9916 134.9 46.9916H131.9C131.6 46.9916 131.4 47.1916 131.4 47.4916V48.9916C131.4 49.2916 131.6 49.4916 131.9 49.4916H135.4C137 49.3916 138 50.3916 138 51.9916Z" fill="#F6F4F3" fill-opacity="0.2"/>
<path fill-rule="evenodd" clip-rule="evenodd" d="M43.6 6.4917C43.6 9.7917 40.9 12.4917 37.6 12.4917C34.3 12.4917 31.6 9.7917 31.6 6.4917C31.6 3.1917 34.3 0.491699 37.6 0.491699C41 0.491699 43.6 3.1917 43.6 6.4917Z" fill="#D9D9D9"/>
<path fill-rule="evenodd" clip-rule="evenodd" d="M43.6 6.4917C43.6 9.7917 40.9 12.4917 37.6 12.4917C34.3 12.4917 31.6 9.7917 31.6 6.4917C31.6 3.1917 34.3 0.491699 37.6 0.491699C41 0.491699 43.6 3.1917 43.6 6.4917Z" fill="#F6F4F3" fill-opacity="0.2"/>
<path fill-rule="evenodd" clip-rule="evenodd" d="M0.5 35.0918H34.7V29.0918H0.5V35.0918Z" fill="#D9D9D9"/>
<path fill-rule="evenodd" clip-rule="evenodd" d="M0.5 35.0918H34.7V29.0918H0.5V35.0918Z" fill="#F6F4F3" fill-opacity="0.2"/>
<path fill-rule="evenodd" clip-rule="evenodd" d="M14.6 56.7917H20.6V28.9917H14.6V56.7917Z" fill="#D9D9D9"/>
<path fill-rule="evenodd" clip-rule="evenodd" d="M14.6 56.7917H20.6V28.9917H14.6V56.7917Z" fill="#F6F4F3" fill-opacity="0.2"/>
<path fill-rule="evenodd" clip-rule="evenodd" d="M54.7 56.7917H60.7V28.9917H54.7V56.7917Z" fill="#D9D9D9"/>
<path fill-rule="evenodd" clip-rule="evenodd" d="M54.7 56.7917H60.7V28.9917H54.7V56.7917Z" fill="#F6F4F3" fill-opacity="0.2"/>
<path fill-rule="evenodd" clip-rule="evenodd" d="M40.6 35.0918H74.8V29.0918H40.6V35.0918Z" fill="#D9D9D9"/>
<path fill-rule="evenodd" clip-rule="evenodd" d="M40.6 35.0918H74.8V29.0918H40.6V35.0918Z" fill="#F6F4F3" fill-opacity="0.2"/>
<path fill-rule="evenodd" clip-rule="evenodd" d="M34.7 64.4917H40.7V28.9917H34.7V64.4917Z" fill="#D9D9D9"/>
<path fill-rule="evenodd" clip-rule="evenodd" d="M34.7 64.4917H40.7V28.9917H34.7V64.4917Z" fill="#F6F4F3" fill-opacity="0.2"/>
<path fill-rule="evenodd" clip-rule="evenodd" d="M37.5 32.0916L12.2 6.5916L16.4 2.3916L41.7 27.7916L37.5 32.0916Z" fill="#D9D9D9"/>
<path fill-rule="evenodd" clip-rule="evenodd" d="M37.5 32.0916L12.2 6.5916L16.4 2.3916L41.7 27.7916L37.5 32.0916Z" fill="#F6F4F3" fill-opacity="0.2"/>
<path fill-rule="evenodd" clip-rule="evenodd" d="M33.6 27.7916L58.9 2.3916L63.1 6.5916L37.8 32.0916L33.6 27.7916Z" fill="#D9D9D9"/>
<path fill-rule="evenodd" clip-rule="evenodd" d="M33.6 27.7916L58.9 2.3916L63.1 6.5916L37.8 32.0916L33.6 27.7916Z" fill="#F6F4F3" fill-opacity="0.2"/>
</g>
<defs>
<clipPath id="clip0_864_844">
<rect width="151" height="64" fill="white" transform="translate(0.5 0.491699)"/>
</clipPath>
</defs>
</svg>
