<svg width="25" height="24" viewBox="0 0 25 24" fill="none" xmlns="http://www.w3.org/2000/svg">
<path d="M13.5 9H11.5V7H13.5V9ZM13.5 11H11.5V17H13.5V11ZM12.5 4C8.089 4 4.5 7.589 4.5 12C4.5 16.411 8.089 20 12.5 20C16.911 20 20.5 16.411 20.5 12C20.5 7.589 16.911 4 12.5 4ZM12.5 2C18.023 2 22.5 6.477 22.5 12C22.5 17.523 18.023 22 12.5 22C6.977 22 2.5 17.523 2.5 12C2.5 6.477 6.977 2 12.5 2Z" fill="#D9D9D9"/>
<path d="M13.5 9H11.5V7H13.5V9ZM13.5 11H11.5V17H13.5V11ZM12.5 4C8.089 4 4.5 7.589 4.5 12C4.5 16.411 8.089 20 12.5 20C16.911 20 20.5 16.411 20.5 12C20.5 7.589 16.911 4 12.5 4ZM12.5 2C18.023 2 22.5 6.477 22.5 12C22.5 17.523 18.023 22 12.5 22C6.977 22 2.5 17.523 2.5 12C2.5 6.477 6.977 2 12.5 2Z" fill="#F6F4F3" fill-opacity="0.2"/>
</svg>
