<svg width="171" height="65" viewBox="0 0 171 65" fill="none" xmlns="http://www.w3.org/2000/svg">
<g clip-path="url(#clip0_864_935)">
<path fill-rule="evenodd" clip-rule="evenodd" d="M162.973 47.0675C165.355 47.0675 166.149 44.6801 166.149 42.6111C166.149 40.0646 165.355 38.1547 162.973 38.1547C160.59 38.1547 159.638 40.542 159.638 42.6111C159.796 44.6801 160.59 47.0675 162.973 47.0675ZM161.384 54.0704C159.955 54.3887 157.573 55.3436 157.573 57.0943C157.573 60.7549 165.196 60.9141 167.578 59.6408C169.801 58.5267 169.484 56.4577 167.419 55.3436C166.149 54.8661 164.084 54.3887 161.384 54.0704ZM160.273 53.752C158.049 53.2746 156.144 51.3647 158.367 49.2957C159.002 48.659 160.114 48.0224 161.543 47.5449C159.32 47.0675 157.414 45.1576 157.414 42.6111C157.414 39.1096 160.273 37.5181 163.449 37.5181C163.608 37.5181 164.084 37.5181 165.196 37.6772C166.943 37.8364 168.69 37.8364 170.595 37.8364V39.1096H167.26C169.007 40.7012 169.166 44.2026 167.419 45.9534C166.625 46.7492 165.355 47.3858 163.608 47.7041C162.496 48.0224 159.32 48.8182 159.32 50.4098C159.32 51.2055 160.432 51.8422 162.814 52.3196C164.878 52.6379 167.578 53.1154 169.166 54.3887C169.96 55.0253 170.437 55.6619 170.437 56.776C170.437 58.2084 169.643 59.4817 168.054 60.4366C165.355 62.0282 160.59 62.5057 157.732 60.9141C155.667 59.8 155.35 57.5718 156.938 55.8211C157.732 54.8661 158.843 54.3887 160.273 53.752Z" fill="#D9D9D9"/>
<path fill-rule="evenodd" clip-rule="evenodd" d="M162.973 47.0675C165.355 47.0675 166.149 44.6801 166.149 42.6111C166.149 40.0646 165.355 38.1547 162.973 38.1547C160.59 38.1547 159.638 40.542 159.638 42.6111C159.796 44.6801 160.59 47.0675 162.973 47.0675ZM161.384 54.0704C159.955 54.3887 157.573 55.3436 157.573 57.0943C157.573 60.7549 165.196 60.9141 167.578 59.6408C169.801 58.5267 169.484 56.4577 167.419 55.3436C166.149 54.8661 164.084 54.3887 161.384 54.0704ZM160.273 53.752C158.049 53.2746 156.144 51.3647 158.367 49.2957C159.002 48.659 160.114 48.0224 161.543 47.5449C159.32 47.0675 157.414 45.1576 157.414 42.6111C157.414 39.1096 160.273 37.5181 163.449 37.5181C163.608 37.5181 164.084 37.5181 165.196 37.6772C166.943 37.8364 168.69 37.8364 170.595 37.8364V39.1096H167.26C169.007 40.7012 169.166 44.2026 167.419 45.9534C166.625 46.7492 165.355 47.3858 163.608 47.7041C162.496 48.0224 159.32 48.8182 159.32 50.4098C159.32 51.2055 160.432 51.8422 162.814 52.3196C164.878 52.6379 167.578 53.1154 169.166 54.3887C169.96 55.0253 170.437 55.6619 170.437 56.776C170.437 58.2084 169.643 59.4817 168.054 60.4366C165.355 62.0282 160.59 62.5057 157.732 60.9141C155.667 59.8 155.35 57.5718 156.938 55.8211C157.732 54.8661 158.843 54.3887 160.273 53.752Z" fill="#F6F4F3" fill-opacity="0.2"/>
<path fill-rule="evenodd" clip-rule="evenodd" d="M144.06 48.0112C144.06 49.7619 144.378 50.3985 146.124 50.5577V51.0351C143.901 50.876 141.519 51.0351 139.296 51.0351V50.5577C141.043 50.5577 141.519 49.7619 141.519 48.0112V41.4857C141.519 40.3716 141.36 39.5759 141.043 39.0984C140.566 38.4618 139.931 38.4618 139.296 38.4618V37.9843C140.884 37.8251 142.472 37.8251 144.06 37.5068V40.2125C145.648 38.1434 150.095 35.7561 152.159 38.9392C153.589 41.1674 153.112 45.3055 153.112 48.0112C153.112 49.7619 153.589 50.3985 155.335 50.5577V51.0351C153.112 51.0351 150.73 50.876 148.507 51.0351V50.5577C150.254 50.3985 150.571 49.7619 150.571 48.0112C150.571 45.9421 151.048 41.6449 149.936 39.8942C148.983 38.4618 147.077 38.6209 145.807 39.4167C145.172 39.735 144.536 40.3716 144.06 41.1674V48.0112Z" fill="#D9D9D9"/>
<path fill-rule="evenodd" clip-rule="evenodd" d="M144.06 48.0112C144.06 49.7619 144.378 50.3985 146.124 50.5577V51.0351C143.901 50.876 141.519 51.0351 139.296 51.0351V50.5577C141.043 50.5577 141.519 49.7619 141.519 48.0112V41.4857C141.519 40.3716 141.36 39.5759 141.043 39.0984C140.566 38.4618 139.931 38.4618 139.296 38.4618V37.9843C140.884 37.8251 142.472 37.8251 144.06 37.5068V40.2125C145.648 38.1434 150.095 35.7561 152.159 38.9392C153.589 41.1674 153.112 45.3055 153.112 48.0112C153.112 49.7619 153.589 50.3985 155.335 50.5577V51.0351C153.112 51.0351 150.73 50.876 148.507 51.0351V50.5577C150.254 50.3985 150.571 49.7619 150.571 48.0112C150.571 45.9421 151.048 41.6449 149.936 39.8942C148.983 38.4618 147.077 38.6209 145.807 39.4167C145.172 39.735 144.536 40.3716 144.06 41.1674V48.0112Z" fill="#F6F4F3" fill-opacity="0.2"/>
<path fill-rule="evenodd" clip-rule="evenodd" d="M135.792 37.4192V47.9235C135.792 48.8785 135.951 49.5151 136.269 49.8334C136.586 50.1517 137.063 50.3109 137.857 50.47V50.9475C135.475 50.9475 133.251 50.7883 130.869 50.9475V50.47C131.663 50.47 132.298 50.3109 132.616 49.9926C132.934 49.6742 133.092 49.0376 133.092 48.0827V41.5573C133.092 39.8065 132.934 38.5333 130.869 38.5333V38.0558C132.457 37.8967 134.045 37.7375 135.792 37.4192Z" fill="#D9D9D9"/>
<path fill-rule="evenodd" clip-rule="evenodd" d="M135.792 37.4192V47.9235C135.792 48.8785 135.951 49.5151 136.269 49.8334C136.586 50.1517 137.063 50.3109 137.857 50.47V50.9475C135.475 50.9475 133.251 50.7883 130.869 50.9475V50.47C131.663 50.47 132.298 50.3109 132.616 49.9926C132.934 49.6742 133.092 49.0376 133.092 48.0827V41.5573C133.092 39.8065 132.934 38.5333 130.869 38.5333V38.0558C132.457 37.8967 134.045 37.7375 135.792 37.4192Z" fill="#F6F4F3" fill-opacity="0.2"/>
<path fill-rule="evenodd" clip-rule="evenodd" d="M125.158 33.3401V37.7965H129.605V38.7514H125.158V45.5951C125.158 47.1867 125.317 48.3008 125.794 48.9374C126.746 50.529 128.97 50.0515 130.24 49.0966L130.558 49.4149C128.97 51.1656 125.317 52.598 123.729 50.0515C123.094 49.0966 122.776 47.8233 122.776 45.9134V38.7514H120.394V38.1148C121.347 37.6373 122.3 36.8415 122.935 36.0457C123.57 35.2499 124.205 34.295 124.523 33.1809H125.158V33.3401Z" fill="#D9D9D9"/>
<path fill-rule="evenodd" clip-rule="evenodd" d="M125.158 33.3401V37.7965H129.605V38.7514H125.158V45.5951C125.158 47.1867 125.317 48.3008 125.794 48.9374C126.746 50.529 128.97 50.0515 130.24 49.0966L130.558 49.4149C128.97 51.1656 125.317 52.598 123.729 50.0515C123.094 49.0966 122.776 47.8233 122.776 45.9134V38.7514H120.394V38.1148C121.347 37.6373 122.3 36.8415 122.935 36.0457C123.57 35.2499 124.205 34.295 124.523 33.1809H125.158V33.3401Z" fill="#F6F4F3" fill-opacity="0.2"/>
<path fill-rule="evenodd" clip-rule="evenodd" d="M114.447 31.3539C114.447 29.6032 114.129 28.3299 112.064 28.3299V27.8525C113.653 27.8525 115.241 27.5342 116.988 27.375V48.0654C116.988 49.0203 117.146 49.6569 117.464 49.9752C117.782 50.2936 118.258 50.4527 119.211 50.6119V51.0893C116.829 51.0893 114.605 51.0893 112.223 51.0893V50.6119C113.176 50.6119 113.653 50.4527 114.129 49.9752C114.447 49.6569 114.605 49.0203 114.605 48.0654V31.3539H114.447Z" fill="#D9D9D9"/>
<path fill-rule="evenodd" clip-rule="evenodd" d="M114.447 31.3539C114.447 29.6032 114.129 28.3299 112.064 28.3299V27.8525C113.653 27.8525 115.241 27.5342 116.988 27.375V48.0654C116.988 49.0203 117.146 49.6569 117.464 49.9752C117.782 50.2936 118.258 50.4527 119.211 50.6119V51.0893C116.829 51.0893 114.605 51.0893 112.223 51.0893V50.6119C113.176 50.6119 113.653 50.4527 114.129 49.9752C114.447 49.6569 114.605 49.0203 114.605 48.0654V31.3539H114.447Z" fill="#F6F4F3" fill-opacity="0.2"/>
<path fill-rule="evenodd" clip-rule="evenodd" d="M106.342 41.5238C106.342 40.4097 106.184 39.614 105.866 39.1365C105.39 38.4999 104.754 38.4999 104.119 38.4999V38.0224C105.707 38.0224 107.295 37.8632 108.883 37.5449V47.4126C108.883 48.5267 109.042 49.3225 109.36 49.8C109.836 50.4366 110.471 50.4366 111.107 50.4366V50.9141C109.519 50.9141 107.931 51.0732 106.342 51.3915V48.6859C105.072 50.1183 103.325 51.2324 101.419 51.2324C97.9255 51.2324 97.2902 48.2084 97.2902 45.1844V41.5238C97.2902 40.4097 97.1314 39.614 96.8138 39.1365C96.3374 38.4999 95.7021 38.4999 95.0669 38.4999V38.0224C96.655 38.0224 98.2431 37.8632 99.8312 37.5449V45.5028C99.8312 47.4126 100.149 49.9591 102.69 49.9591C104.278 49.9591 105.548 49.0042 106.501 47.8901V41.5238H106.342Z" fill="#D9D9D9"/>
<path fill-rule="evenodd" clip-rule="evenodd" d="M106.342 41.5238C106.342 40.4097 106.184 39.614 105.866 39.1365C105.39 38.4999 104.754 38.4999 104.119 38.4999V38.0224C105.707 38.0224 107.295 37.8632 108.883 37.5449V47.4126C108.883 48.5267 109.042 49.3225 109.36 49.8C109.836 50.4366 110.471 50.4366 111.107 50.4366V50.9141C109.519 50.9141 107.931 51.0732 106.342 51.3915V48.6859C105.072 50.1183 103.325 51.2324 101.419 51.2324C97.9255 51.2324 97.2902 48.2084 97.2902 45.1844V41.5238C97.2902 40.4097 97.1314 39.614 96.8138 39.1365C96.3374 38.4999 95.7021 38.4999 95.0669 38.4999V38.0224C96.655 38.0224 98.2431 37.8632 99.8312 37.5449V45.5028C99.8312 47.4126 100.149 49.9591 102.69 49.9591C104.278 49.9591 105.548 49.0042 106.501 47.8901V41.5238H106.342Z" fill="#F6F4F3" fill-opacity="0.2"/>
<path fill-rule="evenodd" clip-rule="evenodd" d="M84.4901 51.3183V46.7028H84.9665C85.1254 47.976 85.6018 48.931 86.3958 49.7268C87.1899 50.5225 87.9839 50.8409 89.0956 50.8409C90.5249 50.8409 91.7954 49.8859 91.7954 48.4535C91.7954 46.0662 86.8723 45.1112 85.443 43.3605C84.9665 42.7239 84.6489 42.0872 84.6489 41.2915C84.6489 40.1774 84.9665 39.3816 85.7606 38.745C86.5547 38.1083 87.5075 37.6309 88.778 37.6309C89.2544 37.6309 89.7309 37.79 90.3661 37.9492C91.0013 38.1083 91.319 38.2675 91.4778 38.2675C91.9542 38.2675 92.2718 38.1083 92.2718 37.6309H92.5894V41.4506H92.113C91.7954 39.6999 90.6837 38.2675 88.778 38.2675C86.8723 38.2675 85.6018 40.1774 87.0311 41.6098C88.4604 43.2013 91.1601 43.3605 92.7483 45.1112C93.3835 45.7478 93.5423 46.5436 93.5423 47.4986C93.5423 49.8859 91.4778 51.6366 89.0956 51.6366C87.8251 51.6366 86.7135 50.8409 85.7606 50.8409C85.2842 50.8409 84.9665 51 84.9665 51.4775L84.4901 51.3183Z" fill="#D9D9D9"/>
<path fill-rule="evenodd" clip-rule="evenodd" d="M84.4901 51.3183V46.7028H84.9665C85.1254 47.976 85.6018 48.931 86.3958 49.7268C87.1899 50.5225 87.9839 50.8409 89.0956 50.8409C90.5249 50.8409 91.7954 49.8859 91.7954 48.4535C91.7954 46.0662 86.8723 45.1112 85.443 43.3605C84.9665 42.7239 84.6489 42.0872 84.6489 41.2915C84.6489 40.1774 84.9665 39.3816 85.7606 38.745C86.5547 38.1083 87.5075 37.6309 88.778 37.6309C89.2544 37.6309 89.7309 37.79 90.3661 37.9492C91.0013 38.1083 91.319 38.2675 91.4778 38.2675C91.9542 38.2675 92.2718 38.1083 92.2718 37.6309H92.5894V41.4506H92.113C91.7954 39.6999 90.6837 38.2675 88.778 38.2675C86.8723 38.2675 85.6018 40.1774 87.0311 41.6098C88.4604 43.2013 91.1601 43.3605 92.7483 45.1112C93.3835 45.7478 93.5423 46.5436 93.5423 47.4986C93.5423 49.8859 91.4778 51.6366 89.0956 51.6366C87.8251 51.6366 86.7135 50.8409 85.7606 50.8409C85.2842 50.8409 84.9665 51 84.9665 51.4775L84.4901 51.3183Z" fill="#F6F4F3" fill-opacity="0.2"/>
<path fill-rule="evenodd" clip-rule="evenodd" d="M71.6773 49.9577C71.9949 50.276 72.4713 50.4352 73.4242 50.5943V51.0718C71.2008 50.9126 68.9775 51.0718 66.7541 51.0718H66.5953V50.5943C67.3894 50.5943 68.0246 50.4352 68.3422 50.1169C68.6599 49.7985 68.8187 49.1619 68.8187 48.207V41.6816C68.8187 40.5675 68.6599 39.7717 68.3422 39.2942C67.8658 38.6576 67.2306 38.6576 66.5953 38.6576V38.1801C68.1834 38.021 69.7715 38.0209 71.3596 37.7026V40.4083C72.6301 38.9759 74.377 37.7026 76.2828 37.7026C79.7766 37.7026 80.4118 40.8858 80.4118 43.7506V48.207C80.4118 49.9577 80.8883 50.5943 82.6352 50.7535V51.2309H82.4764C80.253 51.2309 78.0297 51.0718 75.8063 51.2309V50.7535C77.5533 50.5943 77.8709 49.9577 77.8709 48.207V43.5914C77.8709 41.5224 77.5533 39.135 75.0123 39.135C73.4242 39.135 72.1537 40.2491 71.2008 41.5224C71.2008 42.6365 70.7244 48.8436 71.6773 49.9577Z" fill="#D9D9D9"/>
<path fill-rule="evenodd" clip-rule="evenodd" d="M71.6773 49.9577C71.9949 50.276 72.4713 50.4352 73.4242 50.5943V51.0718C71.2008 50.9126 68.9775 51.0718 66.7541 51.0718H66.5953V50.5943C67.3894 50.5943 68.0246 50.4352 68.3422 50.1169C68.6599 49.7985 68.8187 49.1619 68.8187 48.207V41.6816C68.8187 40.5675 68.6599 39.7717 68.3422 39.2942C67.8658 38.6576 67.2306 38.6576 66.5953 38.6576V38.1801C68.1834 38.021 69.7715 38.0209 71.3596 37.7026V40.4083C72.6301 38.9759 74.377 37.7026 76.2828 37.7026C79.7766 37.7026 80.4118 40.8858 80.4118 43.7506V48.207C80.4118 49.9577 80.8883 50.5943 82.6352 50.7535V51.2309H82.4764C80.253 51.2309 78.0297 51.0718 75.8063 51.2309V50.7535C77.5533 50.5943 77.8709 49.9577 77.8709 48.207V43.5914C77.8709 41.5224 77.5533 39.135 75.0123 39.135C73.4242 39.135 72.1537 40.2491 71.2008 41.5224C71.2008 42.6365 70.7244 48.8436 71.6773 49.9577Z" fill="#F6F4F3" fill-opacity="0.2"/>
<path fill-rule="evenodd" clip-rule="evenodd" d="M52.9155 44.489C52.9155 47.1946 54.0271 50.8552 57.3622 50.8552C60.6972 50.8552 61.8089 47.1946 61.8089 44.489C61.8089 41.7833 60.856 38.1227 57.3622 38.1227C53.8683 38.1227 52.9155 41.7833 52.9155 44.489ZM50.0569 44.489C50.0569 40.5101 53.3919 37.4861 57.2034 37.4861C61.1736 37.4861 64.3498 40.5101 64.3498 44.489C64.3498 48.4679 61.0148 51.4919 57.2034 51.4919C53.3919 51.4919 50.0569 48.4679 50.0569 44.489Z" fill="#D9D9D9"/>
<path fill-rule="evenodd" clip-rule="evenodd" d="M52.9155 44.489C52.9155 47.1946 54.0271 50.8552 57.3622 50.8552C60.6972 50.8552 61.8089 47.1946 61.8089 44.489C61.8089 41.7833 60.856 38.1227 57.3622 38.1227C53.8683 38.1227 52.9155 41.7833 52.9155 44.489ZM50.0569 44.489C50.0569 40.5101 53.3919 37.4861 57.2034 37.4861C61.1736 37.4861 64.3498 40.5101 64.3498 44.489C64.3498 48.4679 61.0148 51.4919 57.2034 51.4919C53.3919 51.4919 50.0569 48.4679 50.0569 44.489Z" fill="#F6F4F3" fill-opacity="0.2"/>
<path fill-rule="evenodd" clip-rule="evenodd" d="M90.382 19.4919V22.1976C91.4937 21.2426 92.4465 20.4469 93.0818 20.1285C94.0346 19.6511 94.9875 19.3328 96.0992 19.6511C96.4168 19.8102 96.7344 19.8102 97.052 20.1285L95.9404 22.5159C95.1463 22.1976 94.1934 21.7201 93.2406 21.7201C92.1289 21.7201 91.176 22.3567 90.382 23.1525V29.9963C90.382 30.9512 90.5408 31.5878 90.8584 31.9061C91.176 32.2244 91.8113 32.3836 92.7642 32.3836V32.8611C90.382 32.8611 87.9998 32.8611 85.6177 32.8611V32.3836C86.5705 32.3836 87.2058 32.2244 87.5234 31.747C87.841 31.4287 87.9998 30.792 87.9998 29.8371V23.3117C87.9998 21.561 87.6822 20.2877 85.6177 20.2877V19.8102C87.2058 19.8102 88.7939 19.6511 90.382 19.4919ZM74.0245 24.1075H81.171C81.171 22.0384 80.0593 20.1285 77.836 20.1285C75.4538 19.9694 74.3421 21.8793 74.0245 24.1075ZM84.1884 30.4737C82.7591 32.3836 80.8534 33.3385 78.4712 33.3385C74.3421 33.3385 71.4836 30.3146 71.4836 26.1765C71.4836 22.1976 74.3421 19.3328 78.3124 19.3328C81.6474 19.3328 83.8708 21.4018 84.0296 24.7441H74.1833C74.1833 28.2455 75.6126 32.3836 79.7417 32.3836C81.4886 32.3836 82.9179 31.4287 83.8708 29.9963L84.1884 30.4737ZM28.6048 19.4919V22.1976C29.7164 21.2426 30.6693 20.4469 31.3045 20.1285C32.7338 19.3328 33.8455 19.3328 35.2748 19.9694L34.1631 22.3567C33.5279 22.0384 33.0515 21.8793 32.575 21.7201C31.6222 21.4018 30.8281 21.4018 30.0341 21.8793C29.5576 22.1976 29.0812 22.5159 28.6048 22.9934V29.8371C28.6048 31.5878 29.0812 32.3836 30.9869 32.3836V32.8611C30.0341 32.8611 29.24 32.8611 28.7636 32.8611C27.8107 32.8611 26.8578 32.8611 25.905 32.8611C25.4286 32.8611 24.6345 32.8611 23.8405 32.8611V32.3836C25.5874 32.3836 26.2226 31.747 26.2226 29.8371V23.3117C26.2226 21.561 25.905 20.2877 23.8405 20.2877V19.8102C25.2697 19.8102 26.8579 19.6511 28.6048 19.4919Z" fill="#D9D9D9"/>
<path fill-rule="evenodd" clip-rule="evenodd" d="M90.382 19.4919V22.1976C91.4937 21.2426 92.4465 20.4469 93.0818 20.1285C94.0346 19.6511 94.9875 19.3328 96.0992 19.6511C96.4168 19.8102 96.7344 19.8102 97.052 20.1285L95.9404 22.5159C95.1463 22.1976 94.1934 21.7201 93.2406 21.7201C92.1289 21.7201 91.176 22.3567 90.382 23.1525V29.9963C90.382 30.9512 90.5408 31.5878 90.8584 31.9061C91.176 32.2244 91.8113 32.3836 92.7642 32.3836V32.8611C90.382 32.8611 87.9998 32.8611 85.6177 32.8611V32.3836C86.5705 32.3836 87.2058 32.2244 87.5234 31.747C87.841 31.4287 87.9998 30.792 87.9998 29.8371V23.3117C87.9998 21.561 87.6822 20.2877 85.6177 20.2877V19.8102C87.2058 19.8102 88.7939 19.6511 90.382 19.4919ZM74.0245 24.1075H81.171C81.171 22.0384 80.0593 20.1285 77.836 20.1285C75.4538 19.9694 74.3421 21.8793 74.0245 24.1075ZM84.1884 30.4737C82.7591 32.3836 80.8534 33.3385 78.4712 33.3385C74.3421 33.3385 71.4836 30.3146 71.4836 26.1765C71.4836 22.1976 74.3421 19.3328 78.3124 19.3328C81.6474 19.3328 83.8708 21.4018 84.0296 24.7441H74.1833C74.1833 28.2455 75.6126 32.3836 79.7417 32.3836C81.4886 32.3836 82.9179 31.4287 83.8708 29.9963L84.1884 30.4737ZM28.6048 19.4919V22.1976C29.7164 21.2426 30.6693 20.4469 31.3045 20.1285C32.7338 19.3328 33.8455 19.3328 35.2748 19.9694L34.1631 22.3567C33.5279 22.0384 33.0515 21.8793 32.575 21.7201C31.6222 21.4018 30.8281 21.4018 30.0341 21.8793C29.5576 22.1976 29.0812 22.5159 28.6048 22.9934V29.8371C28.6048 31.5878 29.0812 32.3836 30.9869 32.3836V32.8611C30.0341 32.8611 29.24 32.8611 28.7636 32.8611C27.8107 32.8611 26.8578 32.8611 25.905 32.8611C25.4286 32.8611 24.6345 32.8611 23.8405 32.8611V32.3836C25.5874 32.3836 26.2226 31.747 26.2226 29.8371V23.3117C26.2226 21.561 25.905 20.2877 23.8405 20.2877V19.8102C25.2697 19.8102 26.8579 19.6511 28.6048 19.4919Z" fill="#F6F4F3" fill-opacity="0.2"/>
<path d="M36.0093 0.486816V34.6354H70.0836V0.486816H36.0093ZM49.6162 31.3695C46.7862 34.1198 42.2125 34.0911 39.3825 31.3409C36.5525 28.5907 36.5239 24.2361 39.3825 21.4859C42.2125 18.7357 46.7862 18.7357 49.6162 21.4859C52.4176 24.2075 52.4462 28.648 49.6162 31.3695ZM68.8544 32.9738C67.4537 32.9165 66.1388 32.8879 64.7381 32.9738H64.6237L57.9061 26.2415L57.5059 26.5853V29.9658C57.5059 30.9112 57.6488 31.5701 57.9347 31.8852C58.2205 32.229 58.7636 32.4009 59.564 32.4295V32.9452C57.2772 32.8592 55.0189 32.9452 52.7321 32.9452V32.4295C53.6182 32.4009 54.2185 32.2003 54.533 31.8852C54.8474 31.5414 55.0189 30.9112 55.0189 29.9371V13.2925C55.0189 11.5164 54.8188 10.2272 52.7606 10.2272V9.76883C54.3614 9.68288 55.9623 9.51098 57.5345 9.25315V25.8118L61.4507 22.6032C61.9939 22.1448 62.6227 21.2281 61.7651 20.6551C61.4793 20.4832 61.1077 20.3686 60.6503 20.34V19.853H67.5109V20.34C66.6819 20.3973 65.9387 20.5405 65.2527 20.7984C63.2802 21.5432 61.4221 23.4913 59.7927 24.8091C61.8795 26.8718 64.9096 30.7679 67.4823 31.9998C67.9111 32.2003 68.3399 32.3149 68.8259 32.3722V32.9738H68.8544Z" fill="#D9D9D9"/>
<path d="M36.0093 0.486816V34.6354H70.0836V0.486816H36.0093ZM49.6162 31.3695C46.7862 34.1198 42.2125 34.0911 39.3825 31.3409C36.5525 28.5907 36.5239 24.2361 39.3825 21.4859C42.2125 18.7357 46.7862 18.7357 49.6162 21.4859C52.4176 24.2075 52.4462 28.648 49.6162 31.3695ZM68.8544 32.9738C67.4537 32.9165 66.1388 32.8879 64.7381 32.9738H64.6237L57.9061 26.2415L57.5059 26.5853V29.9658C57.5059 30.9112 57.6488 31.5701 57.9347 31.8852C58.2205 32.229 58.7636 32.4009 59.564 32.4295V32.9452C57.2772 32.8592 55.0189 32.9452 52.7321 32.9452V32.4295C53.6182 32.4009 54.2185 32.2003 54.533 31.8852C54.8474 31.5414 55.0189 30.9112 55.0189 29.9371V13.2925C55.0189 11.5164 54.8188 10.2272 52.7606 10.2272V9.76883C54.3614 9.68288 55.9623 9.51098 57.5345 9.25315V25.8118L61.4507 22.6032C61.9939 22.1448 62.6227 21.2281 61.7651 20.6551C61.4793 20.4832 61.1077 20.3686 60.6503 20.34V19.853H67.5109V20.34C66.6819 20.3973 65.9387 20.5405 65.2527 20.7984C63.2802 21.5432 61.4221 23.4913 59.7927 24.8091C61.8795 26.8718 64.9096 30.7679 67.4823 31.9998C67.9111 32.2003 68.3399 32.3149 68.8259 32.3722V32.9738H68.8544Z" fill="#F6F4F3" fill-opacity="0.2"/>
<path d="M41.2978 21.7724C39.6398 24.1502 39.6683 28.6479 41.3263 31.0257C42.9557 33.3462 46.043 33.3749 47.6724 31.0257C49.3018 28.6479 49.3304 24.1215 47.6724 21.7724C46.0716 19.4805 42.8986 19.4805 41.2978 21.7724Z" fill="#D9D9D9"/>
<path d="M41.2978 21.7724C39.6398 24.1502 39.6683 28.6479 41.3263 31.0257C42.9557 33.3462 46.043 33.3749 47.6724 31.0257C49.3018 28.6479 49.3304 24.1215 47.6724 21.7724C46.0716 19.4805 42.8986 19.4805 41.2978 21.7724Z" fill="#F6F4F3" fill-opacity="0.2"/>
<path fill-rule="evenodd" clip-rule="evenodd" d="M47.2921 57.6434C45.2275 62.0998 40.9396 64.4871 36.0165 64.4871C28.3936 64.4871 22.6765 58.9166 22.6765 50.9588C22.6765 47.9348 23.4705 44.9109 25.2174 42.3644C27.9172 38.3854 32.2051 36.4756 36.9694 36.4756C38.3987 36.4756 39.828 36.6347 41.5749 37.1122C43.163 37.5897 43.957 37.7488 44.4335 37.7488C45.2275 37.5897 45.5451 36.953 45.8628 36.3164H46.3392V44.5926H45.8628C44.9099 39.977 41.7337 37.2713 36.9694 37.2713C29.9817 37.2713 26.6467 43.001 26.6467 49.3672C26.6467 56.0518 30.2994 62.8956 37.7634 62.8956C41.7337 62.8956 44.7511 60.6674 46.6568 57.1659L47.2921 57.6434Z" fill="#D9D9D9"/>
<path fill-rule="evenodd" clip-rule="evenodd" d="M47.2921 57.6434C45.2275 62.0998 40.9396 64.4871 36.0165 64.4871C28.3936 64.4871 22.6765 58.9166 22.6765 50.9588C22.6765 47.9348 23.4705 44.9109 25.2174 42.3644C27.9172 38.3854 32.2051 36.4756 36.9694 36.4756C38.3987 36.4756 39.828 36.6347 41.5749 37.1122C43.163 37.5897 43.957 37.7488 44.4335 37.7488C45.2275 37.5897 45.5451 36.953 45.8628 36.3164H46.3392V44.5926H45.8628C44.9099 39.977 41.7337 37.2713 36.9694 37.2713C29.9817 37.2713 26.6467 43.001 26.6467 49.3672C26.6467 56.0518 30.2994 62.8956 37.7634 62.8956C41.7337 62.8956 44.7511 60.6674 46.6568 57.1659L47.2921 57.6434Z" fill="#F6F4F3" fill-opacity="0.2"/>
<path fill-rule="evenodd" clip-rule="evenodd" d="M7.54643 19.2149V30.3559H10.2462C13.74 30.3559 16.7574 28.6052 16.7574 24.6262C16.7574 20.4882 13.1048 18.8966 9.45216 18.8966C8.81691 19.0558 8.18167 19.2149 7.54643 19.2149ZM0.558777 44.8391V44.2025C3.57617 44.2025 4.0526 41.8152 4.0526 39.2687V23.6713C4.0526 21.1248 3.57617 18.8966 0.558777 18.7375V18.1008H9.29335C13.4224 18.1008 20.2513 18.7375 20.2513 24.4671C20.2513 27.8094 17.3927 29.7193 14.5341 30.6742C18.1867 31.3108 21.9982 33.539 21.9982 37.8362C21.9982 43.8842 15.6458 44.68 10.8814 44.68H0.558777V44.8391ZM7.54643 31.47V39.587C7.54643 41.3377 7.86405 42.6109 8.34048 43.0884C8.81691 43.5659 9.92859 43.8842 11.5167 43.8842C15.3281 43.8842 17.8691 41.656 17.8691 37.8362C17.8691 33.2207 14.2165 31.47 10.0874 31.47H7.54643Z" fill="#D9D9D9"/>
<path fill-rule="evenodd" clip-rule="evenodd" d="M7.54643 19.2149V30.3559H10.2462C13.74 30.3559 16.7574 28.6052 16.7574 24.6262C16.7574 20.4882 13.1048 18.8966 9.45216 18.8966C8.81691 19.0558 8.18167 19.2149 7.54643 19.2149ZM0.558777 44.8391V44.2025C3.57617 44.2025 4.0526 41.8152 4.0526 39.2687V23.6713C4.0526 21.1248 3.57617 18.8966 0.558777 18.7375V18.1008H9.29335C13.4224 18.1008 20.2513 18.7375 20.2513 24.4671C20.2513 27.8094 17.3927 29.7193 14.5341 30.6742C18.1867 31.3108 21.9982 33.539 21.9982 37.8362C21.9982 43.8842 15.6458 44.68 10.8814 44.68H0.558777V44.8391ZM7.54643 31.47V39.587C7.54643 41.3377 7.86405 42.6109 8.34048 43.0884C8.81691 43.5659 9.92859 43.8842 11.5167 43.8842C15.3281 43.8842 17.8691 41.656 17.8691 37.8362C17.8691 33.2207 14.2165 31.47 10.0874 31.47H7.54643Z" fill="#F6F4F3" fill-opacity="0.2"/>
<path fill-rule="evenodd" clip-rule="evenodd" d="M103.02 13.6396C104.449 13.6396 105.72 14.7537 105.72 16.3452C105.72 17.7777 104.608 19.0509 103.02 19.0509C101.591 19.0509 100.32 17.9368 100.32 16.3452C100.479 14.9128 101.591 13.6396 103.02 13.6396ZM103.02 13.1621C104.767 13.1621 106.196 14.5945 106.196 16.3452C106.196 18.096 104.767 19.5284 103.02 19.5284C101.273 19.5284 99.8438 18.096 99.8438 16.3452C100.003 14.5945 101.432 13.1621 103.02 13.1621Z" fill="#D9D9D9"/>
<path fill-rule="evenodd" clip-rule="evenodd" d="M103.02 13.6396C104.449 13.6396 105.72 14.7537 105.72 16.3452C105.72 17.7777 104.608 19.0509 103.02 19.0509C101.591 19.0509 100.32 17.9368 100.32 16.3452C100.479 14.9128 101.591 13.6396 103.02 13.6396ZM103.02 13.1621C104.767 13.1621 106.196 14.5945 106.196 16.3452C106.196 18.096 104.767 19.5284 103.02 19.5284C101.273 19.5284 99.8438 18.096 99.8438 16.3452C100.003 14.5945 101.432 13.1621 103.02 13.1621Z" fill="#F6F4F3" fill-opacity="0.2"/>
<path fill-rule="evenodd" clip-rule="evenodd" d="M102.428 16.0381H103.063C103.381 16.0381 103.698 16.0381 103.698 15.5607C103.698 15.2424 103.381 15.2424 103.063 15.2424H102.428V16.0381ZM101.793 17.948V14.7649H103.222C103.857 14.7649 104.492 14.924 104.492 15.7198C104.492 16.1973 104.175 16.5156 103.698 16.6748C104.016 16.8339 104.175 17.1522 104.334 17.4706L104.651 18.1072H103.857C103.698 17.7889 103.222 16.9931 102.904 16.8339C102.745 16.8339 102.587 16.8339 102.428 16.8339V18.1072H101.793V17.948Z" fill="#D9D9D9"/>
<path fill-rule="evenodd" clip-rule="evenodd" d="M102.428 16.0381H103.063C103.381 16.0381 103.698 16.0381 103.698 15.5607C103.698 15.2424 103.381 15.2424 103.063 15.2424H102.428V16.0381ZM101.793 17.948V14.7649H103.222C103.857 14.7649 104.492 14.924 104.492 15.7198C104.492 16.1973 104.175 16.5156 103.698 16.6748C104.016 16.8339 104.175 17.1522 104.334 17.4706L104.651 18.1072H103.857C103.698 17.7889 103.222 16.9931 102.904 16.8339C102.745 16.8339 102.587 16.8339 102.428 16.8339V18.1072H101.793V17.948Z" fill="#F6F4F3" fill-opacity="0.2"/>
<path d="M134.068 33.8796C135.032 33.8796 135.814 33.0958 135.814 32.1289C135.814 31.162 135.032 30.3782 134.068 30.3782C133.103 30.3782 132.321 31.162 132.321 32.1289C132.321 33.0958 133.103 33.8796 134.068 33.8796Z" fill="#D9D9D9"/>
<path d="M134.068 33.8796C135.032 33.8796 135.814 33.0958 135.814 32.1289C135.814 31.162 135.032 30.3782 134.068 30.3782C133.103 30.3782 132.321 31.162 132.321 32.1289C132.321 33.0958 133.103 33.8796 134.068 33.8796Z" fill="#F6F4F3" fill-opacity="0.2"/>
</g>
<defs>
<clipPath id="clip0_864_935">
<rect width="170" height="64" fill="white" transform="translate(0.5 0.491699)"/>
</clipPath>
</defs>
</svg>
