<svg width="165" height="65" viewBox="0 0 165 65" fill="none" xmlns="http://www.w3.org/2000/svg">
<g clip-path="url(#clip0_864_897)">
<path d="M31.555 56.8741C23.1486 50.5743 16.3288 42.4188 11.6333 33.0507C6.93787 23.6827 4.49514 13.3581 4.49772 2.89099C4.49772 2.34571 4.49773 1.72953 4.5416 1.12427H0.54387C0.54387 1.72953 0.5 2.32935 0.5 2.89099C0.509865 13.9621 3.09915 24.8805 8.06477 34.7896C13.0304 44.6987 20.2373 53.3292 29.1202 60.0041L31.555 56.8741Z" fill="#D9D9D9"/>
<path d="M31.555 56.8741C23.1486 50.5743 16.3288 42.4188 11.6333 33.0507C6.93787 23.6827 4.49514 13.3581 4.49772 2.89099C4.49772 2.34571 4.49773 1.72953 4.5416 1.12427H0.54387C0.54387 1.72953 0.5 2.32935 0.5 2.89099C0.509865 13.9621 3.09915 24.8805 8.06477 34.7896C13.0304 44.6987 20.2373 53.3292 29.1202 60.0041L31.555 56.8741Z" fill="#F6F4F3" fill-opacity="0.2"/>
<path d="M75.3107 56.8087C74.4003 56.8469 73.49 56.8905 72.5304 56.8905C42.6489 56.8905 18.2841 32.6199 18.2841 2.90734C18.2841 2.36206 18.2841 1.74589 18.328 1.14062H14.3577C14.3138 1.74589 14.3138 2.3457 14.3138 2.90734C14.3443 18.2598 20.4919 32.9747 31.4106 43.8296C42.3292 54.6844 57.1289 60.7946 72.5687 60.822C73.5723 60.822 74.5704 60.822 75.5245 60.7784L75.3107 56.8087Z" fill="#D9D9D9"/>
<path d="M75.3107 56.8087C74.4003 56.8469 73.49 56.8905 72.5304 56.8905C42.6489 56.8905 18.2841 32.6199 18.2841 2.90734C18.2841 2.36206 18.2841 1.74589 18.328 1.14062H14.3577C14.3138 1.74589 14.3138 2.3457 14.3138 2.90734C14.3443 18.2598 20.4919 32.9747 31.4106 43.8296C42.3292 54.6844 57.1289 60.7946 72.5687 60.822C73.5723 60.822 74.5704 60.822 75.5245 60.7784L75.3107 56.8087Z" fill="#F6F4F3" fill-opacity="0.2"/>
<path d="M53.5727 60.7347C41.3204 56.7255 30.6506 48.9781 23.08 38.5939C15.5094 28.2096 11.4231 15.7168 11.4019 2.89099C11.4019 2.34571 11.4019 1.72953 11.4458 1.12427H7.44805C7.44805 1.72953 7.40417 2.32935 7.40417 2.89099C7.40417 31.5675 26.3015 55.969 52.3169 64.4754L53.5727 60.7347Z" fill="#D9D9D9"/>
<path d="M53.5727 60.7347C41.3204 56.7255 30.6506 48.9781 23.08 38.5939C15.5094 28.2096 11.4231 15.7168 11.4019 2.89099C11.4019 2.34571 11.4019 1.72953 11.4458 1.12427H7.44805C7.44805 1.72953 7.40417 2.32935 7.40417 2.89099C7.40417 31.5675 26.3015 55.969 52.3169 64.4754L53.5727 60.7347Z" fill="#F6F4F3" fill-opacity="0.2"/>
<path d="M134.575 32.838V28.2195H139.916V32.838H134.575Z" fill="#D9D9D9"/>
<path d="M134.575 32.838V28.2195H139.916V32.838H134.575Z" fill="#F6F4F3" fill-opacity="0.2"/>
<path d="M139.916 52.1847V53.0899C139.949 54.2594 139.892 55.4297 139.746 56.5906C139.633 57.4631 139.25 58.2789 138.649 58.9244C137.865 59.6987 136.604 60.0859 134.915 60.0859H133.988C133.637 60.0533 133.289 59.9969 132.946 59.9168V55.9853L133.253 56.0289C133.495 56.0906 133.752 56.0577 133.97 55.937C134.188 55.8163 134.352 55.617 134.427 55.3801C134.58 54.5257 134.637 53.6569 134.597 52.7899V34.7356H139.938L139.916 52.1847Z" fill="#D9D9D9"/>
<path d="M139.916 52.1847V53.0899C139.949 54.2594 139.892 55.4297 139.746 56.5906C139.633 57.4631 139.25 58.2789 138.649 58.9244C137.865 59.6987 136.604 60.0859 134.915 60.0859H133.988C133.637 60.0533 133.289 59.9969 132.946 59.9168V55.9853L133.253 56.0289C133.495 56.0906 133.752 56.0577 133.97 55.937C134.188 55.8163 134.352 55.617 134.427 55.3801C134.58 54.5257 134.637 53.6569 134.597 52.7899V34.7356H139.938L139.916 52.1847Z" fill="#F6F4F3" fill-opacity="0.2"/>
<path d="M88.9709 53.7006V28.4321H94.2245V40.9573L98.4416 34.7411H103.783L98.1783 41.9933L103.871 53.7006H98.5238L95.0964 45.9685L94.2245 47.1735V53.7006H88.9709Z" fill="#D9D9D9"/>
<path d="M88.9709 53.7006V28.4321H94.2245V40.9573L98.4416 34.7411H103.783L98.1783 41.9933L103.871 53.7006H98.5238L95.0964 45.9685L94.2245 47.1735V53.7006H88.9709Z" fill="#F6F4F3" fill-opacity="0.2"/>
<path d="M131.493 51.4486C131.449 50.6743 131.405 49.6383 131.405 48.3841V41.0882C131.45 39.9297 131.362 38.7697 131.142 37.6311C130.849 36.691 130.236 35.8813 129.409 35.3409C128.73 34.9361 127.989 34.645 127.215 34.4794C126.243 34.2777 125.253 34.1772 124.26 34.1795H123.826C119.264 34.3049 117.004 36.4206 117.004 40.5266H122.351V40.3957C122.351 39.0162 122.828 38.2146 123.826 38.0619C123.968 38.0259 124.114 38.0112 124.26 38.0183C125.389 38.0183 125.905 38.5636 125.905 39.7468C125.905 40.5702 125.296 41.3009 124.04 41.7753C123.952 41.8189 123.909 41.8189 123.821 41.8625C122.993 42.1679 122.126 42.4678 121.304 42.7732C119.609 43.4602 118.392 44.24 117.651 45.1888C116.869 46.2021 116.469 47.4566 116.522 48.7331C116.444 50.1453 116.911 51.5337 117.827 52.6155C118.273 53.1079 118.824 53.4955 119.44 53.7501C120.055 54.0047 120.72 54.1201 121.386 54.0878C122.221 54.0888 123.049 53.9257 123.821 53.608C124.713 53.2387 125.514 52.6805 126.168 51.9721L126.47 53.6952H132.074C131.728 52.9937 131.53 52.2291 131.493 51.4486ZM125.844 46.6992C125.895 47.5881 125.732 48.4762 125.367 49.2893C125.201 49.5397 124.976 49.7457 124.711 49.8893C124.446 50.0329 124.15 50.1096 123.848 50.1127H123.629C123.394 50.1232 123.16 50.0823 122.943 49.9928C122.726 49.9033 122.531 49.7673 122.373 49.5947C122.044 49.1873 121.883 48.6707 121.923 48.1497C121.906 47.738 121.983 47.3279 122.149 46.9502C122.314 46.5724 122.563 46.2368 122.878 45.9685C123.188 45.7207 123.523 45.5034 123.876 45.3196C124.512 45.0017 125.181 44.7549 125.872 44.5835L125.844 46.6992Z" fill="#D9D9D9"/>
<path d="M131.493 51.4486C131.449 50.6743 131.405 49.6383 131.405 48.3841V41.0882C131.45 39.9297 131.362 38.7697 131.142 37.6311C130.849 36.691 130.236 35.8813 129.409 35.3409C128.73 34.9361 127.989 34.645 127.215 34.4794C126.243 34.2777 125.253 34.1772 124.26 34.1795H123.826C119.264 34.3049 117.004 36.4206 117.004 40.5266H122.351V40.3957C122.351 39.0162 122.828 38.2146 123.826 38.0619C123.968 38.0259 124.114 38.0112 124.26 38.0183C125.389 38.0183 125.905 38.5636 125.905 39.7468C125.905 40.5702 125.296 41.3009 124.04 41.7753C123.952 41.8189 123.909 41.8189 123.821 41.8625C122.993 42.1679 122.126 42.4678 121.304 42.7732C119.609 43.4602 118.392 44.24 117.651 45.1888C116.869 46.2021 116.469 47.4566 116.522 48.7331C116.444 50.1453 116.911 51.5337 117.827 52.6155C118.273 53.1079 118.824 53.4955 119.44 53.7501C120.055 54.0047 120.72 54.1201 121.386 54.0878C122.221 54.0888 123.049 53.9257 123.821 53.608C124.713 53.2387 125.514 52.6805 126.168 51.9721L126.47 53.6952H132.074C131.728 52.9937 131.53 52.2291 131.493 51.4486ZM125.844 46.6992C125.895 47.5881 125.732 48.4762 125.367 49.2893C125.201 49.5397 124.976 49.7457 124.711 49.8893C124.446 50.0329 124.15 50.1096 123.848 50.1127H123.629C123.394 50.1232 123.16 50.0823 122.943 49.9928C122.726 49.9033 122.531 49.7673 122.373 49.5947C122.044 49.1873 121.883 48.6707 121.923 48.1497C121.906 47.738 121.983 47.3279 122.149 46.9502C122.314 46.5724 122.563 46.2368 122.878 45.9685C123.188 45.7207 123.523 45.5034 123.876 45.3196C124.512 45.0017 125.181 44.7549 125.872 44.5835L125.844 46.6992Z" fill="#F6F4F3" fill-opacity="0.2"/>
<path d="M105.823 53.6951V34.7355H110.758V37.3747C111.888 35.5153 113.319 34.5229 115.058 34.3484V40.3465C114.53 40.2306 113.991 40.1721 113.451 40.172C112.541 40.172 111.932 40.4774 111.625 41.1699C111.245 42.2644 111.083 43.4219 111.148 44.5779V53.6896L105.823 53.6951Z" fill="#D9D9D9"/>
<path d="M105.823 53.6951V34.7355H110.758V37.3747C111.888 35.5153 113.319 34.5229 115.058 34.3484V40.3465C114.53 40.2306 113.991 40.1721 113.451 40.172C112.541 40.172 111.932 40.4774 111.625 41.1699C111.245 42.2644 111.083 43.4219 111.148 44.5779V53.6896L105.823 53.6951Z" fill="#F6F4F3" fill-opacity="0.2"/>
<path d="M51.3572 0.966064H46.016V5.54645H51.3572V0.966064Z" fill="#D9D9D9"/>
<path d="M51.3572 0.966064H46.016V5.54645H51.3572V0.966064Z" fill="#F6F4F3" fill-opacity="0.2"/>
<path d="M64.0852 7.01333C63.3388 6.99479 62.602 7.18362 61.9575 7.55862C61.2981 7.95194 60.7463 8.50066 60.3507 9.1563V1.14062H55.0204V26.4473H59.9559V24.3752C60.4502 25.2137 61.1526 25.9121 61.9959 26.4036C62.686 26.7841 63.4665 26.9725 64.2552 26.9489C65.1402 27.0016 66.0198 26.781 66.7737 26.3174C67.5277 25.8537 68.119 25.1696 68.4668 24.3588C68.7556 23.5642 68.9399 22.7357 69.0152 21.8941C69.103 20.7709 69.1468 19.3022 69.1468 17.4882C69.1468 13.5622 68.8836 10.9448 68.3188 9.54345C67.562 7.87488 66.1691 7.01333 64.0852 7.01333ZM63.6959 17.9844C63.7575 19.2158 63.6542 20.4499 63.3888 21.6542C63.3318 21.9491 63.1681 22.213 62.9286 22.3959C62.689 22.5788 62.3904 22.668 62.0891 22.6466H61.9575C61.0033 22.5594 60.4385 21.6542 60.3124 19.9693C60.2685 19.4513 60.2246 18.0226 60.2246 15.7379C60.1808 14.6365 60.2972 13.5345 60.5701 12.4662C60.6679 12.1792 60.8564 11.9312 61.1073 11.7593C61.3583 11.5873 61.6584 11.5006 61.963 11.5119C62.9172 11.5119 63.482 12.2917 63.6082 13.7585C63.652 14.2329 63.6959 15.4434 63.6959 17.4719V17.9844Z" fill="#D9D9D9"/>
<path d="M64.0852 7.01333C63.3388 6.99479 62.602 7.18362 61.9575 7.55862C61.2981 7.95194 60.7463 8.50066 60.3507 9.1563V1.14062H55.0204V26.4473H59.9559V24.3752C60.4502 25.2137 61.1526 25.9121 61.9959 26.4036C62.686 26.7841 63.4665 26.9725 64.2552 26.9489C65.1402 27.0016 66.0198 26.781 66.7737 26.3174C67.5277 25.8537 68.119 25.1696 68.4668 24.3588C68.7556 23.5642 68.9399 22.7357 69.0152 21.8941C69.103 20.7709 69.1468 19.3022 69.1468 17.4882C69.1468 13.5622 68.8836 10.9448 68.3188 9.54345C67.562 7.87488 66.1691 7.01333 64.0852 7.01333ZM63.6959 17.9844C63.7575 19.2158 63.6542 20.4499 63.3888 21.6542C63.3318 21.9491 63.1681 22.213 62.9286 22.3959C62.689 22.5788 62.3904 22.668 62.0891 22.6466H61.9575C61.0033 22.5594 60.4385 21.6542 60.3124 19.9693C60.2685 19.4513 60.2246 18.0226 60.2246 15.7379C60.1808 14.6365 60.2972 13.5345 60.5701 12.4662C60.6679 12.1792 60.8564 11.9312 61.1073 11.7593C61.3583 11.5873 61.6584 11.5006 61.963 11.5119C62.9172 11.5119 63.482 12.2917 63.6082 13.7585C63.652 14.2329 63.6959 15.4434 63.6959 17.4719V17.9844Z" fill="#F6F4F3" fill-opacity="0.2"/>
<path d="M163.76 0.491699H158.896L155.638 5.15388H157.985L163.76 0.491699Z" fill="#D9D9D9"/>
<path d="M163.76 0.491699H158.896L155.638 5.15388H157.985L163.76 0.491699Z" fill="#F6F4F3" fill-opacity="0.2"/>
<path d="M36.5508 1.14062H30.6009V26.4473H43.6689V21.3052H36.5508V1.14062Z" fill="#D9D9D9"/>
<path d="M36.5508 1.14062H30.6009V26.4473H43.6689V21.3052H36.5508V1.14062Z" fill="#F6F4F3" fill-opacity="0.2"/>
<path d="M51.3572 7.44409H46.016V26.4472H51.3572V7.44409Z" fill="#D9D9D9"/>
<path d="M51.3572 7.44409H46.016V26.4472H51.3572V7.44409Z" fill="#F6F4F3" fill-opacity="0.2"/>
<path d="M84.54 9.04173C83.4103 7.66216 81.6336 6.96965 79.1987 6.92603H79.111C76.5939 6.92603 74.7239 7.57491 73.5559 8.86724C72.7719 9.72001 72.2704 10.7917 72.1191 11.9372C71.8759 13.6528 71.775 15.3853 71.8175 17.1174C71.791 18.8089 71.9066 20.4997 72.163 22.1722C72.3361 23.2457 72.7857 24.2563 73.4681 25.1058C74.0819 25.7197 74.8338 26.1795 75.6617 26.4472C76.6814 26.7917 77.7548 26.9524 78.8313 26.9216H79.1768C83.5639 26.8343 85.7574 24.5878 85.7574 20.2691V19.7947H80.7945L80.8823 20.6999C80.8823 22.2594 80.3339 23.0337 79.1878 23.121H79.0562C78.7487 23.1545 78.4383 23.0936 78.1667 22.9464C77.8951 22.7991 77.6754 22.5727 77.5371 22.2976C77.2175 21.4144 77.085 20.475 77.1478 19.5384L77.2355 17.679H85.8781V15.3888C85.9014 14.1023 85.8134 12.8161 85.6148 11.5446C85.4948 10.6279 85.1229 9.76189 84.54 9.04173ZM80.9371 14.3419H77.3342V13.3058C77.267 12.5736 77.4177 11.8379 77.7675 11.1901C77.9193 10.9705 78.1276 10.7955 78.3707 10.6833C78.6138 10.5711 78.8827 10.5258 79.1494 10.5522H79.1933C80.4107 10.5522 81.0194 11.4628 81.0194 13.2786L80.9371 14.3419Z" fill="#D9D9D9"/>
<path d="M84.54 9.04173C83.4103 7.66216 81.6336 6.96965 79.1987 6.92603H79.111C76.5939 6.92603 74.7239 7.57491 73.5559 8.86724C72.7719 9.72001 72.2704 10.7917 72.1191 11.9372C71.8759 13.6528 71.775 15.3853 71.8175 17.1174C71.791 18.8089 71.9066 20.4997 72.163 22.1722C72.3361 23.2457 72.7857 24.2563 73.4681 25.1058C74.0819 25.7197 74.8338 26.1795 75.6617 26.4472C76.6814 26.7917 77.7548 26.9524 78.8313 26.9216H79.1768C83.5639 26.8343 85.7574 24.5878 85.7574 20.2691V19.7947H80.7945L80.8823 20.6999C80.8823 22.2594 80.3339 23.0337 79.1878 23.121H79.0562C78.7487 23.1545 78.4383 23.0936 78.1667 22.9464C77.8951 22.7991 77.6754 22.5727 77.5371 22.2976C77.2175 21.4144 77.085 20.475 77.1478 19.5384L77.2355 17.679H85.8781V15.3888C85.9014 14.1023 85.8134 12.8161 85.6148 11.5446C85.4948 10.6279 85.1229 9.76189 84.54 9.04173ZM80.9371 14.3419H77.3342V13.3058C77.267 12.5736 77.4177 11.8379 77.7675 11.1901C77.9193 10.9705 78.1276 10.7955 78.3707 10.6833C78.6138 10.5711 78.8827 10.5258 79.1494 10.5522H79.1933C80.4107 10.5522 81.0194 11.4628 81.0194 13.2786L80.9371 14.3419Z" fill="#F6F4F3" fill-opacity="0.2"/>
<path d="M149.43 7.44411H144.084L139.916 13.6658V1.14062H134.662V26.4473H139.916V19.9257L140.788 18.7151L144.215 26.4473H149.557L143.87 14.7018L149.43 7.44411Z" fill="#D9D9D9"/>
<path d="M149.43 7.44411H144.084L139.916 13.6658V1.14062H134.662V26.4473H139.916V19.9257L140.788 18.7151L144.215 26.4473H149.557L143.87 14.7018L149.43 7.44411Z" fill="#F6F4F3" fill-opacity="0.2"/>
<path d="M159.214 7.44409L157.344 19.6639L155.479 7.44409H150.165L153.949 24.5878C154.031 25.1058 154.207 25.7547 154.382 26.5781C154.419 26.8345 154.433 27.0935 154.426 27.3524C154.426 28.2576 153.878 28.7374 152.644 28.7374L151.734 28.6502V32.6199C152.459 32.7402 153.192 32.813 153.927 32.838C156.055 32.838 157.574 32.2327 158.528 31.0222C159.268 30.0734 160.003 28.0013 160.656 24.8932L164.495 7.44409H159.214Z" fill="#D9D9D9"/>
<path d="M159.214 7.44409L157.344 19.6639L155.479 7.44409H150.165L153.949 24.5878C154.031 25.1058 154.207 25.7547 154.382 26.5781C154.419 26.8345 154.433 27.0935 154.426 27.3524C154.426 28.2576 153.878 28.7374 152.644 28.7374L151.734 28.6502V32.6199C152.459 32.7402 153.192 32.813 153.927 32.838C156.055 32.838 157.574 32.2327 158.528 31.0222C159.268 30.0734 160.003 28.0013 160.656 24.8932L164.495 7.44409H159.214Z" fill="#F6F4F3" fill-opacity="0.2"/>
<path d="M113.078 9.04173C111.948 7.66216 110.122 6.96965 107.693 6.92603H107.605C105.088 6.92603 103.218 7.57491 102.044 8.86724C101.262 9.72051 100.763 10.7922 100.613 11.9372C100.365 13.6523 100.262 15.3851 100.306 17.1174C100.278 18.8092 100.396 20.5002 100.657 22.1722C100.826 23.2459 101.274 24.2572 101.957 25.1058C102.572 25.7179 103.323 26.1775 104.15 26.4472C105.17 26.7913 106.243 26.9519 107.32 26.9216H107.671C112.058 26.8343 114.251 24.5878 114.251 20.2691V19.7947H109.311L109.398 20.6999C109.398 22.2594 108.85 23.0337 107.704 23.121H107.572C107.259 23.1633 106.941 23.1065 106.662 22.9587C106.384 22.8109 106.159 22.5796 106.02 22.2976C105.695 21.4156 105.561 20.4755 105.625 19.5384L105.713 17.679H114.4V15.3888C114.421 14.1025 114.335 12.8166 114.142 11.5446C114.022 10.6297 113.655 9.76439 113.078 9.04173ZM109.426 14.3419H105.823V13.3058C105.759 12.5739 105.91 11.8392 106.256 11.1901C106.411 10.9675 106.624 10.7907 106.872 10.6784C107.121 10.5661 107.394 10.5225 107.665 10.5522H107.709C108.921 10.5522 109.53 11.4628 109.53 13.2786L109.426 14.3419Z" fill="#D9D9D9"/>
<path d="M113.078 9.04173C111.948 7.66216 110.122 6.96965 107.693 6.92603H107.605C105.088 6.92603 103.218 7.57491 102.044 8.86724C101.262 9.72051 100.763 10.7922 100.613 11.9372C100.365 13.6523 100.262 15.3851 100.306 17.1174C100.278 18.8092 100.396 20.5002 100.657 22.1722C100.826 23.2459 101.274 24.2572 101.957 25.1058C102.572 25.7179 103.323 26.1775 104.15 26.4472C105.17 26.7913 106.243 26.9519 107.32 26.9216H107.671C112.058 26.8343 114.251 24.5878 114.251 20.2691V19.7947H109.311L109.398 20.6999C109.398 22.2594 108.85 23.0337 107.704 23.121H107.572C107.259 23.1633 106.941 23.1065 106.662 22.9587C106.384 22.8109 106.159 22.5796 106.02 22.2976C105.695 21.4156 105.561 20.4755 105.625 19.5384L105.713 17.679H114.4V15.3888C114.421 14.1025 114.335 12.8166 114.142 11.5446C114.022 10.6297 113.655 9.76439 113.078 9.04173ZM109.426 14.3419H105.823V13.3058C105.759 12.5739 105.91 11.8392 106.256 11.1901C106.411 10.9675 106.624 10.7907 106.872 10.6784C107.121 10.5661 107.394 10.5225 107.665 10.5522H107.709C108.921 10.5522 109.53 11.4628 109.53 13.2786L109.426 14.3419Z" fill="#F6F4F3" fill-opacity="0.2"/>
<path d="M124.545 6.92603C121.896 6.92603 120.026 7.70578 118.984 9.21622C117.942 10.7267 117.465 13.3168 117.465 16.9429C117.465 20.569 117.986 23.121 119.028 24.675C120.07 26.2291 121.896 26.9216 124.545 26.9216C129.058 26.9216 131.361 24.5442 131.361 19.7075L131.317 18.9768H126.195V19.8384C126.195 22.0195 125.647 23.0337 124.589 23.0337C123.804 23.0337 123.371 22.6029 123.152 21.7414C122.914 20.1534 122.813 18.548 122.85 16.9429C122.786 15.3392 122.887 13.7331 123.152 12.1498C123.184 11.7979 123.351 11.4719 123.619 11.2393C123.886 11.0068 124.234 10.8857 124.589 10.9011C124.846 10.8793 125.104 10.9359 125.328 11.0635C125.553 11.1911 125.733 11.3837 125.844 11.6155C126.141 12.3865 126.261 13.2136 126.195 14.0365V14.5818H131.361V14.2328C131.361 11.73 130.813 9.87056 129.716 8.7091C128.619 7.54765 126.886 6.92603 124.545 6.92603Z" fill="#D9D9D9"/>
<path d="M124.545 6.92603C121.896 6.92603 120.026 7.70578 118.984 9.21622C117.942 10.7267 117.465 13.3168 117.465 16.9429C117.465 20.569 117.986 23.121 119.028 24.675C120.07 26.2291 121.896 26.9216 124.545 26.9216C129.058 26.9216 131.361 24.5442 131.361 19.7075L131.317 18.9768H126.195V19.8384C126.195 22.0195 125.647 23.0337 124.589 23.0337C123.804 23.0337 123.371 22.6029 123.152 21.7414C122.914 20.1534 122.813 18.548 122.85 16.9429C122.786 15.3392 122.887 13.7331 123.152 12.1498C123.184 11.7979 123.351 11.4719 123.619 11.2393C123.886 11.0068 124.234 10.8857 124.589 10.9011C124.846 10.8793 125.104 10.9359 125.328 11.0635C125.553 11.1911 125.733 11.3837 125.844 11.6155C126.141 12.3865 126.261 13.2136 126.195 14.0365V14.5818H131.361V14.2328C131.361 11.73 130.813 9.87056 129.716 8.7091C128.619 7.54765 126.886 6.92603 124.545 6.92603Z" fill="#F6F4F3" fill-opacity="0.2"/>
<path d="M93.879 10.0778V7.44404H88.9435V26.4472H94.2848V17.3355C94.2848 15.6996 94.4164 14.5273 94.7235 13.8784C95.0306 13.2295 95.6338 12.886 96.588 12.886C97.1151 12.9059 97.6387 12.979 98.1509 13.1041V7.05688C96.44 7.25319 95.0087 8.22379 93.879 10.0778Z" fill="#D9D9D9"/>
<path d="M93.879 10.0778V7.44404H88.9435V26.4472H94.2848V17.3355C94.2848 15.6996 94.4164 14.5273 94.7235 13.8784C95.0306 13.2295 95.6338 12.886 96.588 12.886C97.1151 12.9059 97.6387 12.979 98.1509 13.1041V7.05688C96.44 7.25319 95.0087 8.22379 93.879 10.0778Z" fill="#F6F4F3" fill-opacity="0.2"/>
</g>
<defs>
<clipPath id="clip0_864_897">
<rect width="164" height="64" fill="white" transform="translate(0.5 0.491699)"/>
</clipPath>
</defs>
</svg>
