<svg width="360" height="64" viewBox="0 0 369 65" fill="none" xmlns="http://www.w3.org/2000/svg">
<path d="M201.333 64.248C193.725 63.4472 187.925 59.7067 184.93 53.6699C181.781 47.3234 181.442 37.1322 184.134 29.7546C186.919 22.1232 192.885 17.3422 201.184 16.0911C207.022 15.211 212.358 15.9157 216.942 18.172C218.738 19.0562 219.687 19.7628 221.498 21.5663C225.983 26.0314 227.618 30.8185 227.618 39.4914V43.7265H212.539H197.46L197.464 44.327C197.475 45.6587 198.279 48.6265 198.978 49.9109C200.197 52.1493 202.014 53.0587 205.364 53.1066C208.827 53.1563 211.604 51.6246 212.395 49.2285L212.713 48.2635H220.053H227.393L227.221 49.1309C226.445 53.0382 224.888 56.0536 222.28 58.7044C220.625 60.3857 219.838 60.9487 217.743 61.95C213.058 64.1885 207.785 64.927 201.333 64.248ZM213.123 33.5953C212.842 31.215 212.343 30.0388 211.077 28.7676C209.527 27.2109 208.162 26.8058 205.006 26.9657C203.319 27.0511 202.358 27.2426 201.571 27.6501C199.525 28.7094 197.979 31.0528 197.583 33.6939L197.399 34.9194H205.34H213.28L213.123 33.5953ZM290.738 64.248C281.246 63.2489 274.892 57.8865 272.589 48.9307C271.034 42.8873 271.573 34.4296 273.867 28.8448C277.485 20.0397 285.756 15.2681 296.473 15.8042C300.334 15.9972 303.444 16.743 306.348 18.1722C309.461 19.7045 312.707 22.9042 314.302 26.0126C316.243 29.7964 316.786 32.3483 316.95 38.4556L317.091 43.7265H301.941H286.792L286.956 45.1277C287.394 48.8481 288.797 51.4142 290.938 52.4111C292.675 53.2196 296.158 53.3244 298.197 52.6295C299.697 52.1185 301.374 50.5201 301.816 49.1812L302.119 48.2635H309.45H316.78L316.599 49.2643C316.257 51.1505 314.826 54.7011 313.771 56.28C309.663 62.4327 301.225 65.3517 290.738 64.248ZM302.484 33.3849C302.067 29.9942 300.333 27.7517 297.668 27.1553C295.671 26.7084 292.33 26.9572 290.977 27.6537C288.926 28.7086 287.311 31.1383 286.961 33.6943L286.793 34.9194H294.733H302.673L302.484 33.3849ZM344.512 64.3727C344.145 64.3189 342.965 64.1449 341.89 63.9862C338.177 63.4379 334.586 61.8919 331.835 59.6567C326.132 55.0235 323.318 45.9649 324.525 36.1204C325.81 25.6282 331.529 18.7805 340.942 16.4606C344.15 15.6698 350.553 15.602 353.719 16.3251C359.91 17.7391 364.596 21.5997 366.803 27.1055C367.396 28.5832 368.339 32.5316 368.146 32.7251C368.014 32.8565 355.263 34.1166 354.053 34.1178C353.277 34.1178 353.052 34.0137 353.052 33.6518C353.052 32.9702 351.612 30.0584 351.011 29.5253C350.194 28.7988 348.628 28.2473 347.389 28.2489C342.583 28.2553 340.238 32.1372 340.244 40.0804C340.246 43.7837 340.607 46.0815 341.496 48.0665C342.759 50.8848 344.985 52.2153 347.931 51.9134C350.716 51.628 352.536 49.9756 353.171 47.1552L353.492 45.7282L361.129 45.6574L368.766 45.5866L368.613 46.5915C368.24 49.0356 367.132 52.7613 366.22 54.6342C364.793 57.5652 361.745 60.5586 358.656 62.0607C357.409 62.6676 355.652 63.3538 354.753 63.5856C351.951 64.3078 346.778 64.7054 344.512 64.3727ZM151.459 63.8531C149.139 63.2917 146.956 62.0086 145.012 60.0651L143.283 58.3359V60.639V62.942H135.677H128.071V31.7169V0.491699H135.944H143.817V11.0043V21.5168L145.449 19.9439C148.381 17.1198 152.227 15.7139 157.027 15.7126C160.932 15.7126 163.81 16.5406 166.8 18.5277C170.82 21.1995 173.489 25.9754 174.611 32.5049C175.166 35.7365 175.182 42.7132 174.643 46.0408C173.603 52.4533 170.986 57.589 167.238 60.5741C165.444 62.0029 162.015 63.6153 159.981 63.9871C157.815 64.3828 153.357 64.3127 151.459 63.8531ZM154.492 51.153C157.53 49.8472 158.858 47.1442 159.189 41.5915C159.491 36.5164 158.644 32.8038 156.686 30.6245C155.303 29.084 153.661 28.3855 151.423 28.3855C147.983 28.3855 145.648 30.1876 144.545 33.6958C144.024 35.3517 143.95 36.1669 143.952 40.2571C143.955 45.4808 144.285 47.1636 145.721 49.2504C147.426 51.728 151.232 52.5537 154.492 51.153ZM51.2087 31.7169V0.491699H59.6154H68.0222V24.6445V48.7973H81.7221C89.2571 48.7973 95.4755 48.8508 95.5409 48.9161C95.6525 49.0277 94.592 60.1944 94.2912 62.0747L94.1525 62.942H72.6806H51.2087V31.7169ZM102.515 40.0569L102.583 17.1718L110.39 17.1011L118.196 17.0303V39.9862V62.942H110.321H102.447L102.515 40.0569ZM235.891 39.9902V17.0384H243.497H251.103V19.8857V22.7331L253.038 20.8648C256.002 18.0023 258.192 16.9441 262.064 16.5025C264.061 16.2747 267.99 16.4889 268.346 16.845C268.496 16.9952 267.453 26.2226 266.951 29.1815L266.815 29.9821H262.629C260.048 29.9821 258.023 30.1097 257.35 30.3149C254.981 31.036 252.91 33.0594 252.12 35.423C251.892 36.1078 251.771 40.2358 251.704 49.6647L251.609 62.942H243.75H235.891V39.9902ZM0.234253 35.8169C0.234253 35.7234 4.22747 27.9186 9.10807 18.473L17.9819 1.29915L19.4497 1.29648L20.9176 1.29382L22.969 5.22848C24.0973 7.39257 28.1348 15.198 31.9414 22.574L38.8625 35.9848L37.0958 35.9682L35.3292 35.9517L34.6511 34.5671C31.7959 28.7367 19.5652 5.0264 19.4129 5.0264C19.3074 5.0264 17.3943 8.59928 15.1614 12.9661C12.9286 17.333 10.5361 21.9867 9.84483 23.3078C9.15354 24.6289 7.40418 28.0216 5.95736 30.8472L3.32678 35.9847H1.78052C0.930073 35.9847 0.234253 35.9081 0.234253 35.8146V35.8169ZM102.45 6.22966V0.491699H110.456H118.463V6.22966V11.9676H110.456H102.45V6.22966Z" fill="#D9D9D9"/>
<path d="M201.333 64.248C193.725 63.4472 187.925 59.7067 184.93 53.6699C181.781 47.3234 181.442 37.1322 184.134 29.7546C186.919 22.1232 192.885 17.3422 201.184 16.0911C207.022 15.211 212.358 15.9157 216.942 18.172C218.738 19.0562 219.687 19.7628 221.498 21.5663C225.983 26.0314 227.618 30.8185 227.618 39.4914V43.7265H212.539H197.46L197.464 44.327C197.475 45.6587 198.279 48.6265 198.978 49.9109C200.197 52.1493 202.014 53.0587 205.364 53.1066C208.827 53.1563 211.604 51.6246 212.395 49.2285L212.713 48.2635H220.053H227.393L227.221 49.1309C226.445 53.0382 224.888 56.0536 222.28 58.7044C220.625 60.3857 219.838 60.9487 217.743 61.95C213.058 64.1885 207.785 64.927 201.333 64.248ZM213.123 33.5953C212.842 31.215 212.343 30.0388 211.077 28.7676C209.527 27.2109 208.162 26.8058 205.006 26.9657C203.319 27.0511 202.358 27.2426 201.571 27.6501C199.525 28.7094 197.979 31.0528 197.583 33.6939L197.399 34.9194H205.34H213.28L213.123 33.5953ZM290.738 64.248C281.246 63.2489 274.892 57.8865 272.589 48.9307C271.034 42.8873 271.573 34.4296 273.867 28.8448C277.485 20.0397 285.756 15.2681 296.473 15.8042C300.334 15.9972 303.444 16.743 306.348 18.1722C309.461 19.7045 312.707 22.9042 314.302 26.0126C316.243 29.7964 316.786 32.3483 316.95 38.4556L317.091 43.7265H301.941H286.792L286.956 45.1277C287.394 48.8481 288.797 51.4142 290.938 52.4111C292.675 53.2196 296.158 53.3244 298.197 52.6295C299.697 52.1185 301.374 50.5201 301.816 49.1812L302.119 48.2635H309.45H316.78L316.599 49.2643C316.257 51.1505 314.826 54.7011 313.771 56.28C309.663 62.4327 301.225 65.3517 290.738 64.248ZM302.484 33.3849C302.067 29.9942 300.333 27.7517 297.668 27.1553C295.671 26.7084 292.33 26.9572 290.977 27.6537C288.926 28.7086 287.311 31.1383 286.961 33.6943L286.793 34.9194H294.733H302.673L302.484 33.3849ZM344.512 64.3727C344.145 64.3189 342.965 64.1449 341.89 63.9862C338.177 63.4379 334.586 61.8919 331.835 59.6567C326.132 55.0235 323.318 45.9649 324.525 36.1204C325.81 25.6282 331.529 18.7805 340.942 16.4606C344.15 15.6698 350.553 15.602 353.719 16.3251C359.91 17.7391 364.596 21.5997 366.803 27.1055C367.396 28.5832 368.339 32.5316 368.146 32.7251C368.014 32.8565 355.263 34.1166 354.053 34.1178C353.277 34.1178 353.052 34.0137 353.052 33.6518C353.052 32.9702 351.612 30.0584 351.011 29.5253C350.194 28.7988 348.628 28.2473 347.389 28.2489C342.583 28.2553 340.238 32.1372 340.244 40.0804C340.246 43.7837 340.607 46.0815 341.496 48.0665C342.759 50.8848 344.985 52.2153 347.931 51.9134C350.716 51.628 352.536 49.9756 353.171 47.1552L353.492 45.7282L361.129 45.6574L368.766 45.5866L368.613 46.5915C368.24 49.0356 367.132 52.7613 366.22 54.6342C364.793 57.5652 361.745 60.5586 358.656 62.0607C357.409 62.6676 355.652 63.3538 354.753 63.5856C351.951 64.3078 346.778 64.7054 344.512 64.3727ZM151.459 63.8531C149.139 63.2917 146.956 62.0086 145.012 60.0651L143.283 58.3359V60.639V62.942H135.677H128.071V31.7169V0.491699H135.944H143.817V11.0043V21.5168L145.449 19.9439C148.381 17.1198 152.227 15.7139 157.027 15.7126C160.932 15.7126 163.81 16.5406 166.8 18.5277C170.82 21.1995 173.489 25.9754 174.611 32.5049C175.166 35.7365 175.182 42.7132 174.643 46.0408C173.603 52.4533 170.986 57.589 167.238 60.5741C165.444 62.0029 162.015 63.6153 159.981 63.9871C157.815 64.3828 153.357 64.3127 151.459 63.8531ZM154.492 51.153C157.53 49.8472 158.858 47.1442 159.189 41.5915C159.491 36.5164 158.644 32.8038 156.686 30.6245C155.303 29.084 153.661 28.3855 151.423 28.3855C147.983 28.3855 145.648 30.1876 144.545 33.6958C144.024 35.3517 143.95 36.1669 143.952 40.2571C143.955 45.4808 144.285 47.1636 145.721 49.2504C147.426 51.728 151.232 52.5537 154.492 51.153ZM51.2087 31.7169V0.491699H59.6154H68.0222V24.6445V48.7973H81.7221C89.2571 48.7973 95.4755 48.8508 95.5409 48.9161C95.6525 49.0277 94.592 60.1944 94.2912 62.0747L94.1525 62.942H72.6806H51.2087V31.7169ZM102.515 40.0569L102.583 17.1718L110.39 17.1011L118.196 17.0303V39.9862V62.942H110.321H102.447L102.515 40.0569ZM235.891 39.9902V17.0384H243.497H251.103V19.8857V22.7331L253.038 20.8648C256.002 18.0023 258.192 16.9441 262.064 16.5025C264.061 16.2747 267.99 16.4889 268.346 16.845C268.496 16.9952 267.453 26.2226 266.951 29.1815L266.815 29.9821H262.629C260.048 29.9821 258.023 30.1097 257.35 30.3149C254.981 31.036 252.91 33.0594 252.12 35.423C251.892 36.1078 251.771 40.2358 251.704 49.6647L251.609 62.942H243.75H235.891V39.9902ZM0.234253 35.8169C0.234253 35.7234 4.22747 27.9186 9.10807 18.473L17.9819 1.29915L19.4497 1.29648L20.9176 1.29382L22.969 5.22848C24.0973 7.39257 28.1348 15.198 31.9414 22.574L38.8625 35.9848L37.0958 35.9682L35.3292 35.9517L34.6511 34.5671C31.7959 28.7367 19.5652 5.0264 19.4129 5.0264C19.3074 5.0264 17.3943 8.59928 15.1614 12.9661C12.9286 17.333 10.5361 21.9867 9.84483 23.3078C9.15354 24.6289 7.40418 28.0216 5.95736 30.8472L3.32678 35.9847H1.78052C0.930073 35.9847 0.234253 35.9081 0.234253 35.8146V35.8169ZM102.45 6.22966V0.491699H110.456H118.463V6.22966V11.9676H110.456H102.45V6.22966Z" fill="#F6F4F3" fill-opacity="0.2"/>
</svg>
