<svg width="277" height="65" viewBox="0 0 277 65" fill="none" xmlns="http://www.w3.org/2000/svg">
<path d="M46.5 63.2577C44.4078 62.1384 36.6408 54.4182 33.8034 50.6299L31.9118 48.1043L29.9916 50.0272C27.7847 52.2083 27.2115 52.4092 22.9125 52.4379C19.3299 52.4379 16.7218 51.8065 13.1106 50.0846C10.4738 48.7931 9.81465 48.3339 7.52181 46.0092C4.62711 43.0819 3.36605 41.1303 2.16231 37.7725C0.471347 32.9509 0.442687 28.1868 2.07633 23.2505C5.20032 13.9231 14.2857 7.75272 24.2022 8.32671C36.8128 9.0442 46.328 20.2657 44.895 32.8361L44.6084 35.3617L42.6595 37.342L40.6819 39.3222L43.0321 41.0442C44.2932 41.9626 47.5031 44.8899 50.1112 47.5303C53.8944 51.3186 55.0408 52.6675 55.7573 54.1312C57.3337 57.3168 56.9037 59.6989 54.2956 62.1097C52.5187 63.7456 51.5156 64.2047 49.7386 64.2047C48.5922 64.2047 47.8184 63.9751 46.5 63.2577ZM51.2003 61.22C52.1748 60.7034 53.6938 59.0388 53.9517 58.1778C54.2957 57.0586 53.8371 55.7671 52.4041 53.8729C50.9137 51.9213 44.3505 45.263 43.8919 45.263C43.7486 45.263 42.2583 46.6119 40.6246 48.2765L37.6153 51.3186L42.3442 55.968C48.019 61.5931 49.1654 62.2532 51.2003 61.22ZM34.262 41.733L42.1723 33.8119L42.2869 30.9133C42.3729 29.3348 42.2869 28.0433 42.1723 28.0433C41.6851 28.0433 20.5337 49.4532 20.7629 49.6828C20.8776 49.8263 22.196 49.855 23.6863 49.7689L26.3517 49.6541L34.262 41.733ZM29.4184 36.8254L41.5704 24.6568L41.1118 23.394C39.7361 19.7778 36.2969 15.6451 33.0869 13.7509C29.4757 11.5698 24.8041 10.594 20.6196 11.1106C16.0913 11.6846 12.5374 13.4352 9.24144 16.707C5.57291 20.4092 3.93926 24.1402 3.70998 29.3922C3.53801 33.3527 4.08256 36.0218 5.68755 39.2074C7.63646 43.1106 11.5916 46.7841 15.6327 48.42C16.3779 48.707 17.0371 48.9653 17.1231 48.9653C17.209 48.994 22.7405 43.5124 29.4184 36.8254ZM38.819 46.3536C40.2807 44.8899 41.4844 43.5698 41.4844 43.3976C41.4844 43.2541 40.8539 42.7088 40.0801 42.1922L38.7044 41.3025L36.3256 43.6846C34.1187 45.9231 34.0041 46.0953 34.348 46.7267C34.8352 47.6451 35.8097 48.994 36.0103 48.994C36.0963 48.994 37.3573 47.7886 38.819 46.3536Z" fill="#D9D9D9"/>
<path d="M46.5 63.2577C44.4078 62.1384 36.6408 54.4182 33.8034 50.6299L31.9118 48.1043L29.9916 50.0272C27.7847 52.2083 27.2115 52.4092 22.9125 52.4379C19.3299 52.4379 16.7218 51.8065 13.1106 50.0846C10.4738 48.7931 9.81465 48.3339 7.52181 46.0092C4.62711 43.0819 3.36605 41.1303 2.16231 37.7725C0.471347 32.9509 0.442687 28.1868 2.07633 23.2505C5.20032 13.9231 14.2857 7.75272 24.2022 8.32671C36.8128 9.0442 46.328 20.2657 44.895 32.8361L44.6084 35.3617L42.6595 37.342L40.6819 39.3222L43.0321 41.0442C44.2932 41.9626 47.5031 44.8899 50.1112 47.5303C53.8944 51.3186 55.0408 52.6675 55.7573 54.1312C57.3337 57.3168 56.9037 59.6989 54.2956 62.1097C52.5187 63.7456 51.5156 64.2047 49.7386 64.2047C48.5922 64.2047 47.8184 63.9751 46.5 63.2577ZM51.2003 61.22C52.1748 60.7034 53.6938 59.0388 53.9517 58.1778C54.2957 57.0586 53.8371 55.7671 52.4041 53.8729C50.9137 51.9213 44.3505 45.263 43.8919 45.263C43.7486 45.263 42.2583 46.6119 40.6246 48.2765L37.6153 51.3186L42.3442 55.968C48.019 61.5931 49.1654 62.2532 51.2003 61.22ZM34.262 41.733L42.1723 33.8119L42.2869 30.9133C42.3729 29.3348 42.2869 28.0433 42.1723 28.0433C41.6851 28.0433 20.5337 49.4532 20.7629 49.6828C20.8776 49.8263 22.196 49.855 23.6863 49.7689L26.3517 49.6541L34.262 41.733ZM29.4184 36.8254L41.5704 24.6568L41.1118 23.394C39.7361 19.7778 36.2969 15.6451 33.0869 13.7509C29.4757 11.5698 24.8041 10.594 20.6196 11.1106C16.0913 11.6846 12.5374 13.4352 9.24144 16.707C5.57291 20.4092 3.93926 24.1402 3.70998 29.3922C3.53801 33.3527 4.08256 36.0218 5.68755 39.2074C7.63646 43.1106 11.5916 46.7841 15.6327 48.42C16.3779 48.707 17.0371 48.9653 17.1231 48.9653C17.209 48.994 22.7405 43.5124 29.4184 36.8254ZM38.819 46.3536C40.2807 44.8899 41.4844 43.5698 41.4844 43.3976C41.4844 43.2541 40.8539 42.7088 40.0801 42.1922L38.7044 41.3025L36.3256 43.6846C34.1187 45.9231 34.0041 46.0953 34.348 46.7267C34.8352 47.6451 35.8097 48.994 36.0103 48.994C36.0963 48.994 37.3573 47.7886 38.819 46.3536Z" fill="#F6F4F3" fill-opacity="0.2"/>
<path d="M143.172 62.7699C140.907 62.0811 138.443 59.6129 137.497 57.1161C135.691 52.2371 136.494 46.2963 139.474 42.8811C141.309 40.8147 145.092 39.638 147.729 40.3555C149.076 40.7286 151.369 42.3358 151.455 42.9672C151.483 43.1968 150.967 44.0291 150.279 44.8039L149.018 46.2389L148.13 45.464C143.917 41.934 138.844 48.1905 140.764 54.5618C141.595 57.2883 143.315 58.7519 145.694 58.7519C146.84 58.7519 147.155 58.6084 148.13 57.6613L149.219 56.5421L150.709 58.0631L152.2 59.5555L151.598 60.3304C150.795 61.3636 149.764 62.1385 148.56 62.6264C147.471 63.0856 144.461 63.1717 143.172 62.7699Z" fill="#D9D9D9"/>
<path d="M143.172 62.7699C140.907 62.0811 138.443 59.6129 137.497 57.1161C135.691 52.2371 136.494 46.2963 139.474 42.8811C141.309 40.8147 145.092 39.638 147.729 40.3555C149.076 40.7286 151.369 42.3358 151.455 42.9672C151.483 43.1968 150.967 44.0291 150.279 44.8039L149.018 46.2389L148.13 45.464C143.917 41.934 138.844 48.1905 140.764 54.5618C141.595 57.2883 143.315 58.7519 145.694 58.7519C146.84 58.7519 147.155 58.6084 148.13 57.6613L149.219 56.5421L150.709 58.0631L152.2 59.5555L151.598 60.3304C150.795 61.3636 149.764 62.1385 148.56 62.6264C147.471 63.0856 144.461 63.1717 143.172 62.7699Z" fill="#F6F4F3" fill-opacity="0.2"/>
<path d="M63.553 51.5771V40.6713H65.4159H67.2788L67.3362 45.3493L67.4221 49.9986L70.8614 45.3493L74.3006 40.7L76.6795 40.6713C77.9692 40.6713 79.0296 40.7287 79.0296 40.8148C79.0296 40.9009 77.3673 43.1394 75.3038 45.8085C73.2689 48.4776 71.5779 50.7735 71.5779 50.917C71.6066 51.3475 79.4882 62.0524 79.7461 61.995C79.8894 61.9663 81.6377 57.2022 83.6153 51.3762L87.2552 40.8148L88.8315 40.7287L90.4078 40.6426L94.0763 51.204C96.0826 57.0013 97.8022 61.9376 97.8595 62.1385C97.9742 62.3968 97.4583 62.4829 95.8819 62.4829H93.7611L93.0446 60.2731L92.3281 58.0345H88.8028H85.2776L84.5897 60.2731L83.8732 62.4829H79.2302H74.5872L71.0047 57.2309L67.4221 52.0076L67.3362 57.2596L67.2788 62.4829H65.4159H63.553V51.5771ZM90.0352 50.8022C88.7168 46.5547 88.7742 46.6695 88.3443 47.9897C88.1723 48.6211 87.6564 50.1995 87.2552 51.5197L86.5387 53.8731H88.7742H91.0097L90.0352 50.8022Z" fill="#D9D9D9"/>
<path d="M63.553 51.5771V40.6713H65.4159H67.2788L67.3362 45.3493L67.4221 49.9986L70.8614 45.3493L74.3006 40.7L76.6795 40.6713C77.9692 40.6713 79.0296 40.7287 79.0296 40.8148C79.0296 40.9009 77.3673 43.1394 75.3038 45.8085C73.2689 48.4776 71.5779 50.7735 71.5779 50.917C71.6066 51.3475 79.4882 62.0524 79.7461 61.995C79.8894 61.9663 81.6377 57.2022 83.6153 51.3762L87.2552 40.8148L88.8315 40.7287L90.4078 40.6426L94.0763 51.204C96.0826 57.0013 97.8022 61.9376 97.8595 62.1385C97.9742 62.3968 97.4583 62.4829 95.8819 62.4829H93.7611L93.0446 60.2731L92.3281 58.0345H88.8028H85.2776L84.5897 60.2731L83.8732 62.4829H79.2302H74.5872L71.0047 57.2309L67.4221 52.0076L67.3362 57.2596L67.2788 62.4829H65.4159H63.553V51.5771ZM90.0352 50.8022C88.7168 46.5547 88.7742 46.6695 88.3443 47.9897C88.1723 48.6211 87.6564 50.1995 87.2552 51.5197L86.5387 53.8731H88.7742H91.0097L90.0352 50.8022Z" fill="#F6F4F3" fill-opacity="0.2"/>
<path d="M99.9517 51.5483V40.6138L104.623 40.7286C109.782 40.8434 110.355 41.0156 111.932 42.7949C112.448 43.3976 112.906 44.3447 113.107 45.2631C113.508 47.0999 113.508 47.4443 113.107 49.3384C112.763 50.8595 111.617 52.3519 110.126 53.1842C109.582 53.4712 109.668 53.7008 111.645 57.8048C112.763 60.1869 113.709 62.1958 113.709 62.3106C113.709 62.4254 112.734 62.4828 111.531 62.4254L109.352 62.3393L107.604 58.1205L105.856 53.873H104.767H103.678V58.1779V62.4828H101.815H99.9517V51.5483ZM108.865 49.0227C109.668 48.047 109.582 46.2676 108.693 45.4066C108.091 44.7752 107.747 44.6891 105.827 44.6891H103.678V47.3008V49.9124L105.999 49.7976C108.005 49.7115 108.378 49.6254 108.865 49.0227Z" fill="#D9D9D9"/>
<path d="M99.9517 51.5483V40.6138L104.623 40.7286C109.782 40.8434 110.355 41.0156 111.932 42.7949C112.448 43.3976 112.906 44.3447 113.107 45.2631C113.508 47.0999 113.508 47.4443 113.107 49.3384C112.763 50.8595 111.617 52.3519 110.126 53.1842C109.582 53.4712 109.668 53.7008 111.645 57.8048C112.763 60.1869 113.709 62.1958 113.709 62.3106C113.709 62.4254 112.734 62.4828 111.531 62.4254L109.352 62.3393L107.604 58.1205L105.856 53.873H104.767H103.678V58.1779V62.4828H101.815H99.9517V51.5483ZM108.865 49.0227C109.668 48.047 109.582 46.2676 108.693 45.4066C108.091 44.7752 107.747 44.6891 105.827 44.6891H103.678V47.3008V49.9124L105.999 49.7976C108.005 49.7115 108.378 49.6254 108.865 49.0227Z" fill="#F6F4F3" fill-opacity="0.2"/>
<path d="M119.154 53.7294V44.9761H116.575H113.995V42.8236V40.6711H121.017H128.039V42.8236V44.9761H125.46H122.88V53.7294V62.4828H121.017H119.154V53.7294Z" fill="#D9D9D9"/>
<path d="M119.154 53.7294V44.9761H116.575H113.995V42.8236V40.6711H121.017H128.039V42.8236V44.9761H125.46H122.88V53.7294V62.4828H121.017H119.154V53.7294Z" fill="#F6F4F3" fill-opacity="0.2"/>
<path d="M130.045 51.577V40.6711H131.908H133.771V51.577V62.4828H131.908H130.045V51.577Z" fill="#D9D9D9"/>
<path d="M130.045 51.577V40.6711H131.908H133.771V51.577V62.4828H131.908H130.045V51.577Z" fill="#F6F4F3" fill-opacity="0.2"/>
<path d="M154.693 51.577V40.6711H156.556H158.419L158.476 45.2631L158.562 49.8837L162.002 45.2631L165.412 40.6711H167.82H170.198L169.654 41.4747C169.339 41.9052 167.59 44.1725 165.785 46.5258L162.46 50.8308L163.091 51.6918C163.435 52.1797 165.183 54.6478 167.017 57.1734C168.851 59.6989 170.428 61.9375 170.542 62.1384C170.714 62.3967 170.198 62.4828 168.221 62.4828H165.641L162.088 57.2882L158.562 52.1223L158.476 57.2882L158.419 62.4828H156.556H154.693V51.577Z" fill="#D9D9D9"/>
<path d="M154.693 51.577V40.6711H156.556H158.419L158.476 45.2631L158.562 49.8837L162.002 45.2631L165.412 40.6711H167.82H170.198L169.654 41.4747C169.339 41.9052 167.59 44.1725 165.785 46.5258L162.46 50.8308L163.091 51.6918C163.435 52.1797 165.183 54.6478 167.017 57.1734C168.851 59.6989 170.428 61.9375 170.542 62.1384C170.714 62.3967 170.198 62.4828 168.221 62.4828H165.641L162.088 57.2882L158.562 52.1223L158.476 57.2882L158.419 62.4828H156.556H154.693V51.577Z" fill="#F6F4F3" fill-opacity="0.2"/>
<path d="M176.762 57.7187V52.9546L173.609 46.985C171.889 43.6846 170.456 40.9007 170.456 40.8146C170.456 40.7285 171.46 40.6711 172.692 40.6711H174.956L176.762 44.6891C177.736 46.8989 178.653 48.707 178.768 48.707C178.883 48.707 179.828 46.8989 180.86 44.6891L182.78 40.6711H184.959C186.134 40.6711 187.079 40.7859 187.022 40.9007C186.993 41.0442 185.474 43.9142 183.726 47.3294L180.488 53.4998V58.0057V62.4828H178.625H176.762V57.7187Z" fill="#D9D9D9"/>
<path d="M176.762 57.7187V52.9546L173.609 46.985C171.889 43.6846 170.456 40.9007 170.456 40.8146C170.456 40.7285 171.46 40.6711 172.692 40.6711H174.956L176.762 44.6891C177.736 46.8989 178.653 48.707 178.768 48.707C178.883 48.707 179.828 46.8989 180.86 44.6891L182.78 40.6711H184.959C186.134 40.6711 187.079 40.7859 187.022 40.9007C186.993 41.0442 185.474 43.9142 183.726 47.3294L180.488 53.4998V58.0057V62.4828H178.625H176.762V57.7187Z" fill="#F6F4F3" fill-opacity="0.2"/>
<path d="M142.025 35.907L140.678 33.7832H142.312C143.974 33.7832 144.003 33.8119 144.633 34.9312C144.977 35.5626 145.379 36.0792 145.493 36.0792C145.608 36.0792 145.98 35.5626 146.353 34.9312C146.983 33.8119 147.012 33.7832 148.588 33.7832H150.165L149.649 34.5868C149.391 35.0173 148.76 35.9644 148.273 36.7106L147.385 38.0881L145.379 38.0594H143.372L142.025 35.907Z" fill="#D9D9D9"/>
<path d="M142.025 35.907L140.678 33.7832H142.312C143.974 33.7832 144.003 33.8119 144.633 34.9312C144.977 35.5626 145.379 36.0792 145.493 36.0792C145.608 36.0792 145.98 35.5626 146.353 34.9312C146.983 33.8119 147.012 33.7832 148.588 33.7832H150.165L149.649 34.5868C149.391 35.0173 148.76 35.9644 148.273 36.7106L147.385 38.0881L145.379 38.0594H143.372L142.025 35.907Z" fill="#F6F4F3" fill-opacity="0.2"/>
<path d="M118.667 32.3195C114.225 30.9132 111.359 26.1491 111.33 20.1509C111.301 14.4684 113.365 10.2783 117.205 8.24058C120.473 6.48991 124.944 6.71951 128.125 8.84327C128.87 9.33117 129.472 9.84776 129.472 10.02C129.472 10.3357 126.921 13.9805 126.692 13.9805C126.606 13.9805 126.119 13.6074 125.574 13.1195C124.485 12.1724 123.167 11.8567 121.16 12.0289C117.836 12.3446 115.715 15.4442 115.715 20.0074C115.715 26.1778 119.871 29.4782 124.972 27.3545L126.033 26.8953V24.7428V22.5904H124.313H122.593V20.1509V17.7114H126.319H130.045V24.1688V30.6262L128.583 31.3724C125.545 32.8935 121.676 33.2666 118.667 32.3195Z" fill="#D9D9D9"/>
<path d="M118.667 32.3195C114.225 30.9132 111.359 26.1491 111.33 20.1509C111.301 14.4684 113.365 10.2783 117.205 8.24058C120.473 6.48991 124.944 6.71951 128.125 8.84327C128.87 9.33117 129.472 9.84776 129.472 10.02C129.472 10.3357 126.921 13.9805 126.692 13.9805C126.606 13.9805 126.119 13.6074 125.574 13.1195C124.485 12.1724 123.167 11.8567 121.16 12.0289C117.836 12.3446 115.715 15.4442 115.715 20.0074C115.715 26.1778 119.871 29.4782 124.972 27.3545L126.033 26.8953V24.7428V22.5904H124.313H122.593V20.1509V17.7114H126.319H130.045V24.1688V30.6262L128.583 31.3724C125.545 32.8935 121.676 33.2666 118.667 32.3195Z" fill="#F6F4F3" fill-opacity="0.2"/>
<path d="M158.677 32.5205C153.719 31.1716 150.681 26.4649 150.681 20.0075C150.681 13.9806 153.346 9.33125 157.788 7.66668C160.11 6.77699 163.406 6.94919 165.67 8.06847C173.351 11.8281 174.01 26.2927 166.702 31.1716C164.237 32.8362 161.514 33.2954 158.677 32.5205ZM163.234 27.5842C165.498 26.6658 166.845 24.6568 167.275 21.6721C168.106 15.7313 165.24 11.6559 160.569 12.029C158.505 12.2012 157.158 13.2631 155.983 15.5591C155.209 17.1088 155.123 17.5393 155.123 20.0075C155.123 22.4182 155.209 22.9348 155.926 24.3985C157.445 27.4694 160.397 28.7895 163.234 27.5842Z" fill="#D9D9D9"/>
<path d="M158.677 32.5205C153.719 31.1716 150.681 26.4649 150.681 20.0075C150.681 13.9806 153.346 9.33125 157.788 7.66668C160.11 6.77699 163.406 6.94919 165.67 8.06847C173.351 11.8281 174.01 26.2927 166.702 31.1716C164.237 32.8362 161.514 33.2954 158.677 32.5205ZM163.234 27.5842C165.498 26.6658 166.845 24.6568 167.275 21.6721C168.106 15.7313 165.24 11.6559 160.569 12.029C158.505 12.2012 157.158 13.2631 155.983 15.5591C155.209 17.1088 155.123 17.5393 155.123 20.0075C155.123 22.4182 155.209 22.9348 155.926 24.3985C157.445 27.4694 160.397 28.7895 163.234 27.5842Z" fill="#F6F4F3" fill-opacity="0.2"/>
<path d="M204.104 32.3195C202.871 31.9464 201.868 31.3437 200.865 30.454C198.056 27.9285 196.795 24.7715 196.767 20.1509C196.709 14.4684 198.773 10.2783 202.613 8.24058C205.881 6.48991 210.352 6.71951 213.533 8.84327C214.278 9.33117 214.88 9.84776 214.88 10.02C214.88 10.3357 212.329 13.9805 212.1 13.9805C212.014 13.9805 211.527 13.6074 210.982 13.1195C209.893 12.1724 208.575 11.8567 206.569 12.0289C203.244 12.3446 201.123 15.4442 201.123 20.0074C201.123 26.1778 205.307 29.4782 210.438 27.3545L211.441 26.924V24.7715V22.5904H209.721H208.002V20.1509V17.7114H211.727H215.453V24.1688V30.6262L213.992 31.3724C210.954 32.8935 207.084 33.2666 204.104 32.3195Z" fill="#D9D9D9"/>
<path d="M204.104 32.3195C202.871 31.9464 201.868 31.3437 200.865 30.454C198.056 27.9285 196.795 24.7715 196.767 20.1509C196.709 14.4684 198.773 10.2783 202.613 8.24058C205.881 6.48991 210.352 6.71951 213.533 8.84327C214.278 9.33117 214.88 9.84776 214.88 10.02C214.88 10.3357 212.329 13.9805 212.1 13.9805C212.014 13.9805 211.527 13.6074 210.982 13.1195C209.893 12.1724 208.575 11.8567 206.569 12.0289C203.244 12.3446 201.123 15.4442 201.123 20.0074C201.123 26.1778 205.307 29.4782 210.438 27.3545L211.441 26.924V24.7715V22.5904H209.721H208.002V20.1509V17.7114H211.727H215.453V24.1688V30.6262L213.992 31.3724C210.954 32.8935 207.084 33.2666 204.104 32.3195Z" fill="#F6F4F3" fill-opacity="0.2"/>
<path d="M225.886 32.3482C220.584 30.5976 217.46 23.9393 218.692 16.9653C219.781 10.9384 223.249 7.43702 228.494 7.15003C232.162 6.94913 235.028 8.32671 237.149 11.3115C238.726 13.5213 239.299 15.4729 239.471 18.9742C239.614 22.4756 239.299 24.4559 238.152 26.8953C235.946 31.602 230.701 33.9267 225.886 32.3482ZM230.729 27.7276C232.248 27.3258 233.595 26.0056 234.398 24.255C235.286 22.2747 235.372 18.0272 234.57 15.9321C233.911 14.2388 231.933 12.3733 230.5 12.0864C227.634 11.5698 225.284 12.6603 223.908 15.1572C223.192 16.4774 223.048 17.1088 222.962 19.3186C222.819 22.4469 223.335 24.3698 224.739 25.9482C226.316 27.7563 228.379 28.3877 230.729 27.7276Z" fill="#D9D9D9"/>
<path d="M225.886 32.3482C220.584 30.5976 217.46 23.9393 218.692 16.9653C219.781 10.9384 223.249 7.43702 228.494 7.15003C232.162 6.94913 235.028 8.32671 237.149 11.3115C238.726 13.5213 239.299 15.4729 239.471 18.9742C239.614 22.4756 239.299 24.4559 238.152 26.8953C235.946 31.602 230.701 33.9267 225.886 32.3482ZM230.729 27.7276C232.248 27.3258 233.595 26.0056 234.398 24.255C235.286 22.2747 235.372 18.0272 234.57 15.9321C233.911 14.2388 231.933 12.3733 230.5 12.0864C227.634 11.5698 225.284 12.6603 223.908 15.1572C223.192 16.4774 223.048 17.1088 222.962 19.3186C222.819 22.4469 223.335 24.3698 224.739 25.9482C226.316 27.7563 228.379 28.3877 230.729 27.7276Z" fill="#F6F4F3" fill-opacity="0.2"/>
<path d="M63.553 19.9789V7.60938L68.6545 7.72417C73.2402 7.81027 73.8421 7.86767 74.9025 8.44166C77.31 9.73314 78.3131 11.6847 78.2844 15.1287C78.2844 17.769 77.8259 19.1753 76.5362 20.6103C75.2751 22.0165 73.4408 22.5905 70.2309 22.5905H67.852V27.4695V32.3484H65.7025H63.553V19.9789ZM73.1542 17.2811C73.7274 16.7358 73.8707 16.3053 73.8707 15.1287C73.8707 13.952 73.7274 13.5215 73.1542 12.9762C72.5237 12.3448 72.2371 12.2587 70.1449 12.2587H67.852V15.1287V17.9986H70.1449C72.2371 17.9986 72.5237 17.9125 73.1542 17.2811Z" fill="#D9D9D9"/>
<path d="M63.553 19.9789V7.60938L68.6545 7.72417C73.2402 7.81027 73.8421 7.86767 74.9025 8.44166C77.31 9.73314 78.3131 11.6847 78.2844 15.1287C78.2844 17.769 77.8259 19.1753 76.5362 20.6103C75.2751 22.0165 73.4408 22.5905 70.2309 22.5905H67.852V27.4695V32.3484H65.7025H63.553V19.9789ZM73.1542 17.2811C73.7274 16.7358 73.8707 16.3053 73.8707 15.1287C73.8707 13.952 73.7274 13.5215 73.1542 12.9762C72.5237 12.3448 72.2371 12.2587 70.1449 12.2587H67.852V15.1287V17.9986H70.1449C72.2371 17.9986 72.5237 17.9125 73.1542 17.2811Z" fill="#F6F4F3" fill-opacity="0.2"/>
<path d="M81.3224 20.0076V7.66675H83.3287H85.3349V20.0076V32.3484H83.3287H81.3224V20.0076Z" fill="#D9D9D9"/>
<path d="M81.3224 20.0076V7.66675H83.3287H85.3349V20.0076V32.3484H83.3287H81.3224V20.0076Z" fill="#F6F4F3" fill-opacity="0.2"/>
<path d="M89.634 20.0076V7.66675H92.4714H95.3087L99.5791 16.2192L103.821 24.743L103.907 16.2192L103.964 7.66675H106.114H108.263V20.0076V32.3484H105.455H102.617L98.3467 23.595C95.9966 18.7735 93.9904 14.8416 93.8757 14.8416C93.7324 14.8416 93.6464 18.7735 93.6464 23.595V32.3484H91.6402H89.634V20.0076Z" fill="#D9D9D9"/>
<path d="M89.634 20.0076V7.66675H92.4714H95.3087L99.5791 16.2192L103.821 24.743L103.907 16.2192L103.964 7.66675H106.114H108.263V20.0076V32.3484H105.455H102.617L98.3467 23.595C95.9966 18.7735 93.9904 14.8416 93.8757 14.8416C93.7324 14.8416 93.6464 18.7735 93.6464 23.595V32.3484H91.6402H89.634V20.0076Z" fill="#F6F4F3" fill-opacity="0.2"/>
<path d="M134.058 19.9789V7.60938L139.159 7.72417C143.659 7.81027 144.375 7.89637 145.379 8.44166C147.671 9.64704 148.646 11.5986 148.674 14.9565C148.674 17.9412 148.216 19.3188 146.812 20.7538C145.407 22.16 143.945 22.5905 140.678 22.5905H138.357V27.4695V32.3484H136.207H134.058V19.9789ZM143.086 17.8264C143.745 17.5681 144.375 16.1905 144.375 14.9852C144.375 14.2103 144.146 13.7224 143.544 13.091C142.77 12.3161 142.541 12.2587 140.535 12.2587H138.357V15.1287V17.9986H140.478C141.653 17.9986 142.828 17.9125 143.086 17.8264Z" fill="#D9D9D9"/>
<path d="M134.058 19.9789V7.60938L139.159 7.72417C143.659 7.81027 144.375 7.89637 145.379 8.44166C147.671 9.64704 148.646 11.5986 148.674 14.9565C148.674 17.9412 148.216 19.3188 146.812 20.7538C145.407 22.16 143.945 22.5905 140.678 22.5905H138.357V27.4695V32.3484H136.207H134.058V19.9789ZM143.086 17.8264C143.745 17.5681 144.375 16.1905 144.375 14.9852C144.375 14.2103 144.146 13.7224 143.544 13.091C142.77 12.3161 142.541 12.2587 140.535 12.2587H138.357V15.1287V17.9986H140.478C141.653 17.9986 142.828 17.9125 143.086 17.8264Z" fill="#F6F4F3" fill-opacity="0.2"/>
<path d="M175.042 20.0076V7.66675H177.879H180.746L184.987 16.2192L189.229 24.743L189.315 16.2192L189.372 7.66675H191.522H193.671V20.0076V32.3484H190.863H188.025L183.755 23.595C181.405 18.7735 179.398 14.8416 179.284 14.8416C179.141 14.8416 179.055 18.7735 179.055 23.595V32.3484H177.048H175.042V20.0076Z" fill="#D9D9D9"/>
<path d="M175.042 20.0076V7.66675H177.879H180.746L184.987 16.2192L189.229 24.743L189.315 16.2192L189.372 7.66675H191.522H193.671V20.0076V32.3484H190.863H188.025L183.755 23.595C181.405 18.7735 179.398 14.8416 179.284 14.8416C179.141 14.8416 179.055 18.7735 179.055 23.595V32.3484H177.048H175.042V20.0076Z" fill="#F6F4F3" fill-opacity="0.2"/>
<path d="M246.722 26.1206C241.764 10.6515 240.961 8.06854 240.961 7.86765C240.961 7.75285 242.022 7.66675 243.311 7.72415L245.661 7.81025L247.754 14.6981C248.9 18.4865 249.989 22.0739 250.161 22.7053C250.333 23.308 250.562 23.7098 250.677 23.5663C250.82 23.4228 251.995 19.778 253.285 15.473L255.693 7.66675H257.899H260.106L259.476 9.76182C259.132 10.8811 257.298 16.4488 255.406 22.1026L251.995 32.3484H250.362H248.728L246.722 26.1206Z" fill="#D9D9D9"/>
<path d="M246.722 26.1206C241.764 10.6515 240.961 8.06854 240.961 7.86765C240.961 7.75285 242.022 7.66675 243.311 7.72415L245.661 7.81025L247.754 14.6981C248.9 18.4865 249.989 22.0739 250.161 22.7053C250.333 23.308 250.562 23.7098 250.677 23.5663C250.82 23.4228 251.995 19.778 253.285 15.473L255.693 7.66675H257.899H260.106L259.476 9.76182C259.132 10.8811 257.298 16.4488 255.406 22.1026L251.995 32.3484H250.362H248.728L246.722 26.1206Z" fill="#F6F4F3" fill-opacity="0.2"/>
<path d="M262.456 20.0076V7.66675H269.192H275.927V10.1062V12.5457H271.341H266.755V14.9851V17.4246H271.055H275.354V19.8641V22.3035H271.055H266.755V24.8865V27.4694H271.628H276.5V29.9089V32.3484H269.478H262.456V20.0076Z" fill="#D9D9D9"/>
<path d="M262.456 20.0076V7.66675H269.192H275.927V10.1062V12.5457H271.341H266.755V14.9851V17.4246H271.055H275.354V19.8641V22.3035H271.055H266.755V24.8865V27.4694H271.628H276.5V29.9089V32.3484H269.478H262.456V20.0076Z" fill="#F6F4F3" fill-opacity="0.2"/>
<path d="M267.873 3.21827L269.192 0.807508L271.857 0.778809H274.551L272.344 3.21827L270.137 5.65773H268.332H266.526L267.873 3.21827Z" fill="#D9D9D9"/>
<path d="M267.873 3.21827L269.192 0.807508L271.857 0.778809H274.551L272.344 3.21827L270.137 5.65773H268.332H266.526L267.873 3.21827Z" fill="#F6F4F3" fill-opacity="0.2"/>
</svg>
