<svg width="248" height="65" viewBox="0 0 248 65" fill="none" xmlns="http://www.w3.org/2000/svg">
<g clip-path="url(#clip0_864_921)">
<path d="M93.049 45.4367C91.1229 45.1236 88.1979 44.1739 86.549 43.3264C84.9001 42.4788 82.2776 40.4706 80.7211 38.8637C79.1647 37.2567 77.1306 34.2277 76.2009 32.1325C75.1163 29.6881 74.4862 26.6847 74.4425 23.7515C74.4052 21.2372 74.6276 18.2831 74.937 17.1869C75.4738 15.2843 75.3386 15.1717 71.9626 14.7107C70.0174 14.445 64.7746 14.228 60.312 14.2283C55.8493 14.2287 48.4128 14.5785 43.7863 15.0057C39.1599 15.4329 32.1054 16.3235 28.1099 16.9848C24.1143 17.6462 17.0599 19.1728 12.4334 20.3775C7.80692 21.5821 3.16133 22.795 2.10986 23.0728C0.795502 23.42 0.437057 23.3301 0.962799 22.7852C1.38339 22.3492 4.45604 21.144 7.79091 20.1069L13.8543 18.2213L13.6615 13.5133C13.4717 8.88055 13.5215 8.75257 16.7771 5.50895C18.7588 3.53449 21.3111 1.87363 23.1418 1.36727C24.8228 0.902318 28.951 0.521899 32.3157 0.521899C35.6804 0.521899 39.7238 0.878966 41.301 1.31537C42.8782 1.75178 44.1687 2.31973 44.1687 2.57749C44.1687 2.83525 43.6048 4.82841 42.9156 7.00675L41.6626 10.9674L38.2058 9.93086C36.3047 9.36079 33.3319 8.89436 31.5997 8.89436C29.8674 8.89436 27.6854 9.42809 26.7506 10.0804C25.8158 10.7327 25.051 11.9435 25.051 12.771C25.051 13.5985 25.5397 14.4623 26.1369 14.6907C26.7342 14.919 30.7776 14.5888 35.1222 13.9569C39.4669 13.325 46.2047 12.5689 50.0952 12.2767C55.3179 11.8844 57.1687 11.4721 57.1687 10.7008C57.1687 9.90305 55.7233 9.65626 51.051 9.65626H44.9334V5.08483V0.513404H63.2863H81.6393V3.15711V5.80082L84.4258 3.91674C85.9584 2.8805 88.4912 1.65094 90.0541 1.18438C91.6171 0.717816 95.4389 0.465191 98.547 0.622981C102.843 0.841099 105.161 1.41206 108.213 3.00469L112.228 5.0995V2.80645V0.513404H130.963H149.698V5.08483V9.65626H143.198H136.698V17.959V26.2617L141.54 27.1019C144.203 27.5639 147.3 27.942 148.422 27.942H150.463V14.2277V0.513404H165.375H180.286V5.08483V9.65626H171.11H161.933V13.4658V17.2753H170.728H179.522V21.8467V26.4182H170.728C162.443 26.4182 161.933 26.5065 161.933 27.942C161.933 29.3724 162.443 29.4658 170.25 29.4658C174.823 29.4658 179.641 29.2515 180.955 28.9896L183.345 28.5134V14.5134V0.513404L190.036 0.514166L196.728 0.514928L202.556 9.84726C205.761 14.9801 209.202 20.6341 210.203 22.4118C211.203 24.1896 212.28 25.6467 212.595 25.6499C212.911 25.653 213.169 19.9987 213.169 13.0844V0.512939H218.522H223.875V11.9415C223.875 21.7702 224.041 23.3701 225.063 23.3701C225.717 23.3701 230.449 22.3674 235.578 21.1418C240.707 19.9163 245.592 18.6658 246.433 18.363C247.514 17.9741 247.738 18.0555 247.198 18.6404C246.778 19.0958 242.82 20.5058 238.404 21.7739C233.988 23.0419 226.417 24.9293 221.58 25.9681C216.744 27.0069 207.969 28.5945 202.08 29.4961C194.514 30.6547 186.194 31.2532 173.711 31.5371C162.41 31.794 153.182 31.6137 148.093 31.0365C143.718 30.5403 137.042 29.4964 133.257 28.7167C129.472 27.9369 120.52 25.4256 113.365 23.1359C106.21 20.8463 97.497 18.3919 94.0028 17.6819C90.5087 16.9718 87.1924 16.5657 86.6333 16.7795C86.0742 16.9933 85.2016 18.4216 84.6941 19.9536C83.9764 22.1201 83.9746 23.4622 84.6859 25.9935C85.1889 27.7834 86.4408 30.1508 87.4678 31.2544C88.4949 32.358 90.4424 33.8314 91.7956 34.5285C93.1487 35.2257 95.6743 35.7748 97.4079 35.7487C99.1414 35.7226 101.596 35.1676 102.861 34.5154C104.127 33.8632 106.064 32.2624 107.166 30.958C108.267 29.6537 109.169 28.0985 109.169 27.5021C109.169 26.9057 109.569 26.4177 110.057 26.4177C110.546 26.4177 112.783 26.9946 115.028 27.6997C117.273 28.4048 119.11 29.3527 119.11 29.8062C119.11 30.2597 118.387 31.9971 117.504 33.6671C116.621 35.3371 114.818 37.8323 113.499 39.2121C112.179 40.5919 109.375 42.5305 107.266 43.5202C105.158 44.5098 101.885 45.4739 99.9922 45.6626C98.0995 45.8512 94.9751 45.7499 93.049 45.4367ZM199.89 27.3589C200.484 26.9759 199.702 24.8741 197.414 20.7039L194.07 14.6086L194.061 21.2753L194.051 27.942L196.536 27.9303C197.903 27.9242 199.412 27.6667 199.89 27.3589ZM125.228 16.5134V9.65626H120.674H116.121L117.991 13.6563C119.019 15.8563 119.863 18.5705 119.867 19.688C119.872 21.2076 120.405 21.9126 121.978 22.485C123.134 22.9059 124.339 23.2773 124.654 23.3104C124.969 23.3435 125.228 20.2848 125.228 16.5134ZM107.585 15.6761C106.657 14.3775 104.827 12.6645 103.519 11.8694C102.057 10.9817 99.7228 10.4228 97.4689 10.421C95.4503 10.4195 92.7721 10.947 91.5175 11.5935C90.2628 12.2399 89.4399 13.097 89.6888 13.4982C89.9377 13.8994 91.0673 14.2524 92.1991 14.2827C93.3309 14.3129 97.354 15.1319 101.139 16.1026C104.925 17.0733 108.303 17.9057 108.647 17.9524C108.991 17.9991 108.513 16.9747 107.585 15.6761ZM77.6282 10.6086C77.855 9.92298 76.7475 9.65626 73.6736 9.65626C70.3243 9.65626 69.404 9.91119 69.404 10.8389C69.404 11.7851 70.1947 11.9756 73.3586 11.7913C75.664 11.6571 77.4445 11.1639 77.6282 10.6086ZM17.2004 43.6667C15.1958 43.1061 13.3378 42.4304 13.0715 42.1651C12.8053 41.8998 13.0883 39.8768 13.7006 37.6695C14.4663 34.9088 15.1583 33.7357 15.9177 33.9108C16.5249 34.0508 19.0246 34.6768 21.4728 35.302C24.1285 35.9802 27.1084 36.2393 28.8606 35.9443C30.4757 35.6725 32.3742 34.8148 33.0794 34.0384C33.7846 33.262 34.244 32.0013 34.1003 31.2368C33.9567 30.4722 32.2919 29.087 30.401 28.1585C28.51 27.23 24.8981 25.5793 22.3746 24.4903C18.9289 23.0034 18.0756 22.3479 18.9481 21.8581C19.5871 21.4994 23.549 20.7783 27.7524 20.2556C31.9558 19.7329 36.3995 19.5565 37.6272 19.8635C38.855 20.1706 41.1732 21.7306 42.7788 23.3303C45.5094 26.0509 45.6981 26.5329 45.6981 30.7873C45.6981 34.2305 45.2797 35.9647 43.9764 37.9245C43.0045 39.386 40.5992 41.3308 38.453 42.3904C35.4163 43.8896 33.2621 44.3095 27.7482 44.4767C23.6518 44.6009 19.3633 44.2716 17.2004 43.6667ZM57.1687 30.886V17.8301L60.7166 18.3146C62.6679 18.5811 65.4209 18.7991 66.8342 18.7991H69.404V31.3705V43.942H63.2863H57.1687V30.886ZM125.228 37.4658C125.228 32.7905 125.493 30.9908 126.183 30.9938C126.709 30.9961 128.344 31.3058 129.816 31.6818C131.288 32.0578 133.439 32.5767 134.595 32.8349C136.643 33.2921 136.698 33.4425 136.698 38.6232V43.942H130.963H125.228V37.4658ZM150.463 39.2817C150.463 34.8206 150.536 34.641 152.183 35.0808C153.13 35.3335 160.012 35.5449 167.478 35.5506L181.051 35.5611V39.7515V43.942H165.757H150.463V39.2817ZM183.345 39.7276C183.345 37.0252 183.688 35.4047 184.301 35.2109C184.827 35.0446 187.236 34.77 189.654 34.6007L194.051 34.2928V39.1174V43.942H188.698H183.345V39.7276ZM209.068 39.942C207.664 37.742 206.137 35.2257 205.675 34.3502C204.87 32.826 205.166 32.6883 212.634 31.1094C216.924 30.2025 221.208 29.2502 222.154 28.9933C223.856 28.5312 223.875 28.6102 223.875 36.2341V43.942H217.747H211.62L209.068 39.942Z" fill="#D9D9D9"/>
<path d="M93.049 45.4367C91.1229 45.1236 88.1979 44.1739 86.549 43.3264C84.9001 42.4788 82.2776 40.4706 80.7211 38.8637C79.1647 37.2567 77.1306 34.2277 76.2009 32.1325C75.1163 29.6881 74.4862 26.6847 74.4425 23.7515C74.4052 21.2372 74.6276 18.2831 74.937 17.1869C75.4738 15.2843 75.3386 15.1717 71.9626 14.7107C70.0174 14.445 64.7746 14.228 60.312 14.2283C55.8493 14.2287 48.4128 14.5785 43.7863 15.0057C39.1599 15.4329 32.1054 16.3235 28.1099 16.9848C24.1143 17.6462 17.0599 19.1728 12.4334 20.3775C7.80692 21.5821 3.16133 22.795 2.10986 23.0728C0.795502 23.42 0.437057 23.3301 0.962799 22.7852C1.38339 22.3492 4.45604 21.144 7.79091 20.1069L13.8543 18.2213L13.6615 13.5133C13.4717 8.88055 13.5215 8.75257 16.7771 5.50895C18.7588 3.53449 21.3111 1.87363 23.1418 1.36727C24.8228 0.902318 28.951 0.521899 32.3157 0.521899C35.6804 0.521899 39.7238 0.878966 41.301 1.31537C42.8782 1.75178 44.1687 2.31973 44.1687 2.57749C44.1687 2.83525 43.6048 4.82841 42.9156 7.00675L41.6626 10.9674L38.2058 9.93086C36.3047 9.36079 33.3319 8.89436 31.5997 8.89436C29.8674 8.89436 27.6854 9.42809 26.7506 10.0804C25.8158 10.7327 25.051 11.9435 25.051 12.771C25.051 13.5985 25.5397 14.4623 26.1369 14.6907C26.7342 14.919 30.7776 14.5888 35.1222 13.9569C39.4669 13.325 46.2047 12.5689 50.0952 12.2767C55.3179 11.8844 57.1687 11.4721 57.1687 10.7008C57.1687 9.90305 55.7233 9.65626 51.051 9.65626H44.9334V5.08483V0.513404H63.2863H81.6393V3.15711V5.80082L84.4258 3.91674C85.9584 2.8805 88.4912 1.65094 90.0541 1.18438C91.6171 0.717816 95.4389 0.465191 98.547 0.622981C102.843 0.841099 105.161 1.41206 108.213 3.00469L112.228 5.0995V2.80645V0.513404H130.963H149.698V5.08483V9.65626H143.198H136.698V17.959V26.2617L141.54 27.1019C144.203 27.5639 147.3 27.942 148.422 27.942H150.463V14.2277V0.513404H165.375H180.286V5.08483V9.65626H171.11H161.933V13.4658V17.2753H170.728H179.522V21.8467V26.4182H170.728C162.443 26.4182 161.933 26.5065 161.933 27.942C161.933 29.3724 162.443 29.4658 170.25 29.4658C174.823 29.4658 179.641 29.2515 180.955 28.9896L183.345 28.5134V14.5134V0.513404L190.036 0.514166L196.728 0.514928L202.556 9.84726C205.761 14.9801 209.202 20.6341 210.203 22.4118C211.203 24.1896 212.28 25.6467 212.595 25.6499C212.911 25.653 213.169 19.9987 213.169 13.0844V0.512939H218.522H223.875V11.9415C223.875 21.7702 224.041 23.3701 225.063 23.3701C225.717 23.3701 230.449 22.3674 235.578 21.1418C240.707 19.9163 245.592 18.6658 246.433 18.363C247.514 17.9741 247.738 18.0555 247.198 18.6404C246.778 19.0958 242.82 20.5058 238.404 21.7739C233.988 23.0419 226.417 24.9293 221.58 25.9681C216.744 27.0069 207.969 28.5945 202.08 29.4961C194.514 30.6547 186.194 31.2532 173.711 31.5371C162.41 31.794 153.182 31.6137 148.093 31.0365C143.718 30.5403 137.042 29.4964 133.257 28.7167C129.472 27.9369 120.52 25.4256 113.365 23.1359C106.21 20.8463 97.497 18.3919 94.0028 17.6819C90.5087 16.9718 87.1924 16.5657 86.6333 16.7795C86.0742 16.9933 85.2016 18.4216 84.6941 19.9536C83.9764 22.1201 83.9746 23.4622 84.6859 25.9935C85.1889 27.7834 86.4408 30.1508 87.4678 31.2544C88.4949 32.358 90.4424 33.8314 91.7956 34.5285C93.1487 35.2257 95.6743 35.7748 97.4079 35.7487C99.1414 35.7226 101.596 35.1676 102.861 34.5154C104.127 33.8632 106.064 32.2624 107.166 30.958C108.267 29.6537 109.169 28.0985 109.169 27.5021C109.169 26.9057 109.569 26.4177 110.057 26.4177C110.546 26.4177 112.783 26.9946 115.028 27.6997C117.273 28.4048 119.11 29.3527 119.11 29.8062C119.11 30.2597 118.387 31.9971 117.504 33.6671C116.621 35.3371 114.818 37.8323 113.499 39.2121C112.179 40.5919 109.375 42.5305 107.266 43.5202C105.158 44.5098 101.885 45.4739 99.9922 45.6626C98.0995 45.8512 94.9751 45.7499 93.049 45.4367ZM199.89 27.3589C200.484 26.9759 199.702 24.8741 197.414 20.7039L194.07 14.6086L194.061 21.2753L194.051 27.942L196.536 27.9303C197.903 27.9242 199.412 27.6667 199.89 27.3589ZM125.228 16.5134V9.65626H120.674H116.121L117.991 13.6563C119.019 15.8563 119.863 18.5705 119.867 19.688C119.872 21.2076 120.405 21.9126 121.978 22.485C123.134 22.9059 124.339 23.2773 124.654 23.3104C124.969 23.3435 125.228 20.2848 125.228 16.5134ZM107.585 15.6761C106.657 14.3775 104.827 12.6645 103.519 11.8694C102.057 10.9817 99.7228 10.4228 97.4689 10.421C95.4503 10.4195 92.7721 10.947 91.5175 11.5935C90.2628 12.2399 89.4399 13.097 89.6888 13.4982C89.9377 13.8994 91.0673 14.2524 92.1991 14.2827C93.3309 14.3129 97.354 15.1319 101.139 16.1026C104.925 17.0733 108.303 17.9057 108.647 17.9524C108.991 17.9991 108.513 16.9747 107.585 15.6761ZM77.6282 10.6086C77.855 9.92298 76.7475 9.65626 73.6736 9.65626C70.3243 9.65626 69.404 9.91119 69.404 10.8389C69.404 11.7851 70.1947 11.9756 73.3586 11.7913C75.664 11.6571 77.4445 11.1639 77.6282 10.6086ZM17.2004 43.6667C15.1958 43.1061 13.3378 42.4304 13.0715 42.1651C12.8053 41.8998 13.0883 39.8768 13.7006 37.6695C14.4663 34.9088 15.1583 33.7357 15.9177 33.9108C16.5249 34.0508 19.0246 34.6768 21.4728 35.302C24.1285 35.9802 27.1084 36.2393 28.8606 35.9443C30.4757 35.6725 32.3742 34.8148 33.0794 34.0384C33.7846 33.262 34.244 32.0013 34.1003 31.2368C33.9567 30.4722 32.2919 29.087 30.401 28.1585C28.51 27.23 24.8981 25.5793 22.3746 24.4903C18.9289 23.0034 18.0756 22.3479 18.9481 21.8581C19.5871 21.4994 23.549 20.7783 27.7524 20.2556C31.9558 19.7329 36.3995 19.5565 37.6272 19.8635C38.855 20.1706 41.1732 21.7306 42.7788 23.3303C45.5094 26.0509 45.6981 26.5329 45.6981 30.7873C45.6981 34.2305 45.2797 35.9647 43.9764 37.9245C43.0045 39.386 40.5992 41.3308 38.453 42.3904C35.4163 43.8896 33.2621 44.3095 27.7482 44.4767C23.6518 44.6009 19.3633 44.2716 17.2004 43.6667ZM57.1687 30.886V17.8301L60.7166 18.3146C62.6679 18.5811 65.4209 18.7991 66.8342 18.7991H69.404V31.3705V43.942H63.2863H57.1687V30.886ZM125.228 37.4658C125.228 32.7905 125.493 30.9908 126.183 30.9938C126.709 30.9961 128.344 31.3058 129.816 31.6818C131.288 32.0578 133.439 32.5767 134.595 32.8349C136.643 33.2921 136.698 33.4425 136.698 38.6232V43.942H130.963H125.228V37.4658ZM150.463 39.2817C150.463 34.8206 150.536 34.641 152.183 35.0808C153.13 35.3335 160.012 35.5449 167.478 35.5506L181.051 35.5611V39.7515V43.942H165.757H150.463V39.2817ZM183.345 39.7276C183.345 37.0252 183.688 35.4047 184.301 35.2109C184.827 35.0446 187.236 34.77 189.654 34.6007L194.051 34.2928V39.1174V43.942H188.698H183.345V39.7276ZM209.068 39.942C207.664 37.742 206.137 35.2257 205.675 34.3502C204.87 32.826 205.166 32.6883 212.634 31.1094C216.924 30.2025 221.208 29.2502 222.154 28.9933C223.856 28.5312 223.875 28.6102 223.875 36.2341V43.942H217.747H211.62L209.068 39.942Z" fill="#F6F4F3" fill-opacity="0.2"/>
<path d="M19.8964 62.2149L18.0268 61.1915L16.1612 62.2222L16.5604 60.1343L15 58.685L17.1163 58.4181L18.0176 56.4917L18.9263 58.4146L21.0437 58.6733L19.489 60.1286L19.8964 62.2149Z" fill="#D9D9D9"/>
<path d="M19.8964 62.2149L18.0268 61.1915L16.1612 62.2222L16.5604 60.1343L15 58.685L17.1163 58.4181L18.0176 56.4917L18.9263 58.4146L21.0437 58.6733L19.489 60.1286L19.8964 62.2149Z" fill="#F6F4F3" fill-opacity="0.2"/>
<path d="M28.8964 62.2149L27.0268 61.1915L25.1612 62.2222L25.5604 60.1343L24 58.685L26.1163 58.4181L27.0176 56.4917L27.9263 58.4146L30.0437 58.6733L28.489 60.1286L28.8964 62.2149Z" fill="#D9D9D9"/>
<path d="M28.8964 62.2149L27.0268 61.1915L25.1612 62.2222L25.5604 60.1343L24 58.685L26.1163 58.4181L27.0176 56.4917L27.9263 58.4146L30.0437 58.6733L28.489 60.1286L28.8964 62.2149Z" fill="#F6F4F3" fill-opacity="0.2"/>
<path d="M37.8964 62.2149L36.0268 61.1915L34.1612 62.2222L34.5604 60.1343L33 58.685L35.1163 58.4181L36.0176 56.4917L36.9263 58.4146L39.0437 58.6733L37.489 60.1286L37.8964 62.2149Z" fill="#D9D9D9"/>
<path d="M37.8964 62.2149L36.0268 61.1915L34.1612 62.2222L34.5604 60.1343L33 58.685L35.1163 58.4181L36.0176 56.4917L36.9263 58.4146L39.0437 58.6733L37.489 60.1286L37.8964 62.2149Z" fill="#F6F4F3" fill-opacity="0.2"/>
<path d="M203.896 62.2149L202.027 61.1915L200.161 62.2222L200.56 60.1343L199 58.685L201.116 58.4181L202.018 56.4917L202.926 58.4146L205.044 58.6733L203.489 60.1286L203.896 62.2149Z" fill="#D9D9D9"/>
<path d="M203.896 62.2149L202.027 61.1915L200.161 62.2222L200.56 60.1343L199 58.685L201.116 58.4181L202.018 56.4917L202.926 58.4146L205.044 58.6733L203.489 60.1286L203.896 62.2149Z" fill="#F6F4F3" fill-opacity="0.2"/>
<path d="M213.212 61.9844L211.343 60.961L209.477 61.9917L209.876 59.9038L208.316 58.4545L210.432 58.1876L211.334 56.2612L212.242 58.1841L214.36 58.4428L212.805 59.8981L213.212 61.9844Z" fill="#D9D9D9"/>
<path d="M213.212 61.9844L211.343 60.961L209.477 61.9917L209.876 59.9038L208.316 58.4545L210.432 58.1876L211.334 56.2612L212.242 58.1841L214.36 58.4428L212.805 59.8981L213.212 61.9844Z" fill="#F6F4F3" fill-opacity="0.2"/>
<path d="M222.408 61.9844L220.539 60.961L218.673 61.9917L219.072 59.9038L217.512 58.4545L219.628 58.1876L220.529 56.2612L221.438 58.1841L223.556 58.4428L222.001 59.8981L222.408 61.9844Z" fill="#D9D9D9"/>
<path d="M222.408 61.9844L220.539 60.961L218.673 61.9917L219.072 59.9038L217.512 58.4545L219.628 58.1876L220.529 56.2612L221.438 58.1841L223.556 58.4428L222.001 59.8981L222.408 61.9844Z" fill="#F6F4F3" fill-opacity="0.2"/>
<path d="M45.4154 64.4917V52.8032H52.4696V54.0588H46.8308V58.0082H52.1043V59.2638H46.8308V63.2361H52.5609V64.4917H45.4154ZM55.7056 52.8032L58.7191 57.6658H58.8104L61.8238 52.8032H63.4904L59.8149 58.6474L63.4904 64.4917H61.8238L58.8104 59.7204H58.7191L55.7056 64.4917H54.0391L57.8059 58.6474L54.0391 52.8032H55.7056ZM65.3324 64.4917V52.8032H69.2818C70.1988 52.8032 70.9483 52.9687 71.5305 53.2997C72.1164 53.6269 72.5502 54.0702 72.8317 54.6295C73.1133 55.1888 73.2541 55.8128 73.2541 56.5015C73.2541 57.1902 73.1133 57.8161 72.8317 58.3792C72.554 58.9423 72.124 59.3913 71.5419 59.7261C70.9598 60.0571 70.214 60.2227 69.3047 60.2227H66.4738V58.9671H69.259C69.8868 58.9671 70.3909 58.8586 70.7714 58.6417C71.1519 58.4249 71.4278 58.1319 71.599 57.7628C71.774 57.3899 71.8615 56.9695 71.8615 56.5015C71.8615 56.0335 71.774 55.615 71.599 55.2459C71.4278 54.8768 71.15 54.5877 70.7657 54.3784C70.3814 54.1653 69.8716 54.0588 69.2362 54.0588H66.7478V64.4917H65.3324ZM75.5341 64.4917V52.8032H82.5883V54.0588H76.9496V58.0082H82.2231V59.2638H76.9496V63.2361H82.6797V64.4917H75.5341ZM85.1395 64.4917V52.8032H89.0889C90.0021 52.8032 90.7517 52.9592 91.3376 53.2712C91.9235 53.5794 92.3573 54.0036 92.6389 54.5439C92.9204 55.0842 93.0612 55.6987 93.0612 56.3874C93.0612 57.076 92.9204 57.6867 92.6389 58.2194C92.3573 58.7521 91.9255 59.1706 91.3433 59.475C90.7612 59.7756 90.0173 59.9259 89.1118 59.9259H85.9157V58.6474H89.0661C89.6901 58.6474 90.1923 58.5561 90.5728 58.3735C90.9571 58.1909 91.2349 57.9321 91.4061 57.5973C91.5811 57.2587 91.6686 56.8554 91.6686 56.3874C91.6686 55.9194 91.5811 55.5103 91.4061 55.1603C91.2311 54.8103 90.9514 54.5401 90.5671 54.3499C90.1828 54.1558 89.6749 54.0588 89.0433 54.0588H86.5549V64.4917H85.1395ZM90.6413 59.241L93.5178 64.4917H91.8741L89.0433 59.241H90.6413ZM94.7805 54.0588V52.8032H103.547V54.0588H99.8714V64.4917H98.456V54.0588H94.7805ZM119.52 52.8032V64.4917H118.15L111.781 55.3144H111.667V64.4917H110.252V52.8032H111.621L118.013 62.0033H118.128V52.8032H119.52ZM122.832 64.4917H121.348L125.64 52.8032H127.101L131.393 64.4917H129.909L126.416 54.6523H126.325L122.832 64.4917ZM123.38 59.9259H129.361V61.1815H123.38V59.9259ZM144.126 55.7253C144.057 55.147 143.779 54.698 143.292 54.3784C142.805 54.0588 142.208 53.899 141.5 53.899C140.983 53.899 140.53 53.9827 140.142 54.1501C139.758 54.3175 139.457 54.5477 139.24 54.8407C139.027 55.1337 138.921 55.4666 138.921 55.8395C138.921 56.1515 138.995 56.4197 139.143 56.6442C139.295 56.8649 139.489 57.0494 139.725 57.1978C139.961 57.3424 140.209 57.4622 140.467 57.5574C140.726 57.6487 140.964 57.7229 141.181 57.7799L142.368 58.0995C142.672 58.1794 143.011 58.2898 143.384 58.4306C143.76 58.5713 144.12 58.7635 144.462 59.007C144.809 59.2467 145.094 59.5549 145.318 59.9316C145.543 60.3083 145.655 60.7706 145.655 61.3185C145.655 61.9501 145.49 62.5208 145.159 63.0306C144.831 63.5405 144.352 63.9457 143.72 64.2463C143.093 64.5469 142.33 64.6972 141.432 64.6972C140.595 64.6972 139.87 64.5621 139.257 64.2919C138.649 64.0218 138.169 63.6451 137.819 63.1619C137.473 62.6787 137.277 62.1175 137.231 61.4783H138.692C138.73 61.9196 138.879 62.2849 139.137 62.5741C139.4 62.8594 139.731 63.0725 140.131 63.2133C140.534 63.3502 140.968 63.4187 141.432 63.4187C141.972 63.4187 142.457 63.3312 142.887 63.1562C143.317 62.9774 143.658 62.7301 143.909 62.4142C144.16 62.0946 144.285 61.7218 144.285 61.2956C144.285 60.9075 144.177 60.5917 143.96 60.3482C143.743 60.1047 143.458 59.9069 143.104 59.7547C142.75 59.6025 142.368 59.4693 141.957 59.3551L140.519 58.9442C139.605 58.6817 138.883 58.3069 138.35 57.8199C137.817 57.3329 137.551 56.6956 137.551 55.908C137.551 55.2535 137.728 54.6828 138.082 54.1958C138.439 53.7049 138.919 53.3245 139.52 53.0543C140.125 52.7804 140.8 52.6434 141.546 52.6434C142.299 52.6434 142.969 52.7785 143.555 53.0486C144.141 53.3149 144.605 53.6802 144.948 54.1444C145.294 54.6086 145.476 55.1356 145.495 55.7253H144.126ZM147.343 54.0588V52.8032H156.11V54.0588H152.434V64.4917H151.019V54.0588H147.343ZM167.67 58.6474C167.67 59.8802 167.447 60.9456 167.002 61.8435C166.557 62.7415 165.946 63.434 165.17 63.921C164.394 64.408 163.507 64.6515 162.51 64.6515C161.513 64.6515 160.627 64.408 159.851 63.921C159.074 63.434 158.464 62.7415 158.019 61.8435C157.573 60.9456 157.351 59.8802 157.351 58.6474C157.351 57.4147 157.573 56.3493 158.019 55.4514C158.464 54.5534 159.074 53.8609 159.851 53.3739C160.627 52.8869 161.513 52.6434 162.51 52.6434C163.507 52.6434 164.394 52.8869 165.17 53.3739C165.946 53.8609 166.557 54.5534 167.002 55.4514C167.447 56.3493 167.67 57.4147 167.67 58.6474ZM166.3 58.6474C166.3 57.6354 166.131 56.7812 165.792 56.0849C165.457 55.3886 165.002 54.8616 164.428 54.504C163.857 54.1463 163.218 53.9675 162.51 53.9675C161.803 53.9675 161.161 54.1463 160.587 54.504C160.016 54.8616 159.561 55.3886 159.223 56.0849C158.888 56.7812 158.721 57.6354 158.721 58.6474C158.721 59.6595 158.888 60.5137 159.223 61.21C159.561 61.9063 160.016 62.4333 160.587 62.7909C161.161 63.1486 161.803 63.3274 162.51 63.3274C163.218 63.3274 163.857 63.1486 164.428 62.7909C165.002 62.4333 165.457 61.9063 165.792 61.21C166.131 60.5137 166.3 59.6595 166.3 58.6474ZM170.05 64.4917V52.8032H171.465V63.2361H176.898V64.4917H170.05ZM188.358 52.8032V64.4917H186.989L180.619 55.3144H180.505V64.4917H179.09V52.8032H180.46L186.852 62.0033H186.966V52.8032H188.358ZM192.606 52.8032V64.4917H191.191V52.8032H192.606ZM191.282 51.6161L192.675 48.9679H194.25L192.469 51.6161H191.282ZM44.7762 73.0588V71.8032H53.5426V73.0588H49.8671V83.4917H48.4517V73.0588H44.7762ZM55.727 83.4917V71.8032H62.7812V73.0588H57.1424V77.0082H62.416V78.2638H57.1424V82.2361H62.8725V83.4917H55.727ZM74.601 71.8032V83.4917H73.2313L66.8619 74.3144H66.7478V83.4917H65.3324V71.8032H66.7021L73.0943 81.0033H73.2084V71.8032H74.601ZM78.8486 71.8032V83.4917H77.4332V71.8032H78.8486ZM88.0787 74.7253C88.0103 74.147 87.7325 73.698 87.2455 73.3784C86.7585 73.0588 86.1611 72.899 85.4534 72.899C84.9359 72.899 84.4832 72.9827 84.0951 73.1501C83.7108 73.3175 83.4102 73.5477 83.1933 73.8407C82.9802 74.1337 82.8737 74.4666 82.8737 74.8395C82.8737 75.1515 82.9479 75.4197 83.0963 75.6442C83.2485 75.8649 83.4425 76.0494 83.6784 76.1978C83.9143 76.3424 84.1616 76.4622 84.4204 76.5574C84.6791 76.6487 84.9169 76.7229 85.1338 76.7799L86.3209 77.0995C86.6253 77.1794 86.9639 77.2898 87.3368 77.4306C87.7135 77.5713 88.073 77.7635 88.4155 78.007C88.7617 78.2467 89.0471 78.5549 89.2716 78.9316C89.4961 79.3083 89.6083 79.7706 89.6083 80.3185C89.6083 80.9501 89.4428 81.5208 89.1118 82.0306C88.7845 82.5405 88.3051 82.9457 87.6735 83.2463C87.0457 83.5469 86.2829 83.6972 85.3849 83.6972C84.5478 83.6972 83.823 83.5621 83.2104 83.2919C82.6017 83.0218 82.1222 82.6451 81.7722 82.1619C81.426 81.6787 81.23 81.1175 81.1844 80.4783H82.6454C82.6835 80.9196 82.8319 81.2849 83.0906 81.5741C83.3531 81.8594 83.6841 82.0725 84.0836 82.2133C84.487 82.3502 84.9207 82.4187 85.3849 82.4187C85.9252 82.4187 86.4103 82.3312 86.8403 82.1562C87.2702 81.9774 87.6107 81.7301 87.8619 81.4142C88.113 81.0946 88.2385 80.7218 88.2385 80.2956C88.2385 79.9075 88.1301 79.5917 87.9132 79.3482C87.6964 79.1047 87.411 78.9069 87.0571 78.7547C86.7033 78.6025 86.3209 78.4693 85.91 78.3551L84.4717 77.9442C83.5586 77.6817 82.8357 77.3069 82.303 76.8199C81.7703 76.3329 81.504 75.6956 81.504 74.908C81.504 74.2535 81.6809 73.6828 82.0347 73.1958C82.3924 72.7049 82.8718 72.3245 83.473 72.0543C84.0779 71.7804 84.7533 71.6434 85.4991 71.6434C86.2524 71.6434 86.9221 71.7785 87.508 72.0486C88.094 72.3149 88.5582 72.6802 88.9006 73.1444C89.2468 73.6086 89.4295 74.1356 89.4485 74.7253H88.0787Z" fill="#D9D9D9"/>
<path d="M45.4154 64.4917V52.8032H52.4696V54.0588H46.8308V58.0082H52.1043V59.2638H46.8308V63.2361H52.5609V64.4917H45.4154ZM55.7056 52.8032L58.7191 57.6658H58.8104L61.8238 52.8032H63.4904L59.8149 58.6474L63.4904 64.4917H61.8238L58.8104 59.7204H58.7191L55.7056 64.4917H54.0391L57.8059 58.6474L54.0391 52.8032H55.7056ZM65.3324 64.4917V52.8032H69.2818C70.1988 52.8032 70.9483 52.9687 71.5305 53.2997C72.1164 53.6269 72.5502 54.0702 72.8317 54.6295C73.1133 55.1888 73.2541 55.8128 73.2541 56.5015C73.2541 57.1902 73.1133 57.8161 72.8317 58.3792C72.554 58.9423 72.124 59.3913 71.5419 59.7261C70.9598 60.0571 70.214 60.2227 69.3047 60.2227H66.4738V58.9671H69.259C69.8868 58.9671 70.3909 58.8586 70.7714 58.6417C71.1519 58.4249 71.4278 58.1319 71.599 57.7628C71.774 57.3899 71.8615 56.9695 71.8615 56.5015C71.8615 56.0335 71.774 55.615 71.599 55.2459C71.4278 54.8768 71.15 54.5877 70.7657 54.3784C70.3814 54.1653 69.8716 54.0588 69.2362 54.0588H66.7478V64.4917H65.3324ZM75.5341 64.4917V52.8032H82.5883V54.0588H76.9496V58.0082H82.2231V59.2638H76.9496V63.2361H82.6797V64.4917H75.5341ZM85.1395 64.4917V52.8032H89.0889C90.0021 52.8032 90.7517 52.9592 91.3376 53.2712C91.9235 53.5794 92.3573 54.0036 92.6389 54.5439C92.9204 55.0842 93.0612 55.6987 93.0612 56.3874C93.0612 57.076 92.9204 57.6867 92.6389 58.2194C92.3573 58.7521 91.9255 59.1706 91.3433 59.475C90.7612 59.7756 90.0173 59.9259 89.1118 59.9259H85.9157V58.6474H89.0661C89.6901 58.6474 90.1923 58.5561 90.5728 58.3735C90.9571 58.1909 91.2349 57.9321 91.4061 57.5973C91.5811 57.2587 91.6686 56.8554 91.6686 56.3874C91.6686 55.9194 91.5811 55.5103 91.4061 55.1603C91.2311 54.8103 90.9514 54.5401 90.5671 54.3499C90.1828 54.1558 89.6749 54.0588 89.0433 54.0588H86.5549V64.4917H85.1395ZM90.6413 59.241L93.5178 64.4917H91.8741L89.0433 59.241H90.6413ZM94.7805 54.0588V52.8032H103.547V54.0588H99.8714V64.4917H98.456V54.0588H94.7805ZM119.52 52.8032V64.4917H118.15L111.781 55.3144H111.667V64.4917H110.252V52.8032H111.621L118.013 62.0033H118.128V52.8032H119.52ZM122.832 64.4917H121.348L125.64 52.8032H127.101L131.393 64.4917H129.909L126.416 54.6523H126.325L122.832 64.4917ZM123.38 59.9259H129.361V61.1815H123.38V59.9259ZM144.126 55.7253C144.057 55.147 143.779 54.698 143.292 54.3784C142.805 54.0588 142.208 53.899 141.5 53.899C140.983 53.899 140.53 53.9827 140.142 54.1501C139.758 54.3175 139.457 54.5477 139.24 54.8407C139.027 55.1337 138.921 55.4666 138.921 55.8395C138.921 56.1515 138.995 56.4197 139.143 56.6442C139.295 56.8649 139.489 57.0494 139.725 57.1978C139.961 57.3424 140.209 57.4622 140.467 57.5574C140.726 57.6487 140.964 57.7229 141.181 57.7799L142.368 58.0995C142.672 58.1794 143.011 58.2898 143.384 58.4306C143.76 58.5713 144.12 58.7635 144.462 59.007C144.809 59.2467 145.094 59.5549 145.318 59.9316C145.543 60.3083 145.655 60.7706 145.655 61.3185C145.655 61.9501 145.49 62.5208 145.159 63.0306C144.831 63.5405 144.352 63.9457 143.72 64.2463C143.093 64.5469 142.33 64.6972 141.432 64.6972C140.595 64.6972 139.87 64.5621 139.257 64.2919C138.649 64.0218 138.169 63.6451 137.819 63.1619C137.473 62.6787 137.277 62.1175 137.231 61.4783H138.692C138.73 61.9196 138.879 62.2849 139.137 62.5741C139.4 62.8594 139.731 63.0725 140.131 63.2133C140.534 63.3502 140.968 63.4187 141.432 63.4187C141.972 63.4187 142.457 63.3312 142.887 63.1562C143.317 62.9774 143.658 62.7301 143.909 62.4142C144.16 62.0946 144.285 61.7218 144.285 61.2956C144.285 60.9075 144.177 60.5917 143.96 60.3482C143.743 60.1047 143.458 59.9069 143.104 59.7547C142.75 59.6025 142.368 59.4693 141.957 59.3551L140.519 58.9442C139.605 58.6817 138.883 58.3069 138.35 57.8199C137.817 57.3329 137.551 56.6956 137.551 55.908C137.551 55.2535 137.728 54.6828 138.082 54.1958C138.439 53.7049 138.919 53.3245 139.52 53.0543C140.125 52.7804 140.8 52.6434 141.546 52.6434C142.299 52.6434 142.969 52.7785 143.555 53.0486C144.141 53.3149 144.605 53.6802 144.948 54.1444C145.294 54.6086 145.476 55.1356 145.495 55.7253H144.126ZM147.343 54.0588V52.8032H156.11V54.0588H152.434V64.4917H151.019V54.0588H147.343ZM167.67 58.6474C167.67 59.8802 167.447 60.9456 167.002 61.8435C166.557 62.7415 165.946 63.434 165.17 63.921C164.394 64.408 163.507 64.6515 162.51 64.6515C161.513 64.6515 160.627 64.408 159.851 63.921C159.074 63.434 158.464 62.7415 158.019 61.8435C157.573 60.9456 157.351 59.8802 157.351 58.6474C157.351 57.4147 157.573 56.3493 158.019 55.4514C158.464 54.5534 159.074 53.8609 159.851 53.3739C160.627 52.8869 161.513 52.6434 162.51 52.6434C163.507 52.6434 164.394 52.8869 165.17 53.3739C165.946 53.8609 166.557 54.5534 167.002 55.4514C167.447 56.3493 167.67 57.4147 167.67 58.6474ZM166.3 58.6474C166.3 57.6354 166.131 56.7812 165.792 56.0849C165.457 55.3886 165.002 54.8616 164.428 54.504C163.857 54.1463 163.218 53.9675 162.51 53.9675C161.803 53.9675 161.161 54.1463 160.587 54.504C160.016 54.8616 159.561 55.3886 159.223 56.0849C158.888 56.7812 158.721 57.6354 158.721 58.6474C158.721 59.6595 158.888 60.5137 159.223 61.21C159.561 61.9063 160.016 62.4333 160.587 62.7909C161.161 63.1486 161.803 63.3274 162.51 63.3274C163.218 63.3274 163.857 63.1486 164.428 62.7909C165.002 62.4333 165.457 61.9063 165.792 61.21C166.131 60.5137 166.3 59.6595 166.3 58.6474ZM170.05 64.4917V52.8032H171.465V63.2361H176.898V64.4917H170.05ZM188.358 52.8032V64.4917H186.989L180.619 55.3144H180.505V64.4917H179.09V52.8032H180.46L186.852 62.0033H186.966V52.8032H188.358ZM192.606 52.8032V64.4917H191.191V52.8032H192.606ZM191.282 51.6161L192.675 48.9679H194.25L192.469 51.6161H191.282ZM44.7762 73.0588V71.8032H53.5426V73.0588H49.8671V83.4917H48.4517V73.0588H44.7762ZM55.727 83.4917V71.8032H62.7812V73.0588H57.1424V77.0082H62.416V78.2638H57.1424V82.2361H62.8725V83.4917H55.727ZM74.601 71.8032V83.4917H73.2313L66.8619 74.3144H66.7478V83.4917H65.3324V71.8032H66.7021L73.0943 81.0033H73.2084V71.8032H74.601ZM78.8486 71.8032V83.4917H77.4332V71.8032H78.8486ZM88.0787 74.7253C88.0103 74.147 87.7325 73.698 87.2455 73.3784C86.7585 73.0588 86.1611 72.899 85.4534 72.899C84.9359 72.899 84.4832 72.9827 84.0951 73.1501C83.7108 73.3175 83.4102 73.5477 83.1933 73.8407C82.9802 74.1337 82.8737 74.4666 82.8737 74.8395C82.8737 75.1515 82.9479 75.4197 83.0963 75.6442C83.2485 75.8649 83.4425 76.0494 83.6784 76.1978C83.9143 76.3424 84.1616 76.4622 84.4204 76.5574C84.6791 76.6487 84.9169 76.7229 85.1338 76.7799L86.3209 77.0995C86.6253 77.1794 86.9639 77.2898 87.3368 77.4306C87.7135 77.5713 88.073 77.7635 88.4155 78.007C88.7617 78.2467 89.0471 78.5549 89.2716 78.9316C89.4961 79.3083 89.6083 79.7706 89.6083 80.3185C89.6083 80.9501 89.4428 81.5208 89.1118 82.0306C88.7845 82.5405 88.3051 82.9457 87.6735 83.2463C87.0457 83.5469 86.2829 83.6972 85.3849 83.6972C84.5478 83.6972 83.823 83.5621 83.2104 83.2919C82.6017 83.0218 82.1222 82.6451 81.7722 82.1619C81.426 81.6787 81.23 81.1175 81.1844 80.4783H82.6454C82.6835 80.9196 82.8319 81.2849 83.0906 81.5741C83.3531 81.8594 83.6841 82.0725 84.0836 82.2133C84.487 82.3502 84.9207 82.4187 85.3849 82.4187C85.9252 82.4187 86.4103 82.3312 86.8403 82.1562C87.2702 81.9774 87.6107 81.7301 87.8619 81.4142C88.113 81.0946 88.2385 80.7218 88.2385 80.2956C88.2385 79.9075 88.1301 79.5917 87.9132 79.3482C87.6964 79.1047 87.411 78.9069 87.0571 78.7547C86.7033 78.6025 86.3209 78.4693 85.91 78.3551L84.4717 77.9442C83.5586 77.6817 82.8357 77.3069 82.303 76.8199C81.7703 76.3329 81.504 75.6956 81.504 74.908C81.504 74.2535 81.6809 73.6828 82.0347 73.1958C82.3924 72.7049 82.8718 72.3245 83.473 72.0543C84.0779 71.7804 84.7533 71.6434 85.4991 71.6434C86.2524 71.6434 86.9221 71.7785 87.508 72.0486C88.094 72.3149 88.5582 72.6802 88.9006 73.1444C89.2468 73.6086 89.4295 74.1356 89.4485 74.7253H88.0787Z" fill="#F6F4F3" fill-opacity="0.2"/>
</g>
<defs>
<clipPath id="clip0_864_921">
<rect width="247" height="64" fill="white" transform="translate(0.5 0.491699)"/>
</clipPath>
</defs>
</svg>
