<svg width="50" height="65" viewBox="0 0 50 65" fill="none" xmlns="http://www.w3.org/2000/svg">
<g clip-path="url(#clip0_864_894)">
<path d="M2.41631 64.4722C2.34756 64.447 2.23805 64.3384 2.19239 64.2502C2.15697 64.1818 2.15097 61.9588 2.15097 48.9138V33.6575L2.2173 33.5595C2.32836 33.3955 2.42755 33.3397 2.60795 33.3397C2.78143 33.3397 2.87699 33.3903 2.9894 33.5416L3.05018 33.6234L3.05764 48.599L3.0651 63.5746H25.9582H48.8513V44.4031C48.8513 31.5468 48.8413 25.0636 48.8208 24.7216C48.5513 20.2137 47.073 16.061 44.4473 12.4353C44.3239 12.265 44.2148 12.0817 44.2048 12.0279C44.1419 11.6912 44.4285 11.405 44.765 11.4684C44.9153 11.4968 44.9926 11.5728 45.2896 11.9841C46.6821 13.9127 47.8291 16.1633 48.5843 18.4487C49.204 20.324 49.5816 22.2475 49.7359 24.3154C49.7556 24.5797 49.7656 31.4148 49.7652 44.4621L49.7647 64.2089L49.7 64.3038C49.6644 64.3559 49.5995 64.4199 49.5557 64.4459C49.483 64.4891 47.4357 64.493 25.9683 64.4908C13.039 64.4895 2.44063 64.4812 2.41631 64.4722ZM13.1833 60.4436C13.0632 60.3841 12.9892 60.2489 13.0091 60.1255C13.0173 60.0751 13.3114 59.3205 13.6628 58.4486C14.3901 56.644 14.3749 56.6709 14.6642 56.6709C14.789 56.6709 14.8422 56.6859 14.901 56.7376C14.956 56.7859 15.1591 57.2476 15.6374 58.4119C16.0007 59.2961 16.3064 60.058 16.3167 60.1051C16.362 60.3121 16.1794 60.4932 15.9253 60.4932C15.7606 60.4932 15.6954 60.4139 15.5307 60.0137L15.3926 59.6783L14.6609 59.6707L13.9292 59.663L13.7999 59.9966C13.6431 60.4008 13.5685 60.4934 13.4004 60.4925C13.3345 60.4921 13.2368 60.4701 13.1833 60.4436ZM15.0551 58.8561C15.0334 58.8032 14.9314 58.5548 14.8285 58.3043L14.6413 57.8487L14.469 58.2894C14.3743 58.5319 14.2773 58.7802 14.2533 58.8413L14.2098 58.9524H14.6522H15.0946L15.0551 58.8561ZM17.7542 60.4629C17.5517 60.4209 17.2909 60.2894 17.178 60.1722C17.0494 60.0389 16.9388 59.819 16.8954 59.6102C16.8541 59.4113 16.8517 57.7747 16.8925 57.5586C16.9582 57.2105 17.1421 56.947 17.4165 56.8078C17.6619 56.6834 17.8273 56.6645 18.558 56.6773C19.3253 56.6908 19.4187 56.7114 19.6542 56.9191C19.8131 57.0594 19.9133 57.2507 19.9582 57.4994C20.0101 57.7868 19.9589 57.9109 19.7613 57.9765C19.5282 58.0538 19.3528 57.9388 19.2803 57.6612C19.2058 57.3757 19.1826 57.3672 18.4748 57.3672C17.7637 57.3672 17.6961 57.3865 17.6086 57.6144C17.562 57.7356 17.5556 57.855 17.5556 58.5969C17.5556 59.8142 17.5309 59.7819 18.4636 59.782C18.9113 59.782 19.0663 59.7722 19.1286 59.7398C19.214 59.6955 19.2803 59.5831 19.2803 59.4829C19.2803 59.3829 19.3649 59.2522 19.4626 59.2015C19.5951 59.1326 19.7954 59.1602 19.8956 59.2611C19.9641 59.3302 19.9726 59.3608 19.9685 59.5237C19.9583 59.9271 19.7326 60.2667 19.3818 60.4062C19.2184 60.4712 19.1619 60.4763 18.5433 60.4825C18.1784 60.4861 17.8233 60.4773 17.7542 60.4629ZM20.7397 60.4649C20.7073 60.4514 20.6487 60.4057 20.6095 60.3633C20.475 60.2178 20.4922 60.1608 21.1936 58.4339C21.9263 56.6299 21.9032 56.6709 22.1844 56.6709C22.4583 56.6709 22.4366 56.6321 23.1847 58.4597C23.5507 59.3538 23.8501 60.1163 23.8501 60.154C23.8501 60.3503 23.6927 60.4929 23.4759 60.4931C23.2938 60.4934 23.2223 60.4123 23.0573 60.0191L22.9143 59.6784H22.1829H21.4515L21.3111 60.0337C21.2336 60.2298 21.142 60.4124 21.1067 60.4411C21.0391 60.4961 20.845 60.5087 20.7397 60.4649ZM22.6038 58.9154C22.4513 58.5224 22.1828 57.8858 22.1695 57.8858C22.1598 57.8858 22.0581 58.1258 21.9434 58.4191L21.7349 58.9524H22.1765C22.5179 58.9524 22.6149 58.944 22.6038 58.9154ZM24.714 60.4577C24.5591 60.3825 24.5577 60.3657 24.5577 58.5687C24.5577 56.7891 24.5585 56.7795 24.7035 56.7015C24.7822 56.6591 26.4535 56.6611 26.6569 56.7037C27.0179 56.7793 27.3277 57.0001 27.4721 57.2846C27.6127 57.5615 27.6352 57.735 27.6367 58.5524C27.6382 59.3964 27.619 59.5511 27.4738 59.8599C27.3321 60.1615 27.0472 60.3669 26.6548 60.4505C26.4132 60.5019 24.8174 60.5079 24.714 60.4577ZM26.6804 59.7075C26.7459 59.6696 26.8106 59.5937 26.8573 59.5001C26.9303 59.3539 26.931 59.3447 26.931 58.5821C26.931 57.8196 26.9303 57.8102 26.8573 57.6635C26.7982 57.5448 26.7544 57.5008 26.6362 57.4418C26.4963 57.372 26.4576 57.3677 25.877 57.357L25.2653 57.3457V58.5659V59.7861L25.9213 59.7767C26.5152 59.7681 26.587 59.7616 26.6804 59.7075ZM28.7253 60.4638C28.5632 60.3981 28.5673 60.447 28.5673 58.5732V56.8442L28.6535 56.7576L28.7397 56.6709H29.8498H30.96L31.0461 56.7576C31.1211 56.8329 31.1323 56.866 31.1323 57.0117C31.1323 57.1573 31.1211 57.1905 31.0461 57.2658L30.96 57.3524H30.1027H29.2454V57.7821V58.2117H29.7628C30.3098 58.2117 30.4164 58.2334 30.4828 58.3582C30.5225 58.4327 30.5218 58.664 30.4816 58.7526C30.418 58.893 30.3573 58.9073 29.7835 58.9177L29.2454 58.9275V59.3548V59.7821L30.0194 59.7824C30.4588 59.7824 30.8405 59.7957 30.9025 59.813C31.0622 59.8576 31.1323 59.9631 31.1323 60.1588C31.1323 60.2975 31.1203 60.3322 31.0462 60.4067L30.96 60.4933L29.8742 60.4914C29.2771 60.4904 28.76 60.478 28.7253 60.4639L28.7253 60.4638ZM32.0657 60.4323C32.0234 60.3988 31.9744 60.3222 31.9569 60.2619C31.9352 60.1875 31.9279 59.6251 31.934 58.508C31.9438 56.737 31.9404 56.7747 32.0977 56.7027C32.2043 56.6538 32.405 56.6652 32.5033 56.7256C32.5605 56.7608 32.7891 57.079 33.1519 57.6284C33.46 58.095 33.7213 58.4738 33.7327 58.4701C33.7441 58.4665 34.005 58.0811 34.3124 57.6138C34.9175 56.6941 34.9398 56.6702 35.1921 56.6719C35.3426 56.6729 35.4062 56.7054 35.4614 56.8097C35.5049 56.8917 35.5106 60.2129 35.4675 60.3269C35.4298 60.4265 35.2931 60.4932 35.1264 60.4932C35.0149 60.4932 34.9742 60.4773 34.9038 60.4066L34.8176 60.3199V59.2157V58.1115L34.4374 58.6727C34.2283 58.9814 34.0231 59.2658 33.9814 59.3048C33.8829 59.397 33.6563 59.4231 33.529 59.3569C33.4676 59.325 33.3156 59.1272 33.0451 58.727L32.6507 58.1437L32.6359 59.2221C32.6278 59.8153 32.6096 60.3244 32.5955 60.3535C32.5274 60.494 32.2044 60.542 32.0657 60.4323ZM37.5406 60.4654C37.3951 60.4027 37.3826 60.3437 37.3826 59.7178V59.1334L36.7589 58.1358C36.1978 57.2385 36.1348 57.1249 36.1324 57.006C36.1299 56.8896 36.1427 56.8617 36.2397 56.7724C36.3325 56.687 36.3718 56.6709 36.4884 56.6709C36.5915 56.6709 36.6452 56.688 36.6979 56.7376C36.7369 56.7743 36.9817 57.1484 37.2419 57.5691C37.5021 57.9898 37.7252 58.3231 37.7376 58.3098C37.75 58.2966 37.992 57.9312 38.2752 57.4978C38.5584 57.0644 38.8129 56.7011 38.8406 56.6904C38.9388 56.6525 39.1017 56.6718 39.2001 56.7329C39.3233 56.8094 39.3579 56.8719 39.3579 57.0176C39.3579 57.1155 39.2685 57.2691 38.7093 58.1316L38.0607 59.132V59.722C38.0607 60.2973 38.059 60.3141 37.992 60.3924C37.936 60.4578 37.8938 60.4745 37.7635 60.4826C37.6756 60.4881 37.5753 60.4804 37.5406 60.4654ZM7.87383 54.1111C7.72501 54.0282 7.72533 54.0317 7.72422 52.4858L7.72318 51.0413L7.28832 51.0406C6.8092 51.0398 6.65246 51.0154 6.56567 50.9282C6.49213 50.8543 6.46482 50.6283 6.51477 50.5071C6.58788 50.3297 6.58336 50.3302 8.08799 50.3302H9.45813L9.54784 50.4061C9.65583 50.4974 9.69053 50.645 9.64215 50.8072C9.58311 51.0053 9.52285 51.025 8.94148 51.0368L8.43236 51.0471L8.42419 52.5133L8.41602 53.9795L8.31974 54.066C8.24152 54.1362 8.19728 54.1522 8.08388 54.1514C8.00711 54.1508 7.91258 54.1327 7.87383 54.1111ZM9.73724 54.0946C9.62447 54.0255 9.58057 53.9507 9.58057 53.8274C9.58057 53.7507 10.7646 50.7571 10.8961 50.5011C11.0185 50.263 11.4534 50.2763 11.5674 50.5215C11.5905 50.5711 11.8958 51.3095 12.246 52.1625C12.9481 53.8728 12.9544 53.8944 12.7948 54.0481C12.7269 54.1135 12.6719 54.1355 12.5516 54.1454C12.3262 54.164 12.2772 54.1132 12.1039 53.6818L11.9598 53.3228H11.2323H10.5049L10.3643 53.6784C10.2721 53.9116 10.1979 54.0543 10.1488 54.0932C10.0516 54.17 9.86129 54.1707 9.73724 54.0946ZM11.464 52.1154C11.3522 51.8424 11.2503 51.5941 11.2375 51.5636C11.2168 51.5141 11.0856 51.8146 10.8027 52.5598C10.7845 52.6078 10.8163 52.6117 11.2251 52.6117H11.6672L11.464 52.1154ZM13.7059 54.0658L13.6197 53.9792V52.2413V50.5034L13.7074 50.4153L13.7951 50.3271L14.7319 50.3361C15.6469 50.3448 15.6723 50.3467 15.8246 50.4158C16.0132 50.5014 16.1919 50.6963 16.2573 50.8874C16.358 51.1821 16.3447 51.6566 16.2293 51.88C16.1892 51.9578 16.1922 51.9693 16.2858 52.0925C16.4646 52.3279 16.4942 52.4522 16.4942 52.9672C16.4942 53.4056 16.4906 53.4339 16.4149 53.5895C16.2831 53.8604 16.1136 54.007 15.8291 54.096C15.6678 54.1464 15.5504 54.1524 14.7204 54.1524H13.792L13.7059 54.0658ZM15.6466 53.4175C15.7771 53.3437 15.816 53.2405 15.8161 52.9686C15.8161 52.8255 15.7992 52.6752 15.7773 52.6229C15.711 52.4652 15.6449 52.4507 14.939 52.4397L14.2978 52.4298V52.9533V53.4767L14.939 53.4659C15.3841 53.4584 15.6006 53.4436 15.6466 53.4175ZM15.557 51.6849C15.5959 51.6458 15.6121 51.573 15.6198 51.4028C15.6286 51.2077 15.6213 51.1624 15.571 51.0999C15.512 51.0267 15.5102 51.0265 14.9048 51.0169L14.2978 51.0073V51.3816V51.7558L14.9012 51.7467C15.4329 51.7387 15.5108 51.7313 15.557 51.6849ZM17.4501 54.0658L17.364 53.9792V52.2413V50.5034L17.4501 50.4168C17.5251 50.3415 17.5581 50.3302 17.703 50.3302C17.8479 50.3302 17.881 50.3415 17.9559 50.4168L18.0421 50.5034V51.9872V53.4709H18.7961H19.5502L19.6398 53.561C19.7241 53.6457 19.7287 53.6619 19.7165 53.8322C19.7055 53.9838 19.6904 54.0245 19.6229 54.0828L19.5424 54.1524H18.5394H17.5363L17.4501 54.0658ZM20.557 54.117C20.4022 54.0418 20.4007 54.0232 20.4007 52.2487C20.4007 51.1226 20.4109 50.5761 20.4333 50.5115C20.4949 50.3341 20.5219 50.3302 21.6979 50.3302C22.8524 50.3302 22.8885 50.3348 22.9599 50.4923C23.0339 50.6556 22.9939 50.8554 22.8664 50.9592C22.8101 51.005 22.7144 51.0104 21.9559 51.011L21.1082 51.0117V51.4395V51.8673L21.6531 51.8765L22.1979 51.8857L22.2763 51.9646C22.3692 52.058 22.402 52.2849 22.34 52.4043C22.2625 52.5533 22.1434 52.5819 21.6021 52.582H21.1082V53.0264V53.4709H21.9504C22.4717 53.4709 22.8142 53.4825 22.8493 53.5014C23.04 53.6039 23.0378 54.0092 22.846 54.1088C22.7766 54.1449 22.5786 54.152 21.692 54.1504C21.0015 54.1491 20.5988 54.1372 20.557 54.1169V54.117ZM26.5897 54.0658L26.5036 53.9792V52.5103V51.0413L26.0539 51.041C25.8067 51.041 25.5552 51.0271 25.4951 51.0104C25.3354 50.9658 25.2653 50.8603 25.2653 50.6645C25.2653 50.5258 25.2773 50.4912 25.3515 50.4167L25.4376 50.3301H26.8426H28.2476L28.3337 50.4167C28.4079 50.4912 28.4199 50.5258 28.4199 50.6645C28.4199 50.8603 28.3498 50.9658 28.1901 51.0104C28.13 51.0271 27.8785 51.0409 27.6313 51.041L27.1817 51.0413V52.5103V53.9792L27.0955 54.0658C27.0205 54.1411 26.9875 54.1524 26.8426 54.1524C26.6977 54.1524 26.6647 54.1411 26.5897 54.0658ZM29.1842 54.0658L29.098 53.9792V52.2413V50.5034L29.1842 50.4168L29.2704 50.3302H30.3805H31.4906L31.5768 50.4168C31.6518 50.4921 31.663 50.5253 31.663 50.6709C31.663 50.8166 31.6518 50.8498 31.5768 50.9251L31.4906 51.0117H30.6334H29.7761V51.4413V51.8709H30.2729C30.5605 51.8709 30.8092 51.8848 30.8635 51.9038C30.98 51.9446 31.0439 52.0635 31.0439 52.2394C31.0439 52.3459 31.0261 52.3937 30.9579 52.4705L30.8719 52.5672L30.324 52.5765L29.7761 52.5857V53.0283V53.4709H30.6334H31.4906L31.5768 53.5575C31.6518 53.6328 31.663 53.666 31.663 53.8117C31.663 53.9573 31.6518 53.9905 31.5768 54.0658L31.4906 54.1524H30.3805H29.2704L29.1842 54.0658ZM32.6154 54.117C32.4606 54.0418 32.459 54.0232 32.459 52.2487C32.459 51.1226 32.4693 50.5761 32.4917 50.5115C32.51 50.4588 32.5613 50.3981 32.6082 50.3737C32.7289 50.311 32.9368 50.3179 33.0249 50.3876C33.0649 50.4192 33.5011 50.9674 33.9944 51.6059L34.8913 52.7667L34.9061 51.6447C34.9214 50.4752 34.9268 50.428 35.0522 50.3605C35.1276 50.32 35.3571 50.322 35.4487 50.3639C35.6159 50.4405 35.6158 50.4394 35.607 52.2868L35.5989 53.9795L35.5026 54.066C35.3813 54.1749 35.165 54.1877 35.0452 54.093C35.0038 54.0603 34.5676 53.5121 34.0757 52.8749L33.1814 51.7162L33.1666 52.838C33.1585 53.455 33.1403 53.9837 33.1262 54.0128C33.0671 54.1345 32.7745 54.1942 32.6154 54.117ZM36.7566 54.066L36.6603 53.9795L36.6522 52.2868C36.6434 50.4394 36.6433 50.4405 36.8105 50.3639C36.9307 50.3089 37.1289 50.3224 37.2164 50.3915C37.2591 50.4253 37.6954 50.9733 38.1859 51.6094L39.0779 52.7659L39.0926 51.6443C39.1007 51.0275 39.1189 50.499 39.133 50.4698C39.1957 50.3406 39.4842 50.2871 39.651 50.3737C39.6979 50.3981 39.7492 50.4588 39.7675 50.5115C39.7899 50.5761 39.8002 51.1226 39.8002 52.2487C39.8002 54.0585 39.8011 54.0488 39.6207 54.1239C39.5179 54.1667 39.2901 54.1471 39.2204 54.0894C39.1934 54.067 38.7655 53.5232 38.2696 52.881L37.3679 51.7133L37.3531 52.8366C37.345 53.4544 37.3268 53.9837 37.3127 54.0128C37.2737 54.0932 37.1354 54.1524 36.9865 54.1524C36.8805 54.1524 36.8329 54.1345 36.7566 54.066ZM40.9431 54.066L40.8468 53.9795V52.2413V50.5031L40.9431 50.4167C41.0195 50.3481 41.067 50.3302 41.173 50.3302C41.3369 50.3302 41.4577 50.3893 41.5044 50.4923C41.5304 50.5496 41.5397 51.0093 41.5397 52.2442C41.5397 53.6974 41.5336 53.93 41.494 54.007C41.4403 54.1114 41.3488 54.1524 41.1697 54.1524C41.0674 54.1524 41.0187 54.1338 40.9431 54.066ZM43.1612 54.1063C42.8176 54.012 42.5935 53.7913 42.4948 53.4499C42.4383 53.2548 42.4593 53.107 42.5574 53.0084C42.6158 52.9497 42.6577 52.9376 42.8028 52.9376C43.0223 52.9376 43.0883 52.9872 43.1583 53.2046C43.2318 53.4329 43.2753 53.4491 43.854 53.4647C44.3723 53.4787 44.6452 53.4446 44.7349 53.3544C44.777 53.3121 44.7949 53.2417 44.8054 53.0773C44.8216 52.8239 44.7792 52.6583 44.6846 52.6045C44.643 52.5809 44.4035 52.5617 44.0014 52.5497C43.4571 52.5334 43.3609 52.523 43.2054 52.4639C42.9678 52.3737 42.7522 52.1549 42.6806 51.9314C42.5195 51.429 42.6231 50.8249 42.9146 50.5677C43.1531 50.3573 43.2128 50.345 44.0014 50.345C44.6283 50.345 44.7258 50.3515 44.8556 50.4018C45.1583 50.5191 45.3968 50.8428 45.4104 51.1546C45.4181 51.3311 45.3531 51.4384 45.2094 51.486C44.9857 51.5602 44.7861 51.4519 44.7248 51.223C44.7055 51.1509 44.6658 51.0872 44.6269 51.0662C44.5489 51.024 43.8556 50.9954 43.6218 51.0248C43.5314 51.0361 43.4274 51.07 43.3904 51.1C43.3296 51.1495 43.3233 51.1795 43.3233 51.4231C43.3233 51.6629 43.3305 51.6987 43.3905 51.759C43.455 51.8239 43.4826 51.8272 44.0981 51.8442C44.8185 51.8641 44.9584 51.8961 45.1887 52.0942C45.4991 52.3612 45.6123 53.0465 45.4289 53.5479C45.3483 53.7682 45.1228 54.0006 44.9134 54.0793C44.711 54.1553 43.4127 54.1753 43.1612 54.1063ZM38.7018 45.3421C38.2856 45.2239 38.0434 44.9179 37.4499 43.7606L37.1426 43.1614L36.8572 43.305C35.1911 44.1435 33.2444 44.7358 31.3977 44.9661C30.3194 45.1005 28.8905 45.1194 27.8745 45.0125C24.7303 44.6818 21.7938 43.4975 18.2484 41.1302C17.1361 40.3875 15.1565 38.9546 14.1372 38.1544L13.7556 37.8547L13.2953 38.7665C12.0578 41.2178 11.658 41.9585 11.361 42.3497C11.177 42.5921 11.0651 42.686 10.8258 42.7987C10.6776 42.8685 10.6202 42.8783 10.3619 42.8783C9.99483 42.8783 9.77562 42.8147 9.24152 42.5529C8.22596 42.0552 7.39425 41.3998 7.15213 40.9064C6.88765 40.3674 6.99835 39.9434 7.65655 38.9742C8.09167 38.3335 9.07658 36.9546 9.86645 35.8803C10.2281 35.3884 10.524 34.9793 10.524 34.9712C10.524 34.9507 9.97796 34.4781 9.62479 34.1929C7.50189 32.4788 4.44851 30.8125 1.40178 29.7055C1.14703 29.613 1.024 29.5512 0.95371 29.4806C0.75408 29.2799 0.745566 28.9617 0.933036 28.7079C1.09751 28.4853 1.277 28.4687 2.13623 28.5965C3.43977 28.7904 4.61841 29.0652 5.76258 29.4422C7.69245 30.078 9.18241 30.8534 11.2056 32.2748C11.5425 32.5115 11.8282 32.7074 11.8405 32.7102C11.8751 32.7182 11.9859 32.3338 12.0441 32.0043C12.081 31.7956 12.0965 31.5547 12.0966 31.1895C12.0968 30.3868 11.9706 29.8104 11.6444 29.1225C11.3991 28.6051 10.9738 28.003 10.6816 27.7595C10.3945 27.5201 10.2134 27.2149 10.0092 26.626C9.7204 25.7932 9.60262 25.0651 9.59948 24.0932C9.59563 22.8978 9.76205 21.899 10.1697 20.6709C10.8527 18.6132 12.0379 16.7139 13.6468 15.0988C15.6321 13.1059 17.7373 12.0233 20.2238 11.7166C20.685 11.6598 22.027 11.6695 22.5087 11.7333C23.2742 11.8346 24.0352 12.0206 24.7199 12.2736C25.5524 12.5812 26.6134 13.1854 27.3229 13.7559C27.696 14.0558 28.3618 14.7127 28.6658 15.0808C29.7726 16.4209 30.5608 18.1277 30.8507 19.8117L30.9145 20.1821L31.1487 20.2053C31.9629 20.286 32.9192 20.5804 33.794 21.0196C35.8638 22.0587 37.7363 24.0635 38.7818 26.3598C39.7676 28.5249 39.9384 30.6775 39.2645 32.4438C39.1414 32.7664 39.0107 32.966 38.7576 33.218C37.9077 34.0643 37.5114 35.2696 37.6905 36.4637C37.7485 36.8499 37.8599 37.1892 38.0549 37.5738C38.2109 37.8812 38.7103 38.6654 38.8269 38.7859C38.8795 38.8403 38.8927 38.8354 39.3773 38.5811C40.7093 37.8823 41.9345 37.104 43.2516 36.12C43.5202 35.9193 43.7764 35.7412 43.821 35.7241C43.9364 35.68 44.089 35.6858 44.2157 35.739C44.4594 35.8413 44.5895 36.0541 44.5704 36.3189C44.5591 36.4761 44.5367 36.5224 44.2975 36.8842C43.3434 38.3276 42.3182 39.4693 40.9293 40.6352L40.4517 41.0362L40.5151 41.1276C40.5501 41.1779 40.7018 41.3884 40.8524 41.5952C41.6093 42.6353 41.7956 43.0372 41.7161 43.4585C41.6716 43.6942 41.5811 43.8571 41.3688 44.0832C41.1385 44.3286 40.834 44.5629 40.4194 44.8139C39.6446 45.2827 39.0918 45.4528 38.7018 45.3421ZM39.2483 44.5799C39.807 44.3929 40.8025 43.7183 40.9637 43.4175C41.0118 43.3277 41.0149 43.2968 40.9856 43.1993C40.9345 43.0294 40.727 42.6897 40.3723 42.1951C40.1976 41.9516 39.8806 41.5058 39.6678 41.2043C39.4549 40.9028 39.0299 40.3161 38.7232 39.9006C37.2338 37.8822 36.9342 37.2191 36.9291 35.9302C36.9267 35.3054 37.0107 34.7926 37.1912 34.3296L37.2624 34.1471L37.1972 34.1888C37.1613 34.2118 36.0845 34.8759 34.8043 35.6648C32.5723 37.04 32.4808 37.0999 32.5784 37.1195C32.6343 37.1308 32.7996 37.1619 32.9455 37.1886C33.7536 37.3362 34.6599 37.806 35.2378 38.3766C35.746 38.8784 36.0353 39.3525 37.0147 41.2885C38.3707 43.9689 38.5472 44.2959 38.7559 44.515C38.8975 44.6637 38.9696 44.6732 39.2483 44.5799ZM10.6653 42.0215C10.8607 41.8372 11.1098 41.4199 11.6291 40.4076C11.8766 39.925 12.1909 39.3169 12.3276 39.0561C12.4643 38.7954 12.8039 38.122 13.0822 37.5598C14.0349 35.6352 14.4899 34.9025 15.0983 34.3128C15.967 33.4708 17.298 32.8751 18.4905 32.7947L18.7871 32.7746L15.5622 30.7858C13.7884 29.692 12.334 28.7996 12.3302 28.8028C12.3263 28.8059 12.3772 28.9409 12.4432 29.1027C12.7036 29.7405 12.831 30.4345 12.8292 31.2043C12.827 32.1317 12.6763 32.7893 12.2872 33.5709C11.9565 34.235 11.6158 34.7483 10.525 36.2265C10.1582 36.7235 9.71357 37.3369 9.53695 37.5895C9.36034 37.842 9.0258 38.3119 8.79355 38.6336C7.87375 39.9074 7.68026 40.2686 7.77864 40.5283C7.96649 41.0241 9.75086 42.148 10.3558 42.1514C10.5177 42.1524 10.5337 42.1456 10.6653 42.0215ZM31.2257 40.878C32.5634 40.8152 33.6965 40.6394 35.0429 40.2858C35.3032 40.2174 35.5327 40.1513 35.5527 40.1388C35.6388 40.0853 35.0263 39.1904 34.6767 38.859C34.1818 38.3898 33.3969 38.0037 32.6949 37.8842C32.1673 37.7944 31.4257 37.8586 30.9269 38.0374C30.5238 38.1819 30.1067 38.1839 29.4223 38.0449C27.5555 37.6655 25.6946 36.2747 24.3332 34.2413C24.1859 34.0213 24.0011 33.728 23.9225 33.5895C23.8439 33.4509 23.7664 33.3286 23.7503 33.3175C23.7342 33.3065 23.687 33.3148 23.6455 33.336C23.5082 33.406 22.8785 33.6177 22.5852 33.6924C22.0876 33.8192 21.5645 33.8944 21.1672 33.8962C20.8157 33.8978 20.7844 33.8928 20.4887 33.7883C19.2524 33.3514 17.9576 33.4372 16.7731 34.0345C16.2703 34.2881 15.6486 34.7488 15.4231 35.035L15.3286 35.1549L15.6756 35.3749C17.6266 36.6121 21.1249 38.4419 23.1386 39.2784C25.3173 40.1835 27.3904 40.7074 29.3486 40.8478C29.7555 40.877 29.9561 40.8868 30.4395 40.9014C30.5368 40.9043 30.8906 40.8938 31.2257 40.878ZM30.6016 37.3707C30.7896 37.3008 38.2174 32.7006 38.3485 32.5729C38.5205 32.4054 38.702 31.9343 38.8265 31.3322C39.155 29.744 38.7601 27.7647 37.751 25.942C37.2454 25.0288 36.6608 24.2631 35.853 23.4561C35.1023 22.7062 34.5215 22.2559 33.7415 21.8193C32.9637 21.3839 31.9369 21.0364 31.1765 20.9514L30.9996 20.9317L30.9974 21.6828C30.9951 22.4545 30.9566 22.9169 30.8347 23.6336C30.7007 24.4215 30.3704 25.5449 30.0535 26.2907C29.8934 26.6672 29.3326 27.7827 29.2516 27.8858C29.2387 27.9021 29.1305 28.0821 29.0109 28.2858C28.0732 29.8837 26.9482 31.1767 25.6338 32.1673C25.2989 32.4197 24.7877 32.757 24.5019 32.9141L24.4099 32.9647L24.5625 33.2252C25.3463 34.5637 26.3988 35.7134 27.506 36.4405C28.0504 36.798 28.7269 37.1128 29.2454 37.2499C29.7959 37.3954 30.3923 37.4486 30.6016 37.3707ZM21.8306 33.1007C23.0047 32.8987 24.1026 32.4052 25.1961 31.5879C26.4587 30.6444 27.6369 29.2632 28.4934 27.7228C28.5885 27.5517 28.7224 27.3174 28.7909 27.2021C29.2432 26.4409 29.6754 25.361 29.9201 24.381C30.6162 21.5923 30.2758 18.9803 28.9216 16.7204C27.5163 14.3752 25.3337 12.9168 22.5827 12.485C22.2479 12.4325 22.0479 12.4222 21.3294 12.4208C20.4346 12.419 20.2391 12.4354 19.5407 12.5703C17.0858 13.0448 14.6571 14.7126 12.8057 17.1953C11.6978 18.6809 10.8515 20.5216 10.513 22.1821C10.3684 22.8918 10.3348 23.2401 10.3346 24.0339C10.3343 24.8651 10.3698 25.1784 10.5389 25.8413C10.7151 26.5319 10.8851 26.9282 11.0902 27.127C11.2613 27.2929 20.5968 33.0478 20.8134 33.1209C21.0027 33.1848 21.3858 33.1772 21.8306 33.1007ZM29.3362 22.7574C29.3376 22.7228 29.3446 22.7158 29.354 22.7395C29.3625 22.7608 29.3615 22.7864 29.3517 22.7963C29.3419 22.8061 29.3349 22.7886 29.3362 22.7574ZM29.4247 22.224C29.4261 22.1895 29.4331 22.1825 29.4425 22.2061C29.451 22.2275 29.4499 22.2531 29.4401 22.2629C29.4303 22.2728 29.4234 22.2553 29.4247 22.224ZM29.4565 21.9746C29.4565 21.9339 29.4632 21.9172 29.4713 21.9376C29.4795 21.958 29.4795 21.9913 29.4713 22.0117C29.4632 22.0321 29.4565 22.0154 29.4565 21.9746ZM29.487 21.6932C29.4876 21.6443 29.4942 21.6279 29.5017 21.6567C29.5092 21.6855 29.5087 21.7255 29.5006 21.7456C29.4926 21.7656 29.4864 21.7421 29.487 21.6932ZM29.5188 21.2932C29.5188 21.2198 29.5246 21.1898 29.5316 21.2265C29.5386 21.2632 29.5386 21.3232 29.5316 21.3598C29.5246 21.3965 29.5188 21.3665 29.5188 21.2932ZM2.39298 25.9549C2.27585 25.8968 2.19031 25.793 2.15563 25.6668C2.14112 25.614 2.14077 25.3091 2.15481 24.9665C2.33514 20.5714 3.70979 16.3428 6.14709 12.6858C6.32087 12.425 6.57285 12.0633 6.70705 11.8819C6.9178 11.597 6.96948 11.545 7.08623 11.5002C7.39129 11.3831 7.68456 11.5665 7.71587 11.894C7.73286 12.0718 7.73181 12.0738 7.35955 12.5955C5.68811 14.9377 4.47777 17.5475 3.77097 20.3335C3.38669 21.8482 3.17315 23.3063 3.09196 24.97C3.06237 25.5764 3.05046 25.6775 2.99712 25.7746C2.88753 25.9743 2.60332 26.059 2.39298 25.9549ZM34.9451 18.832C33.5306 18.6943 32.3024 17.6212 31.9398 16.2061C31.847 15.8436 31.814 15.2321 31.8675 14.8643C31.9492 14.3026 32.1881 13.7127 32.5106 13.2764C33.4708 11.977 35.1504 11.5077 36.6601 12.1169C37.3645 12.4012 38.0458 13.0288 38.4068 13.7262C39.1216 15.107 38.8466 16.7968 37.732 17.8727C37.165 18.4201 36.4364 18.7571 35.6551 18.8335C35.3289 18.8653 35.2868 18.8653 34.9451 18.832ZM35.6926 18.091C36.868 17.9288 37.8082 17.0164 38.0335 15.8193C38.0862 15.5392 38.0529 14.8741 37.9722 14.5969C37.8998 14.3482 37.7308 13.9892 37.5877 13.7801C37.2285 13.2555 36.6353 12.8405 35.9969 12.6672C35.6398 12.5703 35.0036 12.5706 34.6408 12.668C33.5877 12.9505 32.7957 13.8109 32.6079 14.8764C32.5681 15.1023 32.5681 15.6025 32.6079 15.8285C32.8367 17.1264 33.9638 18.0927 35.2799 18.1191C35.38 18.1211 35.5658 18.1085 35.6926 18.091ZM41.8275 10.9357C41.7385 10.8871 41.6576 10.7534 41.6576 10.6548C41.6576 10.55 41.7399 10.4476 42.0527 10.1634L42.3504 9.89287L42.5688 9.11154C42.8077 8.25704 42.8326 8.19087 42.9413 8.11926C43.0383 8.05536 43.2316 8.08065 43.3258 8.16955C43.4497 8.28649 43.4414 8.37177 43.239 9.0632C43.0619 9.66815 43.0542 9.70643 43.1132 9.69286C43.2449 9.66252 44.3415 9.50057 44.4151 9.50057C44.4613 9.50057 44.5272 9.53548 44.5786 9.58718C44.6483 9.65722 44.6648 9.69928 44.6648 9.80698C44.6648 9.98041 44.6447 10.0275 44.5498 10.0768C44.5067 10.0992 44.1136 10.1724 43.6763 10.2394C43.2389 10.3065 42.8546 10.3671 42.8221 10.3742C42.7897 10.3813 42.6438 10.4954 42.4978 10.6278C42.0927 10.9954 42.0082 11.0342 41.8275 10.9357ZM9.74857 10.5746C9.07333 9.93016 8.14553 9.01139 8.11486 8.95685C8.06876 8.87486 8.06924 8.76278 8.11604 8.67807C8.13638 8.64125 8.33824 8.42284 8.5646 8.1927C9.05723 7.69187 9.17626 7.62049 9.48701 7.63953C9.75186 7.65575 9.87879 7.72307 10.1437 7.98778C10.4063 8.25031 10.4798 8.41556 10.4595 8.69786C10.4434 8.92218 10.3555 9.08552 10.1155 9.33761C10.0068 9.45168 9.88577 9.58208 9.84647 9.62738L9.77501 9.70975L10.0751 10.0126C10.404 10.3443 10.4473 10.4308 10.3649 10.591C10.3004 10.7163 10.2075 10.7746 10.0723 10.7746C9.97166 10.7746 9.93325 10.7509 9.74857 10.5746ZM9.81863 8.69523C9.849 8.62156 9.84389 8.59979 9.77491 8.5089C9.67656 8.37931 9.51749 8.25613 9.44851 8.25613C9.41949 8.25613 9.27119 8.37887 9.11897 8.52889L8.84221 8.80166L9.0707 9.03263L9.29918 9.26361L9.54172 9.02113C9.67511 8.88777 9.79972 8.74111 9.81863 8.69523ZM40.476 9.53248C40.3918 9.4478 40.3899 9.43904 40.3906 9.13989C40.3911 8.9716 40.4102 8.48094 40.4332 8.04954C40.4562 7.61814 40.4706 7.26075 40.4652 7.25533C40.4598 7.24992 40.2404 7.49799 39.9775 7.80661C39.7147 8.11523 39.4672 8.38262 39.4274 8.40082C39.1683 8.51946 38.8769 8.22842 39.0081 7.98205C39.0627 7.87959 40.62 6.06869 40.6824 6.03512C40.7924 5.97598 40.9378 5.9987 41.0353 6.09024C41.1259 6.17523 41.1269 6.1795 41.1264 6.46801C41.1261 6.62852 41.1069 7.12611 41.0838 7.57379C41.0606 8.02147 41.0443 8.38959 41.0474 8.39182C41.0506 8.39405 41.2655 8.1455 41.5249 7.83947C41.8023 7.51226 42.0367 7.26294 42.0938 7.23421C42.2245 7.16855 42.3409 7.19833 42.4524 7.32591C42.5468 7.43399 42.5646 7.53557 42.5081 7.64326C42.4693 7.71708 41.159 9.2646 40.9543 9.47835C40.8339 9.60406 40.8058 9.61909 40.6909 9.61909C40.588 9.61909 40.5449 9.60175 40.476 9.53248ZM43.9972 9.02856C43.8323 8.95693 43.7858 8.70716 43.9104 8.56148C43.9776 8.48278 43.9977 8.47751 44.2863 8.46265C44.66 8.44339 44.7679 8.46721 44.8269 8.58196C44.8975 8.71905 44.8831 8.84126 44.785 8.93989C44.7131 9.01219 44.6748 9.0265 44.5535 9.0265C44.4735 9.0265 44.3299 9.03313 44.2343 9.04125C44.1386 9.04936 44.032 9.04365 43.9972 9.02856ZM11.7092 8.95284C11.6213 8.87853 10.1861 7.11508 10.1197 6.99974C10.0655 6.90576 10.0747 6.79162 10.1436 6.7036C10.2421 6.57781 10.9893 5.97903 11.1548 5.89334C11.2745 5.83135 11.3475 5.81525 11.5117 5.81467C11.7798 5.81372 11.9769 5.91608 12.1808 6.16223C12.4431 6.47891 12.5353 6.74954 12.4703 7.01168C12.4522 7.08502 12.4347 7.16269 12.4315 7.18429C12.4277 7.20954 12.5678 7.27557 12.8237 7.36915C13.2656 7.53078 13.3543 7.59789 13.3543 7.77036C13.3543 7.97281 13.2319 8.10798 13.0486 8.10798C13.0123 8.10798 12.7449 8.02063 12.4544 7.91387C11.8815 7.70337 11.876 7.70295 11.73 7.85917L11.6663 7.92726L11.8578 8.15836C12.2155 8.58999 12.2513 8.67186 12.1598 8.84969C12.1097 8.9471 11.9792 9.0265 11.8692 9.0265C11.8291 9.0265 11.7571 8.99335 11.7092 8.95284ZM11.5201 7.2058C11.6496 7.10072 11.7836 6.97904 11.8177 6.9354L11.8798 6.85606L11.8139 6.73827C11.7777 6.67348 11.6973 6.57438 11.6352 6.51804L11.5224 6.41561L11.4168 6.47823C11.2666 6.56729 10.8744 6.89788 10.8843 6.92713C10.9003 6.97459 11.24 7.39687 11.2622 7.39687C11.2746 7.39687 11.3906 7.31089 11.5201 7.2058ZM38.1877 7.71031L38.1049 7.63857L38.1128 7.13994C38.1171 6.8657 38.1279 6.58046 38.1369 6.50609L38.1532 6.37086L38.0111 6.28257L37.8691 6.19428L37.6432 6.54125C37.519 6.73208 37.3906 6.90267 37.3577 6.92032C37.152 7.03096 36.8814 6.88445 36.8814 6.66245C36.8814 6.55838 36.9602 6.42383 37.5466 5.52619C37.9124 4.96617 38.2441 4.47495 38.2836 4.43458C38.4206 4.29472 38.5234 4.32512 39.0345 4.6568C39.5668 5.00219 39.7405 5.16109 39.81 5.36615C39.902 5.63761 39.8659 5.85836 39.6786 6.16894C39.4663 6.52093 39.2333 6.68396 38.941 6.68511C38.8169 6.68558 38.7701 6.69767 38.7567 6.73262C38.7469 6.7584 38.7385 6.9284 38.7381 7.1104C38.7369 7.66554 38.6805 7.78205 38.4129 7.78205C38.3045 7.78205 38.2505 7.76485 38.1877 7.71031ZM39.0493 5.96818C39.0932 5.91574 39.1565 5.81617 39.19 5.74691C39.2502 5.62231 39.2502 5.6203 39.1938 5.55699C39.1482 5.50582 38.7563 5.22682 38.6023 5.13595C38.5602 5.11112 38.2199 5.64342 38.2561 5.67747C38.3525 5.76817 38.8463 6.06353 38.9016 6.06353C38.9418 6.06353 39.0019 6.02471 39.0493 5.96818ZM13.7257 7.23139C13.4995 7.15882 13.3007 6.93145 12.9335 6.32529C12.7591 6.0374 12.5949 5.74407 12.5685 5.67344C12.542 5.60215 12.52 5.45274 12.5192 5.33761C12.5165 4.96996 12.6576 4.78111 13.1875 4.44309C13.6492 4.14859 13.8613 4.06794 14.126 4.08619C14.4944 4.11157 14.6419 4.24468 15.0713 4.93915C15.4852 5.60855 15.5174 5.67984 15.531 5.9545C15.5456 6.24946 15.4903 6.40298 15.3009 6.59334C15.1531 6.74187 14.6744 7.05265 14.3963 7.18058C14.1904 7.27534 13.9252 7.29543 13.7257 7.23139ZM14.1946 6.57386C14.3714 6.48364 14.7567 6.23448 14.8358 6.15922C14.9731 6.0286 14.9522 5.95957 14.6022 5.38839C14.205 4.74037 14.1429 4.6721 13.9922 4.71784C13.9001 4.74577 13.3106 5.10923 13.2191 5.19449C13.0931 5.31182 13.1285 5.42555 13.4586 5.96455C13.911 6.70332 13.9224 6.71275 14.1946 6.57386ZM35.5989 6.09651C35.3145 5.99274 34.7828 5.70422 34.651 5.58211C34.487 5.43022 34.4047 5.27335 34.3842 5.07374C34.3579 4.81802 34.4218 4.61793 34.7294 3.99204C35.1204 3.19639 35.2811 3.02562 35.6726 2.98995C35.8898 2.97016 36.0761 3.02587 36.5372 3.24853C37.1388 3.539 37.3392 3.7739 37.3337 4.18205C37.3304 4.43374 37.2894 4.54737 36.9567 5.22716C36.6863 5.77971 36.5241 5.99674 36.3065 6.09686C36.1485 6.16956 35.7987 6.16939 35.5989 6.09651ZM36.1087 5.46268C36.2085 5.35598 36.7045 4.3026 36.7045 4.1975C36.7045 4.06239 36.608 3.9836 36.2135 3.79659C35.7876 3.59471 35.7509 3.58477 35.6574 3.64632C35.5797 3.69746 35.0922 4.63806 35.0229 4.87031C34.9664 5.05986 35.019 5.11481 35.4717 5.33921C35.8948 5.54893 36.0077 5.57081 36.1087 5.46268ZM16.7324 5.70057C16.6862 5.65926 16.4991 5.28463 16.2405 4.71539C16.0109 4.2102 15.8135 3.78607 15.8017 3.77287C15.7898 3.75966 15.6455 3.80966 15.481 3.88398C15.1213 4.04644 15.0078 4.05568 14.8852 3.93248C14.8133 3.86031 14.799 3.82166 14.799 3.70061C14.799 3.5876 14.8137 3.54195 14.8653 3.49499C14.9235 3.4421 16.5099 2.69427 16.7218 2.61985C16.8349 2.58016 16.9862 2.63701 17.0482 2.74242C17.1139 2.85425 17.1133 3.04673 17.047 3.12625C17.0187 3.16028 16.8546 3.25233 16.6824 3.33079L16.3693 3.47344L16.7963 4.40553C17.0311 4.91817 17.2301 5.38724 17.2384 5.44789C17.2517 5.54446 17.2406 5.57118 17.1496 5.66271C17.0204 5.79251 16.8525 5.80776 16.7324 5.70057ZM18.488 4.97465C18.4181 4.90813 18.3259 4.6767 17.9863 3.71485C17.7575 3.06677 17.5703 2.5174 17.5703 2.49402C17.5703 2.40946 17.6425 2.29524 17.722 2.2539C17.8341 2.19564 18.0219 2.20045 18.0984 2.26353C18.1415 2.2991 18.282 2.65514 18.5457 3.39687C19.0673 4.86429 19.0281 4.73021 18.9739 4.86056C18.8933 5.0545 18.6356 5.11501 18.488 4.97465ZM33.0929 5.00567C32.8474 4.94759 31.83 4.59761 31.771 4.5509C31.6261 4.43637 31.6324 4.40395 32.0496 3.12556C32.4671 1.84643 32.504 1.76724 32.6833 1.76724C32.8375 1.76724 33.9457 2.15456 34.0877 2.25808C34.2602 2.38393 34.3558 2.57762 34.3557 2.80161C34.3557 3.00129 34.2504 3.33589 34.1499 3.456C34.0847 3.53384 34.0804 3.55438 34.1082 3.65502C34.2102 4.02418 34.007 4.67784 33.7281 4.87737C33.5608 4.9971 33.2889 5.05203 33.0929 5.00567ZM33.4369 4.20745C33.5305 3.9948 33.5381 3.88564 33.464 3.82175C33.4292 3.79177 33.2171 3.70545 32.9925 3.62993L32.5842 3.49263L32.4895 3.8026C32.4374 3.97309 32.3993 4.11639 32.4048 4.12105C32.4208 4.13463 33.1459 4.36975 33.2108 4.38241C33.3067 4.40111 33.3748 4.34836 33.4369 4.20745ZM33.6686 3.0339C33.7347 2.88747 33.7418 2.79384 33.6899 2.75271C33.6697 2.73666 33.4898 2.6691 33.2903 2.60259C33.0362 2.51785 32.9238 2.49226 32.9148 2.51705C32.9077 2.53651 32.8762 2.62831 32.8448 2.72106L32.7877 2.88969L33.1762 3.02242C33.3898 3.09542 33.5752 3.15621 33.5882 3.15749C33.6011 3.15877 33.6373 3.10316 33.6686 3.0339ZM20.3812 4.42545C20.3192 4.39039 20.0705 4.07227 19.1428 2.84162C18.7401 2.30743 18.6907 2.22938 18.6907 2.1271C18.6907 2.05613 18.7138 1.98272 18.7512 1.93491C18.8289 1.83573 19.0013 1.78137 19.1081 1.82243C19.1597 1.84229 19.3859 2.11556 19.7714 2.62383C20.0932 3.04803 20.3648 3.3955 20.3751 3.39598C20.3854 3.39646 20.4028 3.31353 20.4138 3.21168C20.4248 3.10983 20.4833 2.67696 20.5438 2.24975C20.6422 1.55488 20.6612 1.46509 20.724 1.3979C20.7806 1.33732 20.8222 1.32279 20.9388 1.32279C21.0592 1.32279 21.0977 1.33723 21.1695 1.4094C21.2285 1.46871 21.2557 1.52563 21.2557 1.58997C21.2557 1.74556 20.8724 4.22378 20.8358 4.30435C20.7722 4.44465 20.5295 4.5093 20.3812 4.42545ZM29.9759 4.15068C29.8129 4.0618 29.8024 3.95089 29.906 3.41544L29.9741 3.06365L29.6819 2.29268C29.5212 1.86865 29.3821 1.48371 29.3729 1.43725C29.3498 1.32127 29.4139 1.18052 29.5135 1.1288C29.644 1.06098 29.8132 1.07336 29.8909 1.15642C29.9272 1.19529 30.0552 1.48929 30.1752 1.80975C30.2953 2.13021 30.4016 2.40539 30.4113 2.42126C30.4211 2.43714 30.6437 2.22869 30.906 1.95804C31.3417 1.50843 31.3933 1.46461 31.5035 1.45037C31.6082 1.43683 31.638 1.44707 31.7299 1.52818C31.8497 1.63384 31.8865 1.7478 31.8403 1.86983C31.823 1.91562 31.5355 2.23055 31.2015 2.56968L30.5942 3.18627L30.5117 3.59527C30.4113 4.09244 30.4087 4.09944 30.3047 4.15352C30.1996 4.20812 30.0793 4.20709 29.9759 4.15068ZM21.945 4.06107C21.8526 4.01522 21.7863 3.91286 21.7863 3.81578C21.7863 3.74279 22.4287 1.24177 22.4649 1.17377C22.549 1.01591 22.8422 0.969584 22.9751 1.09316C23.0333 1.14728 24.1258 3.01102 24.303 3.35836C24.358 3.46617 24.3657 3.61083 24.321 3.69481C24.2559 3.81701 24.0091 3.88135 23.8774 3.81048C23.8458 3.79352 23.7584 3.67301 23.683 3.54268C23.6077 3.41235 23.5382 3.30131 23.5286 3.29592C23.4974 3.27847 22.5469 3.42057 22.5236 3.44616C22.5111 3.45979 22.478 3.57676 22.45 3.7061C22.3705 4.07282 22.2043 4.18962 21.945 4.06107ZM22.9462 2.72962C23.0546 2.71795 23.1503 2.69706 23.1589 2.6832C23.1795 2.64967 22.8693 2.11816 22.8452 2.14576C22.8349 2.15757 22.7927 2.30482 22.7516 2.47298C22.7003 2.68213 22.6881 2.77432 22.7128 2.76478C22.7327 2.75711 22.8377 2.74129 22.9462 2.72962ZM27.3551 3.79678C27.3126 3.77359 27.2576 3.71079 27.2329 3.65722C27.1263 3.42616 26.3856 1.16363 26.3856 1.06892C26.3856 0.938218 26.4855 0.830739 26.6327 0.802978C26.783 0.774643 26.8806 0.807281 26.9393 0.905479C26.9672 0.952118 27.1227 1.38496 27.2848 1.86735C27.447 2.34974 27.5865 2.74456 27.5948 2.74472C27.6031 2.74472 27.8022 2.35705 28.0371 1.88286C28.272 1.40868 28.4903 1.00201 28.5223 0.97916C28.6018 0.922372 28.7746 0.926909 28.863 0.9881C29.103 1.15433 29.0919 1.1907 28.386 2.56477C27.7492 3.80432 27.7233 3.84248 27.5207 3.84001C27.4721 3.83942 27.3975 3.81997 27.3551 3.79678ZM24.7369 2.78147C24.6154 2.65937 24.6117 2.50841 24.7274 2.39212C24.8064 2.31274 24.8207 2.30989 25.236 2.2908C25.471 2.28 25.7671 2.27111 25.8941 2.27105C26.1099 2.27105 26.1304 2.27655 26.211 2.35755C26.3266 2.47377 26.3286 2.61991 26.2161 2.74637L26.135 2.83755L25.4813 2.85508L24.8276 2.87262L24.7369 2.78147ZM30.5109 1.26581C30.4452 1.19979 30.4247 1.15182 30.4247 1.06399C30.4247 0.931095 30.4546 0.893126 30.7448 0.65752C30.9088 0.524306 30.9679 0.493164 31.0564 0.493164C31.198 0.493164 31.2681 0.532809 31.3263 0.64579C31.4134 0.815229 31.3672 0.909947 31.0833 1.14387C30.8646 1.32414 30.8144 1.35242 30.7137 1.35242C30.6241 1.35242 30.5771 1.33233 30.5109 1.26581Z" fill="#D9D9D9"/>
<path d="M2.41631 64.4722C2.34756 64.447 2.23805 64.3384 2.19239 64.2502C2.15697 64.1818 2.15097 61.9588 2.15097 48.9138V33.6575L2.2173 33.5595C2.32836 33.3955 2.42755 33.3397 2.60795 33.3397C2.78143 33.3397 2.87699 33.3903 2.9894 33.5416L3.05018 33.6234L3.05764 48.599L3.0651 63.5746H25.9582H48.8513V44.4031C48.8513 31.5468 48.8413 25.0636 48.8208 24.7216C48.5513 20.2137 47.073 16.061 44.4473 12.4353C44.3239 12.265 44.2148 12.0817 44.2048 12.0279C44.1419 11.6912 44.4285 11.405 44.765 11.4684C44.9153 11.4968 44.9926 11.5728 45.2896 11.9841C46.6821 13.9127 47.8291 16.1633 48.5843 18.4487C49.204 20.324 49.5816 22.2475 49.7359 24.3154C49.7556 24.5797 49.7656 31.4148 49.7652 44.4621L49.7647 64.2089L49.7 64.3038C49.6644 64.3559 49.5995 64.4199 49.5557 64.4459C49.483 64.4891 47.4357 64.493 25.9683 64.4908C13.039 64.4895 2.44063 64.4812 2.41631 64.4722ZM13.1833 60.4436C13.0632 60.3841 12.9892 60.2489 13.0091 60.1255C13.0173 60.0751 13.3114 59.3205 13.6628 58.4486C14.3901 56.644 14.3749 56.6709 14.6642 56.6709C14.789 56.6709 14.8422 56.6859 14.901 56.7376C14.956 56.7859 15.1591 57.2476 15.6374 58.4119C16.0007 59.2961 16.3064 60.058 16.3167 60.1051C16.362 60.3121 16.1794 60.4932 15.9253 60.4932C15.7606 60.4932 15.6954 60.4139 15.5307 60.0137L15.3926 59.6783L14.6609 59.6707L13.9292 59.663L13.7999 59.9966C13.6431 60.4008 13.5685 60.4934 13.4004 60.4925C13.3345 60.4921 13.2368 60.4701 13.1833 60.4436ZM15.0551 58.8561C15.0334 58.8032 14.9314 58.5548 14.8285 58.3043L14.6413 57.8487L14.469 58.2894C14.3743 58.5319 14.2773 58.7802 14.2533 58.8413L14.2098 58.9524H14.6522H15.0946L15.0551 58.8561ZM17.7542 60.4629C17.5517 60.4209 17.2909 60.2894 17.178 60.1722C17.0494 60.0389 16.9388 59.819 16.8954 59.6102C16.8541 59.4113 16.8517 57.7747 16.8925 57.5586C16.9582 57.2105 17.1421 56.947 17.4165 56.8078C17.6619 56.6834 17.8273 56.6645 18.558 56.6773C19.3253 56.6908 19.4187 56.7114 19.6542 56.9191C19.8131 57.0594 19.9133 57.2507 19.9582 57.4994C20.0101 57.7868 19.9589 57.9109 19.7613 57.9765C19.5282 58.0538 19.3528 57.9388 19.2803 57.6612C19.2058 57.3757 19.1826 57.3672 18.4748 57.3672C17.7637 57.3672 17.6961 57.3865 17.6086 57.6144C17.562 57.7356 17.5556 57.855 17.5556 58.5969C17.5556 59.8142 17.5309 59.7819 18.4636 59.782C18.9113 59.782 19.0663 59.7722 19.1286 59.7398C19.214 59.6955 19.2803 59.5831 19.2803 59.4829C19.2803 59.3829 19.3649 59.2522 19.4626 59.2015C19.5951 59.1326 19.7954 59.1602 19.8956 59.2611C19.9641 59.3302 19.9726 59.3608 19.9685 59.5237C19.9583 59.9271 19.7326 60.2667 19.3818 60.4062C19.2184 60.4712 19.1619 60.4763 18.5433 60.4825C18.1784 60.4861 17.8233 60.4773 17.7542 60.4629ZM20.7397 60.4649C20.7073 60.4514 20.6487 60.4057 20.6095 60.3633C20.475 60.2178 20.4922 60.1608 21.1936 58.4339C21.9263 56.6299 21.9032 56.6709 22.1844 56.6709C22.4583 56.6709 22.4366 56.6321 23.1847 58.4597C23.5507 59.3538 23.8501 60.1163 23.8501 60.154C23.8501 60.3503 23.6927 60.4929 23.4759 60.4931C23.2938 60.4934 23.2223 60.4123 23.0573 60.0191L22.9143 59.6784H22.1829H21.4515L21.3111 60.0337C21.2336 60.2298 21.142 60.4124 21.1067 60.4411C21.0391 60.4961 20.845 60.5087 20.7397 60.4649ZM22.6038 58.9154C22.4513 58.5224 22.1828 57.8858 22.1695 57.8858C22.1598 57.8858 22.0581 58.1258 21.9434 58.4191L21.7349 58.9524H22.1765C22.5179 58.9524 22.6149 58.944 22.6038 58.9154ZM24.714 60.4577C24.5591 60.3825 24.5577 60.3657 24.5577 58.5687C24.5577 56.7891 24.5585 56.7795 24.7035 56.7015C24.7822 56.6591 26.4535 56.6611 26.6569 56.7037C27.0179 56.7793 27.3277 57.0001 27.4721 57.2846C27.6127 57.5615 27.6352 57.735 27.6367 58.5524C27.6382 59.3964 27.619 59.5511 27.4738 59.8599C27.3321 60.1615 27.0472 60.3669 26.6548 60.4505C26.4132 60.5019 24.8174 60.5079 24.714 60.4577ZM26.6804 59.7075C26.7459 59.6696 26.8106 59.5937 26.8573 59.5001C26.9303 59.3539 26.931 59.3447 26.931 58.5821C26.931 57.8196 26.9303 57.8102 26.8573 57.6635C26.7982 57.5448 26.7544 57.5008 26.6362 57.4418C26.4963 57.372 26.4576 57.3677 25.877 57.357L25.2653 57.3457V58.5659V59.7861L25.9213 59.7767C26.5152 59.7681 26.587 59.7616 26.6804 59.7075ZM28.7253 60.4638C28.5632 60.3981 28.5673 60.447 28.5673 58.5732V56.8442L28.6535 56.7576L28.7397 56.6709H29.8498H30.96L31.0461 56.7576C31.1211 56.8329 31.1323 56.866 31.1323 57.0117C31.1323 57.1573 31.1211 57.1905 31.0461 57.2658L30.96 57.3524H30.1027H29.2454V57.7821V58.2117H29.7628C30.3098 58.2117 30.4164 58.2334 30.4828 58.3582C30.5225 58.4327 30.5218 58.664 30.4816 58.7526C30.418 58.893 30.3573 58.9073 29.7835 58.9177L29.2454 58.9275V59.3548V59.7821L30.0194 59.7824C30.4588 59.7824 30.8405 59.7957 30.9025 59.813C31.0622 59.8576 31.1323 59.9631 31.1323 60.1588C31.1323 60.2975 31.1203 60.3322 31.0462 60.4067L30.96 60.4933L29.8742 60.4914C29.2771 60.4904 28.76 60.478 28.7253 60.4639L28.7253 60.4638ZM32.0657 60.4323C32.0234 60.3988 31.9744 60.3222 31.9569 60.2619C31.9352 60.1875 31.9279 59.6251 31.934 58.508C31.9438 56.737 31.9404 56.7747 32.0977 56.7027C32.2043 56.6538 32.405 56.6652 32.5033 56.7256C32.5605 56.7608 32.7891 57.079 33.1519 57.6284C33.46 58.095 33.7213 58.4738 33.7327 58.4701C33.7441 58.4665 34.005 58.0811 34.3124 57.6138C34.9175 56.6941 34.9398 56.6702 35.1921 56.6719C35.3426 56.6729 35.4062 56.7054 35.4614 56.8097C35.5049 56.8917 35.5106 60.2129 35.4675 60.3269C35.4298 60.4265 35.2931 60.4932 35.1264 60.4932C35.0149 60.4932 34.9742 60.4773 34.9038 60.4066L34.8176 60.3199V59.2157V58.1115L34.4374 58.6727C34.2283 58.9814 34.0231 59.2658 33.9814 59.3048C33.8829 59.397 33.6563 59.4231 33.529 59.3569C33.4676 59.325 33.3156 59.1272 33.0451 58.727L32.6507 58.1437L32.6359 59.2221C32.6278 59.8153 32.6096 60.3244 32.5955 60.3535C32.5274 60.494 32.2044 60.542 32.0657 60.4323ZM37.5406 60.4654C37.3951 60.4027 37.3826 60.3437 37.3826 59.7178V59.1334L36.7589 58.1358C36.1978 57.2385 36.1348 57.1249 36.1324 57.006C36.1299 56.8896 36.1427 56.8617 36.2397 56.7724C36.3325 56.687 36.3718 56.6709 36.4884 56.6709C36.5915 56.6709 36.6452 56.688 36.6979 56.7376C36.7369 56.7743 36.9817 57.1484 37.2419 57.5691C37.5021 57.9898 37.7252 58.3231 37.7376 58.3098C37.75 58.2966 37.992 57.9312 38.2752 57.4978C38.5584 57.0644 38.8129 56.7011 38.8406 56.6904C38.9388 56.6525 39.1017 56.6718 39.2001 56.7329C39.3233 56.8094 39.3579 56.8719 39.3579 57.0176C39.3579 57.1155 39.2685 57.2691 38.7093 58.1316L38.0607 59.132V59.722C38.0607 60.2973 38.059 60.3141 37.992 60.3924C37.936 60.4578 37.8938 60.4745 37.7635 60.4826C37.6756 60.4881 37.5753 60.4804 37.5406 60.4654ZM7.87383 54.1111C7.72501 54.0282 7.72533 54.0317 7.72422 52.4858L7.72318 51.0413L7.28832 51.0406C6.8092 51.0398 6.65246 51.0154 6.56567 50.9282C6.49213 50.8543 6.46482 50.6283 6.51477 50.5071C6.58788 50.3297 6.58336 50.3302 8.08799 50.3302H9.45813L9.54784 50.4061C9.65583 50.4974 9.69053 50.645 9.64215 50.8072C9.58311 51.0053 9.52285 51.025 8.94148 51.0368L8.43236 51.0471L8.42419 52.5133L8.41602 53.9795L8.31974 54.066C8.24152 54.1362 8.19728 54.1522 8.08388 54.1514C8.00711 54.1508 7.91258 54.1327 7.87383 54.1111ZM9.73724 54.0946C9.62447 54.0255 9.58057 53.9507 9.58057 53.8274C9.58057 53.7507 10.7646 50.7571 10.8961 50.5011C11.0185 50.263 11.4534 50.2763 11.5674 50.5215C11.5905 50.5711 11.8958 51.3095 12.246 52.1625C12.9481 53.8728 12.9544 53.8944 12.7948 54.0481C12.7269 54.1135 12.6719 54.1355 12.5516 54.1454C12.3262 54.164 12.2772 54.1132 12.1039 53.6818L11.9598 53.3228H11.2323H10.5049L10.3643 53.6784C10.2721 53.9116 10.1979 54.0543 10.1488 54.0932C10.0516 54.17 9.86129 54.1707 9.73724 54.0946ZM11.464 52.1154C11.3522 51.8424 11.2503 51.5941 11.2375 51.5636C11.2168 51.5141 11.0856 51.8146 10.8027 52.5598C10.7845 52.6078 10.8163 52.6117 11.2251 52.6117H11.6672L11.464 52.1154ZM13.7059 54.0658L13.6197 53.9792V52.2413V50.5034L13.7074 50.4153L13.7951 50.3271L14.7319 50.3361C15.6469 50.3448 15.6723 50.3467 15.8246 50.4158C16.0132 50.5014 16.1919 50.6963 16.2573 50.8874C16.358 51.1821 16.3447 51.6566 16.2293 51.88C16.1892 51.9578 16.1922 51.9693 16.2858 52.0925C16.4646 52.3279 16.4942 52.4522 16.4942 52.9672C16.4942 53.4056 16.4906 53.4339 16.4149 53.5895C16.2831 53.8604 16.1136 54.007 15.8291 54.096C15.6678 54.1464 15.5504 54.1524 14.7204 54.1524H13.792L13.7059 54.0658ZM15.6466 53.4175C15.7771 53.3437 15.816 53.2405 15.8161 52.9686C15.8161 52.8255 15.7992 52.6752 15.7773 52.6229C15.711 52.4652 15.6449 52.4507 14.939 52.4397L14.2978 52.4298V52.9533V53.4767L14.939 53.4659C15.3841 53.4584 15.6006 53.4436 15.6466 53.4175ZM15.557 51.6849C15.5959 51.6458 15.6121 51.573 15.6198 51.4028C15.6286 51.2077 15.6213 51.1624 15.571 51.0999C15.512 51.0267 15.5102 51.0265 14.9048 51.0169L14.2978 51.0073V51.3816V51.7558L14.9012 51.7467C15.4329 51.7387 15.5108 51.7313 15.557 51.6849ZM17.4501 54.0658L17.364 53.9792V52.2413V50.5034L17.4501 50.4168C17.5251 50.3415 17.5581 50.3302 17.703 50.3302C17.8479 50.3302 17.881 50.3415 17.9559 50.4168L18.0421 50.5034V51.9872V53.4709H18.7961H19.5502L19.6398 53.561C19.7241 53.6457 19.7287 53.6619 19.7165 53.8322C19.7055 53.9838 19.6904 54.0245 19.6229 54.0828L19.5424 54.1524H18.5394H17.5363L17.4501 54.0658ZM20.557 54.117C20.4022 54.0418 20.4007 54.0232 20.4007 52.2487C20.4007 51.1226 20.4109 50.5761 20.4333 50.5115C20.4949 50.3341 20.5219 50.3302 21.6979 50.3302C22.8524 50.3302 22.8885 50.3348 22.9599 50.4923C23.0339 50.6556 22.9939 50.8554 22.8664 50.9592C22.8101 51.005 22.7144 51.0104 21.9559 51.011L21.1082 51.0117V51.4395V51.8673L21.6531 51.8765L22.1979 51.8857L22.2763 51.9646C22.3692 52.058 22.402 52.2849 22.34 52.4043C22.2625 52.5533 22.1434 52.5819 21.6021 52.582H21.1082V53.0264V53.4709H21.9504C22.4717 53.4709 22.8142 53.4825 22.8493 53.5014C23.04 53.6039 23.0378 54.0092 22.846 54.1088C22.7766 54.1449 22.5786 54.152 21.692 54.1504C21.0015 54.1491 20.5988 54.1372 20.557 54.1169V54.117ZM26.5897 54.0658L26.5036 53.9792V52.5103V51.0413L26.0539 51.041C25.8067 51.041 25.5552 51.0271 25.4951 51.0104C25.3354 50.9658 25.2653 50.8603 25.2653 50.6645C25.2653 50.5258 25.2773 50.4912 25.3515 50.4167L25.4376 50.3301H26.8426H28.2476L28.3337 50.4167C28.4079 50.4912 28.4199 50.5258 28.4199 50.6645C28.4199 50.8603 28.3498 50.9658 28.1901 51.0104C28.13 51.0271 27.8785 51.0409 27.6313 51.041L27.1817 51.0413V52.5103V53.9792L27.0955 54.0658C27.0205 54.1411 26.9875 54.1524 26.8426 54.1524C26.6977 54.1524 26.6647 54.1411 26.5897 54.0658ZM29.1842 54.0658L29.098 53.9792V52.2413V50.5034L29.1842 50.4168L29.2704 50.3302H30.3805H31.4906L31.5768 50.4168C31.6518 50.4921 31.663 50.5253 31.663 50.6709C31.663 50.8166 31.6518 50.8498 31.5768 50.9251L31.4906 51.0117H30.6334H29.7761V51.4413V51.8709H30.2729C30.5605 51.8709 30.8092 51.8848 30.8635 51.9038C30.98 51.9446 31.0439 52.0635 31.0439 52.2394C31.0439 52.3459 31.0261 52.3937 30.9579 52.4705L30.8719 52.5672L30.324 52.5765L29.7761 52.5857V53.0283V53.4709H30.6334H31.4906L31.5768 53.5575C31.6518 53.6328 31.663 53.666 31.663 53.8117C31.663 53.9573 31.6518 53.9905 31.5768 54.0658L31.4906 54.1524H30.3805H29.2704L29.1842 54.0658ZM32.6154 54.117C32.4606 54.0418 32.459 54.0232 32.459 52.2487C32.459 51.1226 32.4693 50.5761 32.4917 50.5115C32.51 50.4588 32.5613 50.3981 32.6082 50.3737C32.7289 50.311 32.9368 50.3179 33.0249 50.3876C33.0649 50.4192 33.5011 50.9674 33.9944 51.6059L34.8913 52.7667L34.9061 51.6447C34.9214 50.4752 34.9268 50.428 35.0522 50.3605C35.1276 50.32 35.3571 50.322 35.4487 50.3639C35.6159 50.4405 35.6158 50.4394 35.607 52.2868L35.5989 53.9795L35.5026 54.066C35.3813 54.1749 35.165 54.1877 35.0452 54.093C35.0038 54.0603 34.5676 53.5121 34.0757 52.8749L33.1814 51.7162L33.1666 52.838C33.1585 53.455 33.1403 53.9837 33.1262 54.0128C33.0671 54.1345 32.7745 54.1942 32.6154 54.117ZM36.7566 54.066L36.6603 53.9795L36.6522 52.2868C36.6434 50.4394 36.6433 50.4405 36.8105 50.3639C36.9307 50.3089 37.1289 50.3224 37.2164 50.3915C37.2591 50.4253 37.6954 50.9733 38.1859 51.6094L39.0779 52.7659L39.0926 51.6443C39.1007 51.0275 39.1189 50.499 39.133 50.4698C39.1957 50.3406 39.4842 50.2871 39.651 50.3737C39.6979 50.3981 39.7492 50.4588 39.7675 50.5115C39.7899 50.5761 39.8002 51.1226 39.8002 52.2487C39.8002 54.0585 39.8011 54.0488 39.6207 54.1239C39.5179 54.1667 39.2901 54.1471 39.2204 54.0894C39.1934 54.067 38.7655 53.5232 38.2696 52.881L37.3679 51.7133L37.3531 52.8366C37.345 53.4544 37.3268 53.9837 37.3127 54.0128C37.2737 54.0932 37.1354 54.1524 36.9865 54.1524C36.8805 54.1524 36.8329 54.1345 36.7566 54.066ZM40.9431 54.066L40.8468 53.9795V52.2413V50.5031L40.9431 50.4167C41.0195 50.3481 41.067 50.3302 41.173 50.3302C41.3369 50.3302 41.4577 50.3893 41.5044 50.4923C41.5304 50.5496 41.5397 51.0093 41.5397 52.2442C41.5397 53.6974 41.5336 53.93 41.494 54.007C41.4403 54.1114 41.3488 54.1524 41.1697 54.1524C41.0674 54.1524 41.0187 54.1338 40.9431 54.066ZM43.1612 54.1063C42.8176 54.012 42.5935 53.7913 42.4948 53.4499C42.4383 53.2548 42.4593 53.107 42.5574 53.0084C42.6158 52.9497 42.6577 52.9376 42.8028 52.9376C43.0223 52.9376 43.0883 52.9872 43.1583 53.2046C43.2318 53.4329 43.2753 53.4491 43.854 53.4647C44.3723 53.4787 44.6452 53.4446 44.7349 53.3544C44.777 53.3121 44.7949 53.2417 44.8054 53.0773C44.8216 52.8239 44.7792 52.6583 44.6846 52.6045C44.643 52.5809 44.4035 52.5617 44.0014 52.5497C43.4571 52.5334 43.3609 52.523 43.2054 52.4639C42.9678 52.3737 42.7522 52.1549 42.6806 51.9314C42.5195 51.429 42.6231 50.8249 42.9146 50.5677C43.1531 50.3573 43.2128 50.345 44.0014 50.345C44.6283 50.345 44.7258 50.3515 44.8556 50.4018C45.1583 50.5191 45.3968 50.8428 45.4104 51.1546C45.4181 51.3311 45.3531 51.4384 45.2094 51.486C44.9857 51.5602 44.7861 51.4519 44.7248 51.223C44.7055 51.1509 44.6658 51.0872 44.6269 51.0662C44.5489 51.024 43.8556 50.9954 43.6218 51.0248C43.5314 51.0361 43.4274 51.07 43.3904 51.1C43.3296 51.1495 43.3233 51.1795 43.3233 51.4231C43.3233 51.6629 43.3305 51.6987 43.3905 51.759C43.455 51.8239 43.4826 51.8272 44.0981 51.8442C44.8185 51.8641 44.9584 51.8961 45.1887 52.0942C45.4991 52.3612 45.6123 53.0465 45.4289 53.5479C45.3483 53.7682 45.1228 54.0006 44.9134 54.0793C44.711 54.1553 43.4127 54.1753 43.1612 54.1063ZM38.7018 45.3421C38.2856 45.2239 38.0434 44.9179 37.4499 43.7606L37.1426 43.1614L36.8572 43.305C35.1911 44.1435 33.2444 44.7358 31.3977 44.9661C30.3194 45.1005 28.8905 45.1194 27.8745 45.0125C24.7303 44.6818 21.7938 43.4975 18.2484 41.1302C17.1361 40.3875 15.1565 38.9546 14.1372 38.1544L13.7556 37.8547L13.2953 38.7665C12.0578 41.2178 11.658 41.9585 11.361 42.3497C11.177 42.5921 11.0651 42.686 10.8258 42.7987C10.6776 42.8685 10.6202 42.8783 10.3619 42.8783C9.99483 42.8783 9.77562 42.8147 9.24152 42.5529C8.22596 42.0552 7.39425 41.3998 7.15213 40.9064C6.88765 40.3674 6.99835 39.9434 7.65655 38.9742C8.09167 38.3335 9.07658 36.9546 9.86645 35.8803C10.2281 35.3884 10.524 34.9793 10.524 34.9712C10.524 34.9507 9.97796 34.4781 9.62479 34.1929C7.50189 32.4788 4.44851 30.8125 1.40178 29.7055C1.14703 29.613 1.024 29.5512 0.95371 29.4806C0.75408 29.2799 0.745566 28.9617 0.933036 28.7079C1.09751 28.4853 1.277 28.4687 2.13623 28.5965C3.43977 28.7904 4.61841 29.0652 5.76258 29.4422C7.69245 30.078 9.18241 30.8534 11.2056 32.2748C11.5425 32.5115 11.8282 32.7074 11.8405 32.7102C11.8751 32.7182 11.9859 32.3338 12.0441 32.0043C12.081 31.7956 12.0965 31.5547 12.0966 31.1895C12.0968 30.3868 11.9706 29.8104 11.6444 29.1225C11.3991 28.6051 10.9738 28.003 10.6816 27.7595C10.3945 27.5201 10.2134 27.2149 10.0092 26.626C9.7204 25.7932 9.60262 25.0651 9.59948 24.0932C9.59563 22.8978 9.76205 21.899 10.1697 20.6709C10.8527 18.6132 12.0379 16.7139 13.6468 15.0988C15.6321 13.1059 17.7373 12.0233 20.2238 11.7166C20.685 11.6598 22.027 11.6695 22.5087 11.7333C23.2742 11.8346 24.0352 12.0206 24.7199 12.2736C25.5524 12.5812 26.6134 13.1854 27.3229 13.7559C27.696 14.0558 28.3618 14.7127 28.6658 15.0808C29.7726 16.4209 30.5608 18.1277 30.8507 19.8117L30.9145 20.1821L31.1487 20.2053C31.9629 20.286 32.9192 20.5804 33.794 21.0196C35.8638 22.0587 37.7363 24.0635 38.7818 26.3598C39.7676 28.5249 39.9384 30.6775 39.2645 32.4438C39.1414 32.7664 39.0107 32.966 38.7576 33.218C37.9077 34.0643 37.5114 35.2696 37.6905 36.4637C37.7485 36.8499 37.8599 37.1892 38.0549 37.5738C38.2109 37.8812 38.7103 38.6654 38.8269 38.7859C38.8795 38.8403 38.8927 38.8354 39.3773 38.5811C40.7093 37.8823 41.9345 37.104 43.2516 36.12C43.5202 35.9193 43.7764 35.7412 43.821 35.7241C43.9364 35.68 44.089 35.6858 44.2157 35.739C44.4594 35.8413 44.5895 36.0541 44.5704 36.3189C44.5591 36.4761 44.5367 36.5224 44.2975 36.8842C43.3434 38.3276 42.3182 39.4693 40.9293 40.6352L40.4517 41.0362L40.5151 41.1276C40.5501 41.1779 40.7018 41.3884 40.8524 41.5952C41.6093 42.6353 41.7956 43.0372 41.7161 43.4585C41.6716 43.6942 41.5811 43.8571 41.3688 44.0832C41.1385 44.3286 40.834 44.5629 40.4194 44.8139C39.6446 45.2827 39.0918 45.4528 38.7018 45.3421ZM39.2483 44.5799C39.807 44.3929 40.8025 43.7183 40.9637 43.4175C41.0118 43.3277 41.0149 43.2968 40.9856 43.1993C40.9345 43.0294 40.727 42.6897 40.3723 42.1951C40.1976 41.9516 39.8806 41.5058 39.6678 41.2043C39.4549 40.9028 39.0299 40.3161 38.7232 39.9006C37.2338 37.8822 36.9342 37.2191 36.9291 35.9302C36.9267 35.3054 37.0107 34.7926 37.1912 34.3296L37.2624 34.1471L37.1972 34.1888C37.1613 34.2118 36.0845 34.8759 34.8043 35.6648C32.5723 37.04 32.4808 37.0999 32.5784 37.1195C32.6343 37.1308 32.7996 37.1619 32.9455 37.1886C33.7536 37.3362 34.6599 37.806 35.2378 38.3766C35.746 38.8784 36.0353 39.3525 37.0147 41.2885C38.3707 43.9689 38.5472 44.2959 38.7559 44.515C38.8975 44.6637 38.9696 44.6732 39.2483 44.5799ZM10.6653 42.0215C10.8607 41.8372 11.1098 41.4199 11.6291 40.4076C11.8766 39.925 12.1909 39.3169 12.3276 39.0561C12.4643 38.7954 12.8039 38.122 13.0822 37.5598C14.0349 35.6352 14.4899 34.9025 15.0983 34.3128C15.967 33.4708 17.298 32.8751 18.4905 32.7947L18.7871 32.7746L15.5622 30.7858C13.7884 29.692 12.334 28.7996 12.3302 28.8028C12.3263 28.8059 12.3772 28.9409 12.4432 29.1027C12.7036 29.7405 12.831 30.4345 12.8292 31.2043C12.827 32.1317 12.6763 32.7893 12.2872 33.5709C11.9565 34.235 11.6158 34.7483 10.525 36.2265C10.1582 36.7235 9.71357 37.3369 9.53695 37.5895C9.36034 37.842 9.0258 38.3119 8.79355 38.6336C7.87375 39.9074 7.68026 40.2686 7.77864 40.5283C7.96649 41.0241 9.75086 42.148 10.3558 42.1514C10.5177 42.1524 10.5337 42.1456 10.6653 42.0215ZM31.2257 40.878C32.5634 40.8152 33.6965 40.6394 35.0429 40.2858C35.3032 40.2174 35.5327 40.1513 35.5527 40.1388C35.6388 40.0853 35.0263 39.1904 34.6767 38.859C34.1818 38.3898 33.3969 38.0037 32.6949 37.8842C32.1673 37.7944 31.4257 37.8586 30.9269 38.0374C30.5238 38.1819 30.1067 38.1839 29.4223 38.0449C27.5555 37.6655 25.6946 36.2747 24.3332 34.2413C24.1859 34.0213 24.0011 33.728 23.9225 33.5895C23.8439 33.4509 23.7664 33.3286 23.7503 33.3175C23.7342 33.3065 23.687 33.3148 23.6455 33.336C23.5082 33.406 22.8785 33.6177 22.5852 33.6924C22.0876 33.8192 21.5645 33.8944 21.1672 33.8962C20.8157 33.8978 20.7844 33.8928 20.4887 33.7883C19.2524 33.3514 17.9576 33.4372 16.7731 34.0345C16.2703 34.2881 15.6486 34.7488 15.4231 35.035L15.3286 35.1549L15.6756 35.3749C17.6266 36.6121 21.1249 38.4419 23.1386 39.2784C25.3173 40.1835 27.3904 40.7074 29.3486 40.8478C29.7555 40.877 29.9561 40.8868 30.4395 40.9014C30.5368 40.9043 30.8906 40.8938 31.2257 40.878ZM30.6016 37.3707C30.7896 37.3008 38.2174 32.7006 38.3485 32.5729C38.5205 32.4054 38.702 31.9343 38.8265 31.3322C39.155 29.744 38.7601 27.7647 37.751 25.942C37.2454 25.0288 36.6608 24.2631 35.853 23.4561C35.1023 22.7062 34.5215 22.2559 33.7415 21.8193C32.9637 21.3839 31.9369 21.0364 31.1765 20.9514L30.9996 20.9317L30.9974 21.6828C30.9951 22.4545 30.9566 22.9169 30.8347 23.6336C30.7007 24.4215 30.3704 25.5449 30.0535 26.2907C29.8934 26.6672 29.3326 27.7827 29.2516 27.8858C29.2387 27.9021 29.1305 28.0821 29.0109 28.2858C28.0732 29.8837 26.9482 31.1767 25.6338 32.1673C25.2989 32.4197 24.7877 32.757 24.5019 32.9141L24.4099 32.9647L24.5625 33.2252C25.3463 34.5637 26.3988 35.7134 27.506 36.4405C28.0504 36.798 28.7269 37.1128 29.2454 37.2499C29.7959 37.3954 30.3923 37.4486 30.6016 37.3707ZM21.8306 33.1007C23.0047 32.8987 24.1026 32.4052 25.1961 31.5879C26.4587 30.6444 27.6369 29.2632 28.4934 27.7228C28.5885 27.5517 28.7224 27.3174 28.7909 27.2021C29.2432 26.4409 29.6754 25.361 29.9201 24.381C30.6162 21.5923 30.2758 18.9803 28.9216 16.7204C27.5163 14.3752 25.3337 12.9168 22.5827 12.485C22.2479 12.4325 22.0479 12.4222 21.3294 12.4208C20.4346 12.419 20.2391 12.4354 19.5407 12.5703C17.0858 13.0448 14.6571 14.7126 12.8057 17.1953C11.6978 18.6809 10.8515 20.5216 10.513 22.1821C10.3684 22.8918 10.3348 23.2401 10.3346 24.0339C10.3343 24.8651 10.3698 25.1784 10.5389 25.8413C10.7151 26.5319 10.8851 26.9282 11.0902 27.127C11.2613 27.2929 20.5968 33.0478 20.8134 33.1209C21.0027 33.1848 21.3858 33.1772 21.8306 33.1007ZM29.3362 22.7574C29.3376 22.7228 29.3446 22.7158 29.354 22.7395C29.3625 22.7608 29.3615 22.7864 29.3517 22.7963C29.3419 22.8061 29.3349 22.7886 29.3362 22.7574ZM29.4247 22.224C29.4261 22.1895 29.4331 22.1825 29.4425 22.2061C29.451 22.2275 29.4499 22.2531 29.4401 22.2629C29.4303 22.2728 29.4234 22.2553 29.4247 22.224ZM29.4565 21.9746C29.4565 21.9339 29.4632 21.9172 29.4713 21.9376C29.4795 21.958 29.4795 21.9913 29.4713 22.0117C29.4632 22.0321 29.4565 22.0154 29.4565 21.9746ZM29.487 21.6932C29.4876 21.6443 29.4942 21.6279 29.5017 21.6567C29.5092 21.6855 29.5087 21.7255 29.5006 21.7456C29.4926 21.7656 29.4864 21.7421 29.487 21.6932ZM29.5188 21.2932C29.5188 21.2198 29.5246 21.1898 29.5316 21.2265C29.5386 21.2632 29.5386 21.3232 29.5316 21.3598C29.5246 21.3965 29.5188 21.3665 29.5188 21.2932ZM2.39298 25.9549C2.27585 25.8968 2.19031 25.793 2.15563 25.6668C2.14112 25.614 2.14077 25.3091 2.15481 24.9665C2.33514 20.5714 3.70979 16.3428 6.14709 12.6858C6.32087 12.425 6.57285 12.0633 6.70705 11.8819C6.9178 11.597 6.96948 11.545 7.08623 11.5002C7.39129 11.3831 7.68456 11.5665 7.71587 11.894C7.73286 12.0718 7.73181 12.0738 7.35955 12.5955C5.68811 14.9377 4.47777 17.5475 3.77097 20.3335C3.38669 21.8482 3.17315 23.3063 3.09196 24.97C3.06237 25.5764 3.05046 25.6775 2.99712 25.7746C2.88753 25.9743 2.60332 26.059 2.39298 25.9549ZM34.9451 18.832C33.5306 18.6943 32.3024 17.6212 31.9398 16.2061C31.847 15.8436 31.814 15.2321 31.8675 14.8643C31.9492 14.3026 32.1881 13.7127 32.5106 13.2764C33.4708 11.977 35.1504 11.5077 36.6601 12.1169C37.3645 12.4012 38.0458 13.0288 38.4068 13.7262C39.1216 15.107 38.8466 16.7968 37.732 17.8727C37.165 18.4201 36.4364 18.7571 35.6551 18.8335C35.3289 18.8653 35.2868 18.8653 34.9451 18.832ZM35.6926 18.091C36.868 17.9288 37.8082 17.0164 38.0335 15.8193C38.0862 15.5392 38.0529 14.8741 37.9722 14.5969C37.8998 14.3482 37.7308 13.9892 37.5877 13.7801C37.2285 13.2555 36.6353 12.8405 35.9969 12.6672C35.6398 12.5703 35.0036 12.5706 34.6408 12.668C33.5877 12.9505 32.7957 13.8109 32.6079 14.8764C32.5681 15.1023 32.5681 15.6025 32.6079 15.8285C32.8367 17.1264 33.9638 18.0927 35.2799 18.1191C35.38 18.1211 35.5658 18.1085 35.6926 18.091ZM41.8275 10.9357C41.7385 10.8871 41.6576 10.7534 41.6576 10.6548C41.6576 10.55 41.7399 10.4476 42.0527 10.1634L42.3504 9.89287L42.5688 9.11154C42.8077 8.25704 42.8326 8.19087 42.9413 8.11926C43.0383 8.05536 43.2316 8.08065 43.3258 8.16955C43.4497 8.28649 43.4414 8.37177 43.239 9.0632C43.0619 9.66815 43.0542 9.70643 43.1132 9.69286C43.2449 9.66252 44.3415 9.50057 44.4151 9.50057C44.4613 9.50057 44.5272 9.53548 44.5786 9.58718C44.6483 9.65722 44.6648 9.69928 44.6648 9.80698C44.6648 9.98041 44.6447 10.0275 44.5498 10.0768C44.5067 10.0992 44.1136 10.1724 43.6763 10.2394C43.2389 10.3065 42.8546 10.3671 42.8221 10.3742C42.7897 10.3813 42.6438 10.4954 42.4978 10.6278C42.0927 10.9954 42.0082 11.0342 41.8275 10.9357ZM9.74857 10.5746C9.07333 9.93016 8.14553 9.01139 8.11486 8.95685C8.06876 8.87486 8.06924 8.76278 8.11604 8.67807C8.13638 8.64125 8.33824 8.42284 8.5646 8.1927C9.05723 7.69187 9.17626 7.62049 9.48701 7.63953C9.75186 7.65575 9.87879 7.72307 10.1437 7.98778C10.4063 8.25031 10.4798 8.41556 10.4595 8.69786C10.4434 8.92218 10.3555 9.08552 10.1155 9.33761C10.0068 9.45168 9.88577 9.58208 9.84647 9.62738L9.77501 9.70975L10.0751 10.0126C10.404 10.3443 10.4473 10.4308 10.3649 10.591C10.3004 10.7163 10.2075 10.7746 10.0723 10.7746C9.97166 10.7746 9.93325 10.7509 9.74857 10.5746ZM9.81863 8.69523C9.849 8.62156 9.84389 8.59979 9.77491 8.5089C9.67656 8.37931 9.51749 8.25613 9.44851 8.25613C9.41949 8.25613 9.27119 8.37887 9.11897 8.52889L8.84221 8.80166L9.0707 9.03263L9.29918 9.26361L9.54172 9.02113C9.67511 8.88777 9.79972 8.74111 9.81863 8.69523ZM40.476 9.53248C40.3918 9.4478 40.3899 9.43904 40.3906 9.13989C40.3911 8.9716 40.4102 8.48094 40.4332 8.04954C40.4562 7.61814 40.4706 7.26075 40.4652 7.25533C40.4598 7.24992 40.2404 7.49799 39.9775 7.80661C39.7147 8.11523 39.4672 8.38262 39.4274 8.40082C39.1683 8.51946 38.8769 8.22842 39.0081 7.98205C39.0627 7.87959 40.62 6.06869 40.6824 6.03512C40.7924 5.97598 40.9378 5.9987 41.0353 6.09024C41.1259 6.17523 41.1269 6.1795 41.1264 6.46801C41.1261 6.62852 41.1069 7.12611 41.0838 7.57379C41.0606 8.02147 41.0443 8.38959 41.0474 8.39182C41.0506 8.39405 41.2655 8.1455 41.5249 7.83947C41.8023 7.51226 42.0367 7.26294 42.0938 7.23421C42.2245 7.16855 42.3409 7.19833 42.4524 7.32591C42.5468 7.43399 42.5646 7.53557 42.5081 7.64326C42.4693 7.71708 41.159 9.2646 40.9543 9.47835C40.8339 9.60406 40.8058 9.61909 40.6909 9.61909C40.588 9.61909 40.5449 9.60175 40.476 9.53248ZM43.9972 9.02856C43.8323 8.95693 43.7858 8.70716 43.9104 8.56148C43.9776 8.48278 43.9977 8.47751 44.2863 8.46265C44.66 8.44339 44.7679 8.46721 44.8269 8.58196C44.8975 8.71905 44.8831 8.84126 44.785 8.93989C44.7131 9.01219 44.6748 9.0265 44.5535 9.0265C44.4735 9.0265 44.3299 9.03313 44.2343 9.04125C44.1386 9.04936 44.032 9.04365 43.9972 9.02856ZM11.7092 8.95284C11.6213 8.87853 10.1861 7.11508 10.1197 6.99974C10.0655 6.90576 10.0747 6.79162 10.1436 6.7036C10.2421 6.57781 10.9893 5.97903 11.1548 5.89334C11.2745 5.83135 11.3475 5.81525 11.5117 5.81467C11.7798 5.81372 11.9769 5.91608 12.1808 6.16223C12.4431 6.47891 12.5353 6.74954 12.4703 7.01168C12.4522 7.08502 12.4347 7.16269 12.4315 7.18429C12.4277 7.20954 12.5678 7.27557 12.8237 7.36915C13.2656 7.53078 13.3543 7.59789 13.3543 7.77036C13.3543 7.97281 13.2319 8.10798 13.0486 8.10798C13.0123 8.10798 12.7449 8.02063 12.4544 7.91387C11.8815 7.70337 11.876 7.70295 11.73 7.85917L11.6663 7.92726L11.8578 8.15836C12.2155 8.58999 12.2513 8.67186 12.1598 8.84969C12.1097 8.9471 11.9792 9.0265 11.8692 9.0265C11.8291 9.0265 11.7571 8.99335 11.7092 8.95284ZM11.5201 7.2058C11.6496 7.10072 11.7836 6.97904 11.8177 6.9354L11.8798 6.85606L11.8139 6.73827C11.7777 6.67348 11.6973 6.57438 11.6352 6.51804L11.5224 6.41561L11.4168 6.47823C11.2666 6.56729 10.8744 6.89788 10.8843 6.92713C10.9003 6.97459 11.24 7.39687 11.2622 7.39687C11.2746 7.39687 11.3906 7.31089 11.5201 7.2058ZM38.1877 7.71031L38.1049 7.63857L38.1128 7.13994C38.1171 6.8657 38.1279 6.58046 38.1369 6.50609L38.1532 6.37086L38.0111 6.28257L37.8691 6.19428L37.6432 6.54125C37.519 6.73208 37.3906 6.90267 37.3577 6.92032C37.152 7.03096 36.8814 6.88445 36.8814 6.66245C36.8814 6.55838 36.9602 6.42383 37.5466 5.52619C37.9124 4.96617 38.2441 4.47495 38.2836 4.43458C38.4206 4.29472 38.5234 4.32512 39.0345 4.6568C39.5668 5.00219 39.7405 5.16109 39.81 5.36615C39.902 5.63761 39.8659 5.85836 39.6786 6.16894C39.4663 6.52093 39.2333 6.68396 38.941 6.68511C38.8169 6.68558 38.7701 6.69767 38.7567 6.73262C38.7469 6.7584 38.7385 6.9284 38.7381 7.1104C38.7369 7.66554 38.6805 7.78205 38.4129 7.78205C38.3045 7.78205 38.2505 7.76485 38.1877 7.71031ZM39.0493 5.96818C39.0932 5.91574 39.1565 5.81617 39.19 5.74691C39.2502 5.62231 39.2502 5.6203 39.1938 5.55699C39.1482 5.50582 38.7563 5.22682 38.6023 5.13595C38.5602 5.11112 38.2199 5.64342 38.2561 5.67747C38.3525 5.76817 38.8463 6.06353 38.9016 6.06353C38.9418 6.06353 39.0019 6.02471 39.0493 5.96818ZM13.7257 7.23139C13.4995 7.15882 13.3007 6.93145 12.9335 6.32529C12.7591 6.0374 12.5949 5.74407 12.5685 5.67344C12.542 5.60215 12.52 5.45274 12.5192 5.33761C12.5165 4.96996 12.6576 4.78111 13.1875 4.44309C13.6492 4.14859 13.8613 4.06794 14.126 4.08619C14.4944 4.11157 14.6419 4.24468 15.0713 4.93915C15.4852 5.60855 15.5174 5.67984 15.531 5.9545C15.5456 6.24946 15.4903 6.40298 15.3009 6.59334C15.1531 6.74187 14.6744 7.05265 14.3963 7.18058C14.1904 7.27534 13.9252 7.29543 13.7257 7.23139ZM14.1946 6.57386C14.3714 6.48364 14.7567 6.23448 14.8358 6.15922C14.9731 6.0286 14.9522 5.95957 14.6022 5.38839C14.205 4.74037 14.1429 4.6721 13.9922 4.71784C13.9001 4.74577 13.3106 5.10923 13.2191 5.19449C13.0931 5.31182 13.1285 5.42555 13.4586 5.96455C13.911 6.70332 13.9224 6.71275 14.1946 6.57386ZM35.5989 6.09651C35.3145 5.99274 34.7828 5.70422 34.651 5.58211C34.487 5.43022 34.4047 5.27335 34.3842 5.07374C34.3579 4.81802 34.4218 4.61793 34.7294 3.99204C35.1204 3.19639 35.2811 3.02562 35.6726 2.98995C35.8898 2.97016 36.0761 3.02587 36.5372 3.24853C37.1388 3.539 37.3392 3.7739 37.3337 4.18205C37.3304 4.43374 37.2894 4.54737 36.9567 5.22716C36.6863 5.77971 36.5241 5.99674 36.3065 6.09686C36.1485 6.16956 35.7987 6.16939 35.5989 6.09651ZM36.1087 5.46268C36.2085 5.35598 36.7045 4.3026 36.7045 4.1975C36.7045 4.06239 36.608 3.9836 36.2135 3.79659C35.7876 3.59471 35.7509 3.58477 35.6574 3.64632C35.5797 3.69746 35.0922 4.63806 35.0229 4.87031C34.9664 5.05986 35.019 5.11481 35.4717 5.33921C35.8948 5.54893 36.0077 5.57081 36.1087 5.46268ZM16.7324 5.70057C16.6862 5.65926 16.4991 5.28463 16.2405 4.71539C16.0109 4.2102 15.8135 3.78607 15.8017 3.77287C15.7898 3.75966 15.6455 3.80966 15.481 3.88398C15.1213 4.04644 15.0078 4.05568 14.8852 3.93248C14.8133 3.86031 14.799 3.82166 14.799 3.70061C14.799 3.5876 14.8137 3.54195 14.8653 3.49499C14.9235 3.4421 16.5099 2.69427 16.7218 2.61985C16.8349 2.58016 16.9862 2.63701 17.0482 2.74242C17.1139 2.85425 17.1133 3.04673 17.047 3.12625C17.0187 3.16028 16.8546 3.25233 16.6824 3.33079L16.3693 3.47344L16.7963 4.40553C17.0311 4.91817 17.2301 5.38724 17.2384 5.44789C17.2517 5.54446 17.2406 5.57118 17.1496 5.66271C17.0204 5.79251 16.8525 5.80776 16.7324 5.70057ZM18.488 4.97465C18.4181 4.90813 18.3259 4.6767 17.9863 3.71485C17.7575 3.06677 17.5703 2.5174 17.5703 2.49402C17.5703 2.40946 17.6425 2.29524 17.722 2.2539C17.8341 2.19564 18.0219 2.20045 18.0984 2.26353C18.1415 2.2991 18.282 2.65514 18.5457 3.39687C19.0673 4.86429 19.0281 4.73021 18.9739 4.86056C18.8933 5.0545 18.6356 5.11501 18.488 4.97465ZM33.0929 5.00567C32.8474 4.94759 31.83 4.59761 31.771 4.5509C31.6261 4.43637 31.6324 4.40395 32.0496 3.12556C32.4671 1.84643 32.504 1.76724 32.6833 1.76724C32.8375 1.76724 33.9457 2.15456 34.0877 2.25808C34.2602 2.38393 34.3558 2.57762 34.3557 2.80161C34.3557 3.00129 34.2504 3.33589 34.1499 3.456C34.0847 3.53384 34.0804 3.55438 34.1082 3.65502C34.2102 4.02418 34.007 4.67784 33.7281 4.87737C33.5608 4.9971 33.2889 5.05203 33.0929 5.00567ZM33.4369 4.20745C33.5305 3.9948 33.5381 3.88564 33.464 3.82175C33.4292 3.79177 33.2171 3.70545 32.9925 3.62993L32.5842 3.49263L32.4895 3.8026C32.4374 3.97309 32.3993 4.11639 32.4048 4.12105C32.4208 4.13463 33.1459 4.36975 33.2108 4.38241C33.3067 4.40111 33.3748 4.34836 33.4369 4.20745ZM33.6686 3.0339C33.7347 2.88747 33.7418 2.79384 33.6899 2.75271C33.6697 2.73666 33.4898 2.6691 33.2903 2.60259C33.0362 2.51785 32.9238 2.49226 32.9148 2.51705C32.9077 2.53651 32.8762 2.62831 32.8448 2.72106L32.7877 2.88969L33.1762 3.02242C33.3898 3.09542 33.5752 3.15621 33.5882 3.15749C33.6011 3.15877 33.6373 3.10316 33.6686 3.0339ZM20.3812 4.42545C20.3192 4.39039 20.0705 4.07227 19.1428 2.84162C18.7401 2.30743 18.6907 2.22938 18.6907 2.1271C18.6907 2.05613 18.7138 1.98272 18.7512 1.93491C18.8289 1.83573 19.0013 1.78137 19.1081 1.82243C19.1597 1.84229 19.3859 2.11556 19.7714 2.62383C20.0932 3.04803 20.3648 3.3955 20.3751 3.39598C20.3854 3.39646 20.4028 3.31353 20.4138 3.21168C20.4248 3.10983 20.4833 2.67696 20.5438 2.24975C20.6422 1.55488 20.6612 1.46509 20.724 1.3979C20.7806 1.33732 20.8222 1.32279 20.9388 1.32279C21.0592 1.32279 21.0977 1.33723 21.1695 1.4094C21.2285 1.46871 21.2557 1.52563 21.2557 1.58997C21.2557 1.74556 20.8724 4.22378 20.8358 4.30435C20.7722 4.44465 20.5295 4.5093 20.3812 4.42545ZM29.9759 4.15068C29.8129 4.0618 29.8024 3.95089 29.906 3.41544L29.9741 3.06365L29.6819 2.29268C29.5212 1.86865 29.3821 1.48371 29.3729 1.43725C29.3498 1.32127 29.4139 1.18052 29.5135 1.1288C29.644 1.06098 29.8132 1.07336 29.8909 1.15642C29.9272 1.19529 30.0552 1.48929 30.1752 1.80975C30.2953 2.13021 30.4016 2.40539 30.4113 2.42126C30.4211 2.43714 30.6437 2.22869 30.906 1.95804C31.3417 1.50843 31.3933 1.46461 31.5035 1.45037C31.6082 1.43683 31.638 1.44707 31.7299 1.52818C31.8497 1.63384 31.8865 1.7478 31.8403 1.86983C31.823 1.91562 31.5355 2.23055 31.2015 2.56968L30.5942 3.18627L30.5117 3.59527C30.4113 4.09244 30.4087 4.09944 30.3047 4.15352C30.1996 4.20812 30.0793 4.20709 29.9759 4.15068ZM21.945 4.06107C21.8526 4.01522 21.7863 3.91286 21.7863 3.81578C21.7863 3.74279 22.4287 1.24177 22.4649 1.17377C22.549 1.01591 22.8422 0.969584 22.9751 1.09316C23.0333 1.14728 24.1258 3.01102 24.303 3.35836C24.358 3.46617 24.3657 3.61083 24.321 3.69481C24.2559 3.81701 24.0091 3.88135 23.8774 3.81048C23.8458 3.79352 23.7584 3.67301 23.683 3.54268C23.6077 3.41235 23.5382 3.30131 23.5286 3.29592C23.4974 3.27847 22.5469 3.42057 22.5236 3.44616C22.5111 3.45979 22.478 3.57676 22.45 3.7061C22.3705 4.07282 22.2043 4.18962 21.945 4.06107ZM22.9462 2.72962C23.0546 2.71795 23.1503 2.69706 23.1589 2.6832C23.1795 2.64967 22.8693 2.11816 22.8452 2.14576C22.8349 2.15757 22.7927 2.30482 22.7516 2.47298C22.7003 2.68213 22.6881 2.77432 22.7128 2.76478C22.7327 2.75711 22.8377 2.74129 22.9462 2.72962ZM27.3551 3.79678C27.3126 3.77359 27.2576 3.71079 27.2329 3.65722C27.1263 3.42616 26.3856 1.16363 26.3856 1.06892C26.3856 0.938218 26.4855 0.830739 26.6327 0.802978C26.783 0.774643 26.8806 0.807281 26.9393 0.905479C26.9672 0.952118 27.1227 1.38496 27.2848 1.86735C27.447 2.34974 27.5865 2.74456 27.5948 2.74472C27.6031 2.74472 27.8022 2.35705 28.0371 1.88286C28.272 1.40868 28.4903 1.00201 28.5223 0.97916C28.6018 0.922372 28.7746 0.926909 28.863 0.9881C29.103 1.15433 29.0919 1.1907 28.386 2.56477C27.7492 3.80432 27.7233 3.84248 27.5207 3.84001C27.4721 3.83942 27.3975 3.81997 27.3551 3.79678ZM24.7369 2.78147C24.6154 2.65937 24.6117 2.50841 24.7274 2.39212C24.8064 2.31274 24.8207 2.30989 25.236 2.2908C25.471 2.28 25.7671 2.27111 25.8941 2.27105C26.1099 2.27105 26.1304 2.27655 26.211 2.35755C26.3266 2.47377 26.3286 2.61991 26.2161 2.74637L26.135 2.83755L25.4813 2.85508L24.8276 2.87262L24.7369 2.78147ZM30.5109 1.26581C30.4452 1.19979 30.4247 1.15182 30.4247 1.06399C30.4247 0.931095 30.4546 0.893126 30.7448 0.65752C30.9088 0.524306 30.9679 0.493164 31.0564 0.493164C31.198 0.493164 31.2681 0.532809 31.3263 0.64579C31.4134 0.815229 31.3672 0.909947 31.0833 1.14387C30.8646 1.32414 30.8144 1.35242 30.7137 1.35242C30.6241 1.35242 30.5771 1.33233 30.5109 1.26581Z" fill="#F6F4F3" fill-opacity="0.2"/>
</g>
<defs>
<clipPath id="clip0_864_894">
<rect width="49" height="64" fill="white" transform="translate(0.765747 0.491699)"/>
</clipPath>
</defs>
</svg>
